<?xml version="1.0" encoding="UTF-8" standalone="no"?>
<!DOCTYPE svg PUBLIC "-//W3C//DTD SVG 1.1//EN"
 "http://www.w3.org/Graphics/SVG/1.1/DTD/svg11.dtd">
<!-- Generated by graphviz version 2.43.0 (0)
 -->
<!-- Title: regwatch_sameorigin Pages: 1 -->
<svg width="524pt" height="459pt"
 viewBox="0.00 0.00 524.40 458.65" xmlns="http://www.w3.org/2000/svg" xmlns:xlink="http://www.w3.org/1999/xlink">
<g id="graph0" class="graph" transform="scale(1 1) rotate(0) translate(25.2 433.45)">
<title>regwatch_sameorigin</title>
<polygon fill="#0e121b" stroke="transparent" points="-25.2,25.2 -25.2,-433.45 499.2,-433.45 499.2,25.2 -25.2,25.2"/>
<text text-anchor="start" x="69.5" y="-393.25" font-family="Helvetica,Arial,sans-serif" font-weight="bold" font-size="15.00" fill="#e6e8eb">RegWatch — one origin, two kinds of response</text>
<text text-anchor="start" x="8" y="-382.25" font-family="Helvetica,Arial,sans-serif" font-size="10.00" fill="#9aa3b2">the SPA and the API answer on the same host, so the session cookie is first&#45;party and there is no CORS</text>
<text text-anchor="start" x="234.5" y="-368.25" font-family="Helvetica,Arial,sans-serif" font-size="15.00" fill="#e6e8eb"> </text>
<g id="clust1" class="cluster">
<title>cluster_svc</title>
<path fill="#0e121b" stroke="#3a4660" stroke-width="1.5" d="M37,-79.25C37,-79.25 437,-79.25 437,-79.25 443,-79.25 449,-85.25 449,-91.25 449,-91.25 449,-258.25 449,-258.25 449,-264.25 443,-270.25 437,-270.25 437,-270.25 37,-270.25 37,-270.25 31,-270.25 25,-264.25 25,-258.25 25,-258.25 25,-91.25 25,-91.25 25,-85.25 31,-79.25 37,-79.25"/>
<text text-anchor="start" x="33" y="-257.65" font-family="Helvetica,Arial,sans-serif" font-weight="bold" font-size="12.00" fill="#c9cace">One origin · one Cloud Run Service (gunicorn)</text>
</g>
<!-- browser -->
<g id="node1" class="node">
<title>browser</title>
<path fill="#231c10" stroke="#d8a657" stroke-width="1.7" d="M313,-360.25C313,-360.25 125,-360.25 125,-360.25 119,-360.25 113,-354.25 113,-348.25 113,-348.25 113,-330.25 113,-330.25 113,-324.25 119,-318.25 125,-318.25 125,-318.25 313,-318.25 313,-318.25 319,-318.25 325,-324.25 325,-330.25 325,-330.25 325,-348.25 325,-348.25 325,-354.25 319,-360.25 313,-360.25"/>
<text text-anchor="middle" x="219" y="-342.45" font-family="Helvetica,Arial,sans-serif" font-size="11.00" fill="#f4e8cf">Browser · Svelte 5 SPA</text>
<text text-anchor="middle" x="219" y="-330.45" font-family="Helvetica,Arial,sans-serif" font-size="11.00" fill="#f4e8cf">sends session cookie + X&#45;CSRFToken</text>
</g>
<!-- urls -->
<g id="node2" class="node">
<title>urls</title>
<path fill="#16233a" stroke="#60a5fa" stroke-width="1.5" d="M274.5,-231.25C274.5,-231.25 163.5,-231.25 163.5,-231.25 157.5,-231.25 151.5,-225.25 151.5,-219.25 151.5,-219.25 151.5,-201.25 151.5,-201.25 151.5,-195.25 157.5,-189.25 163.5,-189.25 163.5,-189.25 274.5,-189.25 274.5,-189.25 280.5,-189.25 286.5,-195.25 286.5,-201.25 286.5,-201.25 286.5,-219.25 286.5,-219.25 286.5,-225.25 280.5,-231.25 274.5,-231.25"/>
<text text-anchor="middle" x="219" y="-213.45" font-family="Helvetica,Arial,sans-serif" font-size="11.00" fill="#e7eefc">Django URLconf</text>
<text text-anchor="middle" x="219" y="-201.45" font-family="Helvetica,Arial,sans-serif" font-size="11.00" fill="#e7eefc">matches top to bottom</text>
</g>
<!-- browser&#45;&gt;urls -->
<g id="edge1" class="edge">
<title>browser&#45;&gt;urls</title>
<path fill="none" stroke="#8b93a7" stroke-width="1.3" d="M219,-318.13C219,-296.95 219,-263.44 219,-239.59"/>
<polygon fill="#8b93a7" stroke="#8b93a7" stroke-width="1.3" points="221.8,-239.28 219,-231.28 216.2,-239.28 221.8,-239.28"/>
<text text-anchor="middle" x="279.5" y="-291.05" font-family="Helvetica,Arial,sans-serif" font-size="9.00" fill="#9aa3b2">every request</text>
<text text-anchor="middle" x="279.5" y="-281.05" font-family="Helvetica,Arial,sans-serif" font-size="9.00" fill="#9aa3b2">(cookie + CSRF, same&#45;origin)</text>
</g>
<!-- api -->
<g id="node3" class="node">
<title>api</title>
<path fill="#122033" stroke="#60a5fa" stroke-width="1.5" d="M248.5,-139.25C248.5,-139.25 55.5,-139.25 55.5,-139.25 49.5,-139.25 43.5,-133.25 43.5,-127.25 43.5,-127.25 43.5,-109.25 43.5,-109.25 43.5,-103.25 49.5,-97.25 55.5,-97.25 55.5,-97.25 248.5,-97.25 248.5,-97.25 254.5,-97.25 260.5,-103.25 260.5,-109.25 260.5,-109.25 260.5,-127.25 260.5,-127.25 260.5,-133.25 254.5,-139.25 248.5,-139.25"/>
<text text-anchor="middle" x="152" y="-121.45" font-family="Helvetica,Arial,sans-serif" font-size="11.00" fill="#e7eefc">/api/* &#160;→ &#160;DRF</text>
<text text-anchor="middle" x="152" y="-109.45" font-family="Helvetica,Arial,sans-serif" font-size="11.00" fill="#e7eefc">session auth · workspace&#45;scoped views</text>
</g>
<!-- urls&#45;&gt;api -->
<g id="edge2" class="edge">
<title>urls&#45;&gt;api</title>
<path fill="none" stroke="#8b93a7" stroke-width="1.3" d="M199.59,-189.09C194,-182.92 188.05,-175.97 183,-169.25 177.67,-162.14 172.38,-154.09 167.72,-146.56"/>
<polygon fill="#8b93a7" stroke="#8b93a7" stroke-width="1.3" points="169.83,-144.65 163.29,-139.25 165.04,-147.55 169.83,-144.65"/>
<text text-anchor="middle" x="222.5" y="-162.05" font-family="Helvetica,Arial,sans-serif" font-size="9.00" fill="#9aa3b2">path starts with api/</text>
</g>
<!-- spa -->
<g id="node4" class="node">
<title>spa</title>
<path fill="#122033" stroke="#60a5fa" stroke-width="1.5" d="M418.5,-139.25C418.5,-139.25 301.5,-139.25 301.5,-139.25 295.5,-139.25 289.5,-133.25 289.5,-127.25 289.5,-127.25 289.5,-109.25 289.5,-109.25 289.5,-103.25 295.5,-97.25 301.5,-97.25 301.5,-97.25 418.5,-97.25 418.5,-97.25 424.5,-97.25 430.5,-103.25 430.5,-109.25 430.5,-109.25 430.5,-127.25 430.5,-127.25 430.5,-133.25 424.5,-139.25 418.5,-139.25"/>
<text text-anchor="middle" x="360" y="-121.45" font-family="Helvetica,Arial,sans-serif" font-size="11.00" fill="#e7eefc">(?!api/) &#160;→ &#160;WhiteNoise</text>
<text text-anchor="middle" x="360" y="-109.45" font-family="Helvetica,Arial,sans-serif" font-size="11.00" fill="#e7eefc">index.html + /assets/*</text>
</g>
<!-- urls&#45;&gt;spa -->
<g id="edge3" class="edge">
<title>urls&#45;&gt;spa</title>
<path fill="none" stroke="#8b93a7" stroke-width="1.3" d="M250.64,-189.05C271.6,-175.68 299.21,-158.05 321.45,-143.86"/>
<polygon fill="#8b93a7" stroke="#8b93a7" stroke-width="1.3" points="323.23,-146.04 328.46,-139.38 320.21,-141.32 323.23,-146.04"/>
<text text-anchor="middle" x="353.5" y="-162.05" font-family="Helvetica,Arial,sans-serif" font-size="9.00" fill="#9aa3b2">everything else (SPA fallback)</text>
</g>
<!-- db -->
<g id="node5" class="node">
<title>db</title>
<path fill="#16203a" stroke="#3a4a63" stroke-width="1.5" d="M217,-37.6C217,-39.68 187.87,-41.38 152,-41.38 116.13,-41.38 87,-39.68 87,-37.6 87,-37.6 87,-3.65 87,-3.65 87,-1.57 116.13,0.13 152,0.13 187.87,0.13 217,-1.57 217,-3.65 217,-3.65 217,-37.6 217,-37.6"/>
<path fill="none" stroke="#3a4a63" stroke-width="1.5" d="M217,-37.6C217,-35.52 187.87,-33.83 152,-33.83 116.13,-33.83 87,-35.52 87,-37.6"/>
<text text-anchor="middle" x="152" y="-17.82" font-family="Helvetica,Arial,sans-serif" font-size="11.00" fill="#cfe0f5">Postgres (Supabase)</text>
</g>
<!-- api&#45;&gt;db -->
<g id="edge4" class="edge">
<title>api&#45;&gt;db</title>
<path fill="none" stroke="#8b93a7" stroke-width="1.3" d="M152,-96.97C152,-83.19 152,-64.77 152,-49.59"/>
<polygon fill="#8b93a7" stroke="#8b93a7" stroke-width="1.3" points="154.8,-49.55 152,-41.55 149.2,-49.55 154.8,-49.55"/>
<text text-anchor="middle" x="184" y="-64.05" font-family="Helvetica,Arial,sans-serif" font-size="9.00" fill="#9aa3b2">scoped queries</text>
</g>
</g>
</svg>
