<?xml version="1.0" encoding="utf-8" standalone="no"?>
<!DOCTYPE svg PUBLIC "-//W3C//DTD SVG 1.1//EN"
  "http://www.w3.org/Graphics/SVG/1.1/DTD/svg11.dtd">
<svg xmlns:xlink="http://www.w3.org/1999/xlink" width="476.996719pt" height="295.366984pt" viewBox="0 0 476.996719 295.366984" xmlns="http://www.w3.org/2000/svg" version="1.1">
 <metadata>
  <rdf:RDF xmlns:dc="http://purl.org/dc/elements/1.1/" xmlns:cc="http://creativecommons.org/ns#" xmlns:rdf="http://www.w3.org/1999/02/22-rdf-syntax-ns#">
   <cc:Work>
    <dc:type rdf:resource="http://purl.org/dc/dcmitype/StillImage"/>
    <dc:date>2026-06-23T12:26:34.509342</dc:date>
    <dc:format>image/svg+xml</dc:format>
    <dc:creator>
     <cc:Agent>
      <dc:title>Matplotlib v3.11.0, https://matplotlib.org/</dc:title>
     </cc:Agent>
    </dc:creator>
   </cc:Work>
  </rdf:RDF>
 </metadata>
 <defs>
  <style type="text/css">*{stroke-linejoin: round; stroke-linecap: butt}</style>
 </defs>
 <g id="figure_1">
  <g id="patch_1">
   <path d="M 0 295.366984 
L 476.996719 295.366984 
L 476.996719 0 
L 0 0 
L 0 295.366984 
z
" style="fill: none"/>
  </g>
  <g id="axes_1">
   <g id="patch_2">
    <path d="M 43.198359 255.166125 
L 433.798359 255.166125 
L 433.798359 22.318125 
L 43.198359 22.318125 
L 43.198359 255.166125 
z
" style="fill: none"/>
   </g>
   <g id="matplotlib.axis_1">
    <g id="xtick_1">
     <g id="line2d_1">
      <path d="M 54.934415 255.166125 
L 54.934415 22.318125 
" clip-path="url(#p23cd740688)" style="fill: none; stroke: #7a8290; stroke-opacity: 0.18; stroke-width: 0.6; stroke-linecap: square"/>
     </g>
     <g id="line2d_2">
      <defs>
       <path id="m1fc4bd7663" d="M 0 0 
L 0 3.5 
" style="stroke: #7a8290; stroke-width: 0.8"/>
      </defs>
      <g>
       <use xlink:href="#m1fc4bd7663" x="54.934415" y="255.166125" style="fill: #7a8290; stroke: #7a8290; stroke-width: 0.8"/>
      </g>
     </g>
     <g id="text_1">
      <!-- 0 -->
      <g style="fill: #7a8290" transform="translate(51.43504 270.523547) scale(0.11 -0.11)">
       <defs>
        <path id="DejaVuSans-13" d="M 2034 4250 
Q 1547 4250 1301 3770 
Q 1056 3291 1056 2328 
Q 1056 1369 1301 889 
Q 1547 409 2034 409 
Q 2525 409 2770 889 
Q 3016 1369 3016 2328 
Q 3016 3291 2770 3770 
Q 2525 4250 2034 4250 
z
M 2034 4750 
Q 2819 4750 3233 4129 
Q 3647 3509 3647 2328 
Q 3647 1150 3233 529 
Q 2819 -91 2034 -91 
Q 1250 -91 836 529 
Q 422 1150 422 2328 
Q 422 3509 836 4129 
Q 1250 4750 2034 4750 
z
" transform="scale(0.015625)"/>
       </defs>
       <use xlink:href="#DejaVuSans-13"/>
      </g>
     </g>
    </g>
    <g id="xtick_2">
     <g id="line2d_3">
      <path d="M 105.088498 255.166125 
L 105.088498 22.318125 
" clip-path="url(#p23cd740688)" style="fill: none; stroke: #7a8290; stroke-opacity: 0.18; stroke-width: 0.6; stroke-linecap: square"/>
     </g>
     <g id="line2d_4">
      <g>
       <use xlink:href="#m1fc4bd7663" x="105.088498" y="255.166125" style="fill: #7a8290; stroke: #7a8290; stroke-width: 0.8"/>
      </g>
     </g>
     <g id="text_2">
      <!-- 5 -->
      <g style="fill: #7a8290" transform="translate(101.589123 270.523547) scale(0.11 -0.11)">
       <defs>
        <path id="DejaVuSans-18" d="M 691 4666 
L 3169 4666 
L 3169 4134 
L 1269 4134 
L 1269 2991 
Q 1406 3038 1543 3061 
Q 1681 3084 1819 3084 
Q 2600 3084 3056 2656 
Q 3513 2228 3513 1497 
Q 3513 744 3044 326 
Q 2575 -91 1722 -91 
Q 1428 -91 1123 -41 
Q 819 9 494 109 
L 494 744 
Q 775 591 1075 516 
Q 1375 441 1709 441 
Q 2250 441 2565 725 
Q 2881 1009 2881 1497 
Q 2881 1984 2565 2268 
Q 2250 2553 1709 2553 
Q 1456 2553 1204 2497 
Q 953 2441 691 2322 
L 691 4666 
z
" transform="scale(0.015625)"/>
       </defs>
       <use xlink:href="#DejaVuSans-18"/>
      </g>
     </g>
    </g>
    <g id="xtick_3">
     <g id="line2d_5">
      <path d="M 155.242581 255.166125 
L 155.242581 22.318125 
" clip-path="url(#p23cd740688)" style="fill: none; stroke: #7a8290; stroke-opacity: 0.18; stroke-width: 0.6; stroke-linecap: square"/>
     </g>
     <g id="line2d_6">
      <g>
       <use xlink:href="#m1fc4bd7663" x="155.242581" y="255.166125" style="fill: #7a8290; stroke: #7a8290; stroke-width: 0.8"/>
      </g>
     </g>
     <g id="text_3">
      <!-- 10 -->
      <g style="fill: #7a8290" transform="translate(148.243831 270.523547) scale(0.11 -0.11)">
       <defs>
        <path id="DejaVuSans-14" d="M 794 531 
L 1825 531 
L 1825 4091 
L 703 3866 
L 703 4441 
L 1819 4666 
L 2450 4666 
L 2450 531 
L 3481 531 
L 3481 0 
L 794 0 
L 794 531 
z
" transform="scale(0.015625)"/>
       </defs>
       <use xlink:href="#DejaVuSans-14"/>
       <use xlink:href="#DejaVuSans-13" transform="translate(63.625 0)"/>
      </g>
     </g>
    </g>
    <g id="xtick_4">
     <g id="line2d_7">
      <path d="M 205.396664 255.166125 
L 205.396664 22.318125 
" clip-path="url(#p23cd740688)" style="fill: none; stroke: #7a8290; stroke-opacity: 0.18; stroke-width: 0.6; stroke-linecap: square"/>
     </g>
     <g id="line2d_8">
      <g>
       <use xlink:href="#m1fc4bd7663" x="205.396664" y="255.166125" style="fill: #7a8290; stroke: #7a8290; stroke-width: 0.8"/>
      </g>
     </g>
     <g id="text_4">
      <!-- 15 -->
      <g style="fill: #7a8290" transform="translate(198.397914 270.523547) scale(0.11 -0.11)">
       <use xlink:href="#DejaVuSans-14"/>
       <use xlink:href="#DejaVuSans-18" transform="translate(63.625 0)"/>
      </g>
     </g>
    </g>
    <g id="xtick_5">
     <g id="line2d_9">
      <path d="M 255.550748 255.166125 
L 255.550748 22.318125 
" clip-path="url(#p23cd740688)" style="fill: none; stroke: #7a8290; stroke-opacity: 0.18; stroke-width: 0.6; stroke-linecap: square"/>
     </g>
     <g id="line2d_10">
      <g>
       <use xlink:href="#m1fc4bd7663" x="255.550748" y="255.166125" style="fill: #7a8290; stroke: #7a8290; stroke-width: 0.8"/>
      </g>
     </g>
     <g id="text_5">
      <!-- 20 -->
      <g style="fill: #7a8290" transform="translate(248.551998 270.523547) scale(0.11 -0.11)">
       <defs>
        <path id="DejaVuSans-15" d="M 1228 531 
L 3431 531 
L 3431 0 
L 469 0 
L 469 531 
Q 828 903 1448 1529 
Q 2069 2156 2228 2338 
Q 2531 2678 2651 2914 
Q 2772 3150 2772 3378 
Q 2772 3750 2511 3984 
Q 2250 4219 1831 4219 
Q 1534 4219 1204 4116 
Q 875 4013 500 3803 
L 500 4441 
Q 881 4594 1212 4672 
Q 1544 4750 1819 4750 
Q 2544 4750 2975 4387 
Q 3406 4025 3406 3419 
Q 3406 3131 3298 2873 
Q 3191 2616 2906 2266 
Q 2828 2175 2409 1742 
Q 1991 1309 1228 531 
z
" transform="scale(0.015625)"/>
       </defs>
       <use xlink:href="#DejaVuSans-15"/>
       <use xlink:href="#DejaVuSans-13" transform="translate(63.625 0)"/>
      </g>
     </g>
    </g>
    <g id="xtick_6">
     <g id="line2d_11">
      <path d="M 305.704831 255.166125 
L 305.704831 22.318125 
" clip-path="url(#p23cd740688)" style="fill: none; stroke: #7a8290; stroke-opacity: 0.18; stroke-width: 0.6; stroke-linecap: square"/>
     </g>
     <g id="line2d_12">
      <g>
       <use xlink:href="#m1fc4bd7663" x="305.704831" y="255.166125" style="fill: #7a8290; stroke: #7a8290; stroke-width: 0.8"/>
      </g>
     </g>
     <g id="text_6">
      <!-- 25 -->
      <g style="fill: #7a8290" transform="translate(298.706081 270.523547) scale(0.11 -0.11)">
       <use xlink:href="#DejaVuSans-15"/>
       <use xlink:href="#DejaVuSans-18" transform="translate(63.625 0)"/>
      </g>
     </g>
    </g>
    <g id="xtick_7">
     <g id="line2d_13">
      <path d="M 355.858914 255.166125 
L 355.858914 22.318125 
" clip-path="url(#p23cd740688)" style="fill: none; stroke: #7a8290; stroke-opacity: 0.18; stroke-width: 0.6; stroke-linecap: square"/>
     </g>
     <g id="line2d_14">
      <g>
       <use xlink:href="#m1fc4bd7663" x="355.858914" y="255.166125" style="fill: #7a8290; stroke: #7a8290; stroke-width: 0.8"/>
      </g>
     </g>
     <g id="text_7">
      <!-- 30 -->
      <g style="fill: #7a8290" transform="translate(348.860164 270.523547) scale(0.11 -0.11)">
       <defs>
        <path id="DejaVuSans-16" d="M 2597 2516 
Q 3050 2419 3304 2112 
Q 3559 1806 3559 1356 
Q 3559 666 3084 287 
Q 2609 -91 1734 -91 
Q 1441 -91 1130 -33 
Q 819 25 488 141 
L 488 750 
Q 750 597 1062 519 
Q 1375 441 1716 441 
Q 2309 441 2620 675 
Q 2931 909 2931 1356 
Q 2931 1769 2642 2001 
Q 2353 2234 1838 2234 
L 1294 2234 
L 1294 2753 
L 1863 2753 
Q 2328 2753 2575 2939 
Q 2822 3125 2822 3475 
Q 2822 3834 2567 4026 
Q 2313 4219 1838 4219 
Q 1578 4219 1281 4162 
Q 984 4106 628 3988 
L 628 4550 
Q 988 4650 1302 4700 
Q 1616 4750 1894 4750 
Q 2613 4750 3031 4423 
Q 3450 4097 3450 3541 
Q 3450 3153 3228 2886 
Q 3006 2619 2597 2516 
z
" transform="scale(0.015625)"/>
       </defs>
       <use xlink:href="#DejaVuSans-16"/>
       <use xlink:href="#DejaVuSans-13" transform="translate(63.625 0)"/>
      </g>
     </g>
    </g>
    <g id="xtick_8">
     <g id="line2d_15">
      <path d="M 406.012997 255.166125 
L 406.012997 22.318125 
" clip-path="url(#p23cd740688)" style="fill: none; stroke: #7a8290; stroke-opacity: 0.18; stroke-width: 0.6; stroke-linecap: square"/>
     </g>
     <g id="line2d_16">
      <g>
       <use xlink:href="#m1fc4bd7663" x="406.012997" y="255.166125" style="fill: #7a8290; stroke: #7a8290; stroke-width: 0.8"/>
      </g>
     </g>
     <g id="text_8">
      <!-- 35 -->
      <g style="fill: #7a8290" transform="translate(399.014247 270.523547) scale(0.11 -0.11)">
       <use xlink:href="#DejaVuSans-16"/>
       <use xlink:href="#DejaVuSans-18" transform="translate(63.625 0)"/>
      </g>
     </g>
    </g>
    <g id="text_9">
     <!-- Raw conversation size (thousands of tokens) -->
     <g style="fill: #7a8290" transform="translate(115.569922 285.524406) scale(0.11 -0.11)">
      <defs>
       <path id="DejaVuSans-35" d="M 2841 2188 
Q 3044 2119 3236 1894 
Q 3428 1669 3622 1275 
L 4263 0 
L 3584 0 
L 2988 1197 
Q 2756 1666 2539 1819 
Q 2322 1972 1947 1972 
L 1259 1972 
L 1259 0 
L 628 0 
L 628 4666 
L 2053 4666 
Q 2853 4666 3247 4331 
Q 3641 3997 3641 3322 
Q 3641 2881 3436 2590 
Q 3231 2300 2841 2188 
z
M 1259 4147 
L 1259 2491 
L 2053 2491 
Q 2509 2491 2742 2702 
Q 2975 2913 2975 3322 
Q 2975 3731 2742 3939 
Q 2509 4147 2053 4147 
L 1259 4147 
z
" transform="scale(0.015625)"/>
       <path id="DejaVuSans-44" d="M 2194 1759 
Q 1497 1759 1228 1600 
Q 959 1441 959 1056 
Q 959 750 1161 570 
Q 1363 391 1709 391 
Q 2188 391 2477 730 
Q 2766 1069 2766 1631 
L 2766 1759 
L 2194 1759 
z
M 3341 1997 
L 3341 0 
L 2766 0 
L 2766 531 
Q 2569 213 2275 61 
Q 1981 -91 1556 -91 
Q 1019 -91 701 211 
Q 384 513 384 1019 
Q 384 1609 779 1909 
Q 1175 2209 1959 2209 
L 2766 2209 
L 2766 2266 
Q 2766 2663 2505 2880 
Q 2244 3097 1772 3097 
Q 1472 3097 1187 3025 
Q 903 2953 641 2809 
L 641 3341 
Q 956 3463 1253 3523 
Q 1550 3584 1831 3584 
Q 2591 3584 2966 3190 
Q 3341 2797 3341 1997 
z
" transform="scale(0.015625)"/>
       <path id="DejaVuSans-5a" d="M 269 3500 
L 844 3500 
L 1563 769 
L 2278 3500 
L 2956 3500 
L 3675 769 
L 4391 3500 
L 4966 3500 
L 4050 0 
L 3372 0 
L 2619 2869 
L 1863 0 
L 1184 0 
L 269 3500 
z
" transform="scale(0.015625)"/>
       <path id="DejaVuSans-3" transform="scale(0.015625)"/>
       <path id="DejaVuSans-46" d="M 3122 3366 
L 3122 2828 
Q 2878 2963 2633 3030 
Q 2388 3097 2138 3097 
Q 1578 3097 1268 2742 
Q 959 2388 959 1747 
Q 959 1106 1268 751 
Q 1578 397 2138 397 
Q 2388 397 2633 464 
Q 2878 531 3122 666 
L 3122 134 
Q 2881 22 2623 -34 
Q 2366 -91 2075 -91 
Q 1284 -91 818 406 
Q 353 903 353 1747 
Q 353 2603 823 3093 
Q 1294 3584 2113 3584 
Q 2378 3584 2631 3529 
Q 2884 3475 3122 3366 
z
" transform="scale(0.015625)"/>
       <path id="DejaVuSans-52" d="M 1959 3097 
Q 1497 3097 1228 2736 
Q 959 2375 959 1747 
Q 959 1119 1226 758 
Q 1494 397 1959 397 
Q 2419 397 2687 759 
Q 2956 1122 2956 1747 
Q 2956 2369 2687 2733 
Q 2419 3097 1959 3097 
z
M 1959 3584 
Q 2709 3584 3137 3096 
Q 3566 2609 3566 1747 
Q 3566 888 3137 398 
Q 2709 -91 1959 -91 
Q 1206 -91 779 398 
Q 353 888 353 1747 
Q 353 2609 779 3096 
Q 1206 3584 1959 3584 
z
" transform="scale(0.015625)"/>
       <path id="DejaVuSans-51" d="M 3513 2113 
L 3513 0 
L 2938 0 
L 2938 2094 
Q 2938 2591 2744 2837 
Q 2550 3084 2163 3084 
Q 1697 3084 1428 2787 
Q 1159 2491 1159 1978 
L 1159 0 
L 581 0 
L 581 3500 
L 1159 3500 
L 1159 2956 
Q 1366 3272 1645 3428 
Q 1925 3584 2291 3584 
Q 2894 3584 3203 3211 
Q 3513 2838 3513 2113 
z
" transform="scale(0.015625)"/>
       <path id="DejaVuSans-59" d="M 191 3500 
L 800 3500 
L 1894 563 
L 2988 3500 
L 3597 3500 
L 2284 0 
L 1503 0 
L 191 3500 
z
" transform="scale(0.015625)"/>
       <path id="DejaVuSans-48" d="M 3597 1894 
L 3597 1613 
L 953 1613 
Q 991 1019 1311 708 
Q 1631 397 2203 397 
Q 2534 397 2845 478 
Q 3156 559 3463 722 
L 3463 178 
Q 3153 47 2828 -22 
Q 2503 -91 2169 -91 
Q 1331 -91 842 396 
Q 353 884 353 1716 
Q 353 2575 817 3079 
Q 1281 3584 2069 3584 
Q 2775 3584 3186 3129 
Q 3597 2675 3597 1894 
z
M 3022 2063 
Q 3016 2534 2758 2815 
Q 2500 3097 2075 3097 
Q 1594 3097 1305 2825 
Q 1016 2553 972 2059 
L 3022 2063 
z
" transform="scale(0.015625)"/>
       <path id="DejaVuSans-55" d="M 2631 2963 
Q 2534 3019 2420 3045 
Q 2306 3072 2169 3072 
Q 1681 3072 1420 2755 
Q 1159 2438 1159 1844 
L 1159 0 
L 581 0 
L 581 3500 
L 1159 3500 
L 1159 2956 
Q 1341 3275 1631 3429 
Q 1922 3584 2338 3584 
Q 2397 3584 2469 3576 
Q 2541 3569 2628 3553 
L 2631 2963 
z
" transform="scale(0.015625)"/>
       <path id="DejaVuSans-56" d="M 2834 3397 
L 2834 2853 
Q 2591 2978 2328 3040 
Q 2066 3103 1784 3103 
Q 1356 3103 1142 2972 
Q 928 2841 928 2578 
Q 928 2378 1081 2264 
Q 1234 2150 1697 2047 
L 1894 2003 
Q 2506 1872 2764 1633 
Q 3022 1394 3022 966 
Q 3022 478 2636 193 
Q 2250 -91 1575 -91 
Q 1294 -91 989 -36 
Q 684 19 347 128 
L 347 722 
Q 666 556 975 473 
Q 1284 391 1588 391 
Q 1994 391 2212 530 
Q 2431 669 2431 922 
Q 2431 1156 2273 1281 
Q 2116 1406 1581 1522 
L 1381 1569 
Q 847 1681 609 1914 
Q 372 2147 372 2553 
Q 372 3047 722 3315 
Q 1072 3584 1716 3584 
Q 2034 3584 2315 3537 
Q 2597 3491 2834 3397 
z
" transform="scale(0.015625)"/>
       <path id="DejaVuSans-57" d="M 1172 4494 
L 1172 3500 
L 2356 3500 
L 2356 3053 
L 1172 3053 
L 1172 1153 
Q 1172 725 1289 603 
Q 1406 481 1766 481 
L 2356 481 
L 2356 0 
L 1766 0 
Q 1100 0 847 248 
Q 594 497 594 1153 
L 594 3053 
L 172 3053 
L 172 3500 
L 594 3500 
L 594 4494 
L 1172 4494 
z
" transform="scale(0.015625)"/>
       <path id="DejaVuSans-4c" d="M 603 3500 
L 1178 3500 
L 1178 0 
L 603 0 
L 603 3500 
z
M 603 4863 
L 1178 4863 
L 1178 4134 
L 603 4134 
L 603 4863 
z
" transform="scale(0.015625)"/>
       <path id="DejaVuSans-5d" d="M 353 3500 
L 3084 3500 
L 3084 2975 
L 922 459 
L 3084 459 
L 3084 0 
L 275 0 
L 275 525 
L 2438 3041 
L 353 3041 
L 353 3500 
z
" transform="scale(0.015625)"/>
       <path id="DejaVuSans-b" d="M 1984 4856 
Q 1566 4138 1362 3434 
Q 1159 2731 1159 2009 
Q 1159 1288 1364 580 
Q 1569 -128 1984 -844 
L 1484 -844 
Q 1016 -109 783 600 
Q 550 1309 550 2009 
Q 550 2706 781 3412 
Q 1013 4119 1484 4856 
L 1984 4856 
z
" transform="scale(0.015625)"/>
       <path id="DejaVuSans-4b" d="M 3513 2113 
L 3513 0 
L 2938 0 
L 2938 2094 
Q 2938 2591 2744 2837 
Q 2550 3084 2163 3084 
Q 1697 3084 1428 2787 
Q 1159 2491 1159 1978 
L 1159 0 
L 581 0 
L 581 4863 
L 1159 4863 
L 1159 2956 
Q 1366 3272 1645 3428 
Q 1925 3584 2291 3584 
Q 2894 3584 3203 3211 
Q 3513 2838 3513 2113 
z
" transform="scale(0.015625)"/>
       <path id="DejaVuSans-58" d="M 544 1381 
L 544 3500 
L 1119 3500 
L 1119 1403 
Q 1119 906 1312 657 
Q 1506 409 1894 409 
Q 2359 409 2629 706 
Q 2900 1003 2900 1516 
L 2900 3500 
L 3475 3500 
L 3475 0 
L 2900 0 
L 2900 538 
Q 2691 219 2414 64 
Q 2138 -91 1772 -91 
Q 1169 -91 856 284 
Q 544 659 544 1381 
z
M 1991 3584 
L 1991 3584 
z
" transform="scale(0.015625)"/>
       <path id="DejaVuSans-47" d="M 2906 2969 
L 2906 4863 
L 3481 4863 
L 3481 0 
L 2906 0 
L 2906 525 
Q 2725 213 2448 61 
Q 2172 -91 1784 -91 
Q 1150 -91 751 415 
Q 353 922 353 1747 
Q 353 2572 751 3078 
Q 1150 3584 1784 3584 
Q 2172 3584 2448 3432 
Q 2725 3281 2906 2969 
z
M 947 1747 
Q 947 1113 1208 752 
Q 1469 391 1925 391 
Q 2381 391 2643 752 
Q 2906 1113 2906 1747 
Q 2906 2381 2643 2742 
Q 2381 3103 1925 3103 
Q 1469 3103 1208 2742 
Q 947 2381 947 1747 
z
" transform="scale(0.015625)"/>
       <path id="DejaVuSans-49" d="M 2375 4863 
L 2375 4384 
L 1825 4384 
Q 1516 4384 1395 4259 
Q 1275 4134 1275 3809 
L 1275 3500 
L 2222 3500 
L 2222 3053 
L 1275 3053 
L 1275 0 
L 697 0 
L 697 3053 
L 147 3053 
L 147 3500 
L 697 3500 
L 697 3744 
Q 697 4328 969 4595 
Q 1241 4863 1831 4863 
L 2375 4863 
z
" transform="scale(0.015625)"/>
       <path id="DejaVuSans-4e" d="M 581 4863 
L 1159 4863 
L 1159 1991 
L 2875 3500 
L 3609 3500 
L 1753 1863 
L 3688 0 
L 2938 0 
L 1159 1709 
L 1159 0 
L 581 0 
L 581 4863 
z
" transform="scale(0.015625)"/>
       <path id="DejaVuSans-c" d="M 513 4856 
L 1013 4856 
Q 1481 4119 1714 3412 
Q 1947 2706 1947 2009 
Q 1947 1309 1714 600 
Q 1481 -109 1013 -844 
L 513 -844 
Q 928 -128 1133 580 
Q 1338 1288 1338 2009 
Q 1338 2731 1133 3434 
Q 928 4138 513 4856 
z
" transform="scale(0.015625)"/>
      </defs>
      <use xlink:href="#DejaVuSans-35"/>
      <use xlink:href="#DejaVuSans-44" transform="translate(67.28125 0)"/>
      <use xlink:href="#DejaVuSans-5a" transform="translate(128.5625 0)"/>
      <use xlink:href="#DejaVuSans-3" transform="translate(210.34375 0)"/>
      <use xlink:href="#DejaVuSans-46" transform="translate(242.125 0)"/>
      <use xlink:href="#DejaVuSans-52" transform="translate(297.109375 0)"/>
      <use xlink:href="#DejaVuSans-51" transform="translate(358.296875 0)"/>
      <use xlink:href="#DejaVuSans-59" transform="translate(421.671875 0)"/>
      <use xlink:href="#DejaVuSans-48" transform="translate(480.859375 0)"/>
      <use xlink:href="#DejaVuSans-55" transform="translate(542.390625 0)"/>
      <use xlink:href="#DejaVuSans-56" transform="translate(583.5 0)"/>
      <use xlink:href="#DejaVuSans-44" transform="translate(635.59375 0)"/>
      <use xlink:href="#DejaVuSans-57" transform="translate(696.875 0)"/>
      <use xlink:href="#DejaVuSans-4c" transform="translate(736.078125 0)"/>
      <use xlink:href="#DejaVuSans-52" transform="translate(763.859375 0)"/>
      <use xlink:href="#DejaVuSans-51" transform="translate(825.046875 0)"/>
      <use xlink:href="#DejaVuSans-3" transform="translate(888.421875 0)"/>
      <use xlink:href="#DejaVuSans-56" transform="translate(920.203125 0)"/>
      <use xlink:href="#DejaVuSans-4c" transform="translate(972.296875 0)"/>
      <use xlink:href="#DejaVuSans-5d" transform="translate(1000.078125 0)"/>
      <use xlink:href="#DejaVuSans-48" transform="translate(1052.5625 0)"/>
      <use xlink:href="#DejaVuSans-3" transform="translate(1114.09375 0)"/>
      <use xlink:href="#DejaVuSans-b" transform="translate(1145.875 0)"/>
      <use xlink:href="#DejaVuSans-57" transform="translate(1184.890625 0)"/>
      <use xlink:href="#DejaVuSans-4b" transform="translate(1224.09375 0)"/>
      <use xlink:href="#DejaVuSans-52" transform="translate(1287.46875 0)"/>
      <use xlink:href="#DejaVuSans-58" transform="translate(1348.65625 0)"/>
      <use xlink:href="#DejaVuSans-56" transform="translate(1412.03125 0)"/>
      <use xlink:href="#DejaVuSans-44" transform="translate(1464.125 0)"/>
      <use xlink:href="#DejaVuSans-51" transform="translate(1525.40625 0)"/>
      <use xlink:href="#DejaVuSans-47" transform="translate(1588.78125 0)"/>
      <use xlink:href="#DejaVuSans-56" transform="translate(1652.265625 0)"/>
      <use xlink:href="#DejaVuSans-3" transform="translate(1704.359375 0)"/>
      <use xlink:href="#DejaVuSans-52" transform="translate(1736.140625 0)"/>
      <use xlink:href="#DejaVuSans-49" transform="translate(1797.328125 0)"/>
      <use xlink:href="#DejaVuSans-3" transform="translate(1832.53125 0)"/>
      <use xlink:href="#DejaVuSans-57" transform="translate(1864.3125 0)"/>
      <use xlink:href="#DejaVuSans-52" transform="translate(1903.515625 0)"/>
      <use xlink:href="#DejaVuSans-4e" transform="translate(1964.703125 0)"/>
      <use xlink:href="#DejaVuSans-48" transform="translate(2019.046875 0)"/>
      <use xlink:href="#DejaVuSans-51" transform="translate(2080.578125 0)"/>
      <use xlink:href="#DejaVuSans-56" transform="translate(2143.953125 0)"/>
      <use xlink:href="#DejaVuSans-c" transform="translate(2196.046875 0)"/>
     </g>
    </g>
   </g>
   <g id="matplotlib.axis_2">
    <g id="ytick_1">
     <g id="line2d_17">
      <path d="M 43.198359 249.707549 
L 433.798359 249.707549 
" clip-path="url(#p23cd740688)" style="fill: none; stroke: #7a8290; stroke-opacity: 0.18; stroke-width: 0.6; stroke-linecap: square"/>
     </g>
     <g id="line2d_18">
      <defs>
       <path id="ma61741e283" d="M 0 0 
L -3.5 0 
" style="stroke: #7a8290; stroke-width: 0.8"/>
      </defs>
      <g>
       <use xlink:href="#ma61741e283" x="43.198359" y="249.707549" style="fill: #7a8290; stroke: #7a8290; stroke-width: 0.8"/>
      </g>
     </g>
     <g id="text_10">
      <!-- 0 -->
      <g style="fill: #7a8290" transform="translate(29.199609 253.88626) scale(0.11 -0.11)">
       <use xlink:href="#DejaVuSans-13"/>
      </g>
     </g>
    </g>
    <g id="ytick_2">
     <g id="line2d_19">
      <path d="M 43.198359 198.453311 
L 433.798359 198.453311 
" clip-path="url(#p23cd740688)" style="fill: none; stroke: #7a8290; stroke-opacity: 0.18; stroke-width: 0.6; stroke-linecap: square"/>
     </g>
     <g id="line2d_20">
      <g>
       <use xlink:href="#ma61741e283" x="43.198359" y="198.453311" style="fill: #7a8290; stroke: #7a8290; stroke-width: 0.8"/>
      </g>
     </g>
     <g id="text_11">
      <!-- 10 -->
      <g style="fill: #7a8290" transform="translate(22.200859 202.632022) scale(0.11 -0.11)">
       <use xlink:href="#DejaVuSans-14"/>
       <use xlink:href="#DejaVuSans-13" transform="translate(63.625 0)"/>
      </g>
     </g>
    </g>
    <g id="ytick_3">
     <g id="line2d_21">
      <path d="M 43.198359 147.199074 
L 433.798359 147.199074 
" clip-path="url(#p23cd740688)" style="fill: none; stroke: #7a8290; stroke-opacity: 0.18; stroke-width: 0.6; stroke-linecap: square"/>
     </g>
     <g id="line2d_22">
      <g>
       <use xlink:href="#ma61741e283" x="43.198359" y="147.199074" style="fill: #7a8290; stroke: #7a8290; stroke-width: 0.8"/>
      </g>
     </g>
     <g id="text_12">
      <!-- 20 -->
      <g style="fill: #7a8290" transform="translate(22.200859 151.377785) scale(0.11 -0.11)">
       <use xlink:href="#DejaVuSans-15"/>
       <use xlink:href="#DejaVuSans-13" transform="translate(63.625 0)"/>
      </g>
     </g>
    </g>
    <g id="ytick_4">
     <g id="line2d_23">
      <path d="M 43.198359 95.944837 
L 433.798359 95.944837 
" clip-path="url(#p23cd740688)" style="fill: none; stroke: #7a8290; stroke-opacity: 0.18; stroke-width: 0.6; stroke-linecap: square"/>
     </g>
     <g id="line2d_24">
      <g>
       <use xlink:href="#ma61741e283" x="43.198359" y="95.944837" style="fill: #7a8290; stroke: #7a8290; stroke-width: 0.8"/>
      </g>
     </g>
     <g id="text_13">
      <!-- 30 -->
      <g style="fill: #7a8290" transform="translate(22.200859 100.123548) scale(0.11 -0.11)">
       <use xlink:href="#DejaVuSans-16"/>
       <use xlink:href="#DejaVuSans-13" transform="translate(63.625 0)"/>
      </g>
     </g>
    </g>
    <g id="ytick_5">
     <g id="line2d_25">
      <path d="M 43.198359 44.6906 
L 433.798359 44.6906 
" clip-path="url(#p23cd740688)" style="fill: none; stroke: #7a8290; stroke-opacity: 0.18; stroke-width: 0.6; stroke-linecap: square"/>
     </g>
     <g id="line2d_26">
      <g>
       <use xlink:href="#ma61741e283" x="43.198359" y="44.6906" style="fill: #7a8290; stroke: #7a8290; stroke-width: 0.8"/>
      </g>
     </g>
     <g id="text_14">
      <!-- 40 -->
      <g style="fill: #7a8290" transform="translate(22.200859 48.869311) scale(0.11 -0.11)">
       <defs>
        <path id="DejaVuSans-17" d="M 2419 4116 
L 825 1625 
L 2419 1625 
L 2419 4116 
z
M 2253 4666 
L 3047 4666 
L 3047 1625 
L 3713 1625 
L 3713 1100 
L 3047 1100 
L 3047 0 
L 2419 0 
L 2419 1100 
L 313 1100 
L 313 1709 
L 2253 4666 
z
" transform="scale(0.015625)"/>
       </defs>
       <use xlink:href="#DejaVuSans-17"/>
       <use xlink:href="#DejaVuSans-13" transform="translate(63.625 0)"/>
      </g>
     </g>
    </g>
    <g id="text_15">
     <!-- Effective turns retained -->
     <g style="fill: #7a8290" transform="translate(15.558281 203.331891) rotate(-90) scale(0.11 -0.11)">
      <defs>
       <path id="DejaVuSans-28" d="M 628 4666 
L 3578 4666 
L 3578 4134 
L 1259 4134 
L 1259 2753 
L 3481 2753 
L 3481 2222 
L 1259 2222 
L 1259 531 
L 3634 531 
L 3634 0 
L 628 0 
L 628 4666 
z
" transform="scale(0.015625)"/>
       <path id="DejaVuSans-13ae" d="M 4531 4863 
L 4531 4384 
L 3981 4384 
Q 3672 4384 3551 4259 
Q 3431 4134 3431 3809 
L 3431 3500 
L 4378 3500 
L 4378 3053 
L 3431 3053 
L 3431 0 
L 2853 0 
L 2853 3053 
L 1275 3053 
L 1275 0 
L 697 0 
L 697 3053 
L 147 3053 
L 147 3500 
L 697 3500 
L 697 3744 
Q 697 4328 969 4595 
Q 1241 4863 1831 4863 
L 2375 4863 
L 2375 4384 
L 1825 4384 
Q 1516 4384 1394 4259 
Q 1275 4134 1275 3809 
L 1275 3500 
L 2853 3500 
L 2853 3744 
Q 2853 4328 3125 4595 
Q 3397 4863 3988 4863 
L 4531 4863 
z
" transform="scale(0.015625)"/>
      </defs>
      <use xlink:href="#DejaVuSans-28"/>
      <use xlink:href="#DejaVuSans-13ae" transform="translate(63.1875 0)"/>
      <use xlink:href="#DejaVuSans-48" transform="translate(132.078125 0)"/>
      <use xlink:href="#DejaVuSans-46" transform="translate(193.609375 0)"/>
      <use xlink:href="#DejaVuSans-57" transform="translate(248.59375 0)"/>
      <use xlink:href="#DejaVuSans-4c" transform="translate(287.796875 0)"/>
      <use xlink:href="#DejaVuSans-59" transform="translate(315.578125 0)"/>
      <use xlink:href="#DejaVuSans-48" transform="translate(374.765625 0)"/>
      <use xlink:href="#DejaVuSans-3" transform="translate(436.296875 0)"/>
      <use xlink:href="#DejaVuSans-57" transform="translate(468.078125 0)"/>
      <use xlink:href="#DejaVuSans-58" transform="translate(507.28125 0)"/>
      <use xlink:href="#DejaVuSans-55" transform="translate(570.65625 0)"/>
      <use xlink:href="#DejaVuSans-51" transform="translate(610.015625 0)"/>
      <use xlink:href="#DejaVuSans-56" transform="translate(673.390625 0)"/>
      <use xlink:href="#DejaVuSans-3" transform="translate(725.484375 0)"/>
      <use xlink:href="#DejaVuSans-55" transform="translate(757.265625 0)"/>
      <use xlink:href="#DejaVuSans-48" transform="translate(796.171875 0)"/>
      <use xlink:href="#DejaVuSans-57" transform="translate(857.703125 0)"/>
      <use xlink:href="#DejaVuSans-44" transform="translate(896.90625 0)"/>
      <use xlink:href="#DejaVuSans-4c" transform="translate(958.1875 0)"/>
      <use xlink:href="#DejaVuSans-51" transform="translate(985.96875 0)"/>
      <use xlink:href="#DejaVuSans-48" transform="translate(1049.34375 0)"/>
      <use xlink:href="#DejaVuSans-47" transform="translate(1110.875 0)"/>
     </g>
    </g>
   </g>
   <g id="line2d_27">
    <path d="M 60.952905 244.582125 
L 66.971395 239.456701 
L 72.989885 234.331278 
L 79.008375 229.205854 
L 85.026865 224.08043 
L 91.045355 218.955006 
L 97.063845 213.829583 
L 103.082335 208.704159 
L 109.100825 203.578735 
L 115.119315 198.453311 
L 121.137805 193.327888 
L 127.156295 188.202464 
L 133.174785 183.07704 
L 139.193275 197.940769 
L 145.211765 194.352972 
L 151.230255 190.765176 
L 157.248745 187.177379 
L 163.267235 183.589583 
L 169.285725 180.001786 
L 175.304215 176.413989 
L 181.322705 172.826193 
L 187.341195 169.238396 
L 193.359684 165.6506 
L 199.378174 162.062803 
L 205.396664 158.475006 
L 211.415154 154.88721 
L 217.433644 151.299413 
L 223.452134 147.711617 
L 229.470624 144.12382 
L 235.489114 140.536023 
L 241.507604 136.948227 
L 247.526094 133.36043 
L 253.544584 129.772633 
L 259.563074 126.184837 
L 265.581564 122.59704 
L 271.600054 119.009244 
L 277.618544 115.421447 
L 283.637034 111.83365 
L 289.655524 108.245854 
L 295.674014 104.658057 
L 301.692504 101.070261 
L 307.710994 97.482464 
L 313.729484 93.894667 
L 319.747974 90.306871 
L 325.766464 86.719074 
L 331.784954 83.131278 
L 337.803444 79.543481 
L 343.821934 75.955684 
L 349.840424 72.367888 
L 355.858914 68.780091 
L 361.877404 65.192294 
L 367.895894 61.604498 
L 373.914384 58.016701 
L 379.932874 54.428905 
L 385.951364 50.841108 
L 391.969854 47.253311 
L 397.988344 43.665515 
L 404.006834 40.077718 
L 410.025324 36.489922 
L 416.043814 32.902125 
" clip-path="url(#p23cd740688)" style="fill: none; stroke-dasharray: 9.6,2.4,1.5,2.4; stroke-dashoffset: 0; stroke: #009e73; stroke-width: 1.5"/>
   </g>
   <g id="line2d_28">
    <path d="M 60.952905 244.582125 
L 66.971395 239.456701 
L 72.989885 234.331278 
L 79.008375 229.205854 
L 85.026865 224.08043 
L 91.045355 218.955006 
L 97.063845 213.829583 
L 103.082335 208.704159 
L 109.100825 203.578735 
L 115.119315 198.453311 
L 121.137805 193.327888 
L 127.156295 188.202464 
L 133.174785 183.07704 
L 139.193275 183.07704 
L 145.211765 183.07704 
L 151.230255 183.07704 
L 157.248745 183.07704 
L 163.267235 183.07704 
L 169.285725 183.07704 
L 175.304215 183.07704 
L 181.322705 183.07704 
L 187.341195 183.07704 
L 193.359684 183.07704 
L 199.378174 183.07704 
L 205.396664 183.07704 
L 211.415154 183.07704 
L 217.433644 183.07704 
L 223.452134 183.07704 
L 229.470624 183.07704 
L 235.489114 183.07704 
L 241.507604 183.07704 
L 247.526094 183.07704 
L 253.544584 183.07704 
L 259.563074 183.07704 
L 265.581564 183.07704 
L 271.600054 183.07704 
L 277.618544 183.07704 
L 283.637034 183.07704 
L 289.655524 183.07704 
L 295.674014 183.07704 
L 301.692504 183.07704 
L 307.710994 183.07704 
L 313.729484 183.07704 
L 319.747974 183.07704 
L 325.766464 183.07704 
L 331.784954 183.07704 
L 337.803444 183.07704 
L 343.821934 183.07704 
L 349.840424 183.07704 
L 355.858914 183.07704 
L 361.877404 183.07704 
L 367.895894 183.07704 
L 373.914384 183.07704 
L 379.932874 183.07704 
L 385.951364 183.07704 
L 391.969854 183.07704 
L 397.988344 183.07704 
L 404.006834 183.07704 
L 410.025324 183.07704 
L 416.043814 183.07704 
" clip-path="url(#p23cd740688)" style="fill: none; stroke: #0072b2; stroke-width: 1.5; stroke-linecap: square"/>
   </g>
   <g id="patch_3">
    <path d="M 43.198359 255.166125 
L 43.198359 22.318125 
" style="fill: none; stroke: #7a8290; stroke-width: 0.8; stroke-linejoin: miter; stroke-linecap: square"/>
   </g>
   <g id="patch_4">
    <path d="M 43.198359 255.166125 
L 433.798359 255.166125 
" style="fill: none; stroke: #7a8290; stroke-width: 0.8; stroke-linejoin: miter; stroke-linecap: square"/>
   </g>
   <g id="text_16">
    <!-- Keeping meaning costs extra model calls -->
    <g style="fill: #7a8290" transform="translate(115.236797 16.318125) scale(0.12 -0.12)">
     <defs>
      <path id="DejaVuSans-2e" d="M 628 4666 
L 1259 4666 
L 1259 2694 
L 3353 4666 
L 4166 4666 
L 1850 2491 
L 4331 0 
L 3500 0 
L 1259 2247 
L 1259 0 
L 628 0 
L 628 4666 
z
" transform="scale(0.015625)"/>
      <path id="DejaVuSans-53" d="M 1159 525 
L 1159 -1331 
L 581 -1331 
L 581 3500 
L 1159 3500 
L 1159 2969 
Q 1341 3281 1617 3432 
Q 1894 3584 2278 3584 
Q 2916 3584 3314 3078 
Q 3713 2572 3713 1747 
Q 3713 922 3314 415 
Q 2916 -91 2278 -91 
Q 1894 -91 1617 61 
Q 1341 213 1159 525 
z
M 3116 1747 
Q 3116 2381 2855 2742 
Q 2594 3103 2138 3103 
Q 1681 3103 1420 2742 
Q 1159 2381 1159 1747 
Q 1159 1113 1420 752 
Q 1681 391 2138 391 
Q 2594 391 2855 752 
Q 3116 1113 3116 1747 
z
" transform="scale(0.015625)"/>
      <path id="DejaVuSans-4a" d="M 2906 1791 
Q 2906 2416 2648 2759 
Q 2391 3103 1925 3103 
Q 1463 3103 1205 2759 
Q 947 2416 947 1791 
Q 947 1169 1205 825 
Q 1463 481 1925 481 
Q 2391 481 2648 825 
Q 2906 1169 2906 1791 
z
M 3481 434 
Q 3481 -459 3084 -895 
Q 2688 -1331 1869 -1331 
Q 1566 -1331 1297 -1286 
Q 1028 -1241 775 -1147 
L 775 -588 
Q 1028 -725 1275 -790 
Q 1522 -856 1778 -856 
Q 2344 -856 2625 -561 
Q 2906 -266 2906 331 
L 2906 616 
Q 2728 306 2450 153 
Q 2172 0 1784 0 
Q 1141 0 747 490 
Q 353 981 353 1791 
Q 353 2603 747 3093 
Q 1141 3584 1784 3584 
Q 2172 3584 2450 3431 
Q 2728 3278 2906 2969 
L 2906 3500 
L 3481 3500 
L 3481 434 
z
" transform="scale(0.015625)"/>
      <path id="DejaVuSans-50" d="M 3328 2828 
Q 3544 3216 3844 3400 
Q 4144 3584 4550 3584 
Q 5097 3584 5394 3201 
Q 5691 2819 5691 2113 
L 5691 0 
L 5113 0 
L 5113 2094 
Q 5113 2597 4934 2840 
Q 4756 3084 4391 3084 
Q 3944 3084 3684 2787 
Q 3425 2491 3425 1978 
L 3425 0 
L 2847 0 
L 2847 2094 
Q 2847 2600 2669 2842 
Q 2491 3084 2119 3084 
Q 1678 3084 1418 2786 
Q 1159 2488 1159 1978 
L 1159 0 
L 581 0 
L 581 3500 
L 1159 3500 
L 1159 2956 
Q 1356 3278 1631 3431 
Q 1906 3584 2284 3584 
Q 2666 3584 2933 3390 
Q 3200 3197 3328 2828 
z
" transform="scale(0.015625)"/>
      <path id="DejaVuSans-5b" d="M 3513 3500 
L 2247 1797 
L 3578 0 
L 2900 0 
L 1881 1375 
L 863 0 
L 184 0 
L 1544 1831 
L 300 3500 
L 978 3500 
L 1906 2253 
L 2834 3500 
L 3513 3500 
z
" transform="scale(0.015625)"/>
      <path id="DejaVuSans-4f" d="M 603 4863 
L 1178 4863 
L 1178 0 
L 603 0 
L 603 4863 
z
" transform="scale(0.015625)"/>
     </defs>
     <use xlink:href="#DejaVuSans-2e"/>
     <use xlink:href="#DejaVuSans-48" transform="translate(60.59375 0)"/>
     <use xlink:href="#DejaVuSans-48" transform="translate(122.125 0)"/>
     <use xlink:href="#DejaVuSans-53" transform="translate(183.65625 0)"/>
     <use xlink:href="#DejaVuSans-4c" transform="translate(247.140625 0)"/>
     <use xlink:href="#DejaVuSans-51" transform="translate(274.921875 0)"/>
     <use xlink:href="#DejaVuSans-4a" transform="translate(338.296875 0)"/>
     <use xlink:href="#DejaVuSans-3" transform="translate(401.78125 0)"/>
     <use xlink:href="#DejaVuSans-50" transform="translate(433.5625 0)"/>
     <use xlink:href="#DejaVuSans-48" transform="translate(530.96875 0)"/>
     <use xlink:href="#DejaVuSans-44" transform="translate(592.5 0)"/>
     <use xlink:href="#DejaVuSans-51" transform="translate(653.78125 0)"/>
     <use xlink:href="#DejaVuSans-4c" transform="translate(717.15625 0)"/>
     <use xlink:href="#DejaVuSans-51" transform="translate(744.9375 0)"/>
     <use xlink:href="#DejaVuSans-4a" transform="translate(808.3125 0)"/>
     <use xlink:href="#DejaVuSans-3" transform="translate(871.796875 0)"/>
     <use xlink:href="#DejaVuSans-46" transform="translate(903.578125 0)"/>
     <use xlink:href="#DejaVuSans-52" transform="translate(958.5625 0)"/>
     <use xlink:href="#DejaVuSans-56" transform="translate(1019.75 0)"/>
     <use xlink:href="#DejaVuSans-57" transform="translate(1071.84375 0)"/>
     <use xlink:href="#DejaVuSans-56" transform="translate(1111.046875 0)"/>
     <use xlink:href="#DejaVuSans-3" transform="translate(1163.140625 0)"/>
     <use xlink:href="#DejaVuSans-48" transform="translate(1194.921875 0)"/>
     <use xlink:href="#DejaVuSans-5b" transform="translate(1254.703125 0)"/>
     <use xlink:href="#DejaVuSans-57" transform="translate(1313.890625 0)"/>
     <use xlink:href="#DejaVuSans-55" transform="translate(1353.09375 0)"/>
     <use xlink:href="#DejaVuSans-44" transform="translate(1394.203125 0)"/>
     <use xlink:href="#DejaVuSans-3" transform="translate(1455.484375 0)"/>
     <use xlink:href="#DejaVuSans-50" transform="translate(1487.265625 0)"/>
     <use xlink:href="#DejaVuSans-52" transform="translate(1584.671875 0)"/>
     <use xlink:href="#DejaVuSans-47" transform="translate(1645.859375 0)"/>
     <use xlink:href="#DejaVuSans-48" transform="translate(1709.34375 0)"/>
     <use xlink:href="#DejaVuSans-4f" transform="translate(1770.875 0)"/>
     <use xlink:href="#DejaVuSans-3" transform="translate(1798.65625 0)"/>
     <use xlink:href="#DejaVuSans-46" transform="translate(1830.4375 0)"/>
     <use xlink:href="#DejaVuSans-44" transform="translate(1885.421875 0)"/>
     <use xlink:href="#DejaVuSans-4f" transform="translate(1946.703125 0)"/>
     <use xlink:href="#DejaVuSans-4f" transform="translate(1974.484375 0)"/>
     <use xlink:href="#DejaVuSans-56" transform="translate(2002.265625 0)"/>
    </g>
   </g>
   <g id="legend_1">
    <g id="line2d_29">
     <path d="M 241.600859 121.249117 
L 252.600859 121.249117 
L 263.600859 121.249117 
" style="fill: none; stroke-dasharray: 9.6,2.4,1.5,2.4; stroke-dashoffset: 0; stroke: #009e73; stroke-width: 1.5"/>
    </g>
    <g id="text_17">
     <!-- Turns retained (summarize) -->
     <g style="fill: #7a8290" transform="translate(272.400859 125.099117) scale(0.11 -0.11)">
      <defs>
       <path id="DejaVuSans-37" d="M -19 4666 
L 3928 4666 
L 3928 4134 
L 2272 4134 
L 2272 0 
L 1638 0 
L 1638 4134 
L -19 4134 
L -19 4666 
z
" transform="scale(0.015625)"/>
      </defs>
      <use xlink:href="#DejaVuSans-37"/>
      <use xlink:href="#DejaVuSans-58" transform="translate(45.890625 0)"/>
      <use xlink:href="#DejaVuSans-55" transform="translate(109.265625 0)"/>
      <use xlink:href="#DejaVuSans-51" transform="translate(148.625 0)"/>
      <use xlink:href="#DejaVuSans-56" transform="translate(212 0)"/>
      <use xlink:href="#DejaVuSans-3" transform="translate(264.09375 0)"/>
      <use xlink:href="#DejaVuSans-55" transform="translate(295.875 0)"/>
      <use xlink:href="#DejaVuSans-48" transform="translate(334.78125 0)"/>
      <use xlink:href="#DejaVuSans-57" transform="translate(396.3125 0)"/>
      <use xlink:href="#DejaVuSans-44" transform="translate(435.515625 0)"/>
      <use xlink:href="#DejaVuSans-4c" transform="translate(496.796875 0)"/>
      <use xlink:href="#DejaVuSans-51" transform="translate(524.578125 0)"/>
      <use xlink:href="#DejaVuSans-48" transform="translate(587.953125 0)"/>
      <use xlink:href="#DejaVuSans-47" transform="translate(649.484375 0)"/>
      <use xlink:href="#DejaVuSans-3" transform="translate(712.96875 0)"/>
      <use xlink:href="#DejaVuSans-b" transform="translate(744.75 0)"/>
      <use xlink:href="#DejaVuSans-56" transform="translate(783.765625 0)"/>
      <use xlink:href="#DejaVuSans-58" transform="translate(835.859375 0)"/>
      <use xlink:href="#DejaVuSans-50" transform="translate(899.234375 0)"/>
      <use xlink:href="#DejaVuSans-50" transform="translate(996.640625 0)"/>
      <use xlink:href="#DejaVuSans-44" transform="translate(1094.046875 0)"/>
      <use xlink:href="#DejaVuSans-55" transform="translate(1155.328125 0)"/>
      <use xlink:href="#DejaVuSans-4c" transform="translate(1196.4375 0)"/>
      <use xlink:href="#DejaVuSans-5d" transform="translate(1224.21875 0)"/>
      <use xlink:href="#DejaVuSans-48" transform="translate(1276.703125 0)"/>
      <use xlink:href="#DejaVuSans-c" transform="translate(1338.234375 0)"/>
     </g>
    </g>
    <g id="line2d_30">
     <path d="M 241.600859 137.749977 
L 252.600859 137.749977 
L 263.600859 137.749977 
" style="fill: none; stroke: #0072b2; stroke-width: 1.5; stroke-linecap: square"/>
    </g>
    <g id="text_18">
     <!-- Turns retained (FIFO) -->
     <g style="fill: #7a8290" transform="translate(272.400859 141.599977) scale(0.11 -0.11)">
      <defs>
       <path id="DejaVuSans-29" d="M 628 4666 
L 3309 4666 
L 3309 4134 
L 1259 4134 
L 1259 2759 
L 3109 2759 
L 3109 2228 
L 1259 2228 
L 1259 0 
L 628 0 
L 628 4666 
z
" transform="scale(0.015625)"/>
       <path id="DejaVuSans-2c" d="M 628 4666 
L 1259 4666 
L 1259 0 
L 628 0 
L 628 4666 
z
" transform="scale(0.015625)"/>
       <path id="DejaVuSans-32" d="M 2522 4238 
Q 1834 4238 1429 3725 
Q 1025 3213 1025 2328 
Q 1025 1447 1429 934 
Q 1834 422 2522 422 
Q 3209 422 3611 934 
Q 4013 1447 4013 2328 
Q 4013 3213 3611 3725 
Q 3209 4238 2522 4238 
z
M 2522 4750 
Q 3503 4750 4090 4092 
Q 4678 3434 4678 2328 
Q 4678 1225 4090 567 
Q 3503 -91 2522 -91 
Q 1538 -91 948 565 
Q 359 1222 359 2328 
Q 359 3434 948 4092 
Q 1538 4750 2522 4750 
z
" transform="scale(0.015625)"/>
      </defs>
      <use xlink:href="#DejaVuSans-37"/>
      <use xlink:href="#DejaVuSans-58" transform="translate(45.890625 0)"/>
      <use xlink:href="#DejaVuSans-55" transform="translate(109.265625 0)"/>
      <use xlink:href="#DejaVuSans-51" transform="translate(148.625 0)"/>
      <use xlink:href="#DejaVuSans-56" transform="translate(212 0)"/>
      <use xlink:href="#DejaVuSans-3" transform="translate(264.09375 0)"/>
      <use xlink:href="#DejaVuSans-55" transform="translate(295.875 0)"/>
      <use xlink:href="#DejaVuSans-48" transform="translate(334.78125 0)"/>
      <use xlink:href="#DejaVuSans-57" transform="translate(396.3125 0)"/>
      <use xlink:href="#DejaVuSans-44" transform="translate(435.515625 0)"/>
      <use xlink:href="#DejaVuSans-4c" transform="translate(496.796875 0)"/>
      <use xlink:href="#DejaVuSans-51" transform="translate(524.578125 0)"/>
      <use xlink:href="#DejaVuSans-48" transform="translate(587.953125 0)"/>
      <use xlink:href="#DejaVuSans-47" transform="translate(649.484375 0)"/>
      <use xlink:href="#DejaVuSans-3" transform="translate(712.96875 0)"/>
      <use xlink:href="#DejaVuSans-b" transform="translate(744.75 0)"/>
      <use xlink:href="#DejaVuSans-29" transform="translate(783.765625 0)"/>
      <use xlink:href="#DejaVuSans-2c" transform="translate(841.28125 0)"/>
      <use xlink:href="#DejaVuSans-29" transform="translate(870.78125 0)"/>
      <use xlink:href="#DejaVuSans-32" transform="translate(928.296875 0)"/>
      <use xlink:href="#DejaVuSans-c" transform="translate(1007.015625 0)"/>
     </g>
    </g>
    <g id="line2d_31">
     <path d="M 241.600859 154.250836 
L 252.600859 154.250836 
L 263.600859 154.250836 
" style="fill: none; stroke-dasharray: 1.5,2.475; stroke-dashoffset: 0; stroke: #e69f00; stroke-width: 1.5"/>
    </g>
    <g id="text_19">
     <!-- Extra summarizer calls -->
     <g style="fill: #7a8290" transform="translate(272.400859 158.100836) scale(0.11 -0.11)">
      <use xlink:href="#DejaVuSans-28"/>
      <use xlink:href="#DejaVuSans-5b" transform="translate(63.1875 0)"/>
      <use xlink:href="#DejaVuSans-57" transform="translate(122.375 0)"/>
      <use xlink:href="#DejaVuSans-55" transform="translate(161.578125 0)"/>
      <use xlink:href="#DejaVuSans-44" transform="translate(202.6875 0)"/>
      <use xlink:href="#DejaVuSans-3" transform="translate(263.96875 0)"/>
      <use xlink:href="#DejaVuSans-56" transform="translate(295.75 0)"/>
      <use xlink:href="#DejaVuSans-58" transform="translate(347.84375 0)"/>
      <use xlink:href="#DejaVuSans-50" transform="translate(411.21875 0)"/>
      <use xlink:href="#DejaVuSans-50" transform="translate(508.625 0)"/>
      <use xlink:href="#DejaVuSans-44" transform="translate(606.03125 0)"/>
      <use xlink:href="#DejaVuSans-55" transform="translate(667.3125 0)"/>
      <use xlink:href="#DejaVuSans-4c" transform="translate(708.421875 0)"/>
      <use xlink:href="#DejaVuSans-5d" transform="translate(736.203125 0)"/>
      <use xlink:href="#DejaVuSans-48" transform="translate(788.6875 0)"/>
      <use xlink:href="#DejaVuSans-55" transform="translate(850.21875 0)"/>
      <use xlink:href="#DejaVuSans-3" transform="translate(891.328125 0)"/>
      <use xlink:href="#DejaVuSans-46" transform="translate(923.109375 0)"/>
      <use xlink:href="#DejaVuSans-44" transform="translate(978.09375 0)"/>
      <use xlink:href="#DejaVuSans-4f" transform="translate(1039.375 0)"/>
      <use xlink:href="#DejaVuSans-4f" transform="translate(1067.15625 0)"/>
      <use xlink:href="#DejaVuSans-56" transform="translate(1094.9375 0)"/>
     </g>
    </g>
   </g>
  </g>
  <g id="axes_2">
   <g id="matplotlib.axis_3">
    <g id="ytick_6">
     <g id="line2d_32">
      <defs>
       <path id="m5fdbc01352" d="M 0 0 
L 3.5 0 
" style="stroke: #e69f00; stroke-width: 0.8"/>
      </defs>
      <g>
       <use xlink:href="#m5fdbc01352" x="433.798359" y="244.582125" style="fill: #e69f00; stroke: #e69f00; stroke-width: 0.8"/>
      </g>
     </g>
     <g id="text_20">
      <!-- 0 -->
      <g style="fill: #e69f00" transform="translate(440.798359 248.760836) scale(0.11 -0.11)">
       <use xlink:href="#DejaVuSans-13"/>
      </g>
     </g>
    </g>
    <g id="ytick_7">
     <g id="line2d_33">
      <g>
       <use xlink:href="#m5fdbc01352" x="433.798359" y="199.543827" style="fill: #e69f00; stroke: #e69f00; stroke-width: 0.8"/>
      </g>
     </g>
     <g id="text_21">
      <!-- 10 -->
      <g style="fill: #e69f00" transform="translate(440.798359 203.722538) scale(0.11 -0.11)">
       <use xlink:href="#DejaVuSans-14"/>
       <use xlink:href="#DejaVuSans-13" transform="translate(63.625 0)"/>
      </g>
     </g>
    </g>
    <g id="ytick_8">
     <g id="line2d_34">
      <g>
       <use xlink:href="#m5fdbc01352" x="433.798359" y="154.505529" style="fill: #e69f00; stroke: #e69f00; stroke-width: 0.8"/>
      </g>
     </g>
     <g id="text_22">
      <!-- 20 -->
      <g style="fill: #e69f00" transform="translate(440.798359 158.68424) scale(0.11 -0.11)">
       <use xlink:href="#DejaVuSans-15"/>
       <use xlink:href="#DejaVuSans-13" transform="translate(63.625 0)"/>
      </g>
     </g>
    </g>
    <g id="ytick_9">
     <g id="line2d_35">
      <g>
       <use xlink:href="#m5fdbc01352" x="433.798359" y="109.467231" style="fill: #e69f00; stroke: #e69f00; stroke-width: 0.8"/>
      </g>
     </g>
     <g id="text_23">
      <!-- 30 -->
      <g style="fill: #e69f00" transform="translate(440.798359 113.645942) scale(0.11 -0.11)">
       <use xlink:href="#DejaVuSans-16"/>
       <use xlink:href="#DejaVuSans-13" transform="translate(63.625 0)"/>
      </g>
     </g>
    </g>
    <g id="ytick_10">
     <g id="line2d_36">
      <g>
       <use xlink:href="#m5fdbc01352" x="433.798359" y="64.428934" style="fill: #e69f00; stroke: #e69f00; stroke-width: 0.8"/>
      </g>
     </g>
     <g id="text_24">
      <!-- 40 -->
      <g style="fill: #e69f00" transform="translate(440.798359 68.607644) scale(0.11 -0.11)">
       <use xlink:href="#DejaVuSans-17"/>
       <use xlink:href="#DejaVuSans-13" transform="translate(63.625 0)"/>
      </g>
     </g>
    </g>
    <g id="text_25">
     <!-- Cumulative summarizer calls -->
     <g style="fill: #e69f00" transform="translate(467.154141 218.701813) rotate(-90) scale(0.11 -0.11)">
      <defs>
       <path id="DejaVuSans-26" d="M 4122 4306 
L 4122 3641 
Q 3803 3938 3442 4084 
Q 3081 4231 2675 4231 
Q 1875 4231 1450 3742 
Q 1025 3253 1025 2328 
Q 1025 1406 1450 917 
Q 1875 428 2675 428 
Q 3081 428 3442 575 
Q 3803 722 4122 1019 
L 4122 359 
Q 3791 134 3420 21 
Q 3050 -91 2638 -91 
Q 1578 -91 968 557 
Q 359 1206 359 2328 
Q 359 3453 968 4101 
Q 1578 4750 2638 4750 
Q 3056 4750 3426 4639 
Q 3797 4528 4122 4306 
z
" transform="scale(0.015625)"/>
      </defs>
      <use xlink:href="#DejaVuSans-26"/>
      <use xlink:href="#DejaVuSans-58" transform="translate(69.828125 0)"/>
      <use xlink:href="#DejaVuSans-50" transform="translate(133.203125 0)"/>
      <use xlink:href="#DejaVuSans-58" transform="translate(230.609375 0)"/>
      <use xlink:href="#DejaVuSans-4f" transform="translate(293.984375 0)"/>
      <use xlink:href="#DejaVuSans-44" transform="translate(321.765625 0)"/>
      <use xlink:href="#DejaVuSans-57" transform="translate(383.046875 0)"/>
      <use xlink:href="#DejaVuSans-4c" transform="translate(422.25 0)"/>
      <use xlink:href="#DejaVuSans-59" transform="translate(450.03125 0)"/>
      <use xlink:href="#DejaVuSans-48" transform="translate(509.21875 0)"/>
      <use xlink:href="#DejaVuSans-3" transform="translate(570.75 0)"/>
      <use xlink:href="#DejaVuSans-56" transform="translate(602.53125 0)"/>
      <use xlink:href="#DejaVuSans-58" transform="translate(654.625 0)"/>
      <use xlink:href="#DejaVuSans-50" transform="translate(718 0)"/>
      <use xlink:href="#DejaVuSans-50" transform="translate(815.40625 0)"/>
      <use xlink:href="#DejaVuSans-44" transform="translate(912.8125 0)"/>
      <use xlink:href="#DejaVuSans-55" transform="translate(974.09375 0)"/>
      <use xlink:href="#DejaVuSans-4c" transform="translate(1015.203125 0)"/>
      <use xlink:href="#DejaVuSans-5d" transform="translate(1042.984375 0)"/>
      <use xlink:href="#DejaVuSans-48" transform="translate(1095.46875 0)"/>
      <use xlink:href="#DejaVuSans-55" transform="translate(1157 0)"/>
      <use xlink:href="#DejaVuSans-3" transform="translate(1198.109375 0)"/>
      <use xlink:href="#DejaVuSans-46" transform="translate(1229.890625 0)"/>
      <use xlink:href="#DejaVuSans-44" transform="translate(1284.875 0)"/>
      <use xlink:href="#DejaVuSans-4f" transform="translate(1346.15625 0)"/>
      <use xlink:href="#DejaVuSans-4f" transform="translate(1373.9375 0)"/>
      <use xlink:href="#DejaVuSans-56" transform="translate(1401.71875 0)"/>
     </g>
    </g>
   </g>
   <g id="line2d_37">
    <path d="M 60.952905 244.582125 
L 66.971395 244.582125 
L 72.989885 244.582125 
L 79.008375 244.582125 
L 85.026865 244.582125 
L 91.045355 244.582125 
L 97.063845 244.582125 
L 103.082335 244.582125 
L 109.100825 244.582125 
L 115.119315 244.582125 
L 121.137805 244.582125 
L 127.156295 244.582125 
L 133.174785 244.582125 
L 139.193275 240.078295 
L 145.211765 235.574465 
L 151.230255 231.070636 
L 157.248745 226.566806 
L 163.267235 222.062976 
L 169.285725 217.559146 
L 175.304215 213.055316 
L 181.322705 208.551487 
L 187.341195 204.047657 
L 193.359684 199.543827 
L 199.378174 195.039997 
L 205.396664 190.536168 
L 211.415154 186.032338 
L 217.433644 181.528508 
L 223.452134 177.024678 
L 229.470624 172.520848 
L 235.489114 168.017019 
L 241.507604 163.513189 
L 247.526094 159.009359 
L 253.544584 154.505529 
L 259.563074 150.001699 
L 265.581564 145.49787 
L 271.600054 140.99404 
L 277.618544 136.49021 
L 283.637034 131.98638 
L 289.655524 127.482551 
L 295.674014 122.978721 
L 301.692504 118.474891 
L 307.710994 113.971061 
L 313.729484 109.467231 
L 319.747974 104.963402 
L 325.766464 100.459572 
L 331.784954 95.955742 
L 337.803444 91.451912 
L 343.821934 86.948082 
L 349.840424 82.444253 
L 355.858914 77.940423 
L 361.877404 73.436593 
L 367.895894 68.932763 
L 373.914384 64.428934 
L 379.932874 59.925104 
L 385.951364 55.421274 
L 391.969854 50.917444 
L 397.988344 46.413614 
L 404.006834 41.909785 
L 410.025324 37.405955 
L 416.043814 32.902125 
" clip-path="url(#p23cd740688)" style="fill: none; stroke-dasharray: 1.5,2.475; stroke-dashoffset: 0; stroke: #e69f00; stroke-width: 1.5"/>
   </g>
   <g id="patch_5">
    <path d="M 43.198359 255.166125 
L 43.198359 22.318125 
" style="fill: none; stroke: #7a8290; stroke-width: 0.8; stroke-linejoin: miter; stroke-linecap: square"/>
   </g>
   <g id="patch_6">
    <path d="M 433.798359 255.166125 
L 433.798359 22.318125 
" style="fill: none; stroke: #7a8290; stroke-width: 0.8; stroke-linejoin: miter; stroke-linecap: square"/>
   </g>
   <g id="patch_7">
    <path d="M 43.198359 255.166125 
L 433.798359 255.166125 
" style="fill: none; stroke: #7a8290; stroke-width: 0.8; stroke-linejoin: miter; stroke-linecap: square"/>
   </g>
  </g>
 </g>
 <defs>
  <clipPath id="p23cd740688">
   <rect x="43.198359" y="22.318125" width="390.6" height="232.848"/>
  </clipPath>
 </defs>
</svg>
