<?xml version="1.0" encoding="utf-8" standalone="no"?>
<!DOCTYPE svg PUBLIC "-//W3C//DTD SVG 1.1//EN"
  "http://www.w3.org/Graphics/SVG/1.1/DTD/svg11.dtd">
<svg xmlns:xlink="http://www.w3.org/1999/xlink" width="454.995859pt" height="295.366984pt" viewBox="0 0 454.995859 295.366984" xmlns="http://www.w3.org/2000/svg" version="1.1">
 <metadata>
  <rdf:RDF xmlns:dc="http://purl.org/dc/elements/1.1/" xmlns:cc="http://creativecommons.org/ns#" xmlns:rdf="http://www.w3.org/1999/02/22-rdf-syntax-ns#">
   <cc:Work>
    <dc:type rdf:resource="http://purl.org/dc/dcmitype/StillImage"/>
    <dc:date>2026-06-23T12:32:46.822195</dc:date>
    <dc:format>image/svg+xml</dc:format>
    <dc:creator>
     <cc:Agent>
      <dc:title>Matplotlib v3.11.0, https://matplotlib.org/</dc:title>
     </cc:Agent>
    </dc:creator>
   </cc:Work>
  </rdf:RDF>
 </metadata>
 <defs>
  <style type="text/css">*{stroke-linejoin: round; stroke-linecap: butt}</style>
 </defs>
 <g id="figure_1">
  <g id="patch_1">
   <path d="M 0 295.366984 
L 454.995859 295.366984 
L 454.995859 0 
L 0 0 
L 0 295.366984 
z
" style="fill: none"/>
  </g>
  <g id="axes_1">
   <g id="patch_2">
    <path d="M 57.195859 255.166125 
L 447.795859 255.166125 
L 447.795859 22.318125 
L 57.195859 22.318125 
L 57.195859 255.166125 
z
" style="fill: none"/>
   </g>
   <g id="matplotlib.axis_1">
    <g id="xtick_1">
     <g id="line2d_1">
      <path d="M 74.950405 255.166125 
L 74.950405 22.318125 
" clip-path="url(#pa225756798)" style="fill: none; stroke: #7a8290; stroke-opacity: 0.18; stroke-width: 0.6; stroke-linecap: square"/>
     </g>
     <g id="line2d_2">
      <defs>
       <path id="mbc41722547" d="M 0 0 
L 0 3.5 
" style="stroke: #7a8290; stroke-width: 0.8"/>
      </defs>
      <g>
       <use xlink:href="#mbc41722547" x="74.950405" y="255.166125" style="fill: #7a8290; stroke: #7a8290; stroke-width: 0.8"/>
      </g>
     </g>
     <g id="text_1">
      <!-- 0 -->
      <g style="fill: #7a8290" transform="translate(71.45103 270.523547) scale(0.11 -0.11)">
       <defs>
        <path id="DejaVuSans-13" d="M 2034 4250 
Q 1547 4250 1301 3770 
Q 1056 3291 1056 2328 
Q 1056 1369 1301 889 
Q 1547 409 2034 409 
Q 2525 409 2770 889 
Q 3016 1369 3016 2328 
Q 3016 3291 2770 3770 
Q 2525 4250 2034 4250 
z
M 2034 4750 
Q 2819 4750 3233 4129 
Q 3647 3509 3647 2328 
Q 3647 1150 3233 529 
Q 2819 -91 2034 -91 
Q 1250 -91 836 529 
Q 422 1150 422 2328 
Q 422 3509 836 4129 
Q 1250 4750 2034 4750 
z
" transform="scale(0.015625)"/>
       </defs>
       <use xlink:href="#DejaVuSans-13"/>
      </g>
     </g>
    </g>
    <g id="xtick_2">
     <g id="line2d_3">
      <path d="M 133.162029 255.166125 
L 133.162029 22.318125 
" clip-path="url(#pa225756798)" style="fill: none; stroke: #7a8290; stroke-opacity: 0.18; stroke-width: 0.6; stroke-linecap: square"/>
     </g>
     <g id="line2d_4">
      <g>
       <use xlink:href="#mbc41722547" x="133.162029" y="255.166125" style="fill: #7a8290; stroke: #7a8290; stroke-width: 0.8"/>
      </g>
     </g>
     <g id="text_2">
      <!-- 10 -->
      <g style="fill: #7a8290" transform="translate(126.163279 270.523547) scale(0.11 -0.11)">
       <defs>
        <path id="DejaVuSans-14" d="M 794 531 
L 1825 531 
L 1825 4091 
L 703 3866 
L 703 4441 
L 1819 4666 
L 2450 4666 
L 2450 531 
L 3481 531 
L 3481 0 
L 794 0 
L 794 531 
z
" transform="scale(0.015625)"/>
       </defs>
       <use xlink:href="#DejaVuSans-14"/>
       <use xlink:href="#DejaVuSans-13" transform="translate(63.625 0)"/>
      </g>
     </g>
    </g>
    <g id="xtick_3">
     <g id="line2d_5">
      <path d="M 191.373654 255.166125 
L 191.373654 22.318125 
" clip-path="url(#pa225756798)" style="fill: none; stroke: #7a8290; stroke-opacity: 0.18; stroke-width: 0.6; stroke-linecap: square"/>
     </g>
     <g id="line2d_6">
      <g>
       <use xlink:href="#mbc41722547" x="191.373654" y="255.166125" style="fill: #7a8290; stroke: #7a8290; stroke-width: 0.8"/>
      </g>
     </g>
     <g id="text_3">
      <!-- 20 -->
      <g style="fill: #7a8290" transform="translate(184.374904 270.523547) scale(0.11 -0.11)">
       <defs>
        <path id="DejaVuSans-15" d="M 1228 531 
L 3431 531 
L 3431 0 
L 469 0 
L 469 531 
Q 828 903 1448 1529 
Q 2069 2156 2228 2338 
Q 2531 2678 2651 2914 
Q 2772 3150 2772 3378 
Q 2772 3750 2511 3984 
Q 2250 4219 1831 4219 
Q 1534 4219 1204 4116 
Q 875 4013 500 3803 
L 500 4441 
Q 881 4594 1212 4672 
Q 1544 4750 1819 4750 
Q 2544 4750 2975 4387 
Q 3406 4025 3406 3419 
Q 3406 3131 3298 2873 
Q 3191 2616 2906 2266 
Q 2828 2175 2409 1742 
Q 1991 1309 1228 531 
z
" transform="scale(0.015625)"/>
       </defs>
       <use xlink:href="#DejaVuSans-15"/>
       <use xlink:href="#DejaVuSans-13" transform="translate(63.625 0)"/>
      </g>
     </g>
    </g>
    <g id="xtick_4">
     <g id="line2d_7">
      <path d="M 249.585278 255.166125 
L 249.585278 22.318125 
" clip-path="url(#pa225756798)" style="fill: none; stroke: #7a8290; stroke-opacity: 0.18; stroke-width: 0.6; stroke-linecap: square"/>
     </g>
     <g id="line2d_8">
      <g>
       <use xlink:href="#mbc41722547" x="249.585278" y="255.166125" style="fill: #7a8290; stroke: #7a8290; stroke-width: 0.8"/>
      </g>
     </g>
     <g id="text_4">
      <!-- 30 -->
      <g style="fill: #7a8290" transform="translate(242.586528 270.523547) scale(0.11 -0.11)">
       <defs>
        <path id="DejaVuSans-16" d="M 2597 2516 
Q 3050 2419 3304 2112 
Q 3559 1806 3559 1356 
Q 3559 666 3084 287 
Q 2609 -91 1734 -91 
Q 1441 -91 1130 -33 
Q 819 25 488 141 
L 488 750 
Q 750 597 1062 519 
Q 1375 441 1716 441 
Q 2309 441 2620 675 
Q 2931 909 2931 1356 
Q 2931 1769 2642 2001 
Q 2353 2234 1838 2234 
L 1294 2234 
L 1294 2753 
L 1863 2753 
Q 2328 2753 2575 2939 
Q 2822 3125 2822 3475 
Q 2822 3834 2567 4026 
Q 2313 4219 1838 4219 
Q 1578 4219 1281 4162 
Q 984 4106 628 3988 
L 628 4550 
Q 988 4650 1302 4700 
Q 1616 4750 1894 4750 
Q 2613 4750 3031 4423 
Q 3450 4097 3450 3541 
Q 3450 3153 3228 2886 
Q 3006 2619 2597 2516 
z
" transform="scale(0.015625)"/>
       </defs>
       <use xlink:href="#DejaVuSans-16"/>
       <use xlink:href="#DejaVuSans-13" transform="translate(63.625 0)"/>
      </g>
     </g>
    </g>
    <g id="xtick_5">
     <g id="line2d_9">
      <path d="M 307.796903 255.166125 
L 307.796903 22.318125 
" clip-path="url(#pa225756798)" style="fill: none; stroke: #7a8290; stroke-opacity: 0.18; stroke-width: 0.6; stroke-linecap: square"/>
     </g>
     <g id="line2d_10">
      <g>
       <use xlink:href="#mbc41722547" x="307.796903" y="255.166125" style="fill: #7a8290; stroke: #7a8290; stroke-width: 0.8"/>
      </g>
     </g>
     <g id="text_5">
      <!-- 40 -->
      <g style="fill: #7a8290" transform="translate(300.798153 270.523547) scale(0.11 -0.11)">
       <defs>
        <path id="DejaVuSans-17" d="M 2419 4116 
L 825 1625 
L 2419 1625 
L 2419 4116 
z
M 2253 4666 
L 3047 4666 
L 3047 1625 
L 3713 1625 
L 3713 1100 
L 3047 1100 
L 3047 0 
L 2419 0 
L 2419 1100 
L 313 1100 
L 313 1709 
L 2253 4666 
z
" transform="scale(0.015625)"/>
       </defs>
       <use xlink:href="#DejaVuSans-17"/>
       <use xlink:href="#DejaVuSans-13" transform="translate(63.625 0)"/>
      </g>
     </g>
    </g>
    <g id="xtick_6">
     <g id="line2d_11">
      <path d="M 366.008527 255.166125 
L 366.008527 22.318125 
" clip-path="url(#pa225756798)" style="fill: none; stroke: #7a8290; stroke-opacity: 0.18; stroke-width: 0.6; stroke-linecap: square"/>
     </g>
     <g id="line2d_12">
      <g>
       <use xlink:href="#mbc41722547" x="366.008527" y="255.166125" style="fill: #7a8290; stroke: #7a8290; stroke-width: 0.8"/>
      </g>
     </g>
     <g id="text_6">
      <!-- 50 -->
      <g style="fill: #7a8290" transform="translate(359.009777 270.523547) scale(0.11 -0.11)">
       <defs>
        <path id="DejaVuSans-18" d="M 691 4666 
L 3169 4666 
L 3169 4134 
L 1269 4134 
L 1269 2991 
Q 1406 3038 1543 3061 
Q 1681 3084 1819 3084 
Q 2600 3084 3056 2656 
Q 3513 2228 3513 1497 
Q 3513 744 3044 326 
Q 2575 -91 1722 -91 
Q 1428 -91 1123 -41 
Q 819 9 494 109 
L 494 744 
Q 775 591 1075 516 
Q 1375 441 1709 441 
Q 2250 441 2565 725 
Q 2881 1009 2881 1497 
Q 2881 1984 2565 2268 
Q 2250 2553 1709 2553 
Q 1456 2553 1204 2497 
Q 953 2441 691 2322 
L 691 4666 
z
" transform="scale(0.015625)"/>
       </defs>
       <use xlink:href="#DejaVuSans-18"/>
       <use xlink:href="#DejaVuSans-13" transform="translate(63.625 0)"/>
      </g>
     </g>
    </g>
    <g id="xtick_7">
     <g id="line2d_13">
      <path d="M 424.220151 255.166125 
L 424.220151 22.318125 
" clip-path="url(#pa225756798)" style="fill: none; stroke: #7a8290; stroke-opacity: 0.18; stroke-width: 0.6; stroke-linecap: square"/>
     </g>
     <g id="line2d_14">
      <g>
       <use xlink:href="#mbc41722547" x="424.220151" y="255.166125" style="fill: #7a8290; stroke: #7a8290; stroke-width: 0.8"/>
      </g>
     </g>
     <g id="text_7">
      <!-- 60 -->
      <g style="fill: #7a8290" transform="translate(417.221401 270.523547) scale(0.11 -0.11)">
       <defs>
        <path id="DejaVuSans-19" d="M 2113 2584 
Q 1688 2584 1439 2293 
Q 1191 2003 1191 1497 
Q 1191 994 1439 701 
Q 1688 409 2113 409 
Q 2538 409 2786 701 
Q 3034 994 3034 1497 
Q 3034 2003 2786 2293 
Q 2538 2584 2113 2584 
z
M 3366 4563 
L 3366 3988 
Q 3128 4100 2886 4159 
Q 2644 4219 2406 4219 
Q 1781 4219 1451 3797 
Q 1122 3375 1075 2522 
Q 1259 2794 1537 2939 
Q 1816 3084 2150 3084 
Q 2853 3084 3261 2657 
Q 3669 2231 3669 1497 
Q 3669 778 3244 343 
Q 2819 -91 2113 -91 
Q 1303 -91 875 529 
Q 447 1150 447 2328 
Q 447 3434 972 4092 
Q 1497 4750 2381 4750 
Q 2619 4750 2861 4703 
Q 3103 4656 3366 4563 
z
" transform="scale(0.015625)"/>
       </defs>
       <use xlink:href="#DejaVuSans-19"/>
       <use xlink:href="#DejaVuSans-13" transform="translate(63.625 0)"/>
      </g>
     </g>
    </g>
    <g id="text_8">
     <!-- Day of billing cycle -->
     <g style="fill: #7a8290" transform="translate(200.293125 285.524406) scale(0.11 -0.11)">
      <defs>
       <path id="DejaVuSans-27" d="M 1259 4147 
L 1259 519 
L 2022 519 
Q 2988 519 3436 956 
Q 3884 1394 3884 2338 
Q 3884 3275 3436 3711 
Q 2988 4147 2022 4147 
L 1259 4147 
z
M 628 4666 
L 1925 4666 
Q 3281 4666 3915 4102 
Q 4550 3538 4550 2338 
Q 4550 1131 3912 565 
Q 3275 0 1925 0 
L 628 0 
L 628 4666 
z
" transform="scale(0.015625)"/>
       <path id="DejaVuSans-44" d="M 2194 1759 
Q 1497 1759 1228 1600 
Q 959 1441 959 1056 
Q 959 750 1161 570 
Q 1363 391 1709 391 
Q 2188 391 2477 730 
Q 2766 1069 2766 1631 
L 2766 1759 
L 2194 1759 
z
M 3341 1997 
L 3341 0 
L 2766 0 
L 2766 531 
Q 2569 213 2275 61 
Q 1981 -91 1556 -91 
Q 1019 -91 701 211 
Q 384 513 384 1019 
Q 384 1609 779 1909 
Q 1175 2209 1959 2209 
L 2766 2209 
L 2766 2266 
Q 2766 2663 2505 2880 
Q 2244 3097 1772 3097 
Q 1472 3097 1187 3025 
Q 903 2953 641 2809 
L 641 3341 
Q 956 3463 1253 3523 
Q 1550 3584 1831 3584 
Q 2591 3584 2966 3190 
Q 3341 2797 3341 1997 
z
" transform="scale(0.015625)"/>
       <path id="DejaVuSans-5c" d="M 2059 -325 
Q 1816 -950 1584 -1140 
Q 1353 -1331 966 -1331 
L 506 -1331 
L 506 -850 
L 844 -850 
Q 1081 -850 1212 -737 
Q 1344 -625 1503 -206 
L 1606 56 
L 191 3500 
L 800 3500 
L 1894 763 
L 2988 3500 
L 3597 3500 
L 2059 -325 
z
" transform="scale(0.015625)"/>
       <path id="DejaVuSans-3" transform="scale(0.015625)"/>
       <path id="DejaVuSans-52" d="M 1959 3097 
Q 1497 3097 1228 2736 
Q 959 2375 959 1747 
Q 959 1119 1226 758 
Q 1494 397 1959 397 
Q 2419 397 2687 759 
Q 2956 1122 2956 1747 
Q 2956 2369 2687 2733 
Q 2419 3097 1959 3097 
z
M 1959 3584 
Q 2709 3584 3137 3096 
Q 3566 2609 3566 1747 
Q 3566 888 3137 398 
Q 2709 -91 1959 -91 
Q 1206 -91 779 398 
Q 353 888 353 1747 
Q 353 2609 779 3096 
Q 1206 3584 1959 3584 
z
" transform="scale(0.015625)"/>
       <path id="DejaVuSans-49" d="M 2375 4863 
L 2375 4384 
L 1825 4384 
Q 1516 4384 1395 4259 
Q 1275 4134 1275 3809 
L 1275 3500 
L 2222 3500 
L 2222 3053 
L 1275 3053 
L 1275 0 
L 697 0 
L 697 3053 
L 147 3053 
L 147 3500 
L 697 3500 
L 697 3744 
Q 697 4328 969 4595 
Q 1241 4863 1831 4863 
L 2375 4863 
z
" transform="scale(0.015625)"/>
       <path id="DejaVuSans-45" d="M 3116 1747 
Q 3116 2381 2855 2742 
Q 2594 3103 2138 3103 
Q 1681 3103 1420 2742 
Q 1159 2381 1159 1747 
Q 1159 1113 1420 752 
Q 1681 391 2138 391 
Q 2594 391 2855 752 
Q 3116 1113 3116 1747 
z
M 1159 2969 
Q 1341 3281 1617 3432 
Q 1894 3584 2278 3584 
Q 2916 3584 3314 3078 
Q 3713 2572 3713 1747 
Q 3713 922 3314 415 
Q 2916 -91 2278 -91 
Q 1894 -91 1617 61 
Q 1341 213 1159 525 
L 1159 0 
L 581 0 
L 581 4863 
L 1159 4863 
L 1159 2969 
z
" transform="scale(0.015625)"/>
       <path id="DejaVuSans-4c" d="M 603 3500 
L 1178 3500 
L 1178 0 
L 603 0 
L 603 3500 
z
M 603 4863 
L 1178 4863 
L 1178 4134 
L 603 4134 
L 603 4863 
z
" transform="scale(0.015625)"/>
       <path id="DejaVuSans-4f" d="M 603 4863 
L 1178 4863 
L 1178 0 
L 603 0 
L 603 4863 
z
" transform="scale(0.015625)"/>
       <path id="DejaVuSans-51" d="M 3513 2113 
L 3513 0 
L 2938 0 
L 2938 2094 
Q 2938 2591 2744 2837 
Q 2550 3084 2163 3084 
Q 1697 3084 1428 2787 
Q 1159 2491 1159 1978 
L 1159 0 
L 581 0 
L 581 3500 
L 1159 3500 
L 1159 2956 
Q 1366 3272 1645 3428 
Q 1925 3584 2291 3584 
Q 2894 3584 3203 3211 
Q 3513 2838 3513 2113 
z
" transform="scale(0.015625)"/>
       <path id="DejaVuSans-4a" d="M 2906 1791 
Q 2906 2416 2648 2759 
Q 2391 3103 1925 3103 
Q 1463 3103 1205 2759 
Q 947 2416 947 1791 
Q 947 1169 1205 825 
Q 1463 481 1925 481 
Q 2391 481 2648 825 
Q 2906 1169 2906 1791 
z
M 3481 434 
Q 3481 -459 3084 -895 
Q 2688 -1331 1869 -1331 
Q 1566 -1331 1297 -1286 
Q 1028 -1241 775 -1147 
L 775 -588 
Q 1028 -725 1275 -790 
Q 1522 -856 1778 -856 
Q 2344 -856 2625 -561 
Q 2906 -266 2906 331 
L 2906 616 
Q 2728 306 2450 153 
Q 2172 0 1784 0 
Q 1141 0 747 490 
Q 353 981 353 1791 
Q 353 2603 747 3093 
Q 1141 3584 1784 3584 
Q 2172 3584 2450 3431 
Q 2728 3278 2906 2969 
L 2906 3500 
L 3481 3500 
L 3481 434 
z
" transform="scale(0.015625)"/>
       <path id="DejaVuSans-46" d="M 3122 3366 
L 3122 2828 
Q 2878 2963 2633 3030 
Q 2388 3097 2138 3097 
Q 1578 3097 1268 2742 
Q 959 2388 959 1747 
Q 959 1106 1268 751 
Q 1578 397 2138 397 
Q 2388 397 2633 464 
Q 2878 531 3122 666 
L 3122 134 
Q 2881 22 2623 -34 
Q 2366 -91 2075 -91 
Q 1284 -91 818 406 
Q 353 903 353 1747 
Q 353 2603 823 3093 
Q 1294 3584 2113 3584 
Q 2378 3584 2631 3529 
Q 2884 3475 3122 3366 
z
" transform="scale(0.015625)"/>
       <path id="DejaVuSans-48" d="M 3597 1894 
L 3597 1613 
L 953 1613 
Q 991 1019 1311 708 
Q 1631 397 2203 397 
Q 2534 397 2845 478 
Q 3156 559 3463 722 
L 3463 178 
Q 3153 47 2828 -22 
Q 2503 -91 2169 -91 
Q 1331 -91 842 396 
Q 353 884 353 1716 
Q 353 2575 817 3079 
Q 1281 3584 2069 3584 
Q 2775 3584 3186 3129 
Q 3597 2675 3597 1894 
z
M 3022 2063 
Q 3016 2534 2758 2815 
Q 2500 3097 2075 3097 
Q 1594 3097 1305 2825 
Q 1016 2553 972 2059 
L 3022 2063 
z
" transform="scale(0.015625)"/>
      </defs>
      <use xlink:href="#DejaVuSans-27"/>
      <use xlink:href="#DejaVuSans-44" transform="translate(77 0)"/>
      <use xlink:href="#DejaVuSans-5c" transform="translate(138.28125 0)"/>
      <use xlink:href="#DejaVuSans-3" transform="translate(197.46875 0)"/>
      <use xlink:href="#DejaVuSans-52" transform="translate(229.25 0)"/>
      <use xlink:href="#DejaVuSans-49" transform="translate(290.4375 0)"/>
      <use xlink:href="#DejaVuSans-3" transform="translate(325.640625 0)"/>
      <use xlink:href="#DejaVuSans-45" transform="translate(357.421875 0)"/>
      <use xlink:href="#DejaVuSans-4c" transform="translate(420.90625 0)"/>
      <use xlink:href="#DejaVuSans-4f" transform="translate(448.6875 0)"/>
      <use xlink:href="#DejaVuSans-4f" transform="translate(476.46875 0)"/>
      <use xlink:href="#DejaVuSans-4c" transform="translate(504.25 0)"/>
      <use xlink:href="#DejaVuSans-51" transform="translate(532.03125 0)"/>
      <use xlink:href="#DejaVuSans-4a" transform="translate(595.40625 0)"/>
      <use xlink:href="#DejaVuSans-3" transform="translate(658.890625 0)"/>
      <use xlink:href="#DejaVuSans-46" transform="translate(690.671875 0)"/>
      <use xlink:href="#DejaVuSans-5c" transform="translate(745.65625 0)"/>
      <use xlink:href="#DejaVuSans-46" transform="translate(804.84375 0)"/>
      <use xlink:href="#DejaVuSans-4f" transform="translate(859.828125 0)"/>
      <use xlink:href="#DejaVuSans-48" transform="translate(887.609375 0)"/>
     </g>
    </g>
   </g>
   <g id="matplotlib.axis_2">
    <g id="ytick_1">
     <g id="line2d_15">
      <path d="M 57.195859 255.166125 
L 447.795859 255.166125 
" clip-path="url(#pa225756798)" style="fill: none; stroke: #7a8290; stroke-opacity: 0.18; stroke-width: 0.6; stroke-linecap: square"/>
     </g>
     <g id="line2d_16">
      <defs>
       <path id="m85175d5f21" d="M 0 0 
L -3.5 0 
" style="stroke: #7a8290; stroke-width: 0.8"/>
      </defs>
      <g>
       <use xlink:href="#m85175d5f21" x="57.195859" y="255.166125" style="fill: #7a8290; stroke: #7a8290; stroke-width: 0.8"/>
      </g>
     </g>
     <g id="text_9">
      <!-- 0 -->
      <g style="fill: #7a8290" transform="translate(43.197109 259.344836) scale(0.11 -0.11)">
       <use xlink:href="#DejaVuSans-13"/>
      </g>
     </g>
    </g>
    <g id="ytick_2">
     <g id="line2d_17">
      <path d="M 57.195859 212.046125 
L 447.795859 212.046125 
" clip-path="url(#pa225756798)" style="fill: none; stroke: #7a8290; stroke-opacity: 0.18; stroke-width: 0.6; stroke-linecap: square"/>
     </g>
     <g id="line2d_18">
      <g>
       <use xlink:href="#m85175d5f21" x="57.195859" y="212.046125" style="fill: #7a8290; stroke: #7a8290; stroke-width: 0.8"/>
      </g>
     </g>
     <g id="text_10">
      <!-- 200 -->
      <g style="fill: #7a8290" transform="translate(29.199609 216.224836) scale(0.11 -0.11)">
       <use xlink:href="#DejaVuSans-15"/>
       <use xlink:href="#DejaVuSans-13" transform="translate(63.625 0)"/>
       <use xlink:href="#DejaVuSans-13" transform="translate(127.25 0)"/>
      </g>
     </g>
    </g>
    <g id="ytick_3">
     <g id="line2d_19">
      <path d="M 57.195859 168.926125 
L 447.795859 168.926125 
" clip-path="url(#pa225756798)" style="fill: none; stroke: #7a8290; stroke-opacity: 0.18; stroke-width: 0.6; stroke-linecap: square"/>
     </g>
     <g id="line2d_20">
      <g>
       <use xlink:href="#m85175d5f21" x="57.195859" y="168.926125" style="fill: #7a8290; stroke: #7a8290; stroke-width: 0.8"/>
      </g>
     </g>
     <g id="text_11">
      <!-- 400 -->
      <g style="fill: #7a8290" transform="translate(29.199609 173.104836) scale(0.11 -0.11)">
       <use xlink:href="#DejaVuSans-17"/>
       <use xlink:href="#DejaVuSans-13" transform="translate(63.625 0)"/>
       <use xlink:href="#DejaVuSans-13" transform="translate(127.25 0)"/>
      </g>
     </g>
    </g>
    <g id="ytick_4">
     <g id="line2d_21">
      <path d="M 57.195859 125.806125 
L 447.795859 125.806125 
" clip-path="url(#pa225756798)" style="fill: none; stroke: #7a8290; stroke-opacity: 0.18; stroke-width: 0.6; stroke-linecap: square"/>
     </g>
     <g id="line2d_22">
      <g>
       <use xlink:href="#m85175d5f21" x="57.195859" y="125.806125" style="fill: #7a8290; stroke: #7a8290; stroke-width: 0.8"/>
      </g>
     </g>
     <g id="text_12">
      <!-- 600 -->
      <g style="fill: #7a8290" transform="translate(29.199609 129.984836) scale(0.11 -0.11)">
       <use xlink:href="#DejaVuSans-19"/>
       <use xlink:href="#DejaVuSans-13" transform="translate(63.625 0)"/>
       <use xlink:href="#DejaVuSans-13" transform="translate(127.25 0)"/>
      </g>
     </g>
    </g>
    <g id="ytick_5">
     <g id="line2d_23">
      <path d="M 57.195859 82.686125 
L 447.795859 82.686125 
" clip-path="url(#pa225756798)" style="fill: none; stroke: #7a8290; stroke-opacity: 0.18; stroke-width: 0.6; stroke-linecap: square"/>
     </g>
     <g id="line2d_24">
      <g>
       <use xlink:href="#m85175d5f21" x="57.195859" y="82.686125" style="fill: #7a8290; stroke: #7a8290; stroke-width: 0.8"/>
      </g>
     </g>
     <g id="text_13">
      <!-- 800 -->
      <g style="fill: #7a8290" transform="translate(29.199609 86.864836) scale(0.11 -0.11)">
       <defs>
        <path id="DejaVuSans-1b" d="M 2034 2216 
Q 1584 2216 1326 1975 
Q 1069 1734 1069 1313 
Q 1069 891 1326 650 
Q 1584 409 2034 409 
Q 2484 409 2743 651 
Q 3003 894 3003 1313 
Q 3003 1734 2745 1975 
Q 2488 2216 2034 2216 
z
M 1403 2484 
Q 997 2584 770 2862 
Q 544 3141 544 3541 
Q 544 4100 942 4425 
Q 1341 4750 2034 4750 
Q 2731 4750 3128 4425 
Q 3525 4100 3525 3541 
Q 3525 3141 3298 2862 
Q 3072 2584 2669 2484 
Q 3125 2378 3379 2068 
Q 3634 1759 3634 1313 
Q 3634 634 3220 271 
Q 2806 -91 2034 -91 
Q 1263 -91 848 271 
Q 434 634 434 1313 
Q 434 1759 690 2068 
Q 947 2378 1403 2484 
z
M 1172 3481 
Q 1172 3119 1398 2916 
Q 1625 2713 2034 2713 
Q 2441 2713 2670 2916 
Q 2900 3119 2900 3481 
Q 2900 3844 2670 4047 
Q 2441 4250 2034 4250 
Q 1625 4250 1398 4047 
Q 1172 3844 1172 3481 
z
" transform="scale(0.015625)"/>
       </defs>
       <use xlink:href="#DejaVuSans-1b"/>
       <use xlink:href="#DejaVuSans-13" transform="translate(63.625 0)"/>
       <use xlink:href="#DejaVuSans-13" transform="translate(127.25 0)"/>
      </g>
     </g>
    </g>
    <g id="ytick_6">
     <g id="line2d_25">
      <path d="M 57.195859 39.566125 
L 447.795859 39.566125 
" clip-path="url(#pa225756798)" style="fill: none; stroke: #7a8290; stroke-opacity: 0.18; stroke-width: 0.6; stroke-linecap: square"/>
     </g>
     <g id="line2d_26">
      <g>
       <use xlink:href="#m85175d5f21" x="57.195859" y="39.566125" style="fill: #7a8290; stroke: #7a8290; stroke-width: 0.8"/>
      </g>
     </g>
     <g id="text_14">
      <!-- 1000 -->
      <g style="fill: #7a8290" transform="translate(22.200859 43.744836) scale(0.11 -0.11)">
       <use xlink:href="#DejaVuSans-14"/>
       <use xlink:href="#DejaVuSans-13" transform="translate(63.625 0)"/>
       <use xlink:href="#DejaVuSans-13" transform="translate(127.25 0)"/>
       <use xlink:href="#DejaVuSans-13" transform="translate(190.875 0)"/>
      </g>
     </g>
    </g>
    <g id="text_15">
     <!-- Questions remaining (synthetic) -->
     <g style="fill: #7a8290" transform="translate(15.558281 227.105641) rotate(-90) scale(0.11 -0.11)">
      <defs>
       <path id="DejaVuSans-34" d="M 2522 4238 
Q 1834 4238 1429 3725 
Q 1025 3213 1025 2328 
Q 1025 1447 1429 934 
Q 1834 422 2522 422 
Q 3209 422 3611 934 
Q 4013 1447 4013 2328 
Q 4013 3213 3611 3725 
Q 3209 4238 2522 4238 
z
M 3406 84 
L 4238 -825 
L 3475 -825 
L 2784 -78 
Q 2681 -84 2626 -87 
Q 2572 -91 2522 -91 
Q 1538 -91 948 567 
Q 359 1225 359 2328 
Q 359 3434 948 4092 
Q 1538 4750 2522 4750 
Q 3503 4750 4090 4092 
Q 4678 3434 4678 2328 
Q 4678 1516 4351 937 
Q 4025 359 3406 84 
z
" transform="scale(0.015625)"/>
       <path id="DejaVuSans-58" d="M 544 1381 
L 544 3500 
L 1119 3500 
L 1119 1403 
Q 1119 906 1312 657 
Q 1506 409 1894 409 
Q 2359 409 2629 706 
Q 2900 1003 2900 1516 
L 2900 3500 
L 3475 3500 
L 3475 0 
L 2900 0 
L 2900 538 
Q 2691 219 2414 64 
Q 2138 -91 1772 -91 
Q 1169 -91 856 284 
Q 544 659 544 1381 
z
M 1991 3584 
L 1991 3584 
z
" transform="scale(0.015625)"/>
       <path id="DejaVuSans-56" d="M 2834 3397 
L 2834 2853 
Q 2591 2978 2328 3040 
Q 2066 3103 1784 3103 
Q 1356 3103 1142 2972 
Q 928 2841 928 2578 
Q 928 2378 1081 2264 
Q 1234 2150 1697 2047 
L 1894 2003 
Q 2506 1872 2764 1633 
Q 3022 1394 3022 966 
Q 3022 478 2636 193 
Q 2250 -91 1575 -91 
Q 1294 -91 989 -36 
Q 684 19 347 128 
L 347 722 
Q 666 556 975 473 
Q 1284 391 1588 391 
Q 1994 391 2212 530 
Q 2431 669 2431 922 
Q 2431 1156 2273 1281 
Q 2116 1406 1581 1522 
L 1381 1569 
Q 847 1681 609 1914 
Q 372 2147 372 2553 
Q 372 3047 722 3315 
Q 1072 3584 1716 3584 
Q 2034 3584 2315 3537 
Q 2597 3491 2834 3397 
z
" transform="scale(0.015625)"/>
       <path id="DejaVuSans-57" d="M 1172 4494 
L 1172 3500 
L 2356 3500 
L 2356 3053 
L 1172 3053 
L 1172 1153 
Q 1172 725 1289 603 
Q 1406 481 1766 481 
L 2356 481 
L 2356 0 
L 1766 0 
Q 1100 0 847 248 
Q 594 497 594 1153 
L 594 3053 
L 172 3053 
L 172 3500 
L 594 3500 
L 594 4494 
L 1172 4494 
z
" transform="scale(0.015625)"/>
       <path id="DejaVuSans-55" d="M 2631 2963 
Q 2534 3019 2420 3045 
Q 2306 3072 2169 3072 
Q 1681 3072 1420 2755 
Q 1159 2438 1159 1844 
L 1159 0 
L 581 0 
L 581 3500 
L 1159 3500 
L 1159 2956 
Q 1341 3275 1631 3429 
Q 1922 3584 2338 3584 
Q 2397 3584 2469 3576 
Q 2541 3569 2628 3553 
L 2631 2963 
z
" transform="scale(0.015625)"/>
       <path id="DejaVuSans-50" d="M 3328 2828 
Q 3544 3216 3844 3400 
Q 4144 3584 4550 3584 
Q 5097 3584 5394 3201 
Q 5691 2819 5691 2113 
L 5691 0 
L 5113 0 
L 5113 2094 
Q 5113 2597 4934 2840 
Q 4756 3084 4391 3084 
Q 3944 3084 3684 2787 
Q 3425 2491 3425 1978 
L 3425 0 
L 2847 0 
L 2847 2094 
Q 2847 2600 2669 2842 
Q 2491 3084 2119 3084 
Q 1678 3084 1418 2786 
Q 1159 2488 1159 1978 
L 1159 0 
L 581 0 
L 581 3500 
L 1159 3500 
L 1159 2956 
Q 1356 3278 1631 3431 
Q 1906 3584 2284 3584 
Q 2666 3584 2933 3390 
Q 3200 3197 3328 2828 
z
" transform="scale(0.015625)"/>
       <path id="DejaVuSans-b" d="M 1984 4856 
Q 1566 4138 1362 3434 
Q 1159 2731 1159 2009 
Q 1159 1288 1364 580 
Q 1569 -128 1984 -844 
L 1484 -844 
Q 1016 -109 783 600 
Q 550 1309 550 2009 
Q 550 2706 781 3412 
Q 1013 4119 1484 4856 
L 1984 4856 
z
" transform="scale(0.015625)"/>
       <path id="DejaVuSans-4b" d="M 3513 2113 
L 3513 0 
L 2938 0 
L 2938 2094 
Q 2938 2591 2744 2837 
Q 2550 3084 2163 3084 
Q 1697 3084 1428 2787 
Q 1159 2491 1159 1978 
L 1159 0 
L 581 0 
L 581 4863 
L 1159 4863 
L 1159 2956 
Q 1366 3272 1645 3428 
Q 1925 3584 2291 3584 
Q 2894 3584 3203 3211 
Q 3513 2838 3513 2113 
z
" transform="scale(0.015625)"/>
       <path id="DejaVuSans-c" d="M 513 4856 
L 1013 4856 
Q 1481 4119 1714 3412 
Q 1947 2706 1947 2009 
Q 1947 1309 1714 600 
Q 1481 -109 1013 -844 
L 513 -844 
Q 928 -128 1133 580 
Q 1338 1288 1338 2009 
Q 1338 2731 1133 3434 
Q 928 4138 513 4856 
z
" transform="scale(0.015625)"/>
      </defs>
      <use xlink:href="#DejaVuSans-34"/>
      <use xlink:href="#DejaVuSans-58" transform="translate(78.71875 0)"/>
      <use xlink:href="#DejaVuSans-48" transform="translate(142.09375 0)"/>
      <use xlink:href="#DejaVuSans-56" transform="translate(203.625 0)"/>
      <use xlink:href="#DejaVuSans-57" transform="translate(255.71875 0)"/>
      <use xlink:href="#DejaVuSans-4c" transform="translate(294.921875 0)"/>
      <use xlink:href="#DejaVuSans-52" transform="translate(322.703125 0)"/>
      <use xlink:href="#DejaVuSans-51" transform="translate(383.890625 0)"/>
      <use xlink:href="#DejaVuSans-56" transform="translate(447.265625 0)"/>
      <use xlink:href="#DejaVuSans-3" transform="translate(499.359375 0)"/>
      <use xlink:href="#DejaVuSans-55" transform="translate(531.140625 0)"/>
      <use xlink:href="#DejaVuSans-48" transform="translate(570.046875 0)"/>
      <use xlink:href="#DejaVuSans-50" transform="translate(631.578125 0)"/>
      <use xlink:href="#DejaVuSans-44" transform="translate(728.984375 0)"/>
      <use xlink:href="#DejaVuSans-4c" transform="translate(790.265625 0)"/>
      <use xlink:href="#DejaVuSans-51" transform="translate(818.046875 0)"/>
      <use xlink:href="#DejaVuSans-4c" transform="translate(881.421875 0)"/>
      <use xlink:href="#DejaVuSans-51" transform="translate(909.203125 0)"/>
      <use xlink:href="#DejaVuSans-4a" transform="translate(972.578125 0)"/>
      <use xlink:href="#DejaVuSans-3" transform="translate(1036.0625 0)"/>
      <use xlink:href="#DejaVuSans-b" transform="translate(1067.84375 0)"/>
      <use xlink:href="#DejaVuSans-56" transform="translate(1106.859375 0)"/>
      <use xlink:href="#DejaVuSans-5c" transform="translate(1158.953125 0)"/>
      <use xlink:href="#DejaVuSans-51" transform="translate(1218.140625 0)"/>
      <use xlink:href="#DejaVuSans-57" transform="translate(1281.515625 0)"/>
      <use xlink:href="#DejaVuSans-4b" transform="translate(1320.71875 0)"/>
      <use xlink:href="#DejaVuSans-48" transform="translate(1384.09375 0)"/>
      <use xlink:href="#DejaVuSans-57" transform="translate(1445.625 0)"/>
      <use xlink:href="#DejaVuSans-4c" transform="translate(1484.828125 0)"/>
      <use xlink:href="#DejaVuSans-46" transform="translate(1512.609375 0)"/>
      <use xlink:href="#DejaVuSans-c" transform="translate(1567.59375 0)"/>
     </g>
    </g>
   </g>
   <g id="line2d_27">
    <path d="M 74.950405 39.566125 
L 80.771567 47.762108 
L 86.59273 56.727822 
L 92.413892 64.211373 
L 98.235055 70.100033 
L 104.056217 77.116509 
L 109.877379 82.743721 
L 115.698542 91.092125 
L 121.519704 102.75233 
L 127.340867 109.671693 
L 133.162029 116.2592 
L 138.983192 125.71932 
L 144.804354 134.835458 
L 150.625517 143.300985 
L 156.446679 149.086479 
L 162.267841 157.203598 
L 168.089004 167.195287 
L 173.910166 171.910335 
L 179.731329 178.919191 
L 185.552491 182.193148 
L 191.373654 187.049656 
L 197.194816 190.477519 
L 203.015979 198.062091 
L 208.837141 202.975754 
L 214.658303 211.870369 
L 220.479466 220.468715 
L 226.300628 228.177887 
L 232.121791 229.859327 
L 237.942953 236.65842 
L 243.764116 244.725739 
L 249.585278 253.211692 
L 255.406441 39.566125 
L 261.227603 46.522882 
L 267.048765 52.184057 
L 272.869928 58.284233 
L 278.69109 69.22179 
L 284.512253 75.325337 
L 290.333415 83.433997 
L 296.154578 93.91489 
L 301.97574 100.597799 
L 307.796903 108.501604 
L 313.618065 116.980196 
L 319.439227 125.338013 
L 325.26039 130.361348 
L 331.081552 138.751138 
L 336.902715 150.459486 
L 342.723877 154.649514 
L 348.54504 165.065708 
L 354.366202 173.567301 
L 360.187365 180.100489 
L 366.008527 193.468767 
L 371.829689 203.633685 
L 377.650852 208.723685 
L 383.472014 217.109273 
L 389.293177 226.794084 
L 395.114339 234.498467 
L 400.935502 244.458093 
L 406.756664 252.478799 
L 412.577827 255.166125 
L 418.398989 255.166125 
L 424.220151 255.166125 
L 430.041314 255.166125 
" clip-path="url(#pa225756798)" style="fill: none; stroke: #0072b2; stroke-width: 2; stroke-linecap: square"/>
   </g>
   <g id="patch_3">
    <path d="M 57.195859 255.166125 
L 57.195859 22.318125 
" style="fill: none; stroke: #7a8290; stroke-width: 0.8; stroke-linejoin: miter; stroke-linecap: square"/>
   </g>
   <g id="patch_4">
    <path d="M 57.195859 255.166125 
L 447.795859 255.166125 
" style="fill: none; stroke: #7a8290; stroke-width: 0.8; stroke-linejoin: miter; stroke-linecap: square"/>
   </g>
   <g id="PathCollection_1">
    <defs>
     <path id="m443ecb17d7" d="M 0 1.870829 
C 0.49615 1.870829 0.972045 1.673706 1.322876 1.322876 
C 1.673706 0.972045 1.870829 0.49615 1.870829 0 
C 1.870829 -0.49615 1.673706 -0.972045 1.322876 -1.322876 
C 0.972045 -1.673706 0.49615 -1.870829 0 -1.870829 
C -0.49615 -1.870829 -0.972045 -1.673706 -1.322876 -1.322876 
C -1.673706 -0.972045 -1.870829 -0.49615 -1.870829 0 
C -1.870829 0.49615 -1.673706 0.972045 -1.322876 1.322876 
C -0.972045 1.673706 -0.49615 1.870829 0 1.870829 
z
" style="stroke: #56b4e9; stroke-opacity: 0.55"/>
    </defs>
    <g clip-path="url(#pa225756798)">
     <use xlink:href="#m443ecb17d7" x="80.771567" y="47.762108" style="fill: #56b4e9; fill-opacity: 0.55; stroke: #56b4e9; stroke-opacity: 0.55"/>
     <use xlink:href="#m443ecb17d7" x="86.59273" y="56.727822" style="fill: #56b4e9; fill-opacity: 0.55; stroke: #56b4e9; stroke-opacity: 0.55"/>
     <use xlink:href="#m443ecb17d7" x="92.413892" y="64.211373" style="fill: #56b4e9; fill-opacity: 0.55; stroke: #56b4e9; stroke-opacity: 0.55"/>
     <use xlink:href="#m443ecb17d7" x="98.235055" y="70.100033" style="fill: #56b4e9; fill-opacity: 0.55; stroke: #56b4e9; stroke-opacity: 0.55"/>
     <use xlink:href="#m443ecb17d7" x="104.056217" y="77.116509" style="fill: #56b4e9; fill-opacity: 0.55; stroke: #56b4e9; stroke-opacity: 0.55"/>
     <use xlink:href="#m443ecb17d7" x="109.877379" y="82.743721" style="fill: #56b4e9; fill-opacity: 0.55; stroke: #56b4e9; stroke-opacity: 0.55"/>
     <use xlink:href="#m443ecb17d7" x="115.698542" y="91.092125" style="fill: #56b4e9; fill-opacity: 0.55; stroke: #56b4e9; stroke-opacity: 0.55"/>
     <use xlink:href="#m443ecb17d7" x="121.519704" y="102.75233" style="fill: #56b4e9; fill-opacity: 0.55; stroke: #56b4e9; stroke-opacity: 0.55"/>
     <use xlink:href="#m443ecb17d7" x="127.340867" y="109.671693" style="fill: #56b4e9; fill-opacity: 0.55; stroke: #56b4e9; stroke-opacity: 0.55"/>
     <use xlink:href="#m443ecb17d7" x="133.162029" y="116.2592" style="fill: #56b4e9; fill-opacity: 0.55; stroke: #56b4e9; stroke-opacity: 0.55"/>
     <use xlink:href="#m443ecb17d7" x="138.983192" y="125.71932" style="fill: #56b4e9; fill-opacity: 0.55; stroke: #56b4e9; stroke-opacity: 0.55"/>
     <use xlink:href="#m443ecb17d7" x="144.804354" y="134.835458" style="fill: #56b4e9; fill-opacity: 0.55; stroke: #56b4e9; stroke-opacity: 0.55"/>
     <use xlink:href="#m443ecb17d7" x="150.625517" y="143.300985" style="fill: #56b4e9; fill-opacity: 0.55; stroke: #56b4e9; stroke-opacity: 0.55"/>
     <use xlink:href="#m443ecb17d7" x="156.446679" y="149.086479" style="fill: #56b4e9; fill-opacity: 0.55; stroke: #56b4e9; stroke-opacity: 0.55"/>
     <use xlink:href="#m443ecb17d7" x="162.267841" y="157.203598" style="fill: #56b4e9; fill-opacity: 0.55; stroke: #56b4e9; stroke-opacity: 0.55"/>
     <use xlink:href="#m443ecb17d7" x="168.089004" y="167.195287" style="fill: #56b4e9; fill-opacity: 0.55; stroke: #56b4e9; stroke-opacity: 0.55"/>
     <use xlink:href="#m443ecb17d7" x="173.910166" y="171.910335" style="fill: #56b4e9; fill-opacity: 0.55; stroke: #56b4e9; stroke-opacity: 0.55"/>
     <use xlink:href="#m443ecb17d7" x="179.731329" y="178.919191" style="fill: #56b4e9; fill-opacity: 0.55; stroke: #56b4e9; stroke-opacity: 0.55"/>
     <use xlink:href="#m443ecb17d7" x="185.552491" y="182.193148" style="fill: #56b4e9; fill-opacity: 0.55; stroke: #56b4e9; stroke-opacity: 0.55"/>
     <use xlink:href="#m443ecb17d7" x="191.373654" y="187.049656" style="fill: #56b4e9; fill-opacity: 0.55; stroke: #56b4e9; stroke-opacity: 0.55"/>
     <use xlink:href="#m443ecb17d7" x="197.194816" y="190.477519" style="fill: #56b4e9; fill-opacity: 0.55; stroke: #56b4e9; stroke-opacity: 0.55"/>
     <use xlink:href="#m443ecb17d7" x="203.015979" y="198.062091" style="fill: #56b4e9; fill-opacity: 0.55; stroke: #56b4e9; stroke-opacity: 0.55"/>
     <use xlink:href="#m443ecb17d7" x="208.837141" y="202.975754" style="fill: #56b4e9; fill-opacity: 0.55; stroke: #56b4e9; stroke-opacity: 0.55"/>
     <use xlink:href="#m443ecb17d7" x="214.658303" y="211.870369" style="fill: #56b4e9; fill-opacity: 0.55; stroke: #56b4e9; stroke-opacity: 0.55"/>
     <use xlink:href="#m443ecb17d7" x="220.479466" y="220.468715" style="fill: #56b4e9; fill-opacity: 0.55; stroke: #56b4e9; stroke-opacity: 0.55"/>
     <use xlink:href="#m443ecb17d7" x="226.300628" y="228.177887" style="fill: #56b4e9; fill-opacity: 0.55; stroke: #56b4e9; stroke-opacity: 0.55"/>
     <use xlink:href="#m443ecb17d7" x="232.121791" y="229.859327" style="fill: #56b4e9; fill-opacity: 0.55; stroke: #56b4e9; stroke-opacity: 0.55"/>
     <use xlink:href="#m443ecb17d7" x="237.942953" y="236.65842" style="fill: #56b4e9; fill-opacity: 0.55; stroke: #56b4e9; stroke-opacity: 0.55"/>
     <use xlink:href="#m443ecb17d7" x="243.764116" y="244.725739" style="fill: #56b4e9; fill-opacity: 0.55; stroke: #56b4e9; stroke-opacity: 0.55"/>
     <use xlink:href="#m443ecb17d7" x="249.585278" y="253.211692" style="fill: #56b4e9; fill-opacity: 0.55; stroke: #56b4e9; stroke-opacity: 0.55"/>
     <use xlink:href="#m443ecb17d7" x="261.227603" y="46.522882" style="fill: #56b4e9; fill-opacity: 0.55; stroke: #56b4e9; stroke-opacity: 0.55"/>
     <use xlink:href="#m443ecb17d7" x="267.048765" y="52.184057" style="fill: #56b4e9; fill-opacity: 0.55; stroke: #56b4e9; stroke-opacity: 0.55"/>
     <use xlink:href="#m443ecb17d7" x="272.869928" y="58.284233" style="fill: #56b4e9; fill-opacity: 0.55; stroke: #56b4e9; stroke-opacity: 0.55"/>
     <use xlink:href="#m443ecb17d7" x="278.69109" y="69.22179" style="fill: #56b4e9; fill-opacity: 0.55; stroke: #56b4e9; stroke-opacity: 0.55"/>
     <use xlink:href="#m443ecb17d7" x="284.512253" y="75.325337" style="fill: #56b4e9; fill-opacity: 0.55; stroke: #56b4e9; stroke-opacity: 0.55"/>
     <use xlink:href="#m443ecb17d7" x="290.333415" y="83.433997" style="fill: #56b4e9; fill-opacity: 0.55; stroke: #56b4e9; stroke-opacity: 0.55"/>
     <use xlink:href="#m443ecb17d7" x="296.154578" y="93.91489" style="fill: #56b4e9; fill-opacity: 0.55; stroke: #56b4e9; stroke-opacity: 0.55"/>
     <use xlink:href="#m443ecb17d7" x="301.97574" y="100.597799" style="fill: #56b4e9; fill-opacity: 0.55; stroke: #56b4e9; stroke-opacity: 0.55"/>
     <use xlink:href="#m443ecb17d7" x="307.796903" y="108.501604" style="fill: #56b4e9; fill-opacity: 0.55; stroke: #56b4e9; stroke-opacity: 0.55"/>
     <use xlink:href="#m443ecb17d7" x="313.618065" y="116.980196" style="fill: #56b4e9; fill-opacity: 0.55; stroke: #56b4e9; stroke-opacity: 0.55"/>
     <use xlink:href="#m443ecb17d7" x="319.439227" y="125.338013" style="fill: #56b4e9; fill-opacity: 0.55; stroke: #56b4e9; stroke-opacity: 0.55"/>
     <use xlink:href="#m443ecb17d7" x="325.26039" y="130.361348" style="fill: #56b4e9; fill-opacity: 0.55; stroke: #56b4e9; stroke-opacity: 0.55"/>
     <use xlink:href="#m443ecb17d7" x="331.081552" y="138.751138" style="fill: #56b4e9; fill-opacity: 0.55; stroke: #56b4e9; stroke-opacity: 0.55"/>
     <use xlink:href="#m443ecb17d7" x="336.902715" y="150.459486" style="fill: #56b4e9; fill-opacity: 0.55; stroke: #56b4e9; stroke-opacity: 0.55"/>
     <use xlink:href="#m443ecb17d7" x="342.723877" y="154.649514" style="fill: #56b4e9; fill-opacity: 0.55; stroke: #56b4e9; stroke-opacity: 0.55"/>
     <use xlink:href="#m443ecb17d7" x="348.54504" y="165.065708" style="fill: #56b4e9; fill-opacity: 0.55; stroke: #56b4e9; stroke-opacity: 0.55"/>
     <use xlink:href="#m443ecb17d7" x="354.366202" y="173.567301" style="fill: #56b4e9; fill-opacity: 0.55; stroke: #56b4e9; stroke-opacity: 0.55"/>
     <use xlink:href="#m443ecb17d7" x="360.187365" y="180.100489" style="fill: #56b4e9; fill-opacity: 0.55; stroke: #56b4e9; stroke-opacity: 0.55"/>
     <use xlink:href="#m443ecb17d7" x="366.008527" y="193.468767" style="fill: #56b4e9; fill-opacity: 0.55; stroke: #56b4e9; stroke-opacity: 0.55"/>
     <use xlink:href="#m443ecb17d7" x="371.829689" y="203.633685" style="fill: #56b4e9; fill-opacity: 0.55; stroke: #56b4e9; stroke-opacity: 0.55"/>
     <use xlink:href="#m443ecb17d7" x="377.650852" y="208.723685" style="fill: #56b4e9; fill-opacity: 0.55; stroke: #56b4e9; stroke-opacity: 0.55"/>
     <use xlink:href="#m443ecb17d7" x="383.472014" y="217.109273" style="fill: #56b4e9; fill-opacity: 0.55; stroke: #56b4e9; stroke-opacity: 0.55"/>
     <use xlink:href="#m443ecb17d7" x="389.293177" y="226.794084" style="fill: #56b4e9; fill-opacity: 0.55; stroke: #56b4e9; stroke-opacity: 0.55"/>
     <use xlink:href="#m443ecb17d7" x="395.114339" y="234.498467" style="fill: #56b4e9; fill-opacity: 0.55; stroke: #56b4e9; stroke-opacity: 0.55"/>
     <use xlink:href="#m443ecb17d7" x="400.935502" y="244.458093" style="fill: #56b4e9; fill-opacity: 0.55; stroke: #56b4e9; stroke-opacity: 0.55"/>
     <use xlink:href="#m443ecb17d7" x="406.756664" y="252.478799" style="fill: #56b4e9; fill-opacity: 0.55; stroke: #56b4e9; stroke-opacity: 0.55"/>
     <use xlink:href="#m443ecb17d7" x="412.577827" y="255.166125" style="fill: #56b4e9; fill-opacity: 0.55; stroke: #56b4e9; stroke-opacity: 0.55"/>
     <use xlink:href="#m443ecb17d7" x="418.398989" y="255.166125" style="fill: #56b4e9; fill-opacity: 0.55; stroke: #56b4e9; stroke-opacity: 0.55"/>
     <use xlink:href="#m443ecb17d7" x="424.220151" y="255.166125" style="fill: #56b4e9; fill-opacity: 0.55; stroke: #56b4e9; stroke-opacity: 0.55"/>
     <use xlink:href="#m443ecb17d7" x="430.041314" y="255.166125" style="fill: #56b4e9; fill-opacity: 0.55; stroke: #56b4e9; stroke-opacity: 0.55"/>
    </g>
   </g>
   <g id="patch_5">
    <path d="M 321.529974 73.143202 
Q 289.358114 56.806553 258.382503 41.077349 
" style="fill: none; stroke: #d55e00; stroke-width: 1.2; stroke-linecap: round"/>
    <path d="M 260.910447 44.49195 
L 258.382503 41.077349 
L 262.63095 41.103754 
" style="fill: none; stroke: #d55e00; stroke-width: 1.2; stroke-linecap: round"/>
   </g>
   <g id="text_16">
    <!-- duplicate redelivery -->
    <g style="fill: #7a8290" transform="translate(284.512253 84.219527) scale(0.095 -0.095)">
     <defs>
      <path id="DejaVuSans-47" d="M 2906 2969 
L 2906 4863 
L 3481 4863 
L 3481 0 
L 2906 0 
L 2906 525 
Q 2725 213 2448 61 
Q 2172 -91 1784 -91 
Q 1150 -91 751 415 
Q 353 922 353 1747 
Q 353 2572 751 3078 
Q 1150 3584 1784 3584 
Q 2172 3584 2448 3432 
Q 2725 3281 2906 2969 
z
M 947 1747 
Q 947 1113 1208 752 
Q 1469 391 1925 391 
Q 2381 391 2643 752 
Q 2906 1113 2906 1747 
Q 2906 2381 2643 2742 
Q 2381 3103 1925 3103 
Q 1469 3103 1208 2742 
Q 947 2381 947 1747 
z
" transform="scale(0.015625)"/>
      <path id="DejaVuSans-53" d="M 1159 525 
L 1159 -1331 
L 581 -1331 
L 581 3500 
L 1159 3500 
L 1159 2969 
Q 1341 3281 1617 3432 
Q 1894 3584 2278 3584 
Q 2916 3584 3314 3078 
Q 3713 2572 3713 1747 
Q 3713 922 3314 415 
Q 2916 -91 2278 -91 
Q 1894 -91 1617 61 
Q 1341 213 1159 525 
z
M 3116 1747 
Q 3116 2381 2855 2742 
Q 2594 3103 2138 3103 
Q 1681 3103 1420 2742 
Q 1159 2381 1159 1747 
Q 1159 1113 1420 752 
Q 1681 391 2138 391 
Q 2594 391 2855 752 
Q 3116 1113 3116 1747 
z
" transform="scale(0.015625)"/>
      <path id="DejaVuSans-59" d="M 191 3500 
L 800 3500 
L 1894 563 
L 2988 3500 
L 3597 3500 
L 2284 0 
L 1503 0 
L 191 3500 
z
" transform="scale(0.015625)"/>
     </defs>
     <use xlink:href="#DejaVuSans-47"/>
     <use xlink:href="#DejaVuSans-58" transform="translate(63.484375 0)"/>
     <use xlink:href="#DejaVuSans-53" transform="translate(126.859375 0)"/>
     <use xlink:href="#DejaVuSans-4f" transform="translate(190.34375 0)"/>
     <use xlink:href="#DejaVuSans-4c" transform="translate(218.125 0)"/>
     <use xlink:href="#DejaVuSans-46" transform="translate(245.90625 0)"/>
     <use xlink:href="#DejaVuSans-44" transform="translate(300.890625 0)"/>
     <use xlink:href="#DejaVuSans-57" transform="translate(362.171875 0)"/>
     <use xlink:href="#DejaVuSans-48" transform="translate(401.375 0)"/>
     <use xlink:href="#DejaVuSans-3" transform="translate(462.90625 0)"/>
     <use xlink:href="#DejaVuSans-55" transform="translate(494.6875 0)"/>
     <use xlink:href="#DejaVuSans-48" transform="translate(533.59375 0)"/>
     <use xlink:href="#DejaVuSans-47" transform="translate(595.125 0)"/>
     <use xlink:href="#DejaVuSans-48" transform="translate(658.609375 0)"/>
     <use xlink:href="#DejaVuSans-4f" transform="translate(720.140625 0)"/>
     <use xlink:href="#DejaVuSans-4c" transform="translate(747.921875 0)"/>
     <use xlink:href="#DejaVuSans-59" transform="translate(775.703125 0)"/>
     <use xlink:href="#DejaVuSans-48" transform="translate(834.890625 0)"/>
     <use xlink:href="#DejaVuSans-55" transform="translate(896.421875 0)"/>
     <use xlink:href="#DejaVuSans-5c" transform="translate(937.53125 0)"/>
    </g>
    <!-- -&gt; no-op (already restored) -->
    <g style="fill: #7a8290" transform="translate(284.512253 95.622125) scale(0.095 -0.095)">
     <defs>
      <path id="DejaVuSans-10" d="M 313 2009 
L 1997 2009 
L 1997 1497 
L 313 1497 
L 313 2009 
z
" transform="scale(0.015625)"/>
      <path id="DejaVuSans-21" d="M 678 3150 
L 678 3719 
L 4684 2266 
L 4684 1747 
L 678 294 
L 678 863 
L 3897 2003 
L 678 3150 
z
" transform="scale(0.015625)"/>
     </defs>
     <use xlink:href="#DejaVuSans-10"/>
     <use xlink:href="#DejaVuSans-21" transform="translate(36.078125 0)"/>
     <use xlink:href="#DejaVuSans-3" transform="translate(119.875 0)"/>
     <use xlink:href="#DejaVuSans-51" transform="translate(151.65625 0)"/>
     <use xlink:href="#DejaVuSans-52" transform="translate(215.03125 0)"/>
     <use xlink:href="#DejaVuSans-10" transform="translate(278.078125 0)"/>
     <use xlink:href="#DejaVuSans-52" transform="translate(316.015625 0)"/>
     <use xlink:href="#DejaVuSans-53" transform="translate(377.203125 0)"/>
     <use xlink:href="#DejaVuSans-3" transform="translate(440.6875 0)"/>
     <use xlink:href="#DejaVuSans-b" transform="translate(472.46875 0)"/>
     <use xlink:href="#DejaVuSans-44" transform="translate(511.484375 0)"/>
     <use xlink:href="#DejaVuSans-4f" transform="translate(572.765625 0)"/>
     <use xlink:href="#DejaVuSans-55" transform="translate(600.546875 0)"/>
     <use xlink:href="#DejaVuSans-48" transform="translate(639.453125 0)"/>
     <use xlink:href="#DejaVuSans-44" transform="translate(700.984375 0)"/>
     <use xlink:href="#DejaVuSans-47" transform="translate(762.265625 0)"/>
     <use xlink:href="#DejaVuSans-5c" transform="translate(825.75 0)"/>
     <use xlink:href="#DejaVuSans-3" transform="translate(884.9375 0)"/>
     <use xlink:href="#DejaVuSans-55" transform="translate(916.71875 0)"/>
     <use xlink:href="#DejaVuSans-48" transform="translate(955.625 0)"/>
     <use xlink:href="#DejaVuSans-56" transform="translate(1017.15625 0)"/>
     <use xlink:href="#DejaVuSans-57" transform="translate(1069.25 0)"/>
     <use xlink:href="#DejaVuSans-52" transform="translate(1108.453125 0)"/>
     <use xlink:href="#DejaVuSans-55" transform="translate(1169.640625 0)"/>
     <use xlink:href="#DejaVuSans-48" transform="translate(1208.546875 0)"/>
     <use xlink:href="#DejaVuSans-47" transform="translate(1270.078125 0)"/>
     <use xlink:href="#DejaVuSans-c" transform="translate(1333.5625 0)"/>
    </g>
   </g>
   <g id="text_17">
    <!-- Idempotent monthly reset: every day runs, only the 1st acts -->
    <g style="fill: #7a8290" transform="translate(71.249922 16.318125) scale(0.12 -0.12)">
     <defs>
      <path id="DejaVuSans-2c" d="M 628 4666 
L 1259 4666 
L 1259 0 
L 628 0 
L 628 4666 
z
" transform="scale(0.015625)"/>
      <path id="DejaVuSans-1d" d="M 750 794 
L 1409 794 
L 1409 0 
L 750 0 
L 750 794 
z
M 750 3309 
L 1409 3309 
L 1409 2516 
L 750 2516 
L 750 3309 
z
" transform="scale(0.015625)"/>
      <path id="DejaVuSans-f" d="M 750 794 
L 1409 794 
L 1409 256 
L 897 -744 
L 494 -744 
L 750 256 
L 750 794 
z
" transform="scale(0.015625)"/>
     </defs>
     <use xlink:href="#DejaVuSans-2c"/>
     <use xlink:href="#DejaVuSans-47" transform="translate(29.5 0)"/>
     <use xlink:href="#DejaVuSans-48" transform="translate(92.984375 0)"/>
     <use xlink:href="#DejaVuSans-50" transform="translate(154.515625 0)"/>
     <use xlink:href="#DejaVuSans-53" transform="translate(251.921875 0)"/>
     <use xlink:href="#DejaVuSans-52" transform="translate(315.40625 0)"/>
     <use xlink:href="#DejaVuSans-57" transform="translate(376.59375 0)"/>
     <use xlink:href="#DejaVuSans-48" transform="translate(415.796875 0)"/>
     <use xlink:href="#DejaVuSans-51" transform="translate(477.328125 0)"/>
     <use xlink:href="#DejaVuSans-57" transform="translate(540.703125 0)"/>
     <use xlink:href="#DejaVuSans-3" transform="translate(579.90625 0)"/>
     <use xlink:href="#DejaVuSans-50" transform="translate(611.6875 0)"/>
     <use xlink:href="#DejaVuSans-52" transform="translate(709.09375 0)"/>
     <use xlink:href="#DejaVuSans-51" transform="translate(770.28125 0)"/>
     <use xlink:href="#DejaVuSans-57" transform="translate(833.65625 0)"/>
     <use xlink:href="#DejaVuSans-4b" transform="translate(872.859375 0)"/>
     <use xlink:href="#DejaVuSans-4f" transform="translate(936.234375 0)"/>
     <use xlink:href="#DejaVuSans-5c" transform="translate(964.015625 0)"/>
     <use xlink:href="#DejaVuSans-3" transform="translate(1023.203125 0)"/>
     <use xlink:href="#DejaVuSans-55" transform="translate(1054.984375 0)"/>
     <use xlink:href="#DejaVuSans-48" transform="translate(1093.890625 0)"/>
     <use xlink:href="#DejaVuSans-56" transform="translate(1155.421875 0)"/>
     <use xlink:href="#DejaVuSans-48" transform="translate(1207.515625 0)"/>
     <use xlink:href="#DejaVuSans-57" transform="translate(1269.046875 0)"/>
     <use xlink:href="#DejaVuSans-1d" transform="translate(1308.25 0)"/>
     <use xlink:href="#DejaVuSans-3" transform="translate(1341.9375 0)"/>
     <use xlink:href="#DejaVuSans-48" transform="translate(1373.71875 0)"/>
     <use xlink:href="#DejaVuSans-59" transform="translate(1435.25 0)"/>
     <use xlink:href="#DejaVuSans-48" transform="translate(1494.4375 0)"/>
     <use xlink:href="#DejaVuSans-55" transform="translate(1555.96875 0)"/>
     <use xlink:href="#DejaVuSans-5c" transform="translate(1597.078125 0)"/>
     <use xlink:href="#DejaVuSans-3" transform="translate(1656.265625 0)"/>
     <use xlink:href="#DejaVuSans-47" transform="translate(1688.046875 0)"/>
     <use xlink:href="#DejaVuSans-44" transform="translate(1751.53125 0)"/>
     <use xlink:href="#DejaVuSans-5c" transform="translate(1812.8125 0)"/>
     <use xlink:href="#DejaVuSans-3" transform="translate(1872 0)"/>
     <use xlink:href="#DejaVuSans-55" transform="translate(1903.78125 0)"/>
     <use xlink:href="#DejaVuSans-58" transform="translate(1944.890625 0)"/>
     <use xlink:href="#DejaVuSans-51" transform="translate(2008.265625 0)"/>
     <use xlink:href="#DejaVuSans-56" transform="translate(2071.640625 0)"/>
     <use xlink:href="#DejaVuSans-f" transform="translate(2123.734375 0)"/>
     <use xlink:href="#DejaVuSans-3" transform="translate(2155.515625 0)"/>
     <use xlink:href="#DejaVuSans-52" transform="translate(2187.296875 0)"/>
     <use xlink:href="#DejaVuSans-51" transform="translate(2248.484375 0)"/>
     <use xlink:href="#DejaVuSans-4f" transform="translate(2311.859375 0)"/>
     <use xlink:href="#DejaVuSans-5c" transform="translate(2339.640625 0)"/>
     <use xlink:href="#DejaVuSans-3" transform="translate(2398.828125 0)"/>
     <use xlink:href="#DejaVuSans-57" transform="translate(2430.609375 0)"/>
     <use xlink:href="#DejaVuSans-4b" transform="translate(2469.8125 0)"/>
     <use xlink:href="#DejaVuSans-48" transform="translate(2533.1875 0)"/>
     <use xlink:href="#DejaVuSans-3" transform="translate(2594.71875 0)"/>
     <use xlink:href="#DejaVuSans-14" transform="translate(2626.5 0)"/>
     <use xlink:href="#DejaVuSans-56" transform="translate(2690.125 0)"/>
     <use xlink:href="#DejaVuSans-57" transform="translate(2742.21875 0)"/>
     <use xlink:href="#DejaVuSans-3" transform="translate(2781.421875 0)"/>
     <use xlink:href="#DejaVuSans-44" transform="translate(2813.203125 0)"/>
     <use xlink:href="#DejaVuSans-46" transform="translate(2874.484375 0)"/>
     <use xlink:href="#DejaVuSans-57" transform="translate(2929.46875 0)"/>
     <use xlink:href="#DejaVuSans-56" transform="translate(2968.671875 0)"/>
    </g>
   </g>
   <g id="PathCollection_2">
    <defs>
     <path id="maa66b759ea" d="M 0 -4.1833 
L -4.1833 4.1833 
L 4.1833 4.1833 
z
" style="stroke: #d55e00"/>
    </defs>
    <g clip-path="url(#pa225756798)">
     <use xlink:href="#maa66b759ea" x="74.950405" y="39.566125" style="fill: #d55e00; stroke: #d55e00"/>
     <use xlink:href="#maa66b759ea" x="255.406441" y="39.566125" style="fill: #d55e00; stroke: #d55e00"/>
    </g>
   </g>
   <g id="legend_1">
    <g id="line2d_28">
     <path d="M 251.255078 36.726406 
L 262.255078 36.726406 
L 273.255078 36.726406 
" style="fill: none; stroke: #0072b2; stroke-width: 2; stroke-linecap: square"/>
    </g>
    <g id="text_18">
     <!-- Questions remaining -->
     <g style="fill: #7a8290" transform="translate(282.055078 40.576406) scale(0.11 -0.11)">
      <use xlink:href="#DejaVuSans-34"/>
      <use xlink:href="#DejaVuSans-58" transform="translate(78.71875 0)"/>
      <use xlink:href="#DejaVuSans-48" transform="translate(142.09375 0)"/>
      <use xlink:href="#DejaVuSans-56" transform="translate(203.625 0)"/>
      <use xlink:href="#DejaVuSans-57" transform="translate(255.71875 0)"/>
      <use xlink:href="#DejaVuSans-4c" transform="translate(294.921875 0)"/>
      <use xlink:href="#DejaVuSans-52" transform="translate(322.703125 0)"/>
      <use xlink:href="#DejaVuSans-51" transform="translate(383.890625 0)"/>
      <use xlink:href="#DejaVuSans-56" transform="translate(447.265625 0)"/>
      <use xlink:href="#DejaVuSans-3" transform="translate(499.359375 0)"/>
      <use xlink:href="#DejaVuSans-55" transform="translate(531.140625 0)"/>
      <use xlink:href="#DejaVuSans-48" transform="translate(570.046875 0)"/>
      <use xlink:href="#DejaVuSans-50" transform="translate(631.578125 0)"/>
      <use xlink:href="#DejaVuSans-44" transform="translate(728.984375 0)"/>
      <use xlink:href="#DejaVuSans-4c" transform="translate(790.265625 0)"/>
      <use xlink:href="#DejaVuSans-51" transform="translate(818.046875 0)"/>
      <use xlink:href="#DejaVuSans-4c" transform="translate(881.421875 0)"/>
      <use xlink:href="#DejaVuSans-51" transform="translate(909.203125 0)"/>
      <use xlink:href="#DejaVuSans-4a" transform="translate(972.578125 0)"/>
     </g>
    </g>
    <g id="PathCollection_3">
     <g>
      <use xlink:href="#m443ecb17d7" x="262.255078" y="54.189766" style="fill: #56b4e9; fill-opacity: 0.55; stroke: #56b4e9; stroke-opacity: 0.55"/>
     </g>
    </g>
    <g id="text_19">
     <!-- Daily Beat run (no-op) -->
     <g style="fill: #7a8290" transform="translate(282.055078 57.077266) scale(0.11 -0.11)">
      <defs>
       <path id="DejaVuSans-25" d="M 1259 2228 
L 1259 519 
L 2272 519 
Q 2781 519 3026 730 
Q 3272 941 3272 1375 
Q 3272 1813 3026 2020 
Q 2781 2228 2272 2228 
L 1259 2228 
z
M 1259 4147 
L 1259 2741 
L 2194 2741 
Q 2656 2741 2882 2914 
Q 3109 3088 3109 3444 
Q 3109 3797 2882 3972 
Q 2656 4147 2194 4147 
L 1259 4147 
z
M 628 4666 
L 2241 4666 
Q 2963 4666 3353 4366 
Q 3744 4066 3744 3513 
Q 3744 3084 3544 2831 
Q 3344 2578 2956 2516 
Q 3422 2416 3680 2098 
Q 3938 1781 3938 1306 
Q 3938 681 3513 340 
Q 3088 0 2303 0 
L 628 0 
L 628 4666 
z
" transform="scale(0.015625)"/>
      </defs>
      <use xlink:href="#DejaVuSans-27"/>
      <use xlink:href="#DejaVuSans-44" transform="translate(77 0)"/>
      <use xlink:href="#DejaVuSans-4c" transform="translate(138.28125 0)"/>
      <use xlink:href="#DejaVuSans-4f" transform="translate(166.0625 0)"/>
      <use xlink:href="#DejaVuSans-5c" transform="translate(193.84375 0)"/>
      <use xlink:href="#DejaVuSans-3" transform="translate(253.03125 0)"/>
      <use xlink:href="#DejaVuSans-25" transform="translate(284.8125 0)"/>
      <use xlink:href="#DejaVuSans-48" transform="translate(353.421875 0)"/>
      <use xlink:href="#DejaVuSans-44" transform="translate(414.953125 0)"/>
      <use xlink:href="#DejaVuSans-57" transform="translate(476.234375 0)"/>
      <use xlink:href="#DejaVuSans-3" transform="translate(515.4375 0)"/>
      <use xlink:href="#DejaVuSans-55" transform="translate(547.21875 0)"/>
      <use xlink:href="#DejaVuSans-58" transform="translate(588.328125 0)"/>
      <use xlink:href="#DejaVuSans-51" transform="translate(651.703125 0)"/>
      <use xlink:href="#DejaVuSans-3" transform="translate(715.078125 0)"/>
      <use xlink:href="#DejaVuSans-b" transform="translate(746.859375 0)"/>
      <use xlink:href="#DejaVuSans-51" transform="translate(785.875 0)"/>
      <use xlink:href="#DejaVuSans-52" transform="translate(849.25 0)"/>
      <use xlink:href="#DejaVuSans-10" transform="translate(912.296875 0)"/>
      <use xlink:href="#DejaVuSans-52" transform="translate(950.234375 0)"/>
      <use xlink:href="#DejaVuSans-53" transform="translate(1011.421875 0)"/>
      <use xlink:href="#DejaVuSans-c" transform="translate(1074.90625 0)"/>
     </g>
    </g>
    <g id="PathCollection_4">
     <g>
      <use xlink:href="#maa66b759ea" x="262.255078" y="70.690625" style="fill: #d55e00; stroke: #d55e00"/>
     </g>
    </g>
    <g id="text_20">
     <!-- Boundary run (resets quota) -->
     <g style="fill: #7a8290" transform="translate(282.055078 73.578125) scale(0.11 -0.11)">
      <defs>
       <path id="DejaVuSans-54" d="M 947 1747 
Q 947 1113 1208 752 
Q 1469 391 1925 391 
Q 2381 391 2643 752 
Q 2906 1113 2906 1747 
Q 2906 2381 2643 2742 
Q 2381 3103 1925 3103 
Q 1469 3103 1208 2742 
Q 947 2381 947 1747 
z
M 2906 525 
Q 2725 213 2448 61 
Q 2172 -91 1784 -91 
Q 1150 -91 751 415 
Q 353 922 353 1747 
Q 353 2572 751 3078 
Q 1150 3584 1784 3584 
Q 2172 3584 2448 3432 
Q 2725 3281 2906 2969 
L 2906 3500 
L 3481 3500 
L 3481 -1331 
L 2906 -1331 
L 2906 525 
z
" transform="scale(0.015625)"/>
      </defs>
      <use xlink:href="#DejaVuSans-25"/>
      <use xlink:href="#DejaVuSans-52" transform="translate(68.609375 0)"/>
      <use xlink:href="#DejaVuSans-58" transform="translate(129.796875 0)"/>
      <use xlink:href="#DejaVuSans-51" transform="translate(193.171875 0)"/>
      <use xlink:href="#DejaVuSans-47" transform="translate(256.546875 0)"/>
      <use xlink:href="#DejaVuSans-44" transform="translate(320.03125 0)"/>
      <use xlink:href="#DejaVuSans-55" transform="translate(381.3125 0)"/>
      <use xlink:href="#DejaVuSans-5c" transform="translate(422.421875 0)"/>
      <use xlink:href="#DejaVuSans-3" transform="translate(481.609375 0)"/>
      <use xlink:href="#DejaVuSans-55" transform="translate(513.390625 0)"/>
      <use xlink:href="#DejaVuSans-58" transform="translate(554.5 0)"/>
      <use xlink:href="#DejaVuSans-51" transform="translate(617.875 0)"/>
      <use xlink:href="#DejaVuSans-3" transform="translate(681.25 0)"/>
      <use xlink:href="#DejaVuSans-b" transform="translate(713.03125 0)"/>
      <use xlink:href="#DejaVuSans-55" transform="translate(752.046875 0)"/>
      <use xlink:href="#DejaVuSans-48" transform="translate(790.953125 0)"/>
      <use xlink:href="#DejaVuSans-56" transform="translate(852.484375 0)"/>
      <use xlink:href="#DejaVuSans-48" transform="translate(904.578125 0)"/>
      <use xlink:href="#DejaVuSans-57" transform="translate(966.109375 0)"/>
      <use xlink:href="#DejaVuSans-56" transform="translate(1005.3125 0)"/>
      <use xlink:href="#DejaVuSans-3" transform="translate(1057.40625 0)"/>
      <use xlink:href="#DejaVuSans-54" transform="translate(1089.1875 0)"/>
      <use xlink:href="#DejaVuSans-58" transform="translate(1152.671875 0)"/>
      <use xlink:href="#DejaVuSans-52" transform="translate(1216.046875 0)"/>
      <use xlink:href="#DejaVuSans-57" transform="translate(1277.234375 0)"/>
      <use xlink:href="#DejaVuSans-44" transform="translate(1316.4375 0)"/>
      <use xlink:href="#DejaVuSans-c" transform="translate(1377.71875 0)"/>
     </g>
    </g>
   </g>
  </g>
 </g>
 <defs>
  <clipPath id="pa225756798">
   <rect x="57.195859" y="22.318125" width="390.6" height="232.848"/>
  </clipPath>
 </defs>
</svg>
