<?xml version="1.0" encoding="utf-8" standalone="no"?>
<!DOCTYPE svg PUBLIC "-//W3C//DTD SVG 1.1//EN"
  "http://www.w3.org/Graphics/SVG/1.1/DTD/svg11.dtd">
<svg xmlns:xlink="http://www.w3.org/1999/xlink" width="453.711953pt" height="295.366984pt" viewBox="0 0 453.711953 295.366984" xmlns="http://www.w3.org/2000/svg" version="1.1">
 <metadata>
  <rdf:RDF xmlns:dc="http://purl.org/dc/elements/1.1/" xmlns:cc="http://creativecommons.org/ns#" xmlns:rdf="http://www.w3.org/1999/02/22-rdf-syntax-ns#">
   <cc:Work>
    <dc:type rdf:resource="http://purl.org/dc/dcmitype/StillImage"/>
    <dc:date>2026-06-23T10:22:27.959963</dc:date>
    <dc:format>image/svg+xml</dc:format>
    <dc:creator>
     <cc:Agent>
      <dc:title>Matplotlib v3.11.0, https://matplotlib.org/</dc:title>
     </cc:Agent>
    </dc:creator>
   </cc:Work>
  </rdf:RDF>
 </metadata>
 <defs>
  <style type="text/css">*{stroke-linejoin: round; stroke-linecap: butt}</style>
 </defs>
 <g id="figure_1">
  <g id="patch_1">
   <path d="M 0 295.366984 
L 453.711953 295.366984 
L 453.711953 0 
L 0 0 
L 0 295.366984 
z
" style="fill: none"/>
  </g>
  <g id="axes_1">
   <g id="patch_2">
    <path d="M 55.911953 255.166125 
L 446.511953 255.166125 
L 446.511953 22.318125 
L 55.911953 22.318125 
L 55.911953 255.166125 
z
" style="fill: none"/>
   </g>
   <g id="matplotlib.axis_1">
    <g id="xtick_1">
     <g id="line2d_1">
      <path d="M 73.666499 255.166125 
L 73.666499 22.318125 
" clip-path="url(#pc1b0eeb29a)" style="fill: none; stroke: #7a8290; stroke-opacity: 0.18; stroke-width: 0.6; stroke-linecap: square"/>
     </g>
     <g id="line2d_2">
      <defs>
       <path id="m5d4770a8e2" d="M 0 0 
L 0 3.5 
" style="stroke: #7a8290; stroke-width: 0.8"/>
      </defs>
      <g>
       <use xlink:href="#m5d4770a8e2" x="73.666499" y="255.166125" style="fill: #7a8290; stroke: #7a8290; stroke-width: 0.8"/>
      </g>
     </g>
     <g id="text_1">
      <!-- 0 -->
      <g style="fill: #7a8290" transform="translate(70.167124 270.523547) scale(0.11 -0.11)">
       <defs>
        <path id="DejaVuSans-13" d="M 2034 4250 
Q 1547 4250 1301 3770 
Q 1056 3291 1056 2328 
Q 1056 1369 1301 889 
Q 1547 409 2034 409 
Q 2525 409 2770 889 
Q 3016 1369 3016 2328 
Q 3016 3291 2770 3770 
Q 2525 4250 2034 4250 
z
M 2034 4750 
Q 2819 4750 3233 4129 
Q 3647 3509 3647 2328 
Q 3647 1150 3233 529 
Q 2819 -91 2034 -91 
Q 1250 -91 836 529 
Q 422 1150 422 2328 
Q 422 3509 836 4129 
Q 1250 4750 2034 4750 
z
" transform="scale(0.015625)"/>
       </defs>
       <use xlink:href="#DejaVuSans-13"/>
      </g>
     </g>
    </g>
    <g id="xtick_2">
     <g id="line2d_3">
      <path d="M 144.969894 255.166125 
L 144.969894 22.318125 
" clip-path="url(#pc1b0eeb29a)" style="fill: none; stroke: #7a8290; stroke-opacity: 0.18; stroke-width: 0.6; stroke-linecap: square"/>
     </g>
     <g id="line2d_4">
      <g>
       <use xlink:href="#m5d4770a8e2" x="144.969894" y="255.166125" style="fill: #7a8290; stroke: #7a8290; stroke-width: 0.8"/>
      </g>
     </g>
     <g id="text_2">
      <!-- 2 -->
      <g style="fill: #7a8290" transform="translate(141.470519 270.523547) scale(0.11 -0.11)">
       <defs>
        <path id="DejaVuSans-15" d="M 1228 531 
L 3431 531 
L 3431 0 
L 469 0 
L 469 531 
Q 828 903 1448 1529 
Q 2069 2156 2228 2338 
Q 2531 2678 2651 2914 
Q 2772 3150 2772 3378 
Q 2772 3750 2511 3984 
Q 2250 4219 1831 4219 
Q 1534 4219 1204 4116 
Q 875 4013 500 3803 
L 500 4441 
Q 881 4594 1212 4672 
Q 1544 4750 1819 4750 
Q 2544 4750 2975 4387 
Q 3406 4025 3406 3419 
Q 3406 3131 3298 2873 
Q 3191 2616 2906 2266 
Q 2828 2175 2409 1742 
Q 1991 1309 1228 531 
z
" transform="scale(0.015625)"/>
       </defs>
       <use xlink:href="#DejaVuSans-15"/>
      </g>
     </g>
    </g>
    <g id="xtick_3">
     <g id="line2d_5">
      <path d="M 216.273289 255.166125 
L 216.273289 22.318125 
" clip-path="url(#pc1b0eeb29a)" style="fill: none; stroke: #7a8290; stroke-opacity: 0.18; stroke-width: 0.6; stroke-linecap: square"/>
     </g>
     <g id="line2d_6">
      <g>
       <use xlink:href="#m5d4770a8e2" x="216.273289" y="255.166125" style="fill: #7a8290; stroke: #7a8290; stroke-width: 0.8"/>
      </g>
     </g>
     <g id="text_3">
      <!-- 4 -->
      <g style="fill: #7a8290" transform="translate(212.773914 270.523547) scale(0.11 -0.11)">
       <defs>
        <path id="DejaVuSans-17" d="M 2419 4116 
L 825 1625 
L 2419 1625 
L 2419 4116 
z
M 2253 4666 
L 3047 4666 
L 3047 1625 
L 3713 1625 
L 3713 1100 
L 3047 1100 
L 3047 0 
L 2419 0 
L 2419 1100 
L 313 1100 
L 313 1709 
L 2253 4666 
z
" transform="scale(0.015625)"/>
       </defs>
       <use xlink:href="#DejaVuSans-17"/>
      </g>
     </g>
    </g>
    <g id="xtick_4">
     <g id="line2d_7">
      <path d="M 287.576685 255.166125 
L 287.576685 22.318125 
" clip-path="url(#pc1b0eeb29a)" style="fill: none; stroke: #7a8290; stroke-opacity: 0.18; stroke-width: 0.6; stroke-linecap: square"/>
     </g>
     <g id="line2d_8">
      <g>
       <use xlink:href="#m5d4770a8e2" x="287.576685" y="255.166125" style="fill: #7a8290; stroke: #7a8290; stroke-width: 0.8"/>
      </g>
     </g>
     <g id="text_4">
      <!-- 6 -->
      <g style="fill: #7a8290" transform="translate(284.07731 270.523547) scale(0.11 -0.11)">
       <defs>
        <path id="DejaVuSans-19" d="M 2113 2584 
Q 1688 2584 1439 2293 
Q 1191 2003 1191 1497 
Q 1191 994 1439 701 
Q 1688 409 2113 409 
Q 2538 409 2786 701 
Q 3034 994 3034 1497 
Q 3034 2003 2786 2293 
Q 2538 2584 2113 2584 
z
M 3366 4563 
L 3366 3988 
Q 3128 4100 2886 4159 
Q 2644 4219 2406 4219 
Q 1781 4219 1451 3797 
Q 1122 3375 1075 2522 
Q 1259 2794 1537 2939 
Q 1816 3084 2150 3084 
Q 2853 3084 3261 2657 
Q 3669 2231 3669 1497 
Q 3669 778 3244 343 
Q 2819 -91 2113 -91 
Q 1303 -91 875 529 
Q 447 1150 447 2328 
Q 447 3434 972 4092 
Q 1497 4750 2381 4750 
Q 2619 4750 2861 4703 
Q 3103 4656 3366 4563 
z
" transform="scale(0.015625)"/>
       </defs>
       <use xlink:href="#DejaVuSans-19"/>
      </g>
     </g>
    </g>
    <g id="xtick_5">
     <g id="line2d_9">
      <path d="M 358.88008 255.166125 
L 358.88008 22.318125 
" clip-path="url(#pc1b0eeb29a)" style="fill: none; stroke: #7a8290; stroke-opacity: 0.18; stroke-width: 0.6; stroke-linecap: square"/>
     </g>
     <g id="line2d_10">
      <g>
       <use xlink:href="#m5d4770a8e2" x="358.88008" y="255.166125" style="fill: #7a8290; stroke: #7a8290; stroke-width: 0.8"/>
      </g>
     </g>
     <g id="text_5">
      <!-- 8 -->
      <g style="fill: #7a8290" transform="translate(355.380705 270.523547) scale(0.11 -0.11)">
       <defs>
        <path id="DejaVuSans-1b" d="M 2034 2216 
Q 1584 2216 1326 1975 
Q 1069 1734 1069 1313 
Q 1069 891 1326 650 
Q 1584 409 2034 409 
Q 2484 409 2743 651 
Q 3003 894 3003 1313 
Q 3003 1734 2745 1975 
Q 2488 2216 2034 2216 
z
M 1403 2484 
Q 997 2584 770 2862 
Q 544 3141 544 3541 
Q 544 4100 942 4425 
Q 1341 4750 2034 4750 
Q 2731 4750 3128 4425 
Q 3525 4100 3525 3541 
Q 3525 3141 3298 2862 
Q 3072 2584 2669 2484 
Q 3125 2378 3379 2068 
Q 3634 1759 3634 1313 
Q 3634 634 3220 271 
Q 2806 -91 2034 -91 
Q 1263 -91 848 271 
Q 434 634 434 1313 
Q 434 1759 690 2068 
Q 947 2378 1403 2484 
z
M 1172 3481 
Q 1172 3119 1398 2916 
Q 1625 2713 2034 2713 
Q 2441 2713 2670 2916 
Q 2900 3119 2900 3481 
Q 2900 3844 2670 4047 
Q 2441 4250 2034 4250 
Q 1625 4250 1398 4047 
Q 1172 3844 1172 3481 
z
" transform="scale(0.015625)"/>
       </defs>
       <use xlink:href="#DejaVuSans-1b"/>
      </g>
     </g>
    </g>
    <g id="xtick_6">
     <g id="line2d_11">
      <path d="M 430.183476 255.166125 
L 430.183476 22.318125 
" clip-path="url(#pc1b0eeb29a)" style="fill: none; stroke: #7a8290; stroke-opacity: 0.18; stroke-width: 0.6; stroke-linecap: square"/>
     </g>
     <g id="line2d_12">
      <g>
       <use xlink:href="#m5d4770a8e2" x="430.183476" y="255.166125" style="fill: #7a8290; stroke: #7a8290; stroke-width: 0.8"/>
      </g>
     </g>
     <g id="text_6">
      <!-- 10 -->
      <g style="fill: #7a8290" transform="translate(423.184726 270.523547) scale(0.11 -0.11)">
       <defs>
        <path id="DejaVuSans-14" d="M 794 531 
L 1825 531 
L 1825 4091 
L 703 3866 
L 703 4441 
L 1819 4666 
L 2450 4666 
L 2450 531 
L 3481 531 
L 3481 0 
L 794 0 
L 794 531 
z
" transform="scale(0.015625)"/>
       </defs>
       <use xlink:href="#DejaVuSans-14"/>
       <use xlink:href="#DejaVuSans-13" transform="translate(63.625 0)"/>
      </g>
     </g>
    </g>
    <g id="text_7">
     <!-- Time (reduced units) -->
     <g style="fill: #7a8290" transform="translate(194.042891 285.524406) scale(0.11 -0.11)">
      <defs>
       <path id="DejaVuSans-37" d="M -19 4666 
L 3928 4666 
L 3928 4134 
L 2272 4134 
L 2272 0 
L 1638 0 
L 1638 4134 
L -19 4134 
L -19 4666 
z
" transform="scale(0.015625)"/>
       <path id="DejaVuSans-4c" d="M 603 3500 
L 1178 3500 
L 1178 0 
L 603 0 
L 603 3500 
z
M 603 4863 
L 1178 4863 
L 1178 4134 
L 603 4134 
L 603 4863 
z
" transform="scale(0.015625)"/>
       <path id="DejaVuSans-50" d="M 3328 2828 
Q 3544 3216 3844 3400 
Q 4144 3584 4550 3584 
Q 5097 3584 5394 3201 
Q 5691 2819 5691 2113 
L 5691 0 
L 5113 0 
L 5113 2094 
Q 5113 2597 4934 2840 
Q 4756 3084 4391 3084 
Q 3944 3084 3684 2787 
Q 3425 2491 3425 1978 
L 3425 0 
L 2847 0 
L 2847 2094 
Q 2847 2600 2669 2842 
Q 2491 3084 2119 3084 
Q 1678 3084 1418 2786 
Q 1159 2488 1159 1978 
L 1159 0 
L 581 0 
L 581 3500 
L 1159 3500 
L 1159 2956 
Q 1356 3278 1631 3431 
Q 1906 3584 2284 3584 
Q 2666 3584 2933 3390 
Q 3200 3197 3328 2828 
z
" transform="scale(0.015625)"/>
       <path id="DejaVuSans-48" d="M 3597 1894 
L 3597 1613 
L 953 1613 
Q 991 1019 1311 708 
Q 1631 397 2203 397 
Q 2534 397 2845 478 
Q 3156 559 3463 722 
L 3463 178 
Q 3153 47 2828 -22 
Q 2503 -91 2169 -91 
Q 1331 -91 842 396 
Q 353 884 353 1716 
Q 353 2575 817 3079 
Q 1281 3584 2069 3584 
Q 2775 3584 3186 3129 
Q 3597 2675 3597 1894 
z
M 3022 2063 
Q 3016 2534 2758 2815 
Q 2500 3097 2075 3097 
Q 1594 3097 1305 2825 
Q 1016 2553 972 2059 
L 3022 2063 
z
" transform="scale(0.015625)"/>
       <path id="DejaVuSans-3" transform="scale(0.015625)"/>
       <path id="DejaVuSans-b" d="M 1984 4856 
Q 1566 4138 1362 3434 
Q 1159 2731 1159 2009 
Q 1159 1288 1364 580 
Q 1569 -128 1984 -844 
L 1484 -844 
Q 1016 -109 783 600 
Q 550 1309 550 2009 
Q 550 2706 781 3412 
Q 1013 4119 1484 4856 
L 1984 4856 
z
" transform="scale(0.015625)"/>
       <path id="DejaVuSans-55" d="M 2631 2963 
Q 2534 3019 2420 3045 
Q 2306 3072 2169 3072 
Q 1681 3072 1420 2755 
Q 1159 2438 1159 1844 
L 1159 0 
L 581 0 
L 581 3500 
L 1159 3500 
L 1159 2956 
Q 1341 3275 1631 3429 
Q 1922 3584 2338 3584 
Q 2397 3584 2469 3576 
Q 2541 3569 2628 3553 
L 2631 2963 
z
" transform="scale(0.015625)"/>
       <path id="DejaVuSans-47" d="M 2906 2969 
L 2906 4863 
L 3481 4863 
L 3481 0 
L 2906 0 
L 2906 525 
Q 2725 213 2448 61 
Q 2172 -91 1784 -91 
Q 1150 -91 751 415 
Q 353 922 353 1747 
Q 353 2572 751 3078 
Q 1150 3584 1784 3584 
Q 2172 3584 2448 3432 
Q 2725 3281 2906 2969 
z
M 947 1747 
Q 947 1113 1208 752 
Q 1469 391 1925 391 
Q 2381 391 2643 752 
Q 2906 1113 2906 1747 
Q 2906 2381 2643 2742 
Q 2381 3103 1925 3103 
Q 1469 3103 1208 2742 
Q 947 2381 947 1747 
z
" transform="scale(0.015625)"/>
       <path id="DejaVuSans-58" d="M 544 1381 
L 544 3500 
L 1119 3500 
L 1119 1403 
Q 1119 906 1312 657 
Q 1506 409 1894 409 
Q 2359 409 2629 706 
Q 2900 1003 2900 1516 
L 2900 3500 
L 3475 3500 
L 3475 0 
L 2900 0 
L 2900 538 
Q 2691 219 2414 64 
Q 2138 -91 1772 -91 
Q 1169 -91 856 284 
Q 544 659 544 1381 
z
M 1991 3584 
L 1991 3584 
z
" transform="scale(0.015625)"/>
       <path id="DejaVuSans-46" d="M 3122 3366 
L 3122 2828 
Q 2878 2963 2633 3030 
Q 2388 3097 2138 3097 
Q 1578 3097 1268 2742 
Q 959 2388 959 1747 
Q 959 1106 1268 751 
Q 1578 397 2138 397 
Q 2388 397 2633 464 
Q 2878 531 3122 666 
L 3122 134 
Q 2881 22 2623 -34 
Q 2366 -91 2075 -91 
Q 1284 -91 818 406 
Q 353 903 353 1747 
Q 353 2603 823 3093 
Q 1294 3584 2113 3584 
Q 2378 3584 2631 3529 
Q 2884 3475 3122 3366 
z
" transform="scale(0.015625)"/>
       <path id="DejaVuSans-51" d="M 3513 2113 
L 3513 0 
L 2938 0 
L 2938 2094 
Q 2938 2591 2744 2837 
Q 2550 3084 2163 3084 
Q 1697 3084 1428 2787 
Q 1159 2491 1159 1978 
L 1159 0 
L 581 0 
L 581 3500 
L 1159 3500 
L 1159 2956 
Q 1366 3272 1645 3428 
Q 1925 3584 2291 3584 
Q 2894 3584 3203 3211 
Q 3513 2838 3513 2113 
z
" transform="scale(0.015625)"/>
       <path id="DejaVuSans-57" d="M 1172 4494 
L 1172 3500 
L 2356 3500 
L 2356 3053 
L 1172 3053 
L 1172 1153 
Q 1172 725 1289 603 
Q 1406 481 1766 481 
L 2356 481 
L 2356 0 
L 1766 0 
Q 1100 0 847 248 
Q 594 497 594 1153 
L 594 3053 
L 172 3053 
L 172 3500 
L 594 3500 
L 594 4494 
L 1172 4494 
z
" transform="scale(0.015625)"/>
       <path id="DejaVuSans-56" d="M 2834 3397 
L 2834 2853 
Q 2591 2978 2328 3040 
Q 2066 3103 1784 3103 
Q 1356 3103 1142 2972 
Q 928 2841 928 2578 
Q 928 2378 1081 2264 
Q 1234 2150 1697 2047 
L 1894 2003 
Q 2506 1872 2764 1633 
Q 3022 1394 3022 966 
Q 3022 478 2636 193 
Q 2250 -91 1575 -91 
Q 1294 -91 989 -36 
Q 684 19 347 128 
L 347 722 
Q 666 556 975 473 
Q 1284 391 1588 391 
Q 1994 391 2212 530 
Q 2431 669 2431 922 
Q 2431 1156 2273 1281 
Q 2116 1406 1581 1522 
L 1381 1569 
Q 847 1681 609 1914 
Q 372 2147 372 2553 
Q 372 3047 722 3315 
Q 1072 3584 1716 3584 
Q 2034 3584 2315 3537 
Q 2597 3491 2834 3397 
z
" transform="scale(0.015625)"/>
       <path id="DejaVuSans-c" d="M 513 4856 
L 1013 4856 
Q 1481 4119 1714 3412 
Q 1947 2706 1947 2009 
Q 1947 1309 1714 600 
Q 1481 -109 1013 -844 
L 513 -844 
Q 928 -128 1133 580 
Q 1338 1288 1338 2009 
Q 1338 2731 1133 3434 
Q 928 4138 513 4856 
z
" transform="scale(0.015625)"/>
      </defs>
      <use xlink:href="#DejaVuSans-37"/>
      <use xlink:href="#DejaVuSans-4c" transform="translate(58 0)"/>
      <use xlink:href="#DejaVuSans-50" transform="translate(85.78125 0)"/>
      <use xlink:href="#DejaVuSans-48" transform="translate(183.1875 0)"/>
      <use xlink:href="#DejaVuSans-3" transform="translate(244.71875 0)"/>
      <use xlink:href="#DejaVuSans-b" transform="translate(276.5 0)"/>
      <use xlink:href="#DejaVuSans-55" transform="translate(315.515625 0)"/>
      <use xlink:href="#DejaVuSans-48" transform="translate(354.421875 0)"/>
      <use xlink:href="#DejaVuSans-47" transform="translate(415.953125 0)"/>
      <use xlink:href="#DejaVuSans-58" transform="translate(479.4375 0)"/>
      <use xlink:href="#DejaVuSans-46" transform="translate(542.8125 0)"/>
      <use xlink:href="#DejaVuSans-48" transform="translate(597.796875 0)"/>
      <use xlink:href="#DejaVuSans-47" transform="translate(659.328125 0)"/>
      <use xlink:href="#DejaVuSans-3" transform="translate(722.8125 0)"/>
      <use xlink:href="#DejaVuSans-58" transform="translate(754.59375 0)"/>
      <use xlink:href="#DejaVuSans-51" transform="translate(817.96875 0)"/>
      <use xlink:href="#DejaVuSans-4c" transform="translate(881.34375 0)"/>
      <use xlink:href="#DejaVuSans-57" transform="translate(909.125 0)"/>
      <use xlink:href="#DejaVuSans-56" transform="translate(948.328125 0)"/>
      <use xlink:href="#DejaVuSans-c" transform="translate(1000.421875 0)"/>
     </g>
    </g>
   </g>
   <g id="matplotlib.axis_2">
    <g id="ytick_1">
     <g id="line2d_13">
      <path d="M 55.911953 246.814077 
L 446.511953 246.814077 
" clip-path="url(#pc1b0eeb29a)" style="fill: none; stroke: #7a8290; stroke-opacity: 0.18; stroke-width: 0.6; stroke-linecap: square"/>
     </g>
     <g id="line2d_14">
      <defs>
       <path id="me0b6d5028c" d="M 0 0 
L -3.5 0 
" style="stroke: #7a8290; stroke-width: 0.8"/>
      </defs>
      <g>
       <use xlink:href="#me0b6d5028c" x="55.911953" y="246.814077" style="fill: #7a8290; stroke: #7a8290; stroke-width: 0.8"/>
      </g>
     </g>
     <g id="text_8">
      <!-- −2.0 -->
      <g style="fill: #7a8290" transform="translate(22.200859 250.992788) scale(0.11 -0.11)">
       <defs>
        <path id="DejaVuSans-c9c" d="M 678 2272 
L 4684 2272 
L 4684 1741 
L 678 1741 
L 678 2272 
z
" transform="scale(0.015625)"/>
        <path id="DejaVuSans-11" d="M 684 794 
L 1344 794 
L 1344 0 
L 684 0 
L 684 794 
z
" transform="scale(0.015625)"/>
       </defs>
       <use xlink:href="#DejaVuSans-c9c"/>
       <use xlink:href="#DejaVuSans-15" transform="translate(83.796875 0)"/>
       <use xlink:href="#DejaVuSans-11" transform="translate(147.421875 0)"/>
       <use xlink:href="#DejaVuSans-13" transform="translate(179.203125 0)"/>
      </g>
     </g>
    </g>
    <g id="ytick_2">
     <g id="line2d_15">
      <path d="M 55.911953 214.29057 
L 446.511953 214.29057 
" clip-path="url(#pc1b0eeb29a)" style="fill: none; stroke: #7a8290; stroke-opacity: 0.18; stroke-width: 0.6; stroke-linecap: square"/>
     </g>
     <g id="line2d_16">
      <g>
       <use xlink:href="#me0b6d5028c" x="55.911953" y="214.29057" style="fill: #7a8290; stroke: #7a8290; stroke-width: 0.8"/>
      </g>
     </g>
     <g id="text_9">
      <!-- −1.5 -->
      <g style="fill: #7a8290" transform="translate(22.200859 218.469281) scale(0.11 -0.11)">
       <defs>
        <path id="DejaVuSans-18" d="M 691 4666 
L 3169 4666 
L 3169 4134 
L 1269 4134 
L 1269 2991 
Q 1406 3038 1543 3061 
Q 1681 3084 1819 3084 
Q 2600 3084 3056 2656 
Q 3513 2228 3513 1497 
Q 3513 744 3044 326 
Q 2575 -91 1722 -91 
Q 1428 -91 1123 -41 
Q 819 9 494 109 
L 494 744 
Q 775 591 1075 516 
Q 1375 441 1709 441 
Q 2250 441 2565 725 
Q 2881 1009 2881 1497 
Q 2881 1984 2565 2268 
Q 2250 2553 1709 2553 
Q 1456 2553 1204 2497 
Q 953 2441 691 2322 
L 691 4666 
z
" transform="scale(0.015625)"/>
       </defs>
       <use xlink:href="#DejaVuSans-c9c"/>
       <use xlink:href="#DejaVuSans-14" transform="translate(83.796875 0)"/>
       <use xlink:href="#DejaVuSans-11" transform="translate(147.421875 0)"/>
       <use xlink:href="#DejaVuSans-18" transform="translate(179.203125 0)"/>
      </g>
     </g>
    </g>
    <g id="ytick_3">
     <g id="line2d_17">
      <path d="M 55.911953 181.767063 
L 446.511953 181.767063 
" clip-path="url(#pc1b0eeb29a)" style="fill: none; stroke: #7a8290; stroke-opacity: 0.18; stroke-width: 0.6; stroke-linecap: square"/>
     </g>
     <g id="line2d_18">
      <g>
       <use xlink:href="#me0b6d5028c" x="55.911953" y="181.767063" style="fill: #7a8290; stroke: #7a8290; stroke-width: 0.8"/>
      </g>
     </g>
     <g id="text_10">
      <!-- −1.0 -->
      <g style="fill: #7a8290" transform="translate(22.200859 185.945774) scale(0.11 -0.11)">
       <use xlink:href="#DejaVuSans-c9c"/>
       <use xlink:href="#DejaVuSans-14" transform="translate(83.796875 0)"/>
       <use xlink:href="#DejaVuSans-11" transform="translate(147.421875 0)"/>
       <use xlink:href="#DejaVuSans-13" transform="translate(179.203125 0)"/>
      </g>
     </g>
    </g>
    <g id="ytick_4">
     <g id="line2d_19">
      <path d="M 55.911953 149.243555 
L 446.511953 149.243555 
" clip-path="url(#pc1b0eeb29a)" style="fill: none; stroke: #7a8290; stroke-opacity: 0.18; stroke-width: 0.6; stroke-linecap: square"/>
     </g>
     <g id="line2d_20">
      <g>
       <use xlink:href="#me0b6d5028c" x="55.911953" y="149.243555" style="fill: #7a8290; stroke: #7a8290; stroke-width: 0.8"/>
      </g>
     </g>
     <g id="text_11">
      <!-- −0.5 -->
      <g style="fill: #7a8290" transform="translate(22.200859 153.422266) scale(0.11 -0.11)">
       <use xlink:href="#DejaVuSans-c9c"/>
       <use xlink:href="#DejaVuSans-13" transform="translate(83.796875 0)"/>
       <use xlink:href="#DejaVuSans-11" transform="translate(147.421875 0)"/>
       <use xlink:href="#DejaVuSans-18" transform="translate(179.203125 0)"/>
      </g>
     </g>
    </g>
    <g id="ytick_5">
     <g id="line2d_21">
      <path d="M 55.911953 116.720048 
L 446.511953 116.720048 
" clip-path="url(#pc1b0eeb29a)" style="fill: none; stroke: #7a8290; stroke-opacity: 0.18; stroke-width: 0.6; stroke-linecap: square"/>
     </g>
     <g id="line2d_22">
      <g>
       <use xlink:href="#me0b6d5028c" x="55.911953" y="116.720048" style="fill: #7a8290; stroke: #7a8290; stroke-width: 0.8"/>
      </g>
     </g>
     <g id="text_12">
      <!-- 0.0 -->
      <g style="fill: #7a8290" transform="translate(31.418516 120.898759) scale(0.11 -0.11)">
       <use xlink:href="#DejaVuSans-13"/>
       <use xlink:href="#DejaVuSans-11" transform="translate(63.625 0)"/>
       <use xlink:href="#DejaVuSans-13" transform="translate(95.40625 0)"/>
      </g>
     </g>
    </g>
    <g id="ytick_6">
     <g id="line2d_23">
      <path d="M 55.911953 84.196541 
L 446.511953 84.196541 
" clip-path="url(#pc1b0eeb29a)" style="fill: none; stroke: #7a8290; stroke-opacity: 0.18; stroke-width: 0.6; stroke-linecap: square"/>
     </g>
     <g id="line2d_24">
      <g>
       <use xlink:href="#me0b6d5028c" x="55.911953" y="84.196541" style="fill: #7a8290; stroke: #7a8290; stroke-width: 0.8"/>
      </g>
     </g>
     <g id="text_13">
      <!-- 0.5 -->
      <g style="fill: #7a8290" transform="translate(31.418516 88.375252) scale(0.11 -0.11)">
       <use xlink:href="#DejaVuSans-13"/>
       <use xlink:href="#DejaVuSans-11" transform="translate(63.625 0)"/>
       <use xlink:href="#DejaVuSans-18" transform="translate(95.40625 0)"/>
      </g>
     </g>
    </g>
    <g id="ytick_7">
     <g id="line2d_25">
      <path d="M 55.911953 51.673033 
L 446.511953 51.673033 
" clip-path="url(#pc1b0eeb29a)" style="fill: none; stroke: #7a8290; stroke-opacity: 0.18; stroke-width: 0.6; stroke-linecap: square"/>
     </g>
     <g id="line2d_26">
      <g>
       <use xlink:href="#me0b6d5028c" x="55.911953" y="51.673033" style="fill: #7a8290; stroke: #7a8290; stroke-width: 0.8"/>
      </g>
     </g>
     <g id="text_14">
      <!-- 1.0 -->
      <g style="fill: #7a8290" transform="translate(31.418516 55.851744) scale(0.11 -0.11)">
       <use xlink:href="#DejaVuSans-14"/>
       <use xlink:href="#DejaVuSans-11" transform="translate(63.625 0)"/>
       <use xlink:href="#DejaVuSans-13" transform="translate(95.40625 0)"/>
      </g>
     </g>
    </g>
    <g id="text_15">
     <!-- Energy per particle (reduced units) -->
     <g style="fill: #7a8290" transform="translate(15.558281 235.084938) rotate(-90) scale(0.11 -0.11)">
      <defs>
       <path id="DejaVuSans-28" d="M 628 4666 
L 3578 4666 
L 3578 4134 
L 1259 4134 
L 1259 2753 
L 3481 2753 
L 3481 2222 
L 1259 2222 
L 1259 531 
L 3634 531 
L 3634 0 
L 628 0 
L 628 4666 
z
" transform="scale(0.015625)"/>
       <path id="DejaVuSans-4a" d="M 2906 1791 
Q 2906 2416 2648 2759 
Q 2391 3103 1925 3103 
Q 1463 3103 1205 2759 
Q 947 2416 947 1791 
Q 947 1169 1205 825 
Q 1463 481 1925 481 
Q 2391 481 2648 825 
Q 2906 1169 2906 1791 
z
M 3481 434 
Q 3481 -459 3084 -895 
Q 2688 -1331 1869 -1331 
Q 1566 -1331 1297 -1286 
Q 1028 -1241 775 -1147 
L 775 -588 
Q 1028 -725 1275 -790 
Q 1522 -856 1778 -856 
Q 2344 -856 2625 -561 
Q 2906 -266 2906 331 
L 2906 616 
Q 2728 306 2450 153 
Q 2172 0 1784 0 
Q 1141 0 747 490 
Q 353 981 353 1791 
Q 353 2603 747 3093 
Q 1141 3584 1784 3584 
Q 2172 3584 2450 3431 
Q 2728 3278 2906 2969 
L 2906 3500 
L 3481 3500 
L 3481 434 
z
" transform="scale(0.015625)"/>
       <path id="DejaVuSans-5c" d="M 2059 -325 
Q 1816 -950 1584 -1140 
Q 1353 -1331 966 -1331 
L 506 -1331 
L 506 -850 
L 844 -850 
Q 1081 -850 1212 -737 
Q 1344 -625 1503 -206 
L 1606 56 
L 191 3500 
L 800 3500 
L 1894 763 
L 2988 3500 
L 3597 3500 
L 2059 -325 
z
" transform="scale(0.015625)"/>
       <path id="DejaVuSans-53" d="M 1159 525 
L 1159 -1331 
L 581 -1331 
L 581 3500 
L 1159 3500 
L 1159 2969 
Q 1341 3281 1617 3432 
Q 1894 3584 2278 3584 
Q 2916 3584 3314 3078 
Q 3713 2572 3713 1747 
Q 3713 922 3314 415 
Q 2916 -91 2278 -91 
Q 1894 -91 1617 61 
Q 1341 213 1159 525 
z
M 3116 1747 
Q 3116 2381 2855 2742 
Q 2594 3103 2138 3103 
Q 1681 3103 1420 2742 
Q 1159 2381 1159 1747 
Q 1159 1113 1420 752 
Q 1681 391 2138 391 
Q 2594 391 2855 752 
Q 3116 1113 3116 1747 
z
" transform="scale(0.015625)"/>
       <path id="DejaVuSans-44" d="M 2194 1759 
Q 1497 1759 1228 1600 
Q 959 1441 959 1056 
Q 959 750 1161 570 
Q 1363 391 1709 391 
Q 2188 391 2477 730 
Q 2766 1069 2766 1631 
L 2766 1759 
L 2194 1759 
z
M 3341 1997 
L 3341 0 
L 2766 0 
L 2766 531 
Q 2569 213 2275 61 
Q 1981 -91 1556 -91 
Q 1019 -91 701 211 
Q 384 513 384 1019 
Q 384 1609 779 1909 
Q 1175 2209 1959 2209 
L 2766 2209 
L 2766 2266 
Q 2766 2663 2505 2880 
Q 2244 3097 1772 3097 
Q 1472 3097 1187 3025 
Q 903 2953 641 2809 
L 641 3341 
Q 956 3463 1253 3523 
Q 1550 3584 1831 3584 
Q 2591 3584 2966 3190 
Q 3341 2797 3341 1997 
z
" transform="scale(0.015625)"/>
       <path id="DejaVuSans-4f" d="M 603 4863 
L 1178 4863 
L 1178 0 
L 603 0 
L 603 4863 
z
" transform="scale(0.015625)"/>
      </defs>
      <use xlink:href="#DejaVuSans-28"/>
      <use xlink:href="#DejaVuSans-51" transform="translate(63.1875 0)"/>
      <use xlink:href="#DejaVuSans-48" transform="translate(126.5625 0)"/>
      <use xlink:href="#DejaVuSans-55" transform="translate(188.09375 0)"/>
      <use xlink:href="#DejaVuSans-4a" transform="translate(227.453125 0)"/>
      <use xlink:href="#DejaVuSans-5c" transform="translate(290.9375 0)"/>
      <use xlink:href="#DejaVuSans-3" transform="translate(350.125 0)"/>
      <use xlink:href="#DejaVuSans-53" transform="translate(381.90625 0)"/>
      <use xlink:href="#DejaVuSans-48" transform="translate(445.390625 0)"/>
      <use xlink:href="#DejaVuSans-55" transform="translate(506.921875 0)"/>
      <use xlink:href="#DejaVuSans-3" transform="translate(548.03125 0)"/>
      <use xlink:href="#DejaVuSans-53" transform="translate(579.8125 0)"/>
      <use xlink:href="#DejaVuSans-44" transform="translate(643.296875 0)"/>
      <use xlink:href="#DejaVuSans-55" transform="translate(704.578125 0)"/>
      <use xlink:href="#DejaVuSans-57" transform="translate(745.6875 0)"/>
      <use xlink:href="#DejaVuSans-4c" transform="translate(784.890625 0)"/>
      <use xlink:href="#DejaVuSans-46" transform="translate(812.671875 0)"/>
      <use xlink:href="#DejaVuSans-4f" transform="translate(867.65625 0)"/>
      <use xlink:href="#DejaVuSans-48" transform="translate(895.4375 0)"/>
      <use xlink:href="#DejaVuSans-3" transform="translate(956.96875 0)"/>
      <use xlink:href="#DejaVuSans-b" transform="translate(988.75 0)"/>
      <use xlink:href="#DejaVuSans-55" transform="translate(1027.765625 0)"/>
      <use xlink:href="#DejaVuSans-48" transform="translate(1066.671875 0)"/>
      <use xlink:href="#DejaVuSans-47" transform="translate(1128.203125 0)"/>
      <use xlink:href="#DejaVuSans-58" transform="translate(1191.6875 0)"/>
      <use xlink:href="#DejaVuSans-46" transform="translate(1255.0625 0)"/>
      <use xlink:href="#DejaVuSans-48" transform="translate(1310.046875 0)"/>
      <use xlink:href="#DejaVuSans-47" transform="translate(1371.578125 0)"/>
      <use xlink:href="#DejaVuSans-3" transform="translate(1435.0625 0)"/>
      <use xlink:href="#DejaVuSans-58" transform="translate(1466.84375 0)"/>
      <use xlink:href="#DejaVuSans-51" transform="translate(1530.21875 0)"/>
      <use xlink:href="#DejaVuSans-4c" transform="translate(1593.59375 0)"/>
      <use xlink:href="#DejaVuSans-57" transform="translate(1621.375 0)"/>
      <use xlink:href="#DejaVuSans-56" transform="translate(1660.578125 0)"/>
      <use xlink:href="#DejaVuSans-c" transform="translate(1712.671875 0)"/>
     </g>
    </g>
   </g>
   <g id="line2d_27">
    <path d="M 73.666499 160.745774 
L 85.075042 160.764868 
L 103.613925 160.754658 
L 163.508777 160.764422 
L 172.065184 160.749727 
L 199.160474 160.758589 
L 221.977561 160.761101 
L 428.757408 160.763508 
L 428.757408 160.763508 
" clip-path="url(#pc1b0eeb29a)" style="fill: none; stroke: #0072b2; stroke-width: 1.5; stroke-linecap: square"/>
   </g>
   <g id="line2d_28">
    <path d="M 73.666499 42.439052 
L 75.092566 38.621297 
L 76.518634 37.346727 
L 77.944702 36.279937 
L 79.37077 37.875775 
L 80.796838 38.718152 
L 82.222906 35.551199 
L 83.648974 36.975674 
L 85.075042 35.83099 
L 87.927178 38.604846 
L 89.353246 35.927566 
L 90.779313 38.146587 
L 92.205381 43.019476 
L 93.631449 38.666466 
L 95.057517 38.846539 
L 96.483585 41.515888 
L 97.909653 42.920613 
L 99.335721 39.376465 
L 100.761789 40.805224 
L 102.187857 37.731098 
L 103.613925 33.882016 
L 105.039993 35.727869 
L 106.46606 38.785636 
L 107.892128 38.12444 
L 109.318196 36.404955 
L 110.744264 37.608448 
L 113.5964 36.511216 
L 115.022468 39.103403 
L 116.448536 40.549108 
L 117.874604 37.809934 
L 119.300672 39.402973 
L 120.72674 37.838872 
L 123.578875 35.089257 
L 125.004943 35.132998 
L 126.431011 37.587327 
L 127.857079 39.033617 
L 129.283147 37.286389 
L 130.709215 41.563857 
L 132.135283 35.838082 
L 133.561351 35.622685 
L 134.987419 34.300135 
L 136.413487 37.176436 
L 137.839554 38.062216 
L 139.265622 37.40747 
L 140.69169 39.61387 
L 142.117758 35.659305 
L 143.543826 36.686549 
L 144.969894 41.313056 
L 146.395962 38.137969 
L 147.82203 36.504861 
L 149.248098 38.27353 
L 150.674166 38.403242 
L 152.100234 38.280338 
L 153.526301 38.81759 
L 154.952369 38.54387 
L 156.378437 35.714694 
L 157.804505 42.309159 
L 159.230573 39.380889 
L 160.656641 37.984473 
L 162.082709 42.830693 
L 163.508777 36.72931 
L 164.934845 40.949854 
L 166.360913 39.653463 
L 167.786981 37.296234 
L 169.213048 39.746151 
L 170.639116 35.689215 
L 172.065184 41.51989 
L 173.491252 42.804591 
L 176.343388 38.994451 
L 177.769456 36.23166 
L 179.195524 37.272784 
L 180.621592 41.110583 
L 182.04766 38.268267 
L 183.473727 40.188603 
L 184.899795 39.401469 
L 186.325863 41.226533 
L 187.751931 38.530888 
L 189.177999 37.486148 
L 190.604067 39.771024 
L 192.030135 37.580328 
L 193.456203 38.018006 
L 194.882271 40.300704 
L 196.308339 39.538032 
L 197.734407 36.956999 
L 199.160474 38.063595 
L 200.586542 38.414183 
L 202.01261 35.251551 
L 203.438678 39.057001 
L 204.864746 36.023843 
L 206.290814 36.924903 
L 207.716882 37.618277 
L 209.14295 37.075984 
L 210.569018 40.325398 
L 211.995086 40.125377 
L 213.421154 35.760721 
L 214.847221 35.875688 
L 216.273289 39.721366 
L 217.699357 40.780789 
L 219.125425 38.845485 
L 220.551493 37.692537 
L 221.977561 35.337373 
L 223.403629 36.280966 
L 224.829697 35.92351 
L 226.255765 36.292835 
L 227.681833 36.988762 
L 229.107901 38.862841 
L 230.533968 38.917591 
L 231.960036 35.922269 
L 233.386104 37.256964 
L 234.812172 39.103616 
L 236.23824 41.672742 
L 237.664308 37.789365 
L 239.090376 36.869073 
L 240.516444 39.049916 
L 241.942512 36.145538 
L 243.36858 39.807389 
L 244.794648 38.635945 
L 246.220715 41.007104 
L 247.646783 42.85891 
L 249.072851 40.438721 
L 250.498919 40.22748 
L 251.924987 38.784807 
L 253.351055 40.801265 
L 254.777123 36.969858 
L 256.203191 38.66029 
L 257.629259 35.151423 
L 259.055327 36.135448 
L 260.481395 39.743142 
L 261.907462 38.235753 
L 264.759598 41.712741 
L 266.185666 36.877658 
L 267.611734 35.818443 
L 269.037802 39.207235 
L 270.46387 43.248269 
L 271.889938 43.130828 
L 273.316006 39.856924 
L 274.742074 35.887656 
L 276.168142 38.779148 
L 277.594209 38.046665 
L 279.020277 39.087707 
L 280.446345 38.250338 
L 281.872413 36.951639 
L 283.298481 37.398654 
L 284.724549 37.094335 
L 286.150617 46.144302 
L 287.576685 40.466934 
L 289.002753 37.614861 
L 291.854889 38.977436 
L 293.280956 33.998521 
L 294.707024 34.166828 
L 296.133092 37.607369 
L 297.55916 38.550677 
L 298.985228 36.565716 
L 300.411296 40.553596 
L 301.837364 38.854323 
L 303.263432 36.04658 
L 304.6895 37.996338 
L 306.115568 38.134993 
L 307.541635 35.989158 
L 310.393771 32.902125 
L 311.819839 40.152998 
L 313.245907 38.4496 
L 314.671975 33.354559 
L 316.098043 41.213517 
L 317.524111 36.422629 
L 318.950179 35.558356 
L 323.228382 41.265735 
L 324.65445 37.806688 
L 326.080518 36.976598 
L 327.506586 40.806334 
L 328.932654 41.528368 
L 330.358722 39.999781 
L 331.78479 39.493882 
L 333.210858 39.295767 
L 334.636926 41.881094 
L 336.062994 43.102889 
L 337.489062 40.34068 
L 338.915129 43.704809 
L 340.341197 37.466964 
L 341.767265 37.757342 
L 343.193333 39.186754 
L 344.619401 36.894157 
L 346.045469 36.575583 
L 347.471537 42.954225 
L 350.323673 37.808319 
L 351.749741 41.621477 
L 353.175809 39.645528 
L 354.601876 39.553876 
L 356.027944 38.168794 
L 357.454012 38.875811 
L 358.88008 40.140193 
L 360.306148 40.850791 
L 361.732216 40.298376 
L 363.158284 41.330926 
L 364.584352 38.813924 
L 366.01042 34.950668 
L 367.436488 37.070585 
L 368.862556 35.657306 
L 370.288623 37.018262 
L 371.714691 37.92511 
L 373.140759 36.208555 
L 374.566827 38.998447 
L 375.992895 41.143026 
L 377.418963 39.197216 
L 378.845031 39.655712 
L 380.271099 41.781256 
L 381.697167 41.889762 
L 383.123235 39.407143 
L 384.549303 42.811942 
L 385.97537 41.735345 
L 387.401438 39.567597 
L 388.827506 38.690583 
L 390.253574 38.657897 
L 391.679642 41.66584 
L 393.10571 40.176647 
L 394.531778 37.374945 
L 395.957846 38.064924 
L 397.383914 38.172512 
L 398.809982 40.039084 
L 400.23605 38.731003 
L 401.662117 41.554897 
L 403.088185 40.724055 
L 404.514253 42.331991 
L 405.940321 40.065254 
L 407.366389 38.260337 
L 408.792457 38.878889 
L 410.218525 39.772338 
L 411.644593 42.581001 
L 414.496729 37.922484 
L 415.922796 37.603244 
L 417.348864 40.15197 
L 418.774932 39.169588 
L 420.201 37.482254 
L 421.627068 36.608632 
L 423.053136 36.649325 
L 424.479204 37.646764 
L 425.905272 39.04721 
L 427.33134 38.852374 
L 428.757408 38.001981 
L 428.757408 38.001981 
" clip-path="url(#pc1b0eeb29a)" style="fill: none; stroke-dasharray: 5.55,2.4; stroke-dashoffset: 0; stroke: #e69f00; stroke-width: 1.5"/>
   </g>
   <g id="line2d_29">
    <path d="M 73.666499 235.02677 
L 75.092566 238.858244 
L 76.518634 240.137085 
L 77.944702 241.204177 
L 79.37077 239.607268 
L 80.796838 238.754805 
L 82.222906 241.924637 
L 83.648974 240.497277 
L 85.075042 241.653926 
L 87.927178 238.866838 
L 89.353246 241.55707 
L 90.779313 239.338332 
L 92.205381 234.45405 
L 93.631449 238.820711 
L 95.057517 238.634386 
L 96.483585 235.969653 
L 97.909653 234.552151 
L 99.335721 238.106521 
L 100.761789 236.678157 
L 102.187857 239.746764 
L 103.613925 243.59269 
L 105.039993 241.749417 
L 106.46606 238.688376 
L 107.892128 239.342388 
L 109.318196 241.072296 
L 110.744264 239.874577 
L 113.5964 240.959378 
L 115.022468 238.367395 
L 116.448536 236.924874 
L 117.874604 239.670955 
L 119.300672 238.064464 
L 120.72674 239.637036 
L 123.578875 242.382767 
L 125.004943 242.336998 
L 126.431011 239.886499 
L 127.857079 238.436768 
L 129.283147 240.195681 
L 130.709215 235.898128 
L 132.135283 241.643237 
L 133.561351 241.852219 
L 134.987419 243.180551 
L 136.413487 240.303405 
L 137.839554 239.411572 
L 139.265622 240.06288 
L 140.69169 237.856822 
L 142.117758 241.821569 
L 143.543826 240.786017 
L 144.969894 236.150567 
L 146.395962 239.340346 
L 147.82203 240.968432 
L 149.248098 239.200132 
L 150.674166 239.073495 
L 152.100234 239.191494 
L 153.526301 238.66437 
L 154.952369 238.929349 
L 156.378437 241.76759 
L 157.804505 235.155776 
L 159.230573 238.094646 
L 160.656641 239.502373 
L 162.082709 234.639468 
L 163.508777 240.75516 
L 164.934845 236.517433 
L 166.360913 237.821704 
L 167.786981 240.19471 
L 169.213048 237.730537 
L 170.639116 241.794306 
L 172.065184 235.949885 
L 173.491252 234.671462 
L 176.343388 238.481512 
L 177.769456 241.243832 
L 179.195524 240.199723 
L 180.621592 236.361479 
L 182.04766 239.225862 
L 183.473727 237.284559 
L 184.899795 238.081973 
L 186.325863 236.243028 
L 187.751931 238.947062 
L 189.177999 240.003471 
L 190.604067 237.701874 
L 192.030135 239.888017 
L 193.456203 239.46139 
L 194.882271 237.181879 
L 196.308339 237.932819 
L 197.734407 240.527778 
L 199.160474 239.415042 
L 200.586542 239.057757 
L 202.01261 242.225629 
L 203.438678 238.403467 
L 204.864746 241.45958 
L 206.290814 240.549684 
L 207.716882 239.853742 
L 209.14295 240.402726 
L 210.569018 237.147115 
L 211.995086 237.342622 
L 213.421154 241.719778 
L 214.847221 241.602478 
L 216.273289 237.751859 
L 217.699357 236.690024 
L 219.125425 238.632213 
L 220.551493 239.778893 
L 221.977561 242.143776 
L 223.403629 241.200358 
L 224.829697 241.556499 
L 226.255765 241.18796 
L 227.681833 240.488869 
L 229.107901 238.616463 
L 230.533968 238.558766 
L 231.960036 241.55292 
L 233.386104 240.215859 
L 234.812172 238.377877 
L 236.23824 235.798234 
L 237.664308 239.696874 
L 239.090376 240.619981 
L 240.516444 238.416521 
L 241.942512 241.334788 
L 243.36858 237.659131 
L 244.794648 238.844132 
L 246.220715 236.473669 
L 247.646783 234.612648 
L 249.072851 237.040179 
L 250.498919 237.245856 
L 251.924987 238.693584 
L 253.351055 236.670865 
L 254.777123 240.520713 
L 256.203191 238.816851 
L 257.629259 242.328362 
L 259.055327 241.340479 
L 260.481395 237.729459 
L 261.907462 239.244239 
L 264.759598 235.757281 
L 266.185666 240.595097 
L 267.611734 241.656537 
L 269.037802 238.264925 
L 270.46387 234.218787 
L 271.889938 234.341331 
L 273.316006 237.613201 
L 274.742074 241.597927 
L 276.168142 238.696631 
L 277.594209 239.428611 
L 279.020277 238.386646 
L 280.446345 239.224348 
L 281.872413 240.529957 
L 283.298481 240.079182 
L 284.724549 240.389472 
L 286.150617 231.316481 
L 287.576685 237.01473 
L 289.002753 239.862972 
L 291.854889 238.48848 
L 293.280956 243.483725 
L 294.707024 243.309446 
L 296.133092 239.869333 
L 297.55916 238.920542 
L 298.985228 240.915911 
L 300.411296 236.925066 
L 301.837364 238.626571 
L 303.263432 241.439429 
L 304.6895 239.486073 
L 306.115568 239.343303 
L 307.541635 241.482741 
L 310.393771 244.582125 
L 311.819839 237.318943 
L 313.245907 239.032609 
L 314.671975 244.136728 
L 316.098043 236.252842 
L 317.524111 241.062656 
L 318.950179 241.911507 
L 323.228382 236.210041 
L 324.65445 239.67684 
L 326.080518 240.501255 
L 327.506586 236.673064 
L 328.932654 235.944667 
L 330.358722 237.479363 
L 331.78479 237.986364 
L 333.210858 238.186949 
L 334.636926 235.598869 
L 336.062994 234.373945 
L 337.489062 237.143892 
L 338.915129 233.759549 
L 340.341197 240.019923 
L 341.767265 239.719687 
L 343.193333 238.286402 
L 344.619401 240.575189 
L 346.045469 240.909066 
L 347.471537 234.518313 
L 348.897605 237.219054 
L 350.323673 239.679451 
L 351.749741 235.851582 
L 353.175809 237.835492 
L 354.601876 237.920519 
L 356.027944 239.319755 
L 357.454012 238.603931 
L 358.88008 237.337583 
L 360.306148 236.634656 
L 361.732216 237.181823 
L 363.158284 236.149668 
L 364.584352 238.664533 
L 366.01042 242.531176 
L 367.436488 240.406785 
L 368.862556 241.821667 
L 370.288623 240.46049 
L 371.714691 239.55064 
L 373.140759 241.276712 
L 374.566827 238.483019 
L 375.992895 236.336278 
L 377.418963 238.291693 
L 378.845031 237.823664 
L 380.271099 235.702424 
L 381.697167 235.587558 
L 383.123235 238.081429 
L 384.549303 234.660429 
L 385.97537 235.741052 
L 387.401438 237.910065 
L 388.827506 238.788888 
L 390.253574 238.824706 
L 391.679642 235.806306 
L 393.10571 237.298966 
L 394.531778 240.109666 
L 395.957846 239.413831 
L 397.383914 239.303385 
L 398.809982 237.432774 
L 400.23605 238.75314 
L 401.662117 235.919849 
L 403.088185 236.758553 
L 404.514253 235.149435 
L 405.940321 237.41437 
L 407.366389 239.216435 
L 408.792457 238.602473 
L 410.218525 237.707815 
L 411.644593 234.897916 
L 414.496729 239.552952 
L 415.922796 239.880915 
L 417.348864 237.321745 
L 418.774932 238.307073 
L 420.201 239.997163 
L 421.627068 240.869292 
L 423.053136 240.83487 
L 424.479204 239.833356 
L 425.905272 238.426773 
L 427.33134 238.62542 
L 428.757408 239.481575 
L 428.757408 239.481575 
" clip-path="url(#pc1b0eeb29a)" style="fill: none; stroke-dasharray: 9.6,2.4,1.5,2.4; stroke-dashoffset: 0; stroke: #009e73; stroke-width: 1.5"/>
   </g>
   <g id="patch_3">
    <path d="M 55.911953 255.166125 
L 55.911953 22.318125 
" style="fill: none; stroke: #7a8290; stroke-width: 0.8; stroke-linejoin: miter; stroke-linecap: square"/>
   </g>
   <g id="patch_4">
    <path d="M 55.911953 255.166125 
L 446.511953 255.166125 
" style="fill: none; stroke: #7a8290; stroke-width: 0.8; stroke-linejoin: miter; stroke-linecap: square"/>
   </g>
   <g id="text_16">
    <!-- Energy conservation under velocity-Verlet (NVE) -->
    <g style="fill: #7a8290" transform="translate(106.493828 16.318125) scale(0.12 -0.12)">
     <defs>
      <path id="DejaVuSans-52" d="M 1959 3097 
Q 1497 3097 1228 2736 
Q 959 2375 959 1747 
Q 959 1119 1226 758 
Q 1494 397 1959 397 
Q 2419 397 2687 759 
Q 2956 1122 2956 1747 
Q 2956 2369 2687 2733 
Q 2419 3097 1959 3097 
z
M 1959 3584 
Q 2709 3584 3137 3096 
Q 3566 2609 3566 1747 
Q 3566 888 3137 398 
Q 2709 -91 1959 -91 
Q 1206 -91 779 398 
Q 353 888 353 1747 
Q 353 2609 779 3096 
Q 1206 3584 1959 3584 
z
" transform="scale(0.015625)"/>
      <path id="DejaVuSans-59" d="M 191 3500 
L 800 3500 
L 1894 563 
L 2988 3500 
L 3597 3500 
L 2284 0 
L 1503 0 
L 191 3500 
z
" transform="scale(0.015625)"/>
      <path id="DejaVuSans-10" d="M 313 2009 
L 1997 2009 
L 1997 1497 
L 313 1497 
L 313 2009 
z
" transform="scale(0.015625)"/>
      <path id="DejaVuSans-39" d="M 1831 0 
L 50 4666 
L 709 4666 
L 2188 738 
L 3669 4666 
L 4325 4666 
L 2547 0 
L 1831 0 
z
" transform="scale(0.015625)"/>
      <path id="DejaVuSans-31" d="M 628 4666 
L 1478 4666 
L 3547 763 
L 3547 4666 
L 4159 4666 
L 4159 0 
L 3309 0 
L 1241 3903 
L 1241 0 
L 628 0 
L 628 4666 
z
" transform="scale(0.015625)"/>
     </defs>
     <use xlink:href="#DejaVuSans-28"/>
     <use xlink:href="#DejaVuSans-51" transform="translate(63.1875 0)"/>
     <use xlink:href="#DejaVuSans-48" transform="translate(126.5625 0)"/>
     <use xlink:href="#DejaVuSans-55" transform="translate(188.09375 0)"/>
     <use xlink:href="#DejaVuSans-4a" transform="translate(227.453125 0)"/>
     <use xlink:href="#DejaVuSans-5c" transform="translate(290.9375 0)"/>
     <use xlink:href="#DejaVuSans-3" transform="translate(350.125 0)"/>
     <use xlink:href="#DejaVuSans-46" transform="translate(381.90625 0)"/>
     <use xlink:href="#DejaVuSans-52" transform="translate(436.890625 0)"/>
     <use xlink:href="#DejaVuSans-51" transform="translate(498.078125 0)"/>
     <use xlink:href="#DejaVuSans-56" transform="translate(561.453125 0)"/>
     <use xlink:href="#DejaVuSans-48" transform="translate(613.546875 0)"/>
     <use xlink:href="#DejaVuSans-55" transform="translate(675.078125 0)"/>
     <use xlink:href="#DejaVuSans-59" transform="translate(716.1875 0)"/>
     <use xlink:href="#DejaVuSans-44" transform="translate(775.375 0)"/>
     <use xlink:href="#DejaVuSans-57" transform="translate(836.65625 0)"/>
     <use xlink:href="#DejaVuSans-4c" transform="translate(875.859375 0)"/>
     <use xlink:href="#DejaVuSans-52" transform="translate(903.640625 0)"/>
     <use xlink:href="#DejaVuSans-51" transform="translate(964.828125 0)"/>
     <use xlink:href="#DejaVuSans-3" transform="translate(1028.203125 0)"/>
     <use xlink:href="#DejaVuSans-58" transform="translate(1059.984375 0)"/>
     <use xlink:href="#DejaVuSans-51" transform="translate(1123.359375 0)"/>
     <use xlink:href="#DejaVuSans-47" transform="translate(1186.734375 0)"/>
     <use xlink:href="#DejaVuSans-48" transform="translate(1250.21875 0)"/>
     <use xlink:href="#DejaVuSans-55" transform="translate(1311.75 0)"/>
     <use xlink:href="#DejaVuSans-3" transform="translate(1352.859375 0)"/>
     <use xlink:href="#DejaVuSans-59" transform="translate(1384.640625 0)"/>
     <use xlink:href="#DejaVuSans-48" transform="translate(1443.828125 0)"/>
     <use xlink:href="#DejaVuSans-4f" transform="translate(1505.359375 0)"/>
     <use xlink:href="#DejaVuSans-52" transform="translate(1533.140625 0)"/>
     <use xlink:href="#DejaVuSans-46" transform="translate(1594.328125 0)"/>
     <use xlink:href="#DejaVuSans-4c" transform="translate(1649.3125 0)"/>
     <use xlink:href="#DejaVuSans-57" transform="translate(1677.09375 0)"/>
     <use xlink:href="#DejaVuSans-5c" transform="translate(1716.296875 0)"/>
     <use xlink:href="#DejaVuSans-10" transform="translate(1773.734375 0)"/>
     <use xlink:href="#DejaVuSans-39" transform="translate(1803.953125 0)"/>
     <use xlink:href="#DejaVuSans-48" transform="translate(1864.59375 0)"/>
     <use xlink:href="#DejaVuSans-55" transform="translate(1926.125 0)"/>
     <use xlink:href="#DejaVuSans-4f" transform="translate(1967.234375 0)"/>
     <use xlink:href="#DejaVuSans-48" transform="translate(1995.015625 0)"/>
     <use xlink:href="#DejaVuSans-57" transform="translate(2056.546875 0)"/>
     <use xlink:href="#DejaVuSans-3" transform="translate(2095.75 0)"/>
     <use xlink:href="#DejaVuSans-b" transform="translate(2127.53125 0)"/>
     <use xlink:href="#DejaVuSans-31" transform="translate(2166.546875 0)"/>
     <use xlink:href="#DejaVuSans-39" transform="translate(2241.359375 0)"/>
     <use xlink:href="#DejaVuSans-28" transform="translate(2309.765625 0)"/>
     <use xlink:href="#DejaVuSans-c" transform="translate(2372.953125 0)"/>
    </g>
   </g>
   <g id="legend_1">
    <g id="line2d_30">
     <path d="M 357.623359 121.249117 
L 368.623359 121.249117 
L 379.623359 121.249117 
" style="fill: none; stroke: #0072b2; stroke-width: 1.5; stroke-linecap: square"/>
    </g>
    <g id="text_17">
     <!-- Total -->
     <g style="fill: #7a8290" transform="translate(388.423359 125.099117) scale(0.11 -0.11)">
      <use xlink:href="#DejaVuSans-37"/>
      <use xlink:href="#DejaVuSans-52" transform="translate(44.09375 0)"/>
      <use xlink:href="#DejaVuSans-57" transform="translate(105.28125 0)"/>
      <use xlink:href="#DejaVuSans-44" transform="translate(144.484375 0)"/>
      <use xlink:href="#DejaVuSans-4f" transform="translate(205.765625 0)"/>
     </g>
    </g>
    <g id="line2d_31">
     <path d="M 357.623359 137.749977 
L 368.623359 137.749977 
L 379.623359 137.749977 
" style="fill: none; stroke-dasharray: 5.55,2.4; stroke-dashoffset: 0; stroke: #e69f00; stroke-width: 1.5"/>
    </g>
    <g id="text_18">
     <!-- Kinetic -->
     <g style="fill: #7a8290" transform="translate(388.423359 141.599977) scale(0.11 -0.11)">
      <defs>
       <path id="DejaVuSans-2e" d="M 628 4666 
L 1259 4666 
L 1259 2694 
L 3353 4666 
L 4166 4666 
L 1850 2491 
L 4331 0 
L 3500 0 
L 1259 2247 
L 1259 0 
L 628 0 
L 628 4666 
z
" transform="scale(0.015625)"/>
      </defs>
      <use xlink:href="#DejaVuSans-2e"/>
      <use xlink:href="#DejaVuSans-4c" transform="translate(65.578125 0)"/>
      <use xlink:href="#DejaVuSans-51" transform="translate(93.359375 0)"/>
      <use xlink:href="#DejaVuSans-48" transform="translate(156.734375 0)"/>
      <use xlink:href="#DejaVuSans-57" transform="translate(218.265625 0)"/>
      <use xlink:href="#DejaVuSans-4c" transform="translate(257.46875 0)"/>
      <use xlink:href="#DejaVuSans-46" transform="translate(285.25 0)"/>
     </g>
    </g>
    <g id="line2d_32">
     <path d="M 357.623359 154.250836 
L 368.623359 154.250836 
L 379.623359 154.250836 
" style="fill: none; stroke-dasharray: 9.6,2.4,1.5,2.4; stroke-dashoffset: 0; stroke: #009e73; stroke-width: 1.5"/>
    </g>
    <g id="text_19">
     <!-- Potential -->
     <g style="fill: #7a8290" transform="translate(388.423359 158.100836) scale(0.11 -0.11)">
      <defs>
       <path id="DejaVuSans-33" d="M 1259 4147 
L 1259 2394 
L 2053 2394 
Q 2494 2394 2734 2622 
Q 2975 2850 2975 3272 
Q 2975 3691 2734 3919 
Q 2494 4147 2053 4147 
L 1259 4147 
z
M 628 4666 
L 2053 4666 
Q 2838 4666 3239 4311 
Q 3641 3956 3641 3272 
Q 3641 2581 3239 2228 
Q 2838 1875 2053 1875 
L 1259 1875 
L 1259 0 
L 628 0 
L 628 4666 
z
" transform="scale(0.015625)"/>
      </defs>
      <use xlink:href="#DejaVuSans-33"/>
      <use xlink:href="#DejaVuSans-52" transform="translate(56.734375 0)"/>
      <use xlink:href="#DejaVuSans-57" transform="translate(117.921875 0)"/>
      <use xlink:href="#DejaVuSans-48" transform="translate(157.125 0)"/>
      <use xlink:href="#DejaVuSans-51" transform="translate(218.65625 0)"/>
      <use xlink:href="#DejaVuSans-57" transform="translate(282.03125 0)"/>
      <use xlink:href="#DejaVuSans-4c" transform="translate(321.234375 0)"/>
      <use xlink:href="#DejaVuSans-44" transform="translate(349.015625 0)"/>
      <use xlink:href="#DejaVuSans-4f" transform="translate(410.296875 0)"/>
     </g>
    </g>
   </g>
  </g>
 </g>
 <defs>
  <clipPath id="pc1b0eeb29a">
   <rect x="55.911953" y="22.318125" width="390.6" height="232.848"/>
  </clipPath>
 </defs>
</svg>
