<?xml version="1.0" encoding="utf-8" standalone="no"?>
<!DOCTYPE svg PUBLIC "-//W3C//DTD SVG 1.1//EN"
  "http://www.w3.org/Graphics/SVG/1.1/DTD/svg11.dtd">
<svg xmlns:xlink="http://www.w3.org/1999/xlink" width="444.493437pt" height="295.366984pt" viewBox="0 0 444.493437 295.366984" xmlns="http://www.w3.org/2000/svg" version="1.1">
 <metadata>
  <rdf:RDF xmlns:dc="http://purl.org/dc/elements/1.1/" xmlns:cc="http://creativecommons.org/ns#" xmlns:rdf="http://www.w3.org/1999/02/22-rdf-syntax-ns#">
   <cc:Work>
    <dc:type rdf:resource="http://purl.org/dc/dcmitype/StillImage"/>
    <dc:date>2026-06-23T10:23:35.595798</dc:date>
    <dc:format>image/svg+xml</dc:format>
    <dc:creator>
     <cc:Agent>
      <dc:title>Matplotlib v3.11.0, https://matplotlib.org/</dc:title>
     </cc:Agent>
    </dc:creator>
   </cc:Work>
  </rdf:RDF>
 </metadata>
 <defs>
  <style type="text/css">*{stroke-linejoin: round; stroke-linecap: butt}</style>
 </defs>
 <g id="figure_1">
  <g id="patch_1">
   <path d="M 0 295.366984 
L 444.493437 295.366984 
L 444.493437 0 
L 0 0 
L 0 295.366984 
z
" style="fill: none"/>
  </g>
  <g id="axes_1">
   <g id="patch_2">
    <path d="M 46.693438 255.166125 
L 437.293438 255.166125 
L 437.293438 22.318125 
L 46.693438 22.318125 
L 46.693438 255.166125 
z
" style="fill: none"/>
   </g>
   <g id="matplotlib.axis_1">
    <g id="xtick_1">
     <g id="line2d_1">
      <path d="M 62.956004 255.166125 
L 62.956004 22.318125 
" clip-path="url(#pc83339fc2a)" style="fill: none; stroke: #7a8290; stroke-opacity: 0.18; stroke-width: 0.6; stroke-linecap: square"/>
     </g>
     <g id="line2d_2">
      <defs>
       <path id="mcc2b40bab4" d="M 0 0 
L 0 3.5 
" style="stroke: #7a8290; stroke-width: 0.8"/>
      </defs>
      <g>
       <use xlink:href="#mcc2b40bab4" x="62.956004" y="255.166125" style="fill: #7a8290; stroke: #7a8290; stroke-width: 0.8"/>
      </g>
     </g>
     <g id="text_1">
      <!-- 0 -->
      <g style="fill: #7a8290" transform="translate(59.456629 270.523547) scale(0.11 -0.11)">
       <defs>
        <path id="DejaVuSans-13" d="M 2034 4250 
Q 1547 4250 1301 3770 
Q 1056 3291 1056 2328 
Q 1056 1369 1301 889 
Q 1547 409 2034 409 
Q 2525 409 2770 889 
Q 3016 1369 3016 2328 
Q 3016 3291 2770 3770 
Q 2525 4250 2034 4250 
z
M 2034 4750 
Q 2819 4750 3233 4129 
Q 3647 3509 3647 2328 
Q 3647 1150 3233 529 
Q 2819 -91 2034 -91 
Q 1250 -91 836 529 
Q 422 1150 422 2328 
Q 422 3509 836 4129 
Q 1250 4750 2034 4750 
z
" transform="scale(0.015625)"/>
       </defs>
       <use xlink:href="#DejaVuSans-13"/>
      </g>
     </g>
    </g>
    <g id="xtick_2">
     <g id="line2d_3">
      <path d="M 126.897945 255.166125 
L 126.897945 22.318125 
" clip-path="url(#pc83339fc2a)" style="fill: none; stroke: #7a8290; stroke-opacity: 0.18; stroke-width: 0.6; stroke-linecap: square"/>
     </g>
     <g id="line2d_4">
      <g>
       <use xlink:href="#mcc2b40bab4" x="126.897945" y="255.166125" style="fill: #7a8290; stroke: #7a8290; stroke-width: 0.8"/>
      </g>
     </g>
     <g id="text_2">
      <!-- 2 -->
      <g style="fill: #7a8290" transform="translate(123.39857 270.523547) scale(0.11 -0.11)">
       <defs>
        <path id="DejaVuSans-15" d="M 1228 531 
L 3431 531 
L 3431 0 
L 469 0 
L 469 531 
Q 828 903 1448 1529 
Q 2069 2156 2228 2338 
Q 2531 2678 2651 2914 
Q 2772 3150 2772 3378 
Q 2772 3750 2511 3984 
Q 2250 4219 1831 4219 
Q 1534 4219 1204 4116 
Q 875 4013 500 3803 
L 500 4441 
Q 881 4594 1212 4672 
Q 1544 4750 1819 4750 
Q 2544 4750 2975 4387 
Q 3406 4025 3406 3419 
Q 3406 3131 3298 2873 
Q 3191 2616 2906 2266 
Q 2828 2175 2409 1742 
Q 1991 1309 1228 531 
z
" transform="scale(0.015625)"/>
       </defs>
       <use xlink:href="#DejaVuSans-15"/>
      </g>
     </g>
    </g>
    <g id="xtick_3">
     <g id="line2d_5">
      <path d="M 190.839885 255.166125 
L 190.839885 22.318125 
" clip-path="url(#pc83339fc2a)" style="fill: none; stroke: #7a8290; stroke-opacity: 0.18; stroke-width: 0.6; stroke-linecap: square"/>
     </g>
     <g id="line2d_6">
      <g>
       <use xlink:href="#mcc2b40bab4" x="190.839885" y="255.166125" style="fill: #7a8290; stroke: #7a8290; stroke-width: 0.8"/>
      </g>
     </g>
     <g id="text_3">
      <!-- 4 -->
      <g style="fill: #7a8290" transform="translate(187.34051 270.523547) scale(0.11 -0.11)">
       <defs>
        <path id="DejaVuSans-17" d="M 2419 4116 
L 825 1625 
L 2419 1625 
L 2419 4116 
z
M 2253 4666 
L 3047 4666 
L 3047 1625 
L 3713 1625 
L 3713 1100 
L 3047 1100 
L 3047 0 
L 2419 0 
L 2419 1100 
L 313 1100 
L 313 1709 
L 2253 4666 
z
" transform="scale(0.015625)"/>
       </defs>
       <use xlink:href="#DejaVuSans-17"/>
      </g>
     </g>
    </g>
    <g id="xtick_4">
     <g id="line2d_7">
      <path d="M 254.781826 255.166125 
L 254.781826 22.318125 
" clip-path="url(#pc83339fc2a)" style="fill: none; stroke: #7a8290; stroke-opacity: 0.18; stroke-width: 0.6; stroke-linecap: square"/>
     </g>
     <g id="line2d_8">
      <g>
       <use xlink:href="#mcc2b40bab4" x="254.781826" y="255.166125" style="fill: #7a8290; stroke: #7a8290; stroke-width: 0.8"/>
      </g>
     </g>
     <g id="text_4">
      <!-- 6 -->
      <g style="fill: #7a8290" transform="translate(251.282451 270.523547) scale(0.11 -0.11)">
       <defs>
        <path id="DejaVuSans-19" d="M 2113 2584 
Q 1688 2584 1439 2293 
Q 1191 2003 1191 1497 
Q 1191 994 1439 701 
Q 1688 409 2113 409 
Q 2538 409 2786 701 
Q 3034 994 3034 1497 
Q 3034 2003 2786 2293 
Q 2538 2584 2113 2584 
z
M 3366 4563 
L 3366 3988 
Q 3128 4100 2886 4159 
Q 2644 4219 2406 4219 
Q 1781 4219 1451 3797 
Q 1122 3375 1075 2522 
Q 1259 2794 1537 2939 
Q 1816 3084 2150 3084 
Q 2853 3084 3261 2657 
Q 3669 2231 3669 1497 
Q 3669 778 3244 343 
Q 2819 -91 2113 -91 
Q 1303 -91 875 529 
Q 447 1150 447 2328 
Q 447 3434 972 4092 
Q 1497 4750 2381 4750 
Q 2619 4750 2861 4703 
Q 3103 4656 3366 4563 
z
" transform="scale(0.015625)"/>
       </defs>
       <use xlink:href="#DejaVuSans-19"/>
      </g>
     </g>
    </g>
    <g id="xtick_5">
     <g id="line2d_9">
      <path d="M 318.723766 255.166125 
L 318.723766 22.318125 
" clip-path="url(#pc83339fc2a)" style="fill: none; stroke: #7a8290; stroke-opacity: 0.18; stroke-width: 0.6; stroke-linecap: square"/>
     </g>
     <g id="line2d_10">
      <g>
       <use xlink:href="#mcc2b40bab4" x="318.723766" y="255.166125" style="fill: #7a8290; stroke: #7a8290; stroke-width: 0.8"/>
      </g>
     </g>
     <g id="text_5">
      <!-- 8 -->
      <g style="fill: #7a8290" transform="translate(315.224391 270.523547) scale(0.11 -0.11)">
       <defs>
        <path id="DejaVuSans-1b" d="M 2034 2216 
Q 1584 2216 1326 1975 
Q 1069 1734 1069 1313 
Q 1069 891 1326 650 
Q 1584 409 2034 409 
Q 2484 409 2743 651 
Q 3003 894 3003 1313 
Q 3003 1734 2745 1975 
Q 2488 2216 2034 2216 
z
M 1403 2484 
Q 997 2584 770 2862 
Q 544 3141 544 3541 
Q 544 4100 942 4425 
Q 1341 4750 2034 4750 
Q 2731 4750 3128 4425 
Q 3525 4100 3525 3541 
Q 3525 3141 3298 2862 
Q 3072 2584 2669 2484 
Q 3125 2378 3379 2068 
Q 3634 1759 3634 1313 
Q 3634 634 3220 271 
Q 2806 -91 2034 -91 
Q 1263 -91 848 271 
Q 434 634 434 1313 
Q 434 1759 690 2068 
Q 947 2378 1403 2484 
z
M 1172 3481 
Q 1172 3119 1398 2916 
Q 1625 2713 2034 2713 
Q 2441 2713 2670 2916 
Q 2900 3119 2900 3481 
Q 2900 3844 2670 4047 
Q 2441 4250 2034 4250 
Q 1625 4250 1398 4047 
Q 1172 3844 1172 3481 
z
" transform="scale(0.015625)"/>
       </defs>
       <use xlink:href="#DejaVuSans-1b"/>
      </g>
     </g>
    </g>
    <g id="xtick_6">
     <g id="line2d_11">
      <path d="M 382.665706 255.166125 
L 382.665706 22.318125 
" clip-path="url(#pc83339fc2a)" style="fill: none; stroke: #7a8290; stroke-opacity: 0.18; stroke-width: 0.6; stroke-linecap: square"/>
     </g>
     <g id="line2d_12">
      <g>
       <use xlink:href="#mcc2b40bab4" x="382.665706" y="255.166125" style="fill: #7a8290; stroke: #7a8290; stroke-width: 0.8"/>
      </g>
     </g>
     <g id="text_6">
      <!-- 10 -->
      <g style="fill: #7a8290" transform="translate(375.666956 270.523547) scale(0.11 -0.11)">
       <defs>
        <path id="DejaVuSans-14" d="M 794 531 
L 1825 531 
L 1825 4091 
L 703 3866 
L 703 4441 
L 1819 4666 
L 2450 4666 
L 2450 531 
L 3481 531 
L 3481 0 
L 794 0 
L 794 531 
z
" transform="scale(0.015625)"/>
       </defs>
       <use xlink:href="#DejaVuSans-14"/>
       <use xlink:href="#DejaVuSans-13" transform="translate(63.625 0)"/>
      </g>
     </g>
    </g>
    <g id="text_7">
     <!-- Separation r (reduced units) -->
     <g style="fill: #7a8290" transform="translate(164.370391 285.524406) scale(0.11 -0.11)">
      <defs>
       <path id="DejaVuSans-36" d="M 3425 4513 
L 3425 3897 
Q 3066 4069 2747 4153 
Q 2428 4238 2131 4238 
Q 1616 4238 1336 4038 
Q 1056 3838 1056 3469 
Q 1056 3159 1242 3001 
Q 1428 2844 1947 2747 
L 2328 2669 
Q 3034 2534 3370 2195 
Q 3706 1856 3706 1288 
Q 3706 609 3251 259 
Q 2797 -91 1919 -91 
Q 1588 -91 1214 -16 
Q 841 59 441 206 
L 441 856 
Q 825 641 1194 531 
Q 1563 422 1919 422 
Q 2459 422 2753 634 
Q 3047 847 3047 1241 
Q 3047 1584 2836 1778 
Q 2625 1972 2144 2069 
L 1759 2144 
Q 1053 2284 737 2584 
Q 422 2884 422 3419 
Q 422 4038 858 4394 
Q 1294 4750 2059 4750 
Q 2388 4750 2728 4690 
Q 3069 4631 3425 4513 
z
" transform="scale(0.015625)"/>
       <path id="DejaVuSans-48" d="M 3597 1894 
L 3597 1613 
L 953 1613 
Q 991 1019 1311 708 
Q 1631 397 2203 397 
Q 2534 397 2845 478 
Q 3156 559 3463 722 
L 3463 178 
Q 3153 47 2828 -22 
Q 2503 -91 2169 -91 
Q 1331 -91 842 396 
Q 353 884 353 1716 
Q 353 2575 817 3079 
Q 1281 3584 2069 3584 
Q 2775 3584 3186 3129 
Q 3597 2675 3597 1894 
z
M 3022 2063 
Q 3016 2534 2758 2815 
Q 2500 3097 2075 3097 
Q 1594 3097 1305 2825 
Q 1016 2553 972 2059 
L 3022 2063 
z
" transform="scale(0.015625)"/>
       <path id="DejaVuSans-53" d="M 1159 525 
L 1159 -1331 
L 581 -1331 
L 581 3500 
L 1159 3500 
L 1159 2969 
Q 1341 3281 1617 3432 
Q 1894 3584 2278 3584 
Q 2916 3584 3314 3078 
Q 3713 2572 3713 1747 
Q 3713 922 3314 415 
Q 2916 -91 2278 -91 
Q 1894 -91 1617 61 
Q 1341 213 1159 525 
z
M 3116 1747 
Q 3116 2381 2855 2742 
Q 2594 3103 2138 3103 
Q 1681 3103 1420 2742 
Q 1159 2381 1159 1747 
Q 1159 1113 1420 752 
Q 1681 391 2138 391 
Q 2594 391 2855 752 
Q 3116 1113 3116 1747 
z
" transform="scale(0.015625)"/>
       <path id="DejaVuSans-44" d="M 2194 1759 
Q 1497 1759 1228 1600 
Q 959 1441 959 1056 
Q 959 750 1161 570 
Q 1363 391 1709 391 
Q 2188 391 2477 730 
Q 2766 1069 2766 1631 
L 2766 1759 
L 2194 1759 
z
M 3341 1997 
L 3341 0 
L 2766 0 
L 2766 531 
Q 2569 213 2275 61 
Q 1981 -91 1556 -91 
Q 1019 -91 701 211 
Q 384 513 384 1019 
Q 384 1609 779 1909 
Q 1175 2209 1959 2209 
L 2766 2209 
L 2766 2266 
Q 2766 2663 2505 2880 
Q 2244 3097 1772 3097 
Q 1472 3097 1187 3025 
Q 903 2953 641 2809 
L 641 3341 
Q 956 3463 1253 3523 
Q 1550 3584 1831 3584 
Q 2591 3584 2966 3190 
Q 3341 2797 3341 1997 
z
" transform="scale(0.015625)"/>
       <path id="DejaVuSans-55" d="M 2631 2963 
Q 2534 3019 2420 3045 
Q 2306 3072 2169 3072 
Q 1681 3072 1420 2755 
Q 1159 2438 1159 1844 
L 1159 0 
L 581 0 
L 581 3500 
L 1159 3500 
L 1159 2956 
Q 1341 3275 1631 3429 
Q 1922 3584 2338 3584 
Q 2397 3584 2469 3576 
Q 2541 3569 2628 3553 
L 2631 2963 
z
" transform="scale(0.015625)"/>
       <path id="DejaVuSans-57" d="M 1172 4494 
L 1172 3500 
L 2356 3500 
L 2356 3053 
L 1172 3053 
L 1172 1153 
Q 1172 725 1289 603 
Q 1406 481 1766 481 
L 2356 481 
L 2356 0 
L 1766 0 
Q 1100 0 847 248 
Q 594 497 594 1153 
L 594 3053 
L 172 3053 
L 172 3500 
L 594 3500 
L 594 4494 
L 1172 4494 
z
" transform="scale(0.015625)"/>
       <path id="DejaVuSans-4c" d="M 603 3500 
L 1178 3500 
L 1178 0 
L 603 0 
L 603 3500 
z
M 603 4863 
L 1178 4863 
L 1178 4134 
L 603 4134 
L 603 4863 
z
" transform="scale(0.015625)"/>
       <path id="DejaVuSans-52" d="M 1959 3097 
Q 1497 3097 1228 2736 
Q 959 2375 959 1747 
Q 959 1119 1226 758 
Q 1494 397 1959 397 
Q 2419 397 2687 759 
Q 2956 1122 2956 1747 
Q 2956 2369 2687 2733 
Q 2419 3097 1959 3097 
z
M 1959 3584 
Q 2709 3584 3137 3096 
Q 3566 2609 3566 1747 
Q 3566 888 3137 398 
Q 2709 -91 1959 -91 
Q 1206 -91 779 398 
Q 353 888 353 1747 
Q 353 2609 779 3096 
Q 1206 3584 1959 3584 
z
" transform="scale(0.015625)"/>
       <path id="DejaVuSans-51" d="M 3513 2113 
L 3513 0 
L 2938 0 
L 2938 2094 
Q 2938 2591 2744 2837 
Q 2550 3084 2163 3084 
Q 1697 3084 1428 2787 
Q 1159 2491 1159 1978 
L 1159 0 
L 581 0 
L 581 3500 
L 1159 3500 
L 1159 2956 
Q 1366 3272 1645 3428 
Q 1925 3584 2291 3584 
Q 2894 3584 3203 3211 
Q 3513 2838 3513 2113 
z
" transform="scale(0.015625)"/>
       <path id="DejaVuSans-3" transform="scale(0.015625)"/>
       <path id="DejaVuSans-b" d="M 1984 4856 
Q 1566 4138 1362 3434 
Q 1159 2731 1159 2009 
Q 1159 1288 1364 580 
Q 1569 -128 1984 -844 
L 1484 -844 
Q 1016 -109 783 600 
Q 550 1309 550 2009 
Q 550 2706 781 3412 
Q 1013 4119 1484 4856 
L 1984 4856 
z
" transform="scale(0.015625)"/>
       <path id="DejaVuSans-47" d="M 2906 2969 
L 2906 4863 
L 3481 4863 
L 3481 0 
L 2906 0 
L 2906 525 
Q 2725 213 2448 61 
Q 2172 -91 1784 -91 
Q 1150 -91 751 415 
Q 353 922 353 1747 
Q 353 2572 751 3078 
Q 1150 3584 1784 3584 
Q 2172 3584 2448 3432 
Q 2725 3281 2906 2969 
z
M 947 1747 
Q 947 1113 1208 752 
Q 1469 391 1925 391 
Q 2381 391 2643 752 
Q 2906 1113 2906 1747 
Q 2906 2381 2643 2742 
Q 2381 3103 1925 3103 
Q 1469 3103 1208 2742 
Q 947 2381 947 1747 
z
" transform="scale(0.015625)"/>
       <path id="DejaVuSans-58" d="M 544 1381 
L 544 3500 
L 1119 3500 
L 1119 1403 
Q 1119 906 1312 657 
Q 1506 409 1894 409 
Q 2359 409 2629 706 
Q 2900 1003 2900 1516 
L 2900 3500 
L 3475 3500 
L 3475 0 
L 2900 0 
L 2900 538 
Q 2691 219 2414 64 
Q 2138 -91 1772 -91 
Q 1169 -91 856 284 
Q 544 659 544 1381 
z
M 1991 3584 
L 1991 3584 
z
" transform="scale(0.015625)"/>
       <path id="DejaVuSans-46" d="M 3122 3366 
L 3122 2828 
Q 2878 2963 2633 3030 
Q 2388 3097 2138 3097 
Q 1578 3097 1268 2742 
Q 959 2388 959 1747 
Q 959 1106 1268 751 
Q 1578 397 2138 397 
Q 2388 397 2633 464 
Q 2878 531 3122 666 
L 3122 134 
Q 2881 22 2623 -34 
Q 2366 -91 2075 -91 
Q 1284 -91 818 406 
Q 353 903 353 1747 
Q 353 2603 823 3093 
Q 1294 3584 2113 3584 
Q 2378 3584 2631 3529 
Q 2884 3475 3122 3366 
z
" transform="scale(0.015625)"/>
       <path id="DejaVuSans-56" d="M 2834 3397 
L 2834 2853 
Q 2591 2978 2328 3040 
Q 2066 3103 1784 3103 
Q 1356 3103 1142 2972 
Q 928 2841 928 2578 
Q 928 2378 1081 2264 
Q 1234 2150 1697 2047 
L 1894 2003 
Q 2506 1872 2764 1633 
Q 3022 1394 3022 966 
Q 3022 478 2636 193 
Q 2250 -91 1575 -91 
Q 1294 -91 989 -36 
Q 684 19 347 128 
L 347 722 
Q 666 556 975 473 
Q 1284 391 1588 391 
Q 1994 391 2212 530 
Q 2431 669 2431 922 
Q 2431 1156 2273 1281 
Q 2116 1406 1581 1522 
L 1381 1569 
Q 847 1681 609 1914 
Q 372 2147 372 2553 
Q 372 3047 722 3315 
Q 1072 3584 1716 3584 
Q 2034 3584 2315 3537 
Q 2597 3491 2834 3397 
z
" transform="scale(0.015625)"/>
       <path id="DejaVuSans-c" d="M 513 4856 
L 1013 4856 
Q 1481 4119 1714 3412 
Q 1947 2706 1947 2009 
Q 1947 1309 1714 600 
Q 1481 -109 1013 -844 
L 513 -844 
Q 928 -128 1133 580 
Q 1338 1288 1338 2009 
Q 1338 2731 1133 3434 
Q 928 4138 513 4856 
z
" transform="scale(0.015625)"/>
      </defs>
      <use xlink:href="#DejaVuSans-36"/>
      <use xlink:href="#DejaVuSans-48" transform="translate(63.484375 0)"/>
      <use xlink:href="#DejaVuSans-53" transform="translate(125.015625 0)"/>
      <use xlink:href="#DejaVuSans-44" transform="translate(188.5 0)"/>
      <use xlink:href="#DejaVuSans-55" transform="translate(249.78125 0)"/>
      <use xlink:href="#DejaVuSans-44" transform="translate(290.890625 0)"/>
      <use xlink:href="#DejaVuSans-57" transform="translate(352.171875 0)"/>
      <use xlink:href="#DejaVuSans-4c" transform="translate(391.375 0)"/>
      <use xlink:href="#DejaVuSans-52" transform="translate(419.15625 0)"/>
      <use xlink:href="#DejaVuSans-51" transform="translate(480.34375 0)"/>
      <use xlink:href="#DejaVuSans-3" transform="translate(543.71875 0)"/>
      <use xlink:href="#DejaVuSans-55" transform="translate(575.5 0)"/>
      <use xlink:href="#DejaVuSans-3" transform="translate(616.609375 0)"/>
      <use xlink:href="#DejaVuSans-b" transform="translate(648.390625 0)"/>
      <use xlink:href="#DejaVuSans-55" transform="translate(687.40625 0)"/>
      <use xlink:href="#DejaVuSans-48" transform="translate(726.3125 0)"/>
      <use xlink:href="#DejaVuSans-47" transform="translate(787.84375 0)"/>
      <use xlink:href="#DejaVuSans-58" transform="translate(851.328125 0)"/>
      <use xlink:href="#DejaVuSans-46" transform="translate(914.703125 0)"/>
      <use xlink:href="#DejaVuSans-48" transform="translate(969.6875 0)"/>
      <use xlink:href="#DejaVuSans-47" transform="translate(1031.21875 0)"/>
      <use xlink:href="#DejaVuSans-3" transform="translate(1094.703125 0)"/>
      <use xlink:href="#DejaVuSans-58" transform="translate(1126.484375 0)"/>
      <use xlink:href="#DejaVuSans-51" transform="translate(1189.859375 0)"/>
      <use xlink:href="#DejaVuSans-4c" transform="translate(1253.234375 0)"/>
      <use xlink:href="#DejaVuSans-57" transform="translate(1281.015625 0)"/>
      <use xlink:href="#DejaVuSans-56" transform="translate(1320.21875 0)"/>
      <use xlink:href="#DejaVuSans-c" transform="translate(1372.3125 0)"/>
     </g>
    </g>
   </g>
   <g id="matplotlib.axis_2">
    <g id="ytick_1">
     <g id="line2d_13">
      <path d="M 46.693438 244.582125 
L 437.293438 244.582125 
" clip-path="url(#pc83339fc2a)" style="fill: none; stroke: #7a8290; stroke-opacity: 0.18; stroke-width: 0.6; stroke-linecap: square"/>
     </g>
     <g id="line2d_14">
      <defs>
       <path id="m1d2fd8b514" d="M 0 0 
L -3.5 0 
" style="stroke: #7a8290; stroke-width: 0.8"/>
      </defs>
      <g>
       <use xlink:href="#m1d2fd8b514" x="46.693438" y="244.582125" style="fill: #7a8290; stroke: #7a8290; stroke-width: 0.8"/>
      </g>
     </g>
     <g id="text_8">
      <!-- 0.0 -->
      <g style="fill: #7a8290" transform="translate(22.2 248.760836) scale(0.11 -0.11)">
       <defs>
        <path id="DejaVuSans-11" d="M 684 794 
L 1344 794 
L 1344 0 
L 684 0 
L 684 794 
z
" transform="scale(0.015625)"/>
       </defs>
       <use xlink:href="#DejaVuSans-13"/>
       <use xlink:href="#DejaVuSans-11" transform="translate(63.625 0)"/>
       <use xlink:href="#DejaVuSans-13" transform="translate(95.40625 0)"/>
      </g>
     </g>
    </g>
    <g id="ytick_2">
     <g id="line2d_15">
      <path d="M 46.693438 208.206355 
L 437.293438 208.206355 
" clip-path="url(#pc83339fc2a)" style="fill: none; stroke: #7a8290; stroke-opacity: 0.18; stroke-width: 0.6; stroke-linecap: square"/>
     </g>
     <g id="line2d_16">
      <g>
       <use xlink:href="#m1d2fd8b514" x="46.693438" y="208.206355" style="fill: #7a8290; stroke: #7a8290; stroke-width: 0.8"/>
      </g>
     </g>
     <g id="text_9">
      <!-- 0.5 -->
      <g style="fill: #7a8290" transform="translate(22.2 212.385066) scale(0.11 -0.11)">
       <defs>
        <path id="DejaVuSans-18" d="M 691 4666 
L 3169 4666 
L 3169 4134 
L 1269 4134 
L 1269 2991 
Q 1406 3038 1543 3061 
Q 1681 3084 1819 3084 
Q 2600 3084 3056 2656 
Q 3513 2228 3513 1497 
Q 3513 744 3044 326 
Q 2575 -91 1722 -91 
Q 1428 -91 1123 -41 
Q 819 9 494 109 
L 494 744 
Q 775 591 1075 516 
Q 1375 441 1709 441 
Q 2250 441 2565 725 
Q 2881 1009 2881 1497 
Q 2881 1984 2565 2268 
Q 2250 2553 1709 2553 
Q 1456 2553 1204 2497 
Q 953 2441 691 2322 
L 691 4666 
z
" transform="scale(0.015625)"/>
       </defs>
       <use xlink:href="#DejaVuSans-13"/>
       <use xlink:href="#DejaVuSans-11" transform="translate(63.625 0)"/>
       <use xlink:href="#DejaVuSans-18" transform="translate(95.40625 0)"/>
      </g>
     </g>
    </g>
    <g id="ytick_3">
     <g id="line2d_17">
      <path d="M 46.693438 171.830586 
L 437.293438 171.830586 
" clip-path="url(#pc83339fc2a)" style="fill: none; stroke: #7a8290; stroke-opacity: 0.18; stroke-width: 0.6; stroke-linecap: square"/>
     </g>
     <g id="line2d_18">
      <g>
       <use xlink:href="#m1d2fd8b514" x="46.693438" y="171.830586" style="fill: #7a8290; stroke: #7a8290; stroke-width: 0.8"/>
      </g>
     </g>
     <g id="text_10">
      <!-- 1.0 -->
      <g style="fill: #7a8290" transform="translate(22.2 176.009296) scale(0.11 -0.11)">
       <use xlink:href="#DejaVuSans-14"/>
       <use xlink:href="#DejaVuSans-11" transform="translate(63.625 0)"/>
       <use xlink:href="#DejaVuSans-13" transform="translate(95.40625 0)"/>
      </g>
     </g>
    </g>
    <g id="ytick_4">
     <g id="line2d_19">
      <path d="M 46.693438 135.454816 
L 437.293438 135.454816 
" clip-path="url(#pc83339fc2a)" style="fill: none; stroke: #7a8290; stroke-opacity: 0.18; stroke-width: 0.6; stroke-linecap: square"/>
     </g>
     <g id="line2d_20">
      <g>
       <use xlink:href="#m1d2fd8b514" x="46.693438" y="135.454816" style="fill: #7a8290; stroke: #7a8290; stroke-width: 0.8"/>
      </g>
     </g>
     <g id="text_11">
      <!-- 1.5 -->
      <g style="fill: #7a8290" transform="translate(22.2 139.633527) scale(0.11 -0.11)">
       <use xlink:href="#DejaVuSans-14"/>
       <use xlink:href="#DejaVuSans-11" transform="translate(63.625 0)"/>
       <use xlink:href="#DejaVuSans-18" transform="translate(95.40625 0)"/>
      </g>
     </g>
    </g>
    <g id="ytick_5">
     <g id="line2d_21">
      <path d="M 46.693438 99.079046 
L 437.293438 99.079046 
" clip-path="url(#pc83339fc2a)" style="fill: none; stroke: #7a8290; stroke-opacity: 0.18; stroke-width: 0.6; stroke-linecap: square"/>
     </g>
     <g id="line2d_22">
      <g>
       <use xlink:href="#m1d2fd8b514" x="46.693438" y="99.079046" style="fill: #7a8290; stroke: #7a8290; stroke-width: 0.8"/>
      </g>
     </g>
     <g id="text_12">
      <!-- 2.0 -->
      <g style="fill: #7a8290" transform="translate(22.2 103.257757) scale(0.11 -0.11)">
       <use xlink:href="#DejaVuSans-15"/>
       <use xlink:href="#DejaVuSans-11" transform="translate(63.625 0)"/>
       <use xlink:href="#DejaVuSans-13" transform="translate(95.40625 0)"/>
      </g>
     </g>
    </g>
    <g id="ytick_6">
     <g id="line2d_23">
      <path d="M 46.693438 62.703276 
L 437.293438 62.703276 
" clip-path="url(#pc83339fc2a)" style="fill: none; stroke: #7a8290; stroke-opacity: 0.18; stroke-width: 0.6; stroke-linecap: square"/>
     </g>
     <g id="line2d_24">
      <g>
       <use xlink:href="#m1d2fd8b514" x="46.693438" y="62.703276" style="fill: #7a8290; stroke: #7a8290; stroke-width: 0.8"/>
      </g>
     </g>
     <g id="text_13">
      <!-- 2.5 -->
      <g style="fill: #7a8290" transform="translate(22.2 66.881987) scale(0.11 -0.11)">
       <use xlink:href="#DejaVuSans-15"/>
       <use xlink:href="#DejaVuSans-11" transform="translate(63.625 0)"/>
       <use xlink:href="#DejaVuSans-18" transform="translate(95.40625 0)"/>
      </g>
     </g>
    </g>
    <g id="ytick_7">
     <g id="line2d_25">
      <path d="M 46.693438 26.327507 
L 437.293438 26.327507 
" clip-path="url(#pc83339fc2a)" style="fill: none; stroke: #7a8290; stroke-opacity: 0.18; stroke-width: 0.6; stroke-linecap: square"/>
     </g>
     <g id="line2d_26">
      <g>
       <use xlink:href="#m1d2fd8b514" x="46.693438" y="26.327507" style="fill: #7a8290; stroke: #7a8290; stroke-width: 0.8"/>
      </g>
     </g>
     <g id="text_14">
      <!-- 3.0 -->
      <g style="fill: #7a8290" transform="translate(22.2 30.506218) scale(0.11 -0.11)">
       <defs>
        <path id="DejaVuSans-16" d="M 2597 2516 
Q 3050 2419 3304 2112 
Q 3559 1806 3559 1356 
Q 3559 666 3084 287 
Q 2609 -91 1734 -91 
Q 1441 -91 1130 -33 
Q 819 25 488 141 
L 488 750 
Q 750 597 1062 519 
Q 1375 441 1716 441 
Q 2309 441 2620 675 
Q 2931 909 2931 1356 
Q 2931 1769 2642 2001 
Q 2353 2234 1838 2234 
L 1294 2234 
L 1294 2753 
L 1863 2753 
Q 2328 2753 2575 2939 
Q 2822 3125 2822 3475 
Q 2822 3834 2567 4026 
Q 2313 4219 1838 4219 
Q 1578 4219 1281 4162 
Q 984 4106 628 3988 
L 628 4550 
Q 988 4650 1302 4700 
Q 1616 4750 1894 4750 
Q 2613 4750 3031 4423 
Q 3450 4097 3450 3541 
Q 3450 3153 3228 2886 
Q 3006 2619 2597 2516 
z
" transform="scale(0.015625)"/>
       </defs>
       <use xlink:href="#DejaVuSans-16"/>
       <use xlink:href="#DejaVuSans-11" transform="translate(63.625 0)"/>
       <use xlink:href="#DejaVuSans-13" transform="translate(95.40625 0)"/>
      </g>
     </g>
    </g>
    <g id="text_15">
     <!-- g(r) -->
     <g style="fill: #7a8290" transform="translate(15.557422 148.7865) rotate(-90) scale(0.11 -0.11)">
      <defs>
       <path id="DejaVuSans-4a" d="M 2906 1791 
Q 2906 2416 2648 2759 
Q 2391 3103 1925 3103 
Q 1463 3103 1205 2759 
Q 947 2416 947 1791 
Q 947 1169 1205 825 
Q 1463 481 1925 481 
Q 2391 481 2648 825 
Q 2906 1169 2906 1791 
z
M 3481 434 
Q 3481 -459 3084 -895 
Q 2688 -1331 1869 -1331 
Q 1566 -1331 1297 -1286 
Q 1028 -1241 775 -1147 
L 775 -588 
Q 1028 -725 1275 -790 
Q 1522 -856 1778 -856 
Q 2344 -856 2625 -561 
Q 2906 -266 2906 331 
L 2906 616 
Q 2728 306 2450 153 
Q 2172 0 1784 0 
Q 1141 0 747 490 
Q 353 981 353 1791 
Q 353 2603 747 3093 
Q 1141 3584 1784 3584 
Q 2172 3584 2450 3431 
Q 2728 3278 2906 2969 
L 2906 3500 
L 3481 3500 
L 3481 434 
z
" transform="scale(0.015625)"/>
      </defs>
      <use xlink:href="#DejaVuSans-4a"/>
      <use xlink:href="#DejaVuSans-b" transform="translate(63.484375 0)"/>
      <use xlink:href="#DejaVuSans-55" transform="translate(102.5 0)"/>
      <use xlink:href="#DejaVuSans-c" transform="translate(143.609375 0)"/>
     </g>
    </g>
   </g>
   <g id="line2d_27">
    <path d="M 64.447983 244.582125 
L 67.43194 244.582125 
L 70.415897 244.582125 
L 73.399855 244.582125 
L 76.383812 244.582125 
L 79.367769 244.582125 
L 82.351726 244.582125 
L 85.335683 244.582125 
L 88.319641 244.582125 
L 91.303598 240.194382 
L 94.287555 139.777741 
L 97.271512 32.902125 
L 100.25547 77.180941 
L 103.239427 138.983769 
L 106.223384 175.013698 
L 109.207341 198.326818 
L 112.191298 208.203744 
L 115.175256 212.188043 
L 118.159213 206.278312 
L 121.14317 194.134327 
L 124.127127 176.66842 
L 127.111085 145.704839 
L 130.095042 147.876262 
L 133.078999 147.73436 
L 136.062956 142.840207 
L 139.046913 160.234212 
L 142.030871 181.978134 
L 145.014828 188.498788 
L 147.998785 195.4394 
L 150.982742 189.757644 
L 153.9667 182.808453 
L 156.950657 170.213358 
L 159.934614 163.267116 
L 162.918571 159.970716 
L 165.902528 166.047878 
L 168.886486 156.048588 
L 171.870443 158.702568 
L 174.8544 178.555363 
L 177.838357 184.384566 
L 180.822315 181.476379 
L 183.806272 176.859203 
L 186.790229 175.678695 
L 189.774186 177.888426 
L 192.758143 168.305998 
L 195.742101 165.898548 
L 198.726058 163.047246 
L 201.710015 167.310662 
L 204.693972 169.463959 
L 207.677929 167.746859 
L 210.661887 176.035824 
L 213.645844 177.063009 
L 216.629801 177.564671 
L 219.613758 176.776865 
L 222.597716 178.355906 
L 225.581673 167.486657 
L 228.56563 167.073232 
L 231.549587 168.592623 
L 234.533544 169.044262 
L 237.517502 168.482905 
L 240.501459 169.901996 
L 243.485416 176.097067 
L 246.469373 172.195062 
L 249.453331 174.420354 
L 252.437288 170.142505 
L 255.421245 175.432651 
L 258.405202 173.560973 
L 261.389159 173.876775 
L 264.373117 167.14333 
L 267.357074 168.638935 
L 270.341031 174.04994 
L 273.324988 172.094116 
L 276.308946 167.861052 
L 279.292903 177.083502 
L 282.27686 169.721851 
L 285.260817 168.376741 
L 288.244774 176.784226 
L 291.228732 175.164011 
L 294.212689 170.143352 
L 297.196646 168.436612 
L 300.180603 170.128468 
L 303.16456 172.710344 
L 306.148518 174.308243 
L 309.132475 171.825363 
L 312.116432 172.397179 
L 315.100389 171.179593 
L 318.084347 175.158275 
L 321.068304 172.202114 
L 324.052261 167.217435 
L 327.036218 170.823416 
L 330.020175 170.622912 
L 333.004133 172.084969 
L 335.98809 169.779493 
L 338.972047 174.643868 
L 341.956004 173.251966 
L 344.939962 179.829248 
L 347.923919 165.056 
L 350.907876 170.545208 
L 353.891833 172.330618 
L 356.87579 170.948219 
L 359.859748 172.945049 
L 362.843705 173.243094 
L 365.827662 164.828946 
L 368.811619 171.30039 
L 371.795577 175.955276 
L 374.779534 174.69734 
L 377.763491 177.098217 
L 380.747448 172.252339 
L 383.731405 166.566008 
L 386.715363 169.513296 
L 389.69932 168.067094 
L 392.683277 172.682696 
L 395.667234 175.196752 
L 398.651192 168.699517 
L 401.635149 173.701707 
L 404.619106 171.990839 
L 407.603063 177.599709 
L 410.58702 172.950803 
L 413.570978 171.502859 
L 416.554935 165.36577 
L 419.538892 170.074939 
" clip-path="url(#pc83339fc2a)" style="fill: none; stroke: #0072b2; stroke-width: 1.5; stroke-linecap: square"/>
   </g>
   <g id="line2d_28">
    <path d="M 46.693438 171.830586 
L 437.293438 171.830586 
" clip-path="url(#pc83339fc2a)" style="fill: none; stroke-dasharray: 1.5,2.475; stroke-dashoffset: 0; stroke: #cc79a7; stroke-width: 1.5"/>
   </g>
   <g id="patch_3">
    <path d="M 46.693438 255.166125 
L 46.693438 22.318125 
" style="fill: none; stroke: #7a8290; stroke-width: 0.8; stroke-linejoin: miter; stroke-linecap: square"/>
   </g>
   <g id="patch_4">
    <path d="M 46.693438 255.166125 
L 437.293438 255.166125 
" style="fill: none; stroke: #7a8290; stroke-width: 0.8; stroke-linejoin: miter; stroke-linecap: square"/>
   </g>
   <g id="text_16">
    <!-- Radial distribution function of the equilibrated fluid -->
    <g style="fill: #7a8290" transform="translate(88.520938 16.318125) scale(0.12 -0.12)">
     <defs>
      <path id="DejaVuSans-35" d="M 2841 2188 
Q 3044 2119 3236 1894 
Q 3428 1669 3622 1275 
L 4263 0 
L 3584 0 
L 2988 1197 
Q 2756 1666 2539 1819 
Q 2322 1972 1947 1972 
L 1259 1972 
L 1259 0 
L 628 0 
L 628 4666 
L 2053 4666 
Q 2853 4666 3247 4331 
Q 3641 3997 3641 3322 
Q 3641 2881 3436 2590 
Q 3231 2300 2841 2188 
z
M 1259 4147 
L 1259 2491 
L 2053 2491 
Q 2509 2491 2742 2702 
Q 2975 2913 2975 3322 
Q 2975 3731 2742 3939 
Q 2509 4147 2053 4147 
L 1259 4147 
z
" transform="scale(0.015625)"/>
      <path id="DejaVuSans-4f" d="M 603 4863 
L 1178 4863 
L 1178 0 
L 603 0 
L 603 4863 
z
" transform="scale(0.015625)"/>
      <path id="DejaVuSans-45" d="M 3116 1747 
Q 3116 2381 2855 2742 
Q 2594 3103 2138 3103 
Q 1681 3103 1420 2742 
Q 1159 2381 1159 1747 
Q 1159 1113 1420 752 
Q 1681 391 2138 391 
Q 2594 391 2855 752 
Q 3116 1113 3116 1747 
z
M 1159 2969 
Q 1341 3281 1617 3432 
Q 1894 3584 2278 3584 
Q 2916 3584 3314 3078 
Q 3713 2572 3713 1747 
Q 3713 922 3314 415 
Q 2916 -91 2278 -91 
Q 1894 -91 1617 61 
Q 1341 213 1159 525 
L 1159 0 
L 581 0 
L 581 4863 
L 1159 4863 
L 1159 2969 
z
" transform="scale(0.015625)"/>
      <path id="DejaVuSans-49" d="M 2375 4863 
L 2375 4384 
L 1825 4384 
Q 1516 4384 1395 4259 
Q 1275 4134 1275 3809 
L 1275 3500 
L 2222 3500 
L 2222 3053 
L 1275 3053 
L 1275 0 
L 697 0 
L 697 3053 
L 147 3053 
L 147 3500 
L 697 3500 
L 697 3744 
Q 697 4328 969 4595 
Q 1241 4863 1831 4863 
L 2375 4863 
z
" transform="scale(0.015625)"/>
      <path id="DejaVuSans-4b" d="M 3513 2113 
L 3513 0 
L 2938 0 
L 2938 2094 
Q 2938 2591 2744 2837 
Q 2550 3084 2163 3084 
Q 1697 3084 1428 2787 
Q 1159 2491 1159 1978 
L 1159 0 
L 581 0 
L 581 4863 
L 1159 4863 
L 1159 2956 
Q 1366 3272 1645 3428 
Q 1925 3584 2291 3584 
Q 2894 3584 3203 3211 
Q 3513 2838 3513 2113 
z
" transform="scale(0.015625)"/>
      <path id="DejaVuSans-54" d="M 947 1747 
Q 947 1113 1208 752 
Q 1469 391 1925 391 
Q 2381 391 2643 752 
Q 2906 1113 2906 1747 
Q 2906 2381 2643 2742 
Q 2381 3103 1925 3103 
Q 1469 3103 1208 2742 
Q 947 2381 947 1747 
z
M 2906 525 
Q 2725 213 2448 61 
Q 2172 -91 1784 -91 
Q 1150 -91 751 415 
Q 353 922 353 1747 
Q 353 2572 751 3078 
Q 1150 3584 1784 3584 
Q 2172 3584 2448 3432 
Q 2725 3281 2906 2969 
L 2906 3500 
L 3481 3500 
L 3481 -1331 
L 2906 -1331 
L 2906 525 
z
" transform="scale(0.015625)"/>
      <path id="DejaVuSans-13b0" d="M 1831 4863 
L 3431 4863 
L 3431 0 
L 2853 0 
L 2853 4384 
L 1825 4384 
Q 1516 4384 1395 4259 
Q 1275 4134 1275 3809 
L 1275 3500 
L 2222 3500 
L 2222 3053 
L 1275 3053 
L 1275 0 
L 697 0 
L 697 3053 
L 147 3053 
L 147 3500 
L 697 3500 
L 697 3744 
Q 697 4328 969 4595 
Q 1241 4863 1831 4863 
z
" transform="scale(0.015625)"/>
     </defs>
     <use xlink:href="#DejaVuSans-35"/>
     <use xlink:href="#DejaVuSans-44" transform="translate(67.28125 0)"/>
     <use xlink:href="#DejaVuSans-47" transform="translate(128.5625 0)"/>
     <use xlink:href="#DejaVuSans-4c" transform="translate(192.046875 0)"/>
     <use xlink:href="#DejaVuSans-44" transform="translate(219.828125 0)"/>
     <use xlink:href="#DejaVuSans-4f" transform="translate(281.109375 0)"/>
     <use xlink:href="#DejaVuSans-3" transform="translate(308.890625 0)"/>
     <use xlink:href="#DejaVuSans-47" transform="translate(340.671875 0)"/>
     <use xlink:href="#DejaVuSans-4c" transform="translate(404.15625 0)"/>
     <use xlink:href="#DejaVuSans-56" transform="translate(431.9375 0)"/>
     <use xlink:href="#DejaVuSans-57" transform="translate(484.03125 0)"/>
     <use xlink:href="#DejaVuSans-55" transform="translate(523.234375 0)"/>
     <use xlink:href="#DejaVuSans-4c" transform="translate(564.34375 0)"/>
     <use xlink:href="#DejaVuSans-45" transform="translate(592.125 0)"/>
     <use xlink:href="#DejaVuSans-58" transform="translate(655.609375 0)"/>
     <use xlink:href="#DejaVuSans-57" transform="translate(718.984375 0)"/>
     <use xlink:href="#DejaVuSans-4c" transform="translate(758.1875 0)"/>
     <use xlink:href="#DejaVuSans-52" transform="translate(785.96875 0)"/>
     <use xlink:href="#DejaVuSans-51" transform="translate(847.15625 0)"/>
     <use xlink:href="#DejaVuSans-3" transform="translate(910.53125 0)"/>
     <use xlink:href="#DejaVuSans-49" transform="translate(942.3125 0)"/>
     <use xlink:href="#DejaVuSans-58" transform="translate(977.515625 0)"/>
     <use xlink:href="#DejaVuSans-51" transform="translate(1040.890625 0)"/>
     <use xlink:href="#DejaVuSans-46" transform="translate(1104.265625 0)"/>
     <use xlink:href="#DejaVuSans-57" transform="translate(1159.25 0)"/>
     <use xlink:href="#DejaVuSans-4c" transform="translate(1198.453125 0)"/>
     <use xlink:href="#DejaVuSans-52" transform="translate(1226.234375 0)"/>
     <use xlink:href="#DejaVuSans-51" transform="translate(1287.421875 0)"/>
     <use xlink:href="#DejaVuSans-3" transform="translate(1350.796875 0)"/>
     <use xlink:href="#DejaVuSans-52" transform="translate(1382.578125 0)"/>
     <use xlink:href="#DejaVuSans-49" transform="translate(1443.765625 0)"/>
     <use xlink:href="#DejaVuSans-3" transform="translate(1478.96875 0)"/>
     <use xlink:href="#DejaVuSans-57" transform="translate(1510.75 0)"/>
     <use xlink:href="#DejaVuSans-4b" transform="translate(1549.953125 0)"/>
     <use xlink:href="#DejaVuSans-48" transform="translate(1613.328125 0)"/>
     <use xlink:href="#DejaVuSans-3" transform="translate(1674.859375 0)"/>
     <use xlink:href="#DejaVuSans-48" transform="translate(1706.640625 0)"/>
     <use xlink:href="#DejaVuSans-54" transform="translate(1768.171875 0)"/>
     <use xlink:href="#DejaVuSans-58" transform="translate(1831.65625 0)"/>
     <use xlink:href="#DejaVuSans-4c" transform="translate(1895.03125 0)"/>
     <use xlink:href="#DejaVuSans-4f" transform="translate(1922.8125 0)"/>
     <use xlink:href="#DejaVuSans-4c" transform="translate(1950.59375 0)"/>
     <use xlink:href="#DejaVuSans-45" transform="translate(1978.375 0)"/>
     <use xlink:href="#DejaVuSans-55" transform="translate(2041.859375 0)"/>
     <use xlink:href="#DejaVuSans-44" transform="translate(2082.96875 0)"/>
     <use xlink:href="#DejaVuSans-57" transform="translate(2144.25 0)"/>
     <use xlink:href="#DejaVuSans-48" transform="translate(2183.453125 0)"/>
     <use xlink:href="#DejaVuSans-47" transform="translate(2244.984375 0)"/>
     <use xlink:href="#DejaVuSans-3" transform="translate(2308.46875 0)"/>
     <use xlink:href="#DejaVuSans-13b0" transform="translate(2340.25 0)"/>
     <use xlink:href="#DejaVuSans-58" transform="translate(2403.234375 0)"/>
     <use xlink:href="#DejaVuSans-4c" transform="translate(2466.609375 0)"/>
     <use xlink:href="#DejaVuSans-47" transform="translate(2494.390625 0)"/>
    </g>
   </g>
   <g id="legend_1">
    <g id="line2d_29">
     <path d="M 304.578438 36.726406 
L 315.578438 36.726406 
L 326.578438 36.726406 
" style="fill: none; stroke: #0072b2; stroke-width: 1.5; stroke-linecap: square"/>
    </g>
    <g id="text_17">
     <!-- g(r) -->
     <g style="fill: #7a8290" transform="translate(335.378438 40.576406) scale(0.11 -0.11)">
      <use xlink:href="#DejaVuSans-4a"/>
      <use xlink:href="#DejaVuSans-b" transform="translate(63.484375 0)"/>
      <use xlink:href="#DejaVuSans-55" transform="translate(102.5 0)"/>
      <use xlink:href="#DejaVuSans-c" transform="translate(143.609375 0)"/>
     </g>
    </g>
    <g id="line2d_30">
     <path d="M 304.578438 53.227266 
L 315.578438 53.227266 
L 326.578438 53.227266 
" style="fill: none; stroke-dasharray: 1.5,2.475; stroke-dashoffset: 0; stroke: #cc79a7; stroke-width: 1.5"/>
    </g>
    <g id="text_18">
     <!-- Ideal gas (g = 1) -->
     <g style="fill: #7a8290" transform="translate(335.378438 57.077266) scale(0.11 -0.11)">
      <defs>
       <path id="DejaVuSans-2c" d="M 628 4666 
L 1259 4666 
L 1259 0 
L 628 0 
L 628 4666 
z
" transform="scale(0.015625)"/>
       <path id="DejaVuSans-20" d="M 678 2906 
L 4684 2906 
L 4684 2381 
L 678 2381 
L 678 2906 
z
M 678 1631 
L 4684 1631 
L 4684 1100 
L 678 1100 
L 678 1631 
z
" transform="scale(0.015625)"/>
      </defs>
      <use xlink:href="#DejaVuSans-2c"/>
      <use xlink:href="#DejaVuSans-47" transform="translate(29.5 0)"/>
      <use xlink:href="#DejaVuSans-48" transform="translate(92.984375 0)"/>
      <use xlink:href="#DejaVuSans-44" transform="translate(154.515625 0)"/>
      <use xlink:href="#DejaVuSans-4f" transform="translate(215.796875 0)"/>
      <use xlink:href="#DejaVuSans-3" transform="translate(243.578125 0)"/>
      <use xlink:href="#DejaVuSans-4a" transform="translate(275.359375 0)"/>
      <use xlink:href="#DejaVuSans-44" transform="translate(338.84375 0)"/>
      <use xlink:href="#DejaVuSans-56" transform="translate(400.125 0)"/>
      <use xlink:href="#DejaVuSans-3" transform="translate(452.21875 0)"/>
      <use xlink:href="#DejaVuSans-b" transform="translate(484 0)"/>
      <use xlink:href="#DejaVuSans-4a" transform="translate(523.015625 0)"/>
      <use xlink:href="#DejaVuSans-3" transform="translate(586.5 0)"/>
      <use xlink:href="#DejaVuSans-20" transform="translate(618.28125 0)"/>
      <use xlink:href="#DejaVuSans-3" transform="translate(702.078125 0)"/>
      <use xlink:href="#DejaVuSans-14" transform="translate(733.859375 0)"/>
      <use xlink:href="#DejaVuSans-c" transform="translate(797.484375 0)"/>
     </g>
    </g>
   </g>
  </g>
 </g>
 <defs>
  <clipPath id="pc83339fc2a">
   <rect x="46.693438" y="22.318125" width="390.6" height="232.848"/>
  </clipPath>
 </defs>
</svg>
