<?xml version="1.0" encoding="utf-8" standalone="no"?>
<!DOCTYPE svg PUBLIC "-//W3C//DTD SVG 1.1//EN"
  "http://www.w3.org/Graphics/SVG/1.1/DTD/svg11.dtd">
<svg xmlns:xlink="http://www.w3.org/1999/xlink" width="444.494297pt" height="295.366984pt" viewBox="0 0 444.494297 295.366984" xmlns="http://www.w3.org/2000/svg" version="1.1">
 <metadata>
  <rdf:RDF xmlns:dc="http://purl.org/dc/elements/1.1/" xmlns:cc="http://creativecommons.org/ns#" xmlns:rdf="http://www.w3.org/1999/02/22-rdf-syntax-ns#">
   <cc:Work>
    <dc:type rdf:resource="http://purl.org/dc/dcmitype/StillImage"/>
    <dc:date>2026-06-23T10:23:02.322302</dc:date>
    <dc:format>image/svg+xml</dc:format>
    <dc:creator>
     <cc:Agent>
      <dc:title>Matplotlib v3.11.0, https://matplotlib.org/</dc:title>
     </cc:Agent>
    </dc:creator>
   </cc:Work>
  </rdf:RDF>
 </metadata>
 <defs>
  <style type="text/css">*{stroke-linejoin: round; stroke-linecap: butt}</style>
 </defs>
 <g id="figure_1">
  <g id="patch_1">
   <path d="M 0 295.366984 
L 444.494297 295.366984 
L 444.494297 0 
L 0 0 
L 0 295.366984 
z
" style="fill: none"/>
  </g>
  <g id="axes_1">
   <g id="patch_2">
    <path d="M 46.694297 255.166125 
L 437.294297 255.166125 
L 437.294297 22.318125 
L 46.694297 22.318125 
L 46.694297 255.166125 
z
" style="fill: none"/>
   </g>
   <g id="matplotlib.axis_1">
    <g id="xtick_1">
     <g id="line2d_1">
      <path d="M 64.448842 255.166125 
L 64.448842 22.318125 
" clip-path="url(#pbba596247b)" style="fill: none; stroke: #7a8290; stroke-opacity: 0.18; stroke-width: 0.6; stroke-linecap: square"/>
     </g>
     <g id="line2d_2">
      <defs>
       <path id="m1c040edd20" d="M 0 0 
L 0 3.5 
" style="stroke: #7a8290; stroke-width: 0.8"/>
      </defs>
      <g>
       <use xlink:href="#m1c040edd20" x="64.448842" y="255.166125" style="fill: #7a8290; stroke: #7a8290; stroke-width: 0.8"/>
      </g>
     </g>
     <g id="text_1">
      <!-- 0 -->
      <g style="fill: #7a8290" transform="translate(60.949467 270.523547) scale(0.11 -0.11)">
       <defs>
        <path id="DejaVuSans-13" d="M 2034 4250 
Q 1547 4250 1301 3770 
Q 1056 3291 1056 2328 
Q 1056 1369 1301 889 
Q 1547 409 2034 409 
Q 2525 409 2770 889 
Q 3016 1369 3016 2328 
Q 3016 3291 2770 3770 
Q 2525 4250 2034 4250 
z
M 2034 4750 
Q 2819 4750 3233 4129 
Q 3647 3509 3647 2328 
Q 3647 1150 3233 529 
Q 2819 -91 2034 -91 
Q 1250 -91 836 529 
Q 422 1150 422 2328 
Q 422 3509 836 4129 
Q 1250 4750 2034 4750 
z
" transform="scale(0.015625)"/>
       </defs>
       <use xlink:href="#DejaVuSans-13"/>
      </g>
     </g>
    </g>
    <g id="xtick_2">
     <g id="line2d_3">
      <path d="M 108.94645 255.166125 
L 108.94645 22.318125 
" clip-path="url(#pbba596247b)" style="fill: none; stroke: #7a8290; stroke-opacity: 0.18; stroke-width: 0.6; stroke-linecap: square"/>
     </g>
     <g id="line2d_4">
      <g>
       <use xlink:href="#m1c040edd20" x="108.94645" y="255.166125" style="fill: #7a8290; stroke: #7a8290; stroke-width: 0.8"/>
      </g>
     </g>
     <g id="text_2">
      <!-- 2 -->
      <g style="fill: #7a8290" transform="translate(105.447075 270.523547) scale(0.11 -0.11)">
       <defs>
        <path id="DejaVuSans-15" d="M 1228 531 
L 3431 531 
L 3431 0 
L 469 0 
L 469 531 
Q 828 903 1448 1529 
Q 2069 2156 2228 2338 
Q 2531 2678 2651 2914 
Q 2772 3150 2772 3378 
Q 2772 3750 2511 3984 
Q 2250 4219 1831 4219 
Q 1534 4219 1204 4116 
Q 875 4013 500 3803 
L 500 4441 
Q 881 4594 1212 4672 
Q 1544 4750 1819 4750 
Q 2544 4750 2975 4387 
Q 3406 4025 3406 3419 
Q 3406 3131 3298 2873 
Q 3191 2616 2906 2266 
Q 2828 2175 2409 1742 
Q 1991 1309 1228 531 
z
" transform="scale(0.015625)"/>
       </defs>
       <use xlink:href="#DejaVuSans-15"/>
      </g>
     </g>
    </g>
    <g id="xtick_3">
     <g id="line2d_5">
      <path d="M 153.444058 255.166125 
L 153.444058 22.318125 
" clip-path="url(#pbba596247b)" style="fill: none; stroke: #7a8290; stroke-opacity: 0.18; stroke-width: 0.6; stroke-linecap: square"/>
     </g>
     <g id="line2d_6">
      <g>
       <use xlink:href="#m1c040edd20" x="153.444058" y="255.166125" style="fill: #7a8290; stroke: #7a8290; stroke-width: 0.8"/>
      </g>
     </g>
     <g id="text_3">
      <!-- 4 -->
      <g style="fill: #7a8290" transform="translate(149.944683 270.523547) scale(0.11 -0.11)">
       <defs>
        <path id="DejaVuSans-17" d="M 2419 4116 
L 825 1625 
L 2419 1625 
L 2419 4116 
z
M 2253 4666 
L 3047 4666 
L 3047 1625 
L 3713 1625 
L 3713 1100 
L 3047 1100 
L 3047 0 
L 2419 0 
L 2419 1100 
L 313 1100 
L 313 1709 
L 2253 4666 
z
" transform="scale(0.015625)"/>
       </defs>
       <use xlink:href="#DejaVuSans-17"/>
      </g>
     </g>
    </g>
    <g id="xtick_4">
     <g id="line2d_7">
      <path d="M 197.941665 255.166125 
L 197.941665 22.318125 
" clip-path="url(#pbba596247b)" style="fill: none; stroke: #7a8290; stroke-opacity: 0.18; stroke-width: 0.6; stroke-linecap: square"/>
     </g>
     <g id="line2d_8">
      <g>
       <use xlink:href="#m1c040edd20" x="197.941665" y="255.166125" style="fill: #7a8290; stroke: #7a8290; stroke-width: 0.8"/>
      </g>
     </g>
     <g id="text_4">
      <!-- 6 -->
      <g style="fill: #7a8290" transform="translate(194.44229 270.523547) scale(0.11 -0.11)">
       <defs>
        <path id="DejaVuSans-19" d="M 2113 2584 
Q 1688 2584 1439 2293 
Q 1191 2003 1191 1497 
Q 1191 994 1439 701 
Q 1688 409 2113 409 
Q 2538 409 2786 701 
Q 3034 994 3034 1497 
Q 3034 2003 2786 2293 
Q 2538 2584 2113 2584 
z
M 3366 4563 
L 3366 3988 
Q 3128 4100 2886 4159 
Q 2644 4219 2406 4219 
Q 1781 4219 1451 3797 
Q 1122 3375 1075 2522 
Q 1259 2794 1537 2939 
Q 1816 3084 2150 3084 
Q 2853 3084 3261 2657 
Q 3669 2231 3669 1497 
Q 3669 778 3244 343 
Q 2819 -91 2113 -91 
Q 1303 -91 875 529 
Q 447 1150 447 2328 
Q 447 3434 972 4092 
Q 1497 4750 2381 4750 
Q 2619 4750 2861 4703 
Q 3103 4656 3366 4563 
z
" transform="scale(0.015625)"/>
       </defs>
       <use xlink:href="#DejaVuSans-19"/>
      </g>
     </g>
    </g>
    <g id="xtick_5">
     <g id="line2d_9">
      <path d="M 242.439273 255.166125 
L 242.439273 22.318125 
" clip-path="url(#pbba596247b)" style="fill: none; stroke: #7a8290; stroke-opacity: 0.18; stroke-width: 0.6; stroke-linecap: square"/>
     </g>
     <g id="line2d_10">
      <g>
       <use xlink:href="#m1c040edd20" x="242.439273" y="255.166125" style="fill: #7a8290; stroke: #7a8290; stroke-width: 0.8"/>
      </g>
     </g>
     <g id="text_5">
      <!-- 8 -->
      <g style="fill: #7a8290" transform="translate(238.939898 270.523547) scale(0.11 -0.11)">
       <defs>
        <path id="DejaVuSans-1b" d="M 2034 2216 
Q 1584 2216 1326 1975 
Q 1069 1734 1069 1313 
Q 1069 891 1326 650 
Q 1584 409 2034 409 
Q 2484 409 2743 651 
Q 3003 894 3003 1313 
Q 3003 1734 2745 1975 
Q 2488 2216 2034 2216 
z
M 1403 2484 
Q 997 2584 770 2862 
Q 544 3141 544 3541 
Q 544 4100 942 4425 
Q 1341 4750 2034 4750 
Q 2731 4750 3128 4425 
Q 3525 4100 3525 3541 
Q 3525 3141 3298 2862 
Q 3072 2584 2669 2484 
Q 3125 2378 3379 2068 
Q 3634 1759 3634 1313 
Q 3634 634 3220 271 
Q 2806 -91 2034 -91 
Q 1263 -91 848 271 
Q 434 634 434 1313 
Q 434 1759 690 2068 
Q 947 2378 1403 2484 
z
M 1172 3481 
Q 1172 3119 1398 2916 
Q 1625 2713 2034 2713 
Q 2441 2713 2670 2916 
Q 2900 3119 2900 3481 
Q 2900 3844 2670 4047 
Q 2441 4250 2034 4250 
Q 1625 4250 1398 4047 
Q 1172 3844 1172 3481 
z
" transform="scale(0.015625)"/>
       </defs>
       <use xlink:href="#DejaVuSans-1b"/>
      </g>
     </g>
    </g>
    <g id="xtick_6">
     <g id="line2d_11">
      <path d="M 286.936881 255.166125 
L 286.936881 22.318125 
" clip-path="url(#pbba596247b)" style="fill: none; stroke: #7a8290; stroke-opacity: 0.18; stroke-width: 0.6; stroke-linecap: square"/>
     </g>
     <g id="line2d_12">
      <g>
       <use xlink:href="#m1c040edd20" x="286.936881" y="255.166125" style="fill: #7a8290; stroke: #7a8290; stroke-width: 0.8"/>
      </g>
     </g>
     <g id="text_6">
      <!-- 10 -->
      <g style="fill: #7a8290" transform="translate(279.938131 270.523547) scale(0.11 -0.11)">
       <defs>
        <path id="DejaVuSans-14" d="M 794 531 
L 1825 531 
L 1825 4091 
L 703 3866 
L 703 4441 
L 1819 4666 
L 2450 4666 
L 2450 531 
L 3481 531 
L 3481 0 
L 794 0 
L 794 531 
z
" transform="scale(0.015625)"/>
       </defs>
       <use xlink:href="#DejaVuSans-14"/>
       <use xlink:href="#DejaVuSans-13" transform="translate(63.625 0)"/>
      </g>
     </g>
    </g>
    <g id="xtick_7">
     <g id="line2d_13">
      <path d="M 331.434488 255.166125 
L 331.434488 22.318125 
" clip-path="url(#pbba596247b)" style="fill: none; stroke: #7a8290; stroke-opacity: 0.18; stroke-width: 0.6; stroke-linecap: square"/>
     </g>
     <g id="line2d_14">
      <g>
       <use xlink:href="#m1c040edd20" x="331.434488" y="255.166125" style="fill: #7a8290; stroke: #7a8290; stroke-width: 0.8"/>
      </g>
     </g>
     <g id="text_7">
      <!-- 12 -->
      <g style="fill: #7a8290" transform="translate(324.435738 270.523547) scale(0.11 -0.11)">
       <use xlink:href="#DejaVuSans-14"/>
       <use xlink:href="#DejaVuSans-15" transform="translate(63.625 0)"/>
      </g>
     </g>
    </g>
    <g id="xtick_8">
     <g id="line2d_15">
      <path d="M 375.932096 255.166125 
L 375.932096 22.318125 
" clip-path="url(#pbba596247b)" style="fill: none; stroke: #7a8290; stroke-opacity: 0.18; stroke-width: 0.6; stroke-linecap: square"/>
     </g>
     <g id="line2d_16">
      <g>
       <use xlink:href="#m1c040edd20" x="375.932096" y="255.166125" style="fill: #7a8290; stroke: #7a8290; stroke-width: 0.8"/>
      </g>
     </g>
     <g id="text_8">
      <!-- 14 -->
      <g style="fill: #7a8290" transform="translate(368.933346 270.523547) scale(0.11 -0.11)">
       <use xlink:href="#DejaVuSans-14"/>
       <use xlink:href="#DejaVuSans-17" transform="translate(63.625 0)"/>
      </g>
     </g>
    </g>
    <g id="xtick_9">
     <g id="line2d_17">
      <path d="M 420.429704 255.166125 
L 420.429704 22.318125 
" clip-path="url(#pbba596247b)" style="fill: none; stroke: #7a8290; stroke-opacity: 0.18; stroke-width: 0.6; stroke-linecap: square"/>
     </g>
     <g id="line2d_18">
      <g>
       <use xlink:href="#m1c040edd20" x="420.429704" y="255.166125" style="fill: #7a8290; stroke: #7a8290; stroke-width: 0.8"/>
      </g>
     </g>
     <g id="text_9">
      <!-- 16 -->
      <g style="fill: #7a8290" transform="translate(413.430954 270.523547) scale(0.11 -0.11)">
       <use xlink:href="#DejaVuSans-14"/>
       <use xlink:href="#DejaVuSans-19" transform="translate(63.625 0)"/>
      </g>
     </g>
    </g>
    <g id="text_10">
     <!-- Time (reduced units) -->
     <g style="fill: #7a8290" transform="translate(184.825234 285.524406) scale(0.11 -0.11)">
      <defs>
       <path id="DejaVuSans-37" d="M -19 4666 
L 3928 4666 
L 3928 4134 
L 2272 4134 
L 2272 0 
L 1638 0 
L 1638 4134 
L -19 4134 
L -19 4666 
z
" transform="scale(0.015625)"/>
       <path id="DejaVuSans-4c" d="M 603 3500 
L 1178 3500 
L 1178 0 
L 603 0 
L 603 3500 
z
M 603 4863 
L 1178 4863 
L 1178 4134 
L 603 4134 
L 603 4863 
z
" transform="scale(0.015625)"/>
       <path id="DejaVuSans-50" d="M 3328 2828 
Q 3544 3216 3844 3400 
Q 4144 3584 4550 3584 
Q 5097 3584 5394 3201 
Q 5691 2819 5691 2113 
L 5691 0 
L 5113 0 
L 5113 2094 
Q 5113 2597 4934 2840 
Q 4756 3084 4391 3084 
Q 3944 3084 3684 2787 
Q 3425 2491 3425 1978 
L 3425 0 
L 2847 0 
L 2847 2094 
Q 2847 2600 2669 2842 
Q 2491 3084 2119 3084 
Q 1678 3084 1418 2786 
Q 1159 2488 1159 1978 
L 1159 0 
L 581 0 
L 581 3500 
L 1159 3500 
L 1159 2956 
Q 1356 3278 1631 3431 
Q 1906 3584 2284 3584 
Q 2666 3584 2933 3390 
Q 3200 3197 3328 2828 
z
" transform="scale(0.015625)"/>
       <path id="DejaVuSans-48" d="M 3597 1894 
L 3597 1613 
L 953 1613 
Q 991 1019 1311 708 
Q 1631 397 2203 397 
Q 2534 397 2845 478 
Q 3156 559 3463 722 
L 3463 178 
Q 3153 47 2828 -22 
Q 2503 -91 2169 -91 
Q 1331 -91 842 396 
Q 353 884 353 1716 
Q 353 2575 817 3079 
Q 1281 3584 2069 3584 
Q 2775 3584 3186 3129 
Q 3597 2675 3597 1894 
z
M 3022 2063 
Q 3016 2534 2758 2815 
Q 2500 3097 2075 3097 
Q 1594 3097 1305 2825 
Q 1016 2553 972 2059 
L 3022 2063 
z
" transform="scale(0.015625)"/>
       <path id="DejaVuSans-3" transform="scale(0.015625)"/>
       <path id="DejaVuSans-b" d="M 1984 4856 
Q 1566 4138 1362 3434 
Q 1159 2731 1159 2009 
Q 1159 1288 1364 580 
Q 1569 -128 1984 -844 
L 1484 -844 
Q 1016 -109 783 600 
Q 550 1309 550 2009 
Q 550 2706 781 3412 
Q 1013 4119 1484 4856 
L 1984 4856 
z
" transform="scale(0.015625)"/>
       <path id="DejaVuSans-55" d="M 2631 2963 
Q 2534 3019 2420 3045 
Q 2306 3072 2169 3072 
Q 1681 3072 1420 2755 
Q 1159 2438 1159 1844 
L 1159 0 
L 581 0 
L 581 3500 
L 1159 3500 
L 1159 2956 
Q 1341 3275 1631 3429 
Q 1922 3584 2338 3584 
Q 2397 3584 2469 3576 
Q 2541 3569 2628 3553 
L 2631 2963 
z
" transform="scale(0.015625)"/>
       <path id="DejaVuSans-47" d="M 2906 2969 
L 2906 4863 
L 3481 4863 
L 3481 0 
L 2906 0 
L 2906 525 
Q 2725 213 2448 61 
Q 2172 -91 1784 -91 
Q 1150 -91 751 415 
Q 353 922 353 1747 
Q 353 2572 751 3078 
Q 1150 3584 1784 3584 
Q 2172 3584 2448 3432 
Q 2725 3281 2906 2969 
z
M 947 1747 
Q 947 1113 1208 752 
Q 1469 391 1925 391 
Q 2381 391 2643 752 
Q 2906 1113 2906 1747 
Q 2906 2381 2643 2742 
Q 2381 3103 1925 3103 
Q 1469 3103 1208 2742 
Q 947 2381 947 1747 
z
" transform="scale(0.015625)"/>
       <path id="DejaVuSans-58" d="M 544 1381 
L 544 3500 
L 1119 3500 
L 1119 1403 
Q 1119 906 1312 657 
Q 1506 409 1894 409 
Q 2359 409 2629 706 
Q 2900 1003 2900 1516 
L 2900 3500 
L 3475 3500 
L 3475 0 
L 2900 0 
L 2900 538 
Q 2691 219 2414 64 
Q 2138 -91 1772 -91 
Q 1169 -91 856 284 
Q 544 659 544 1381 
z
M 1991 3584 
L 1991 3584 
z
" transform="scale(0.015625)"/>
       <path id="DejaVuSans-46" d="M 3122 3366 
L 3122 2828 
Q 2878 2963 2633 3030 
Q 2388 3097 2138 3097 
Q 1578 3097 1268 2742 
Q 959 2388 959 1747 
Q 959 1106 1268 751 
Q 1578 397 2138 397 
Q 2388 397 2633 464 
Q 2878 531 3122 666 
L 3122 134 
Q 2881 22 2623 -34 
Q 2366 -91 2075 -91 
Q 1284 -91 818 406 
Q 353 903 353 1747 
Q 353 2603 823 3093 
Q 1294 3584 2113 3584 
Q 2378 3584 2631 3529 
Q 2884 3475 3122 3366 
z
" transform="scale(0.015625)"/>
       <path id="DejaVuSans-51" d="M 3513 2113 
L 3513 0 
L 2938 0 
L 2938 2094 
Q 2938 2591 2744 2837 
Q 2550 3084 2163 3084 
Q 1697 3084 1428 2787 
Q 1159 2491 1159 1978 
L 1159 0 
L 581 0 
L 581 3500 
L 1159 3500 
L 1159 2956 
Q 1366 3272 1645 3428 
Q 1925 3584 2291 3584 
Q 2894 3584 3203 3211 
Q 3513 2838 3513 2113 
z
" transform="scale(0.015625)"/>
       <path id="DejaVuSans-57" d="M 1172 4494 
L 1172 3500 
L 2356 3500 
L 2356 3053 
L 1172 3053 
L 1172 1153 
Q 1172 725 1289 603 
Q 1406 481 1766 481 
L 2356 481 
L 2356 0 
L 1766 0 
Q 1100 0 847 248 
Q 594 497 594 1153 
L 594 3053 
L 172 3053 
L 172 3500 
L 594 3500 
L 594 4494 
L 1172 4494 
z
" transform="scale(0.015625)"/>
       <path id="DejaVuSans-56" d="M 2834 3397 
L 2834 2853 
Q 2591 2978 2328 3040 
Q 2066 3103 1784 3103 
Q 1356 3103 1142 2972 
Q 928 2841 928 2578 
Q 928 2378 1081 2264 
Q 1234 2150 1697 2047 
L 1894 2003 
Q 2506 1872 2764 1633 
Q 3022 1394 3022 966 
Q 3022 478 2636 193 
Q 2250 -91 1575 -91 
Q 1294 -91 989 -36 
Q 684 19 347 128 
L 347 722 
Q 666 556 975 473 
Q 1284 391 1588 391 
Q 1994 391 2212 530 
Q 2431 669 2431 922 
Q 2431 1156 2273 1281 
Q 2116 1406 1581 1522 
L 1381 1569 
Q 847 1681 609 1914 
Q 372 2147 372 2553 
Q 372 3047 722 3315 
Q 1072 3584 1716 3584 
Q 2034 3584 2315 3537 
Q 2597 3491 2834 3397 
z
" transform="scale(0.015625)"/>
       <path id="DejaVuSans-c" d="M 513 4856 
L 1013 4856 
Q 1481 4119 1714 3412 
Q 1947 2706 1947 2009 
Q 1947 1309 1714 600 
Q 1481 -109 1013 -844 
L 513 -844 
Q 928 -128 1133 580 
Q 1338 1288 1338 2009 
Q 1338 2731 1133 3434 
Q 928 4138 513 4856 
z
" transform="scale(0.015625)"/>
      </defs>
      <use xlink:href="#DejaVuSans-37"/>
      <use xlink:href="#DejaVuSans-4c" transform="translate(58 0)"/>
      <use xlink:href="#DejaVuSans-50" transform="translate(85.78125 0)"/>
      <use xlink:href="#DejaVuSans-48" transform="translate(183.1875 0)"/>
      <use xlink:href="#DejaVuSans-3" transform="translate(244.71875 0)"/>
      <use xlink:href="#DejaVuSans-b" transform="translate(276.5 0)"/>
      <use xlink:href="#DejaVuSans-55" transform="translate(315.515625 0)"/>
      <use xlink:href="#DejaVuSans-48" transform="translate(354.421875 0)"/>
      <use xlink:href="#DejaVuSans-47" transform="translate(415.953125 0)"/>
      <use xlink:href="#DejaVuSans-58" transform="translate(479.4375 0)"/>
      <use xlink:href="#DejaVuSans-46" transform="translate(542.8125 0)"/>
      <use xlink:href="#DejaVuSans-48" transform="translate(597.796875 0)"/>
      <use xlink:href="#DejaVuSans-47" transform="translate(659.328125 0)"/>
      <use xlink:href="#DejaVuSans-3" transform="translate(722.8125 0)"/>
      <use xlink:href="#DejaVuSans-58" transform="translate(754.59375 0)"/>
      <use xlink:href="#DejaVuSans-51" transform="translate(817.96875 0)"/>
      <use xlink:href="#DejaVuSans-4c" transform="translate(881.34375 0)"/>
      <use xlink:href="#DejaVuSans-57" transform="translate(909.125 0)"/>
      <use xlink:href="#DejaVuSans-56" transform="translate(948.328125 0)"/>
      <use xlink:href="#DejaVuSans-c" transform="translate(1000.421875 0)"/>
     </g>
    </g>
   </g>
   <g id="matplotlib.axis_2">
    <g id="ytick_1">
     <g id="line2d_19">
      <path d="M 46.694297 247.434335 
L 437.294297 247.434335 
" clip-path="url(#pbba596247b)" style="fill: none; stroke: #7a8290; stroke-opacity: 0.18; stroke-width: 0.6; stroke-linecap: square"/>
     </g>
     <g id="line2d_20">
      <defs>
       <path id="mafb3680e08" d="M 0 0 
L -3.5 0 
" style="stroke: #7a8290; stroke-width: 0.8"/>
      </defs>
      <g>
       <use xlink:href="#mafb3680e08" x="46.694297" y="247.434335" style="fill: #7a8290; stroke: #7a8290; stroke-width: 0.8"/>
      </g>
     </g>
     <g id="text_11">
      <!-- 0.8 -->
      <g style="fill: #7a8290" transform="translate(22.200859 251.613046) scale(0.11 -0.11)">
       <defs>
        <path id="DejaVuSans-11" d="M 684 794 
L 1344 794 
L 1344 0 
L 684 0 
L 684 794 
z
" transform="scale(0.015625)"/>
       </defs>
       <use xlink:href="#DejaVuSans-13"/>
       <use xlink:href="#DejaVuSans-11" transform="translate(63.625 0)"/>
       <use xlink:href="#DejaVuSans-1b" transform="translate(95.40625 0)"/>
      </g>
     </g>
    </g>
    <g id="ytick_2">
     <g id="line2d_21">
      <path d="M 46.694297 203.812848 
L 437.294297 203.812848 
" clip-path="url(#pbba596247b)" style="fill: none; stroke: #7a8290; stroke-opacity: 0.18; stroke-width: 0.6; stroke-linecap: square"/>
     </g>
     <g id="line2d_22">
      <g>
       <use xlink:href="#mafb3680e08" x="46.694297" y="203.812848" style="fill: #7a8290; stroke: #7a8290; stroke-width: 0.8"/>
      </g>
     </g>
     <g id="text_12">
      <!-- 0.9 -->
      <g style="fill: #7a8290" transform="translate(22.200859 207.991559) scale(0.11 -0.11)">
       <defs>
        <path id="DejaVuSans-1c" d="M 703 97 
L 703 672 
Q 941 559 1184 500 
Q 1428 441 1663 441 
Q 2288 441 2617 861 
Q 2947 1281 2994 2138 
Q 2813 1869 2534 1725 
Q 2256 1581 1919 1581 
Q 1219 1581 811 2004 
Q 403 2428 403 3163 
Q 403 3881 828 4315 
Q 1253 4750 1959 4750 
Q 2769 4750 3195 4129 
Q 3622 3509 3622 2328 
Q 3622 1225 3098 567 
Q 2575 -91 1691 -91 
Q 1453 -91 1209 -44 
Q 966 3 703 97 
z
M 1959 2075 
Q 2384 2075 2632 2365 
Q 2881 2656 2881 3163 
Q 2881 3666 2632 3958 
Q 2384 4250 1959 4250 
Q 1534 4250 1286 3958 
Q 1038 3666 1038 3163 
Q 1038 2656 1286 2365 
Q 1534 2075 1959 2075 
z
" transform="scale(0.015625)"/>
       </defs>
       <use xlink:href="#DejaVuSans-13"/>
       <use xlink:href="#DejaVuSans-11" transform="translate(63.625 0)"/>
       <use xlink:href="#DejaVuSans-1c" transform="translate(95.40625 0)"/>
      </g>
     </g>
    </g>
    <g id="ytick_3">
     <g id="line2d_23">
      <path d="M 46.694297 160.191362 
L 437.294297 160.191362 
" clip-path="url(#pbba596247b)" style="fill: none; stroke: #7a8290; stroke-opacity: 0.18; stroke-width: 0.6; stroke-linecap: square"/>
     </g>
     <g id="line2d_24">
      <g>
       <use xlink:href="#mafb3680e08" x="46.694297" y="160.191362" style="fill: #7a8290; stroke: #7a8290; stroke-width: 0.8"/>
      </g>
     </g>
     <g id="text_13">
      <!-- 1.0 -->
      <g style="fill: #7a8290" transform="translate(22.200859 164.370073) scale(0.11 -0.11)">
       <use xlink:href="#DejaVuSans-14"/>
       <use xlink:href="#DejaVuSans-11" transform="translate(63.625 0)"/>
       <use xlink:href="#DejaVuSans-13" transform="translate(95.40625 0)"/>
      </g>
     </g>
    </g>
    <g id="ytick_4">
     <g id="line2d_25">
      <path d="M 46.694297 116.569876 
L 437.294297 116.569876 
" clip-path="url(#pbba596247b)" style="fill: none; stroke: #7a8290; stroke-opacity: 0.18; stroke-width: 0.6; stroke-linecap: square"/>
     </g>
     <g id="line2d_26">
      <g>
       <use xlink:href="#mafb3680e08" x="46.694297" y="116.569876" style="fill: #7a8290; stroke: #7a8290; stroke-width: 0.8"/>
      </g>
     </g>
     <g id="text_14">
      <!-- 1.1 -->
      <g style="fill: #7a8290" transform="translate(22.200859 120.748587) scale(0.11 -0.11)">
       <use xlink:href="#DejaVuSans-14"/>
       <use xlink:href="#DejaVuSans-11" transform="translate(63.625 0)"/>
       <use xlink:href="#DejaVuSans-14" transform="translate(95.40625 0)"/>
      </g>
     </g>
    </g>
    <g id="ytick_5">
     <g id="line2d_27">
      <path d="M 46.694297 72.94839 
L 437.294297 72.94839 
" clip-path="url(#pbba596247b)" style="fill: none; stroke: #7a8290; stroke-opacity: 0.18; stroke-width: 0.6; stroke-linecap: square"/>
     </g>
     <g id="line2d_28">
      <g>
       <use xlink:href="#mafb3680e08" x="46.694297" y="72.94839" style="fill: #7a8290; stroke: #7a8290; stroke-width: 0.8"/>
      </g>
     </g>
     <g id="text_15">
      <!-- 1.2 -->
      <g style="fill: #7a8290" transform="translate(22.200859 77.127101) scale(0.11 -0.11)">
       <use xlink:href="#DejaVuSans-14"/>
       <use xlink:href="#DejaVuSans-11" transform="translate(63.625 0)"/>
       <use xlink:href="#DejaVuSans-15" transform="translate(95.40625 0)"/>
      </g>
     </g>
    </g>
    <g id="ytick_6">
     <g id="line2d_29">
      <path d="M 46.694297 29.326903 
L 437.294297 29.326903 
" clip-path="url(#pbba596247b)" style="fill: none; stroke: #7a8290; stroke-opacity: 0.18; stroke-width: 0.6; stroke-linecap: square"/>
     </g>
     <g id="line2d_30">
      <g>
       <use xlink:href="#mafb3680e08" x="46.694297" y="29.326903" style="fill: #7a8290; stroke: #7a8290; stroke-width: 0.8"/>
      </g>
     </g>
     <g id="text_16">
      <!-- 1.3 -->
      <g style="fill: #7a8290" transform="translate(22.200859 33.505614) scale(0.11 -0.11)">
       <defs>
        <path id="DejaVuSans-16" d="M 2597 2516 
Q 3050 2419 3304 2112 
Q 3559 1806 3559 1356 
Q 3559 666 3084 287 
Q 2609 -91 1734 -91 
Q 1441 -91 1130 -33 
Q 819 25 488 141 
L 488 750 
Q 750 597 1062 519 
Q 1375 441 1716 441 
Q 2309 441 2620 675 
Q 2931 909 2931 1356 
Q 2931 1769 2642 2001 
Q 2353 2234 1838 2234 
L 1294 2234 
L 1294 2753 
L 1863 2753 
Q 2328 2753 2575 2939 
Q 2822 3125 2822 3475 
Q 2822 3834 2567 4026 
Q 2313 4219 1838 4219 
Q 1578 4219 1281 4162 
Q 984 4106 628 3988 
L 628 4550 
Q 988 4650 1302 4700 
Q 1616 4750 1894 4750 
Q 2613 4750 3031 4423 
Q 3450 4097 3450 3541 
Q 3450 3153 3228 2886 
Q 3006 2619 2597 2516 
z
" transform="scale(0.015625)"/>
       </defs>
       <use xlink:href="#DejaVuSans-14"/>
       <use xlink:href="#DejaVuSans-11" transform="translate(63.625 0)"/>
       <use xlink:href="#DejaVuSans-16" transform="translate(95.40625 0)"/>
      </g>
     </g>
    </g>
    <g id="text_17">
     <!-- Temperature (reduced units) -->
     <g style="fill: #7a8290" transform="translate(15.558281 217.291578) rotate(-90) scale(0.11 -0.11)">
      <defs>
       <path id="DejaVuSans-53" d="M 1159 525 
L 1159 -1331 
L 581 -1331 
L 581 3500 
L 1159 3500 
L 1159 2969 
Q 1341 3281 1617 3432 
Q 1894 3584 2278 3584 
Q 2916 3584 3314 3078 
Q 3713 2572 3713 1747 
Q 3713 922 3314 415 
Q 2916 -91 2278 -91 
Q 1894 -91 1617 61 
Q 1341 213 1159 525 
z
M 3116 1747 
Q 3116 2381 2855 2742 
Q 2594 3103 2138 3103 
Q 1681 3103 1420 2742 
Q 1159 2381 1159 1747 
Q 1159 1113 1420 752 
Q 1681 391 2138 391 
Q 2594 391 2855 752 
Q 3116 1113 3116 1747 
z
" transform="scale(0.015625)"/>
       <path id="DejaVuSans-44" d="M 2194 1759 
Q 1497 1759 1228 1600 
Q 959 1441 959 1056 
Q 959 750 1161 570 
Q 1363 391 1709 391 
Q 2188 391 2477 730 
Q 2766 1069 2766 1631 
L 2766 1759 
L 2194 1759 
z
M 3341 1997 
L 3341 0 
L 2766 0 
L 2766 531 
Q 2569 213 2275 61 
Q 1981 -91 1556 -91 
Q 1019 -91 701 211 
Q 384 513 384 1019 
Q 384 1609 779 1909 
Q 1175 2209 1959 2209 
L 2766 2209 
L 2766 2266 
Q 2766 2663 2505 2880 
Q 2244 3097 1772 3097 
Q 1472 3097 1187 3025 
Q 903 2953 641 2809 
L 641 3341 
Q 956 3463 1253 3523 
Q 1550 3584 1831 3584 
Q 2591 3584 2966 3190 
Q 3341 2797 3341 1997 
z
" transform="scale(0.015625)"/>
      </defs>
      <use xlink:href="#DejaVuSans-37"/>
      <use xlink:href="#DejaVuSans-48" transform="translate(44.09375 0)"/>
      <use xlink:href="#DejaVuSans-50" transform="translate(105.625 0)"/>
      <use xlink:href="#DejaVuSans-53" transform="translate(203.03125 0)"/>
      <use xlink:href="#DejaVuSans-48" transform="translate(266.515625 0)"/>
      <use xlink:href="#DejaVuSans-55" transform="translate(328.046875 0)"/>
      <use xlink:href="#DejaVuSans-44" transform="translate(369.15625 0)"/>
      <use xlink:href="#DejaVuSans-57" transform="translate(430.4375 0)"/>
      <use xlink:href="#DejaVuSans-58" transform="translate(469.640625 0)"/>
      <use xlink:href="#DejaVuSans-55" transform="translate(533.015625 0)"/>
      <use xlink:href="#DejaVuSans-48" transform="translate(571.921875 0)"/>
      <use xlink:href="#DejaVuSans-3" transform="translate(633.453125 0)"/>
      <use xlink:href="#DejaVuSans-b" transform="translate(665.234375 0)"/>
      <use xlink:href="#DejaVuSans-55" transform="translate(704.25 0)"/>
      <use xlink:href="#DejaVuSans-48" transform="translate(743.15625 0)"/>
      <use xlink:href="#DejaVuSans-47" transform="translate(804.6875 0)"/>
      <use xlink:href="#DejaVuSans-58" transform="translate(868.171875 0)"/>
      <use xlink:href="#DejaVuSans-46" transform="translate(931.546875 0)"/>
      <use xlink:href="#DejaVuSans-48" transform="translate(986.53125 0)"/>
      <use xlink:href="#DejaVuSans-47" transform="translate(1048.0625 0)"/>
      <use xlink:href="#DejaVuSans-3" transform="translate(1111.546875 0)"/>
      <use xlink:href="#DejaVuSans-58" transform="translate(1143.328125 0)"/>
      <use xlink:href="#DejaVuSans-51" transform="translate(1206.703125 0)"/>
      <use xlink:href="#DejaVuSans-4c" transform="translate(1270.078125 0)"/>
      <use xlink:href="#DejaVuSans-57" transform="translate(1297.859375 0)"/>
      <use xlink:href="#DejaVuSans-56" transform="translate(1337.0625 0)"/>
      <use xlink:href="#DejaVuSans-c" transform="translate(1389.15625 0)"/>
     </g>
    </g>
   </g>
   <g id="line2d_31">
    <path d="M 64.448842 73.671174 
L 65.338794 181.382683 
L 66.228747 244.582125 
L 67.118699 170.066168 
L 68.008651 157.425854 
L 68.898603 115.017153 
L 69.788555 98.016885 
L 70.678507 98.533615 
L 71.56846 83.497832 
L 72.458412 92.744794 
L 73.348364 67.551907 
L 74.238316 83.018378 
L 75.128268 81.43678 
L 76.01822 71.221945 
L 76.908172 73.734518 
L 77.798125 94.565027 
L 79.578029 38.162005 
L 80.467981 70.249319 
L 81.357933 71.175196 
L 82.247885 88.009583 
L 83.137838 82.842558 
L 84.02779 68.769827 
L 84.917742 72.727188 
L 85.807694 67.674307 
L 86.697646 63.863964 
L 87.587598 77.783828 
L 88.47755 66.653092 
L 89.367503 76.907691 
L 90.257455 84.67918 
L 91.147407 82.988122 
L 92.037359 92.521266 
L 92.927311 73.078654 
L 93.817263 67.772255 
L 94.707216 75.903846 
L 95.597168 82.063872 
L 96.48712 84.519829 
L 97.377072 60.711769 
L 98.267024 56.426632 
L 99.156976 65.032647 
L 100.046928 82.802399 
L 100.936881 78.136397 
L 101.826833 43.464768 
L 102.716785 56.532662 
L 104.496689 88.32671 
L 105.386641 63.515154 
L 106.276594 93.964731 
L 107.166546 74.141104 
L 108.056498 79.460774 
L 108.94645 87.984528 
L 109.836402 84.645911 
L 110.726354 88.684098 
L 111.616306 79.810741 
L 112.506259 62.231708 
L 113.396211 47.725726 
L 114.286163 62.839958 
L 115.176115 53.841774 
L 116.066067 56.920017 
L 116.956019 63.965808 
L 117.845972 79.582324 
L 118.735924 80.918161 
L 119.625876 79.03144 
L 120.515828 91.023153 
L 121.40578 97.086282 
L 122.295732 65.027886 
L 123.185684 55.521127 
L 124.075637 63.314554 
L 124.965589 50.455158 
L 125.855541 57.51398 
L 126.745493 88.93641 
L 127.635445 64.966824 
L 128.525397 60.482586 
L 129.41535 73.840509 
L 130.305302 62.078745 
L 131.195254 75.481534 
L 132.085206 62.513026 
L 132.975158 72.46474 
L 133.86511 89.363459 
L 134.755062 85.536628 
L 136.534967 89.709967 
L 137.424919 66.366507 
L 138.314871 69.173024 
L 139.204823 68.826494 
L 140.094775 105.047622 
L 140.984727 59.203644 
L 141.87468 74.865251 
L 142.764632 75.064352 
L 143.654584 63.172093 
L 144.544536 79.349408 
L 145.434488 68.651333 
L 146.32444 67.052934 
L 147.214393 65.050686 
L 148.104345 89.566001 
L 148.994297 68.669163 
L 149.884249 83.477046 
L 150.774201 66.657588 
L 151.664153 63.92887 
L 152.554105 52.104122 
L 153.444058 61.768499 
L 154.33401 64.668272 
L 156.113914 91.461122 
L 157.003866 89.555168 
L 157.893818 67.479254 
L 158.783771 62.227506 
L 159.673723 76.229047 
L 160.563675 85.88798 
L 161.453627 84.803847 
L 162.343579 55.199139 
L 164.123483 70.628269 
L 165.013436 69.084451 
L 165.903388 62.574339 
L 166.79334 89.51486 
L 167.683292 73.019466 
L 168.573244 75.668129 
L 169.463196 71.885339 
L 170.353149 71.661736 
L 171.243101 84.915633 
L 172.133053 55.189074 
L 173.023005 78.371855 
L 173.912957 78.820858 
L 174.802909 73.420027 
L 175.692861 82.155602 
L 176.582814 69.914712 
L 177.472766 86.915151 
L 179.25267 61.274469 
L 180.142622 62.021366 
L 181.032574 83.941297 
L 181.922527 57.187005 
L 182.812479 79.326216 
L 183.702431 75.052076 
L 184.592383 66.965149 
L 185.482335 68.038707 
L 187.262239 79.381489 
L 188.152192 68.512465 
L 189.042144 67.554724 
L 189.932096 93.016041 
L 190.822048 66.883473 
L 191.712 67.832113 
L 192.601952 58.500282 
L 193.491905 65.426496 
L 194.381857 90.706074 
L 195.271809 53.049615 
L 196.161761 74.832883 
L 197.051713 79.279895 
L 197.941665 97.018455 
L 198.831617 71.351859 
L 199.72157 62.782981 
L 200.611522 55.611004 
L 201.501474 66.339752 
L 202.391426 72.003012 
L 203.281378 50.711731 
L 204.17133 60.288411 
L 205.061283 52.592752 
L 206.841187 71.24126 
L 207.731139 53.242029 
L 208.621091 68.160406 
L 209.511043 100.920619 
L 210.400995 71.655526 
L 211.290948 72.866149 
L 212.1809 90.812062 
L 213.070852 100.255965 
L 213.960804 76.428819 
L 214.850756 86.034304 
L 215.740708 65.367094 
L 216.630661 39.489885 
L 217.520613 51.899472 
L 218.410565 72.456704 
L 219.300517 68.011511 
L 220.190469 56.451489 
L 221.080421 64.542518 
L 222.860326 57.16588 
L 223.750278 74.593038 
L 224.64023 84.312448 
L 225.530182 65.897106 
L 226.420134 76.607028 
L 228.200039 56.872067 
L 229.089991 47.606117 
L 229.979943 47.900183 
L 230.869895 64.400524 
L 231.759847 74.123866 
L 232.649799 62.377333 
L 233.539751 91.134559 
L 234.429704 52.640431 
L 235.319656 51.192328 
L 236.209608 42.300883 
L 237.09956 61.638124 
L 237.989512 67.593182 
L 238.879464 63.191355 
L 239.769416 78.024885 
L 240.659369 51.438519 
L 241.549321 58.344639 
L 242.439273 89.448435 
L 243.329225 68.102464 
L 244.219177 57.123159 
L 245.109129 69.013837 
L 245.999082 69.885887 
L 246.889034 69.059607 
L 247.778986 72.671529 
L 248.668938 70.831318 
L 249.55889 51.810902 
L 250.448842 96.145191 
L 251.338794 76.45856 
L 252.228747 67.070518 
L 253.118699 99.651437 
L 254.008651 58.632116 
L 254.898603 87.006643 
L 255.788555 78.291067 
L 256.678507 62.443523 
L 257.56846 78.914203 
L 258.458412 51.639604 
L 259.348364 90.838971 
L 260.238316 99.475957 
L 262.01822 73.860559 
L 262.908172 55.28644 
L 263.798125 62.285866 
L 264.688077 88.08722 
L 265.578029 68.978457 
L 266.467981 81.888784 
L 267.357933 76.596923 
L 268.247885 88.866741 
L 269.137838 70.744041 
L 270.02779 63.720301 
L 270.917742 79.081422 
L 271.807694 64.35347 
L 272.697646 67.295958 
L 273.587598 82.642438 
L 274.47755 77.515024 
L 275.367503 60.162861 
L 276.257455 67.602451 
L 277.147407 69.95944 
L 278.037359 48.69721 
L 278.927311 74.281075 
L 279.817263 53.889292 
L 280.707216 59.947082 
L 281.597168 64.608602 
L 282.48712 60.96279 
L 283.377072 82.808454 
L 284.267024 81.463722 
L 285.156976 52.120336 
L 286.046928 52.893252 
L 286.936881 78.747576 
L 287.826833 85.870023 
L 288.716785 72.859067 
L 289.606737 65.10785 
L 290.496689 49.27419 
L 291.386641 55.617917 
L 292.276594 53.214761 
L 293.166546 55.697715 
L 294.056498 60.3764 
L 294.94645 72.975747 
L 295.836402 73.34383 
L 296.726354 53.206418 
L 297.616306 62.179508 
L 298.506259 74.594466 
L 299.396211 91.866584 
L 300.286163 65.758817 
L 301.176115 59.571735 
L 302.066067 74.233447 
L 302.956019 54.707446 
L 303.845972 79.325901 
L 304.735924 71.450338 
L 305.625876 87.391533 
L 306.515828 99.841137 
L 307.40578 83.570321 
L 308.295732 82.150152 
L 309.185684 72.451129 
L 310.075637 86.007683 
L 310.965589 60.249313 
L 311.855541 71.614009 
L 312.745493 48.024051 
L 313.635445 54.639608 
L 314.525397 78.893975 
L 315.41535 68.759866 
L 317.195254 92.135497 
L 318.085206 59.629454 
L 318.975158 52.508396 
L 319.86511 75.291092 
L 320.755062 102.458785 
L 321.645015 101.66923 
L 322.534967 79.658924 
L 323.424919 52.973716 
L 324.314871 72.413085 
L 325.204823 67.488634 
L 326.094775 74.487511 
L 326.984727 68.857917 
L 327.87468 60.126826 
L 328.764632 63.132086 
L 329.654584 61.086164 
L 330.544536 121.928682 
L 331.434488 83.759996 
L 332.32444 64.585633 
L 334.104345 73.746166 
L 334.994297 40.273145 
L 335.884249 41.404668 
L 336.774201 64.535265 
L 337.664153 70.877083 
L 338.554105 57.532278 
L 339.444058 84.342621 
L 340.33401 72.918485 
L 341.223962 54.042151 
L 342.113914 67.15029 
L 343.003866 68.082457 
L 343.893818 53.656109 
L 345.673723 32.902125 
L 346.563675 81.649418 
L 347.453627 70.197546 
L 348.343579 35.943816 
L 349.233531 88.779238 
L 350.123483 56.570312 
L 351.013436 50.759847 
L 353.683292 89.130295 
L 354.573244 65.875277 
L 355.463196 60.294624 
L 356.353149 86.041763 
L 357.243101 90.895964 
L 358.133053 80.619348 
L 359.023005 77.21821 
L 359.912957 75.886289 
L 360.802909 93.267327 
L 361.692861 101.4814 
L 362.582814 82.911194 
L 363.472766 105.528077 
L 364.362718 63.591331 
L 365.25267 65.543532 
L 366.142622 75.153399 
L 367.032574 59.740377 
L 367.922527 57.598617 
L 368.812479 100.481936 
L 370.592383 65.886246 
L 371.482335 91.521932 
L 372.372287 78.23772 
L 373.262239 77.621545 
L 374.152192 68.309703 
L 375.042144 73.062945 
L 375.932096 81.563327 
L 376.822048 86.340645 
L 377.712 82.626788 
L 378.601952 89.568571 
L 379.491905 72.646879 
L 380.381857 46.674387 
L 381.271809 60.926494 
L 382.161761 51.42508 
L 383.051713 60.574725 
L 383.941665 66.671426 
L 384.831617 55.131104 
L 385.72157 73.887421 
L 386.611522 88.305326 
L 387.501474 75.223736 
L 388.391426 78.306185 
L 389.281378 92.596118 
L 390.17133 93.325605 
L 391.061283 76.635068 
L 391.951235 99.525378 
L 392.841187 92.28746 
L 393.731139 77.713788 
L 394.621091 71.817668 
L 395.511043 71.59792 
L 396.400995 91.820187 
L 397.290948 81.80841 
L 398.1809 62.972689 
L 399.070852 67.611387 
L 399.960804 68.334701 
L 400.850756 80.883578 
L 401.740708 72.089409 
L 402.630661 91.074321 
L 403.520613 85.488607 
L 404.410565 96.298684 
L 405.300517 81.059518 
L 406.190469 68.925144 
L 407.080421 73.083638 
L 407.970373 79.090258 
L 408.860326 97.972767 
L 410.64023 66.653773 
L 411.530182 64.507536 
L 412.420134 81.642505 
L 413.310086 75.037996 
L 414.200039 63.694123 
L 415.089991 57.820802 
L 415.979943 58.094378 
L 416.869895 64.80012 
L 417.759847 74.215256 
L 418.649799 72.90538 
L 419.539751 67.188227 
L 419.539751 67.188227 
" clip-path="url(#pbba596247b)" style="fill: none; stroke: #0072b2; stroke-width: 1.5; stroke-linecap: square"/>
   </g>
   <g id="line2d_32">
    <path d="M 46.694297 72.94839 
L 437.294297 72.94839 
" clip-path="url(#pbba596247b)" style="fill: none; stroke-dasharray: 5.55,2.4; stroke-dashoffset: 0; stroke: #e69f00; stroke-width: 1.5"/>
   </g>
   <g id="line2d_33">
    <path d="M 197.941665 255.166125 
L 197.941665 22.318125 
" clip-path="url(#pbba596247b)" style="fill: none; stroke-dasharray: 1.5,2.475; stroke-dashoffset: 0; stroke: #d55e00; stroke-width: 1.5"/>
   </g>
   <g id="patch_3">
    <path d="M 46.694297 255.166125 
L 46.694297 22.318125 
" style="fill: none; stroke: #7a8290; stroke-width: 0.8; stroke-linejoin: miter; stroke-linecap: square"/>
   </g>
   <g id="patch_4">
    <path d="M 46.694297 255.166125 
L 437.294297 255.166125 
" style="fill: none; stroke: #7a8290; stroke-width: 0.8; stroke-linejoin: miter; stroke-linecap: square"/>
   </g>
   <g id="text_18">
    <!-- Temperature equilibration -->
    <g style="fill: #7a8290" transform="translate(164.330859 16.318125) scale(0.12 -0.12)">
     <defs>
      <path id="DejaVuSans-54" d="M 947 1747 
Q 947 1113 1208 752 
Q 1469 391 1925 391 
Q 2381 391 2643 752 
Q 2906 1113 2906 1747 
Q 2906 2381 2643 2742 
Q 2381 3103 1925 3103 
Q 1469 3103 1208 2742 
Q 947 2381 947 1747 
z
M 2906 525 
Q 2725 213 2448 61 
Q 2172 -91 1784 -91 
Q 1150 -91 751 415 
Q 353 922 353 1747 
Q 353 2572 751 3078 
Q 1150 3584 1784 3584 
Q 2172 3584 2448 3432 
Q 2725 3281 2906 2969 
L 2906 3500 
L 3481 3500 
L 3481 -1331 
L 2906 -1331 
L 2906 525 
z
" transform="scale(0.015625)"/>
      <path id="DejaVuSans-4f" d="M 603 4863 
L 1178 4863 
L 1178 0 
L 603 0 
L 603 4863 
z
" transform="scale(0.015625)"/>
      <path id="DejaVuSans-45" d="M 3116 1747 
Q 3116 2381 2855 2742 
Q 2594 3103 2138 3103 
Q 1681 3103 1420 2742 
Q 1159 2381 1159 1747 
Q 1159 1113 1420 752 
Q 1681 391 2138 391 
Q 2594 391 2855 752 
Q 3116 1113 3116 1747 
z
M 1159 2969 
Q 1341 3281 1617 3432 
Q 1894 3584 2278 3584 
Q 2916 3584 3314 3078 
Q 3713 2572 3713 1747 
Q 3713 922 3314 415 
Q 2916 -91 2278 -91 
Q 1894 -91 1617 61 
Q 1341 213 1159 525 
L 1159 0 
L 581 0 
L 581 4863 
L 1159 4863 
L 1159 2969 
z
" transform="scale(0.015625)"/>
      <path id="DejaVuSans-52" d="M 1959 3097 
Q 1497 3097 1228 2736 
Q 959 2375 959 1747 
Q 959 1119 1226 758 
Q 1494 397 1959 397 
Q 2419 397 2687 759 
Q 2956 1122 2956 1747 
Q 2956 2369 2687 2733 
Q 2419 3097 1959 3097 
z
M 1959 3584 
Q 2709 3584 3137 3096 
Q 3566 2609 3566 1747 
Q 3566 888 3137 398 
Q 2709 -91 1959 -91 
Q 1206 -91 779 398 
Q 353 888 353 1747 
Q 353 2609 779 3096 
Q 1206 3584 1959 3584 
z
" transform="scale(0.015625)"/>
     </defs>
     <use xlink:href="#DejaVuSans-37"/>
     <use xlink:href="#DejaVuSans-48" transform="translate(44.09375 0)"/>
     <use xlink:href="#DejaVuSans-50" transform="translate(105.625 0)"/>
     <use xlink:href="#DejaVuSans-53" transform="translate(203.03125 0)"/>
     <use xlink:href="#DejaVuSans-48" transform="translate(266.515625 0)"/>
     <use xlink:href="#DejaVuSans-55" transform="translate(328.046875 0)"/>
     <use xlink:href="#DejaVuSans-44" transform="translate(369.15625 0)"/>
     <use xlink:href="#DejaVuSans-57" transform="translate(430.4375 0)"/>
     <use xlink:href="#DejaVuSans-58" transform="translate(469.640625 0)"/>
     <use xlink:href="#DejaVuSans-55" transform="translate(533.015625 0)"/>
     <use xlink:href="#DejaVuSans-48" transform="translate(571.921875 0)"/>
     <use xlink:href="#DejaVuSans-3" transform="translate(633.453125 0)"/>
     <use xlink:href="#DejaVuSans-48" transform="translate(665.234375 0)"/>
     <use xlink:href="#DejaVuSans-54" transform="translate(726.765625 0)"/>
     <use xlink:href="#DejaVuSans-58" transform="translate(790.25 0)"/>
     <use xlink:href="#DejaVuSans-4c" transform="translate(853.625 0)"/>
     <use xlink:href="#DejaVuSans-4f" transform="translate(881.40625 0)"/>
     <use xlink:href="#DejaVuSans-4c" transform="translate(909.1875 0)"/>
     <use xlink:href="#DejaVuSans-45" transform="translate(936.96875 0)"/>
     <use xlink:href="#DejaVuSans-55" transform="translate(1000.453125 0)"/>
     <use xlink:href="#DejaVuSans-44" transform="translate(1041.5625 0)"/>
     <use xlink:href="#DejaVuSans-57" transform="translate(1102.84375 0)"/>
     <use xlink:href="#DejaVuSans-4c" transform="translate(1142.046875 0)"/>
     <use xlink:href="#DejaVuSans-52" transform="translate(1169.828125 0)"/>
     <use xlink:href="#DejaVuSans-51" transform="translate(1231.015625 0)"/>
    </g>
   </g>
   <g id="legend_1">
    <g id="line2d_34">
     <path d="M 308.183516 36.726406 
L 319.183516 36.726406 
L 330.183516 36.726406 
" style="fill: none; stroke: #0072b2; stroke-width: 1.5; stroke-linecap: square"/>
    </g>
    <g id="text_19">
     <!-- Instantaneous T -->
     <g style="fill: #7a8290" transform="translate(338.983516 40.576406) scale(0.11 -0.11)">
      <defs>
       <path id="DejaVuSans-2c" d="M 628 4666 
L 1259 4666 
L 1259 0 
L 628 0 
L 628 4666 
z
" transform="scale(0.015625)"/>
      </defs>
      <use xlink:href="#DejaVuSans-2c"/>
      <use xlink:href="#DejaVuSans-51" transform="translate(29.5 0)"/>
      <use xlink:href="#DejaVuSans-56" transform="translate(92.875 0)"/>
      <use xlink:href="#DejaVuSans-57" transform="translate(144.96875 0)"/>
      <use xlink:href="#DejaVuSans-44" transform="translate(184.171875 0)"/>
      <use xlink:href="#DejaVuSans-51" transform="translate(245.453125 0)"/>
      <use xlink:href="#DejaVuSans-57" transform="translate(308.828125 0)"/>
      <use xlink:href="#DejaVuSans-44" transform="translate(348.03125 0)"/>
      <use xlink:href="#DejaVuSans-51" transform="translate(409.3125 0)"/>
      <use xlink:href="#DejaVuSans-48" transform="translate(472.6875 0)"/>
      <use xlink:href="#DejaVuSans-52" transform="translate(534.21875 0)"/>
      <use xlink:href="#DejaVuSans-58" transform="translate(595.40625 0)"/>
      <use xlink:href="#DejaVuSans-56" transform="translate(658.78125 0)"/>
      <use xlink:href="#DejaVuSans-3" transform="translate(710.875 0)"/>
      <use xlink:href="#DejaVuSans-37" transform="translate(742.65625 0)"/>
     </g>
    </g>
    <g id="line2d_35">
     <path d="M 308.183516 53.227266 
L 319.183516 53.227266 
L 330.183516 53.227266 
" style="fill: none; stroke-dasharray: 5.55,2.4; stroke-dashoffset: 0; stroke: #e69f00; stroke-width: 1.5"/>
    </g>
    <g id="text_20">
     <!-- Target T = 1.2 -->
     <g style="fill: #7a8290" transform="translate(338.983516 57.077266) scale(0.11 -0.11)">
      <defs>
       <path id="DejaVuSans-4a" d="M 2906 1791 
Q 2906 2416 2648 2759 
Q 2391 3103 1925 3103 
Q 1463 3103 1205 2759 
Q 947 2416 947 1791 
Q 947 1169 1205 825 
Q 1463 481 1925 481 
Q 2391 481 2648 825 
Q 2906 1169 2906 1791 
z
M 3481 434 
Q 3481 -459 3084 -895 
Q 2688 -1331 1869 -1331 
Q 1566 -1331 1297 -1286 
Q 1028 -1241 775 -1147 
L 775 -588 
Q 1028 -725 1275 -790 
Q 1522 -856 1778 -856 
Q 2344 -856 2625 -561 
Q 2906 -266 2906 331 
L 2906 616 
Q 2728 306 2450 153 
Q 2172 0 1784 0 
Q 1141 0 747 490 
Q 353 981 353 1791 
Q 353 2603 747 3093 
Q 1141 3584 1784 3584 
Q 2172 3584 2450 3431 
Q 2728 3278 2906 2969 
L 2906 3500 
L 3481 3500 
L 3481 434 
z
" transform="scale(0.015625)"/>
       <path id="DejaVuSans-20" d="M 678 2906 
L 4684 2906 
L 4684 2381 
L 678 2381 
L 678 2906 
z
M 678 1631 
L 4684 1631 
L 4684 1100 
L 678 1100 
L 678 1631 
z
" transform="scale(0.015625)"/>
      </defs>
      <use xlink:href="#DejaVuSans-37"/>
      <use xlink:href="#DejaVuSans-44" transform="translate(44.53125 0)"/>
      <use xlink:href="#DejaVuSans-55" transform="translate(105.8125 0)"/>
      <use xlink:href="#DejaVuSans-4a" transform="translate(145.171875 0)"/>
      <use xlink:href="#DejaVuSans-48" transform="translate(208.65625 0)"/>
      <use xlink:href="#DejaVuSans-57" transform="translate(270.1875 0)"/>
      <use xlink:href="#DejaVuSans-3" transform="translate(309.390625 0)"/>
      <use xlink:href="#DejaVuSans-37" transform="translate(341.171875 0)"/>
      <use xlink:href="#DejaVuSans-3" transform="translate(402.25 0)"/>
      <use xlink:href="#DejaVuSans-20" transform="translate(434.03125 0)"/>
      <use xlink:href="#DejaVuSans-3" transform="translate(517.828125 0)"/>
      <use xlink:href="#DejaVuSans-14" transform="translate(549.609375 0)"/>
      <use xlink:href="#DejaVuSans-11" transform="translate(613.234375 0)"/>
      <use xlink:href="#DejaVuSans-15" transform="translate(645.015625 0)"/>
     </g>
    </g>
    <g id="line2d_36">
     <path d="M 308.183516 69.728125 
L 319.183516 69.728125 
L 330.183516 69.728125 
" style="fill: none; stroke-dasharray: 1.5,2.475; stroke-dashoffset: 0; stroke: #d55e00; stroke-width: 1.5"/>
    </g>
    <g id="text_21">
     <!-- Thermostat off -->
     <g style="fill: #7a8290" transform="translate(338.983516 73.578125) scale(0.11 -0.11)">
      <defs>
       <path id="DejaVuSans-4b" d="M 3513 2113 
L 3513 0 
L 2938 0 
L 2938 2094 
Q 2938 2591 2744 2837 
Q 2550 3084 2163 3084 
Q 1697 3084 1428 2787 
Q 1159 2491 1159 1978 
L 1159 0 
L 581 0 
L 581 4863 
L 1159 4863 
L 1159 2956 
Q 1366 3272 1645 3428 
Q 1925 3584 2291 3584 
Q 2894 3584 3203 3211 
Q 3513 2838 3513 2113 
z
" transform="scale(0.015625)"/>
       <path id="DejaVuSans-13ae" d="M 4531 4863 
L 4531 4384 
L 3981 4384 
Q 3672 4384 3551 4259 
Q 3431 4134 3431 3809 
L 3431 3500 
L 4378 3500 
L 4378 3053 
L 3431 3053 
L 3431 0 
L 2853 0 
L 2853 3053 
L 1275 3053 
L 1275 0 
L 697 0 
L 697 3053 
L 147 3053 
L 147 3500 
L 697 3500 
L 697 3744 
Q 697 4328 969 4595 
Q 1241 4863 1831 4863 
L 2375 4863 
L 2375 4384 
L 1825 4384 
Q 1516 4384 1394 4259 
Q 1275 4134 1275 3809 
L 1275 3500 
L 2853 3500 
L 2853 3744 
Q 2853 4328 3125 4595 
Q 3397 4863 3988 4863 
L 4531 4863 
z
" transform="scale(0.015625)"/>
      </defs>
      <use xlink:href="#DejaVuSans-37"/>
      <use xlink:href="#DejaVuSans-4b" transform="translate(61.078125 0)"/>
      <use xlink:href="#DejaVuSans-48" transform="translate(124.453125 0)"/>
      <use xlink:href="#DejaVuSans-55" transform="translate(185.984375 0)"/>
      <use xlink:href="#DejaVuSans-50" transform="translate(225.34375 0)"/>
      <use xlink:href="#DejaVuSans-52" transform="translate(322.75 0)"/>
      <use xlink:href="#DejaVuSans-56" transform="translate(383.9375 0)"/>
      <use xlink:href="#DejaVuSans-57" transform="translate(436.03125 0)"/>
      <use xlink:href="#DejaVuSans-44" transform="translate(475.234375 0)"/>
      <use xlink:href="#DejaVuSans-57" transform="translate(536.515625 0)"/>
      <use xlink:href="#DejaVuSans-3" transform="translate(575.71875 0)"/>
      <use xlink:href="#DejaVuSans-52" transform="translate(607.5 0)"/>
      <use xlink:href="#DejaVuSans-13ae" transform="translate(668.6875 0)"/>
     </g>
    </g>
   </g>
  </g>
 </g>
 <defs>
  <clipPath id="pbba596247b">
   <rect x="46.694297" y="22.318125" width="390.6" height="232.848"/>
  </clipPath>
 </defs>
</svg>
