<?xml version="1.0" encoding="utf-8" standalone="no"?>
<!DOCTYPE svg PUBLIC "-//W3C//DTD SVG 1.1//EN"
  "http://www.w3.org/Graphics/SVG/1.1/DTD/svg11.dtd">
<svg xmlns:xlink="http://www.w3.org/1999/xlink" width="447.997109pt" height="289.657811pt" viewBox="0 0 447.997109 289.657811" xmlns="http://www.w3.org/2000/svg" version="1.1">
 <metadata>
  <rdf:RDF xmlns:dc="http://purl.org/dc/elements/1.1/" xmlns:cc="http://creativecommons.org/ns#" xmlns:rdf="http://www.w3.org/1999/02/22-rdf-syntax-ns#">
   <cc:Work>
    <dc:type rdf:resource="http://purl.org/dc/dcmitype/StillImage"/>
    <dc:date>2026-06-23T10:22:52.523853</dc:date>
    <dc:format>image/svg+xml</dc:format>
    <dc:creator>
     <cc:Agent>
      <dc:title>Matplotlib v3.11.0, https://matplotlib.org/</dc:title>
     </cc:Agent>
    </dc:creator>
   </cc:Work>
  </rdf:RDF>
 </metadata>
 <defs>
  <style type="text/css">*{stroke-linejoin: round; stroke-linecap: butt}</style>
 </defs>
 <g id="figure_1">
  <g id="patch_1">
   <path d="M 0 289.657811 
L 447.997109 289.657811 
L 447.997109 0 
L 0 0 
L 0 289.657811 
z
" style="fill: none"/>
  </g>
  <g id="axes_1">
   <g id="patch_2">
    <path d="M 50.197109 227.950125 
L 440.797109 227.950125 
L 440.797109 22.318125 
L 50.197109 22.318125 
L 50.197109 227.950125 
z
" style="fill: none"/>
   </g>
   <g id="matplotlib.axis_1">
    <g id="xtick_1">
     <g id="line2d_1">
      <path d="M 55.48527 227.950125 
L 55.48527 22.318125 
" clip-path="url(#pfd756cf1e2)" style="fill: none; stroke: #7a8290; stroke-opacity: 0.18; stroke-width: 0.6; stroke-linecap: square"/>
     </g>
     <g id="line2d_2">
      <defs>
       <path id="m41b8060b01" d="M 0 0 
L 0 3.5 
" style="stroke: #7a8290; stroke-width: 0.8"/>
      </defs>
      <g>
       <use xlink:href="#m41b8060b01" x="55.48527" y="227.950125" style="fill: #7a8290; stroke: #7a8290; stroke-width: 0.8"/>
      </g>
     </g>
     <g id="text_1">
      <!-- 2020-07 -->
      <g style="fill: #7a8290" transform="translate(14.360506 265.168412) rotate(-30) scale(0.11 -0.11)">
       <defs>
        <path id="DejaVuSans-15" d="M 1228 531 
L 3431 531 
L 3431 0 
L 469 0 
L 469 531 
Q 828 903 1448 1529 
Q 2069 2156 2228 2338 
Q 2531 2678 2651 2914 
Q 2772 3150 2772 3378 
Q 2772 3750 2511 3984 
Q 2250 4219 1831 4219 
Q 1534 4219 1204 4116 
Q 875 4013 500 3803 
L 500 4441 
Q 881 4594 1212 4672 
Q 1544 4750 1819 4750 
Q 2544 4750 2975 4387 
Q 3406 4025 3406 3419 
Q 3406 3131 3298 2873 
Q 3191 2616 2906 2266 
Q 2828 2175 2409 1742 
Q 1991 1309 1228 531 
z
" transform="scale(0.015625)"/>
        <path id="DejaVuSans-13" d="M 2034 4250 
Q 1547 4250 1301 3770 
Q 1056 3291 1056 2328 
Q 1056 1369 1301 889 
Q 1547 409 2034 409 
Q 2525 409 2770 889 
Q 3016 1369 3016 2328 
Q 3016 3291 2770 3770 
Q 2525 4250 2034 4250 
z
M 2034 4750 
Q 2819 4750 3233 4129 
Q 3647 3509 3647 2328 
Q 3647 1150 3233 529 
Q 2819 -91 2034 -91 
Q 1250 -91 836 529 
Q 422 1150 422 2328 
Q 422 3509 836 4129 
Q 1250 4750 2034 4750 
z
" transform="scale(0.015625)"/>
        <path id="DejaVuSans-10" d="M 313 2009 
L 1997 2009 
L 1997 1497 
L 313 1497 
L 313 2009 
z
" transform="scale(0.015625)"/>
        <path id="DejaVuSans-1a" d="M 525 4666 
L 3525 4666 
L 3525 4397 
L 1831 0 
L 1172 0 
L 2766 4134 
L 525 4134 
L 525 4666 
z
" transform="scale(0.015625)"/>
       </defs>
       <use xlink:href="#DejaVuSans-15"/>
       <use xlink:href="#DejaVuSans-13" transform="translate(63.625 0)"/>
       <use xlink:href="#DejaVuSans-15" transform="translate(127.25 0)"/>
       <use xlink:href="#DejaVuSans-13" transform="translate(190.875 0)"/>
       <use xlink:href="#DejaVuSans-10" transform="translate(254.5 0)"/>
       <use xlink:href="#DejaVuSans-13" transform="translate(290.578125 0)"/>
       <use xlink:href="#DejaVuSans-1a" transform="translate(354.203125 0)"/>
      </g>
     </g>
    </g>
    <g id="xtick_2">
     <g id="line2d_3">
      <path d="M 92.482284 227.950125 
L 92.482284 22.318125 
" clip-path="url(#pfd756cf1e2)" style="fill: none; stroke: #7a8290; stroke-opacity: 0.18; stroke-width: 0.6; stroke-linecap: square"/>
     </g>
     <g id="line2d_4">
      <g>
       <use xlink:href="#m41b8060b01" x="92.482284" y="227.950125" style="fill: #7a8290; stroke: #7a8290; stroke-width: 0.8"/>
      </g>
     </g>
     <g id="text_2">
      <!-- 2020-10 -->
      <g style="fill: #7a8290" transform="translate(51.35752 265.168412) rotate(-30) scale(0.11 -0.11)">
       <defs>
        <path id="DejaVuSans-14" d="M 794 531 
L 1825 531 
L 1825 4091 
L 703 3866 
L 703 4441 
L 1819 4666 
L 2450 4666 
L 2450 531 
L 3481 531 
L 3481 0 
L 794 0 
L 794 531 
z
" transform="scale(0.015625)"/>
       </defs>
       <use xlink:href="#DejaVuSans-15"/>
       <use xlink:href="#DejaVuSans-13" transform="translate(63.625 0)"/>
       <use xlink:href="#DejaVuSans-15" transform="translate(127.25 0)"/>
       <use xlink:href="#DejaVuSans-13" transform="translate(190.875 0)"/>
       <use xlink:href="#DejaVuSans-10" transform="translate(254.5 0)"/>
       <use xlink:href="#DejaVuSans-14" transform="translate(290.578125 0)"/>
       <use xlink:href="#DejaVuSans-13" transform="translate(354.203125 0)"/>
      </g>
     </g>
    </g>
    <g id="xtick_3">
     <g id="line2d_5">
      <path d="M 129.479298 227.950125 
L 129.479298 22.318125 
" clip-path="url(#pfd756cf1e2)" style="fill: none; stroke: #7a8290; stroke-opacity: 0.18; stroke-width: 0.6; stroke-linecap: square"/>
     </g>
     <g id="line2d_6">
      <g>
       <use xlink:href="#m41b8060b01" x="129.479298" y="227.950125" style="fill: #7a8290; stroke: #7a8290; stroke-width: 0.8"/>
      </g>
     </g>
     <g id="text_3">
      <!-- 2021-01 -->
      <g style="fill: #7a8290" transform="translate(88.354534 265.168412) rotate(-30) scale(0.11 -0.11)">
       <use xlink:href="#DejaVuSans-15"/>
       <use xlink:href="#DejaVuSans-13" transform="translate(63.625 0)"/>
       <use xlink:href="#DejaVuSans-15" transform="translate(127.25 0)"/>
       <use xlink:href="#DejaVuSans-14" transform="translate(190.875 0)"/>
       <use xlink:href="#DejaVuSans-10" transform="translate(254.5 0)"/>
       <use xlink:href="#DejaVuSans-13" transform="translate(290.578125 0)"/>
       <use xlink:href="#DejaVuSans-14" transform="translate(354.203125 0)"/>
      </g>
     </g>
    </g>
    <g id="xtick_4">
     <g id="line2d_7">
      <path d="M 165.67203 227.950125 
L 165.67203 22.318125 
" clip-path="url(#pfd756cf1e2)" style="fill: none; stroke: #7a8290; stroke-opacity: 0.18; stroke-width: 0.6; stroke-linecap: square"/>
     </g>
     <g id="line2d_8">
      <g>
       <use xlink:href="#m41b8060b01" x="165.67203" y="227.950125" style="fill: #7a8290; stroke: #7a8290; stroke-width: 0.8"/>
      </g>
     </g>
     <g id="text_4">
      <!-- 2021-04 -->
      <g style="fill: #7a8290" transform="translate(124.547266 265.168412) rotate(-30) scale(0.11 -0.11)">
       <defs>
        <path id="DejaVuSans-17" d="M 2419 4116 
L 825 1625 
L 2419 1625 
L 2419 4116 
z
M 2253 4666 
L 3047 4666 
L 3047 1625 
L 3713 1625 
L 3713 1100 
L 3047 1100 
L 3047 0 
L 2419 0 
L 2419 1100 
L 313 1100 
L 313 1709 
L 2253 4666 
z
" transform="scale(0.015625)"/>
       </defs>
       <use xlink:href="#DejaVuSans-15"/>
       <use xlink:href="#DejaVuSans-13" transform="translate(63.625 0)"/>
       <use xlink:href="#DejaVuSans-15" transform="translate(127.25 0)"/>
       <use xlink:href="#DejaVuSans-14" transform="translate(190.875 0)"/>
       <use xlink:href="#DejaVuSans-10" transform="translate(254.5 0)"/>
       <use xlink:href="#DejaVuSans-13" transform="translate(290.578125 0)"/>
       <use xlink:href="#DejaVuSans-17" transform="translate(354.203125 0)"/>
      </g>
     </g>
    </g>
    <g id="xtick_5">
     <g id="line2d_9">
      <path d="M 202.266902 227.950125 
L 202.266902 22.318125 
" clip-path="url(#pfd756cf1e2)" style="fill: none; stroke: #7a8290; stroke-opacity: 0.18; stroke-width: 0.6; stroke-linecap: square"/>
     </g>
     <g id="line2d_10">
      <g>
       <use xlink:href="#m41b8060b01" x="202.266902" y="227.950125" style="fill: #7a8290; stroke: #7a8290; stroke-width: 0.8"/>
      </g>
     </g>
     <g id="text_5">
      <!-- 2021-07 -->
      <g style="fill: #7a8290" transform="translate(161.142139 265.168412) rotate(-30) scale(0.11 -0.11)">
       <use xlink:href="#DejaVuSans-15"/>
       <use xlink:href="#DejaVuSans-13" transform="translate(63.625 0)"/>
       <use xlink:href="#DejaVuSans-15" transform="translate(127.25 0)"/>
       <use xlink:href="#DejaVuSans-14" transform="translate(190.875 0)"/>
       <use xlink:href="#DejaVuSans-10" transform="translate(254.5 0)"/>
       <use xlink:href="#DejaVuSans-13" transform="translate(290.578125 0)"/>
       <use xlink:href="#DejaVuSans-1a" transform="translate(354.203125 0)"/>
      </g>
     </g>
    </g>
    <g id="xtick_6">
     <g id="line2d_11">
      <path d="M 239.263917 227.950125 
L 239.263917 22.318125 
" clip-path="url(#pfd756cf1e2)" style="fill: none; stroke: #7a8290; stroke-opacity: 0.18; stroke-width: 0.6; stroke-linecap: square"/>
     </g>
     <g id="line2d_12">
      <g>
       <use xlink:href="#m41b8060b01" x="239.263917" y="227.950125" style="fill: #7a8290; stroke: #7a8290; stroke-width: 0.8"/>
      </g>
     </g>
     <g id="text_6">
      <!-- 2021-10 -->
      <g style="fill: #7a8290" transform="translate(198.139153 265.168412) rotate(-30) scale(0.11 -0.11)">
       <use xlink:href="#DejaVuSans-15"/>
       <use xlink:href="#DejaVuSans-13" transform="translate(63.625 0)"/>
       <use xlink:href="#DejaVuSans-15" transform="translate(127.25 0)"/>
       <use xlink:href="#DejaVuSans-14" transform="translate(190.875 0)"/>
       <use xlink:href="#DejaVuSans-10" transform="translate(254.5 0)"/>
       <use xlink:href="#DejaVuSans-14" transform="translate(290.578125 0)"/>
       <use xlink:href="#DejaVuSans-13" transform="translate(354.203125 0)"/>
      </g>
     </g>
    </g>
    <g id="xtick_7">
     <g id="line2d_13">
      <path d="M 276.260931 227.950125 
L 276.260931 22.318125 
" clip-path="url(#pfd756cf1e2)" style="fill: none; stroke: #7a8290; stroke-opacity: 0.18; stroke-width: 0.6; stroke-linecap: square"/>
     </g>
     <g id="line2d_14">
      <g>
       <use xlink:href="#m41b8060b01" x="276.260931" y="227.950125" style="fill: #7a8290; stroke: #7a8290; stroke-width: 0.8"/>
      </g>
     </g>
     <g id="text_7">
      <!-- 2022-01 -->
      <g style="fill: #7a8290" transform="translate(235.136167 265.168412) rotate(-30) scale(0.11 -0.11)">
       <use xlink:href="#DejaVuSans-15"/>
       <use xlink:href="#DejaVuSans-13" transform="translate(63.625 0)"/>
       <use xlink:href="#DejaVuSans-15" transform="translate(127.25 0)"/>
       <use xlink:href="#DejaVuSans-15" transform="translate(190.875 0)"/>
       <use xlink:href="#DejaVuSans-10" transform="translate(254.5 0)"/>
       <use xlink:href="#DejaVuSans-13" transform="translate(290.578125 0)"/>
       <use xlink:href="#DejaVuSans-14" transform="translate(354.203125 0)"/>
      </g>
     </g>
    </g>
    <g id="xtick_8">
     <g id="line2d_15">
      <path d="M 312.453662 227.950125 
L 312.453662 22.318125 
" clip-path="url(#pfd756cf1e2)" style="fill: none; stroke: #7a8290; stroke-opacity: 0.18; stroke-width: 0.6; stroke-linecap: square"/>
     </g>
     <g id="line2d_16">
      <g>
       <use xlink:href="#m41b8060b01" x="312.453662" y="227.950125" style="fill: #7a8290; stroke: #7a8290; stroke-width: 0.8"/>
      </g>
     </g>
     <g id="text_8">
      <!-- 2022-04 -->
      <g style="fill: #7a8290" transform="translate(271.328899 265.168412) rotate(-30) scale(0.11 -0.11)">
       <use xlink:href="#DejaVuSans-15"/>
       <use xlink:href="#DejaVuSans-13" transform="translate(63.625 0)"/>
       <use xlink:href="#DejaVuSans-15" transform="translate(127.25 0)"/>
       <use xlink:href="#DejaVuSans-15" transform="translate(190.875 0)"/>
       <use xlink:href="#DejaVuSans-10" transform="translate(254.5 0)"/>
       <use xlink:href="#DejaVuSans-13" transform="translate(290.578125 0)"/>
       <use xlink:href="#DejaVuSans-17" transform="translate(354.203125 0)"/>
      </g>
     </g>
    </g>
    <g id="xtick_9">
     <g id="line2d_17">
      <path d="M 349.048535 227.950125 
L 349.048535 22.318125 
" clip-path="url(#pfd756cf1e2)" style="fill: none; stroke: #7a8290; stroke-opacity: 0.18; stroke-width: 0.6; stroke-linecap: square"/>
     </g>
     <g id="line2d_18">
      <g>
       <use xlink:href="#m41b8060b01" x="349.048535" y="227.950125" style="fill: #7a8290; stroke: #7a8290; stroke-width: 0.8"/>
      </g>
     </g>
     <g id="text_9">
      <!-- 2022-07 -->
      <g style="fill: #7a8290" transform="translate(307.923771 265.168412) rotate(-30) scale(0.11 -0.11)">
       <use xlink:href="#DejaVuSans-15"/>
       <use xlink:href="#DejaVuSans-13" transform="translate(63.625 0)"/>
       <use xlink:href="#DejaVuSans-15" transform="translate(127.25 0)"/>
       <use xlink:href="#DejaVuSans-15" transform="translate(190.875 0)"/>
       <use xlink:href="#DejaVuSans-10" transform="translate(254.5 0)"/>
       <use xlink:href="#DejaVuSans-13" transform="translate(290.578125 0)"/>
       <use xlink:href="#DejaVuSans-1a" transform="translate(354.203125 0)"/>
      </g>
     </g>
    </g>
    <g id="xtick_10">
     <g id="line2d_19">
      <path d="M 386.04555 227.950125 
L 386.04555 22.318125 
" clip-path="url(#pfd756cf1e2)" style="fill: none; stroke: #7a8290; stroke-opacity: 0.18; stroke-width: 0.6; stroke-linecap: square"/>
     </g>
     <g id="line2d_20">
      <g>
       <use xlink:href="#m41b8060b01" x="386.04555" y="227.950125" style="fill: #7a8290; stroke: #7a8290; stroke-width: 0.8"/>
      </g>
     </g>
     <g id="text_10">
      <!-- 2022-10 -->
      <g style="fill: #7a8290" transform="translate(344.920786 265.168412) rotate(-30) scale(0.11 -0.11)">
       <use xlink:href="#DejaVuSans-15"/>
       <use xlink:href="#DejaVuSans-13" transform="translate(63.625 0)"/>
       <use xlink:href="#DejaVuSans-15" transform="translate(127.25 0)"/>
       <use xlink:href="#DejaVuSans-15" transform="translate(190.875 0)"/>
       <use xlink:href="#DejaVuSans-10" transform="translate(254.5 0)"/>
       <use xlink:href="#DejaVuSans-14" transform="translate(290.578125 0)"/>
       <use xlink:href="#DejaVuSans-13" transform="translate(354.203125 0)"/>
      </g>
     </g>
    </g>
    <g id="xtick_11">
     <g id="line2d_21">
      <path d="M 423.042564 227.950125 
L 423.042564 22.318125 
" clip-path="url(#pfd756cf1e2)" style="fill: none; stroke: #7a8290; stroke-opacity: 0.18; stroke-width: 0.6; stroke-linecap: square"/>
     </g>
     <g id="line2d_22">
      <g>
       <use xlink:href="#m41b8060b01" x="423.042564" y="227.950125" style="fill: #7a8290; stroke: #7a8290; stroke-width: 0.8"/>
      </g>
     </g>
     <g id="text_11">
      <!-- 2023-01 -->
      <g style="fill: #7a8290" transform="translate(381.9178 265.168412) rotate(-30) scale(0.11 -0.11)">
       <defs>
        <path id="DejaVuSans-16" d="M 2597 2516 
Q 3050 2419 3304 2112 
Q 3559 1806 3559 1356 
Q 3559 666 3084 287 
Q 2609 -91 1734 -91 
Q 1441 -91 1130 -33 
Q 819 25 488 141 
L 488 750 
Q 750 597 1062 519 
Q 1375 441 1716 441 
Q 2309 441 2620 675 
Q 2931 909 2931 1356 
Q 2931 1769 2642 2001 
Q 2353 2234 1838 2234 
L 1294 2234 
L 1294 2753 
L 1863 2753 
Q 2328 2753 2575 2939 
Q 2822 3125 2822 3475 
Q 2822 3834 2567 4026 
Q 2313 4219 1838 4219 
Q 1578 4219 1281 4162 
Q 984 4106 628 3988 
L 628 4550 
Q 988 4650 1302 4700 
Q 1616 4750 1894 4750 
Q 2613 4750 3031 4423 
Q 3450 4097 3450 3541 
Q 3450 3153 3228 2886 
Q 3006 2619 2597 2516 
z
" transform="scale(0.015625)"/>
       </defs>
       <use xlink:href="#DejaVuSans-15"/>
       <use xlink:href="#DejaVuSans-13" transform="translate(63.625 0)"/>
       <use xlink:href="#DejaVuSans-15" transform="translate(127.25 0)"/>
       <use xlink:href="#DejaVuSans-16" transform="translate(190.875 0)"/>
       <use xlink:href="#DejaVuSans-10" transform="translate(254.5 0)"/>
       <use xlink:href="#DejaVuSans-13" transform="translate(290.578125 0)"/>
       <use xlink:href="#DejaVuSans-14" transform="translate(354.203125 0)"/>
      </g>
     </g>
    </g>
    <g id="text_12">
     <!-- Reference month -->
     <g style="fill: #7a8290" transform="translate(198.201406 279.815233) scale(0.11 -0.11)">
      <defs>
       <path id="DejaVuSans-35" d="M 2841 2188 
Q 3044 2119 3236 1894 
Q 3428 1669 3622 1275 
L 4263 0 
L 3584 0 
L 2988 1197 
Q 2756 1666 2539 1819 
Q 2322 1972 1947 1972 
L 1259 1972 
L 1259 0 
L 628 0 
L 628 4666 
L 2053 4666 
Q 2853 4666 3247 4331 
Q 3641 3997 3641 3322 
Q 3641 2881 3436 2590 
Q 3231 2300 2841 2188 
z
M 1259 4147 
L 1259 2491 
L 2053 2491 
Q 2509 2491 2742 2702 
Q 2975 2913 2975 3322 
Q 2975 3731 2742 3939 
Q 2509 4147 2053 4147 
L 1259 4147 
z
" transform="scale(0.015625)"/>
       <path id="DejaVuSans-48" d="M 3597 1894 
L 3597 1613 
L 953 1613 
Q 991 1019 1311 708 
Q 1631 397 2203 397 
Q 2534 397 2845 478 
Q 3156 559 3463 722 
L 3463 178 
Q 3153 47 2828 -22 
Q 2503 -91 2169 -91 
Q 1331 -91 842 396 
Q 353 884 353 1716 
Q 353 2575 817 3079 
Q 1281 3584 2069 3584 
Q 2775 3584 3186 3129 
Q 3597 2675 3597 1894 
z
M 3022 2063 
Q 3016 2534 2758 2815 
Q 2500 3097 2075 3097 
Q 1594 3097 1305 2825 
Q 1016 2553 972 2059 
L 3022 2063 
z
" transform="scale(0.015625)"/>
       <path id="DejaVuSans-49" d="M 2375 4863 
L 2375 4384 
L 1825 4384 
Q 1516 4384 1395 4259 
Q 1275 4134 1275 3809 
L 1275 3500 
L 2222 3500 
L 2222 3053 
L 1275 3053 
L 1275 0 
L 697 0 
L 697 3053 
L 147 3053 
L 147 3500 
L 697 3500 
L 697 3744 
Q 697 4328 969 4595 
Q 1241 4863 1831 4863 
L 2375 4863 
z
" transform="scale(0.015625)"/>
       <path id="DejaVuSans-55" d="M 2631 2963 
Q 2534 3019 2420 3045 
Q 2306 3072 2169 3072 
Q 1681 3072 1420 2755 
Q 1159 2438 1159 1844 
L 1159 0 
L 581 0 
L 581 3500 
L 1159 3500 
L 1159 2956 
Q 1341 3275 1631 3429 
Q 1922 3584 2338 3584 
Q 2397 3584 2469 3576 
Q 2541 3569 2628 3553 
L 2631 2963 
z
" transform="scale(0.015625)"/>
       <path id="DejaVuSans-51" d="M 3513 2113 
L 3513 0 
L 2938 0 
L 2938 2094 
Q 2938 2591 2744 2837 
Q 2550 3084 2163 3084 
Q 1697 3084 1428 2787 
Q 1159 2491 1159 1978 
L 1159 0 
L 581 0 
L 581 3500 
L 1159 3500 
L 1159 2956 
Q 1366 3272 1645 3428 
Q 1925 3584 2291 3584 
Q 2894 3584 3203 3211 
Q 3513 2838 3513 2113 
z
" transform="scale(0.015625)"/>
       <path id="DejaVuSans-46" d="M 3122 3366 
L 3122 2828 
Q 2878 2963 2633 3030 
Q 2388 3097 2138 3097 
Q 1578 3097 1268 2742 
Q 959 2388 959 1747 
Q 959 1106 1268 751 
Q 1578 397 2138 397 
Q 2388 397 2633 464 
Q 2878 531 3122 666 
L 3122 134 
Q 2881 22 2623 -34 
Q 2366 -91 2075 -91 
Q 1284 -91 818 406 
Q 353 903 353 1747 
Q 353 2603 823 3093 
Q 1294 3584 2113 3584 
Q 2378 3584 2631 3529 
Q 2884 3475 3122 3366 
z
" transform="scale(0.015625)"/>
       <path id="DejaVuSans-3" transform="scale(0.015625)"/>
       <path id="DejaVuSans-50" d="M 3328 2828 
Q 3544 3216 3844 3400 
Q 4144 3584 4550 3584 
Q 5097 3584 5394 3201 
Q 5691 2819 5691 2113 
L 5691 0 
L 5113 0 
L 5113 2094 
Q 5113 2597 4934 2840 
Q 4756 3084 4391 3084 
Q 3944 3084 3684 2787 
Q 3425 2491 3425 1978 
L 3425 0 
L 2847 0 
L 2847 2094 
Q 2847 2600 2669 2842 
Q 2491 3084 2119 3084 
Q 1678 3084 1418 2786 
Q 1159 2488 1159 1978 
L 1159 0 
L 581 0 
L 581 3500 
L 1159 3500 
L 1159 2956 
Q 1356 3278 1631 3431 
Q 1906 3584 2284 3584 
Q 2666 3584 2933 3390 
Q 3200 3197 3328 2828 
z
" transform="scale(0.015625)"/>
       <path id="DejaVuSans-52" d="M 1959 3097 
Q 1497 3097 1228 2736 
Q 959 2375 959 1747 
Q 959 1119 1226 758 
Q 1494 397 1959 397 
Q 2419 397 2687 759 
Q 2956 1122 2956 1747 
Q 2956 2369 2687 2733 
Q 2419 3097 1959 3097 
z
M 1959 3584 
Q 2709 3584 3137 3096 
Q 3566 2609 3566 1747 
Q 3566 888 3137 398 
Q 2709 -91 1959 -91 
Q 1206 -91 779 398 
Q 353 888 353 1747 
Q 353 2609 779 3096 
Q 1206 3584 1959 3584 
z
" transform="scale(0.015625)"/>
       <path id="DejaVuSans-57" d="M 1172 4494 
L 1172 3500 
L 2356 3500 
L 2356 3053 
L 1172 3053 
L 1172 1153 
Q 1172 725 1289 603 
Q 1406 481 1766 481 
L 2356 481 
L 2356 0 
L 1766 0 
Q 1100 0 847 248 
Q 594 497 594 1153 
L 594 3053 
L 172 3053 
L 172 3500 
L 594 3500 
L 594 4494 
L 1172 4494 
z
" transform="scale(0.015625)"/>
       <path id="DejaVuSans-4b" d="M 3513 2113 
L 3513 0 
L 2938 0 
L 2938 2094 
Q 2938 2591 2744 2837 
Q 2550 3084 2163 3084 
Q 1697 3084 1428 2787 
Q 1159 2491 1159 1978 
L 1159 0 
L 581 0 
L 581 4863 
L 1159 4863 
L 1159 2956 
Q 1366 3272 1645 3428 
Q 1925 3584 2291 3584 
Q 2894 3584 3203 3211 
Q 3513 2838 3513 2113 
z
" transform="scale(0.015625)"/>
      </defs>
      <use xlink:href="#DejaVuSans-35"/>
      <use xlink:href="#DejaVuSans-48" transform="translate(65 0)"/>
      <use xlink:href="#DejaVuSans-49" transform="translate(126.53125 0)"/>
      <use xlink:href="#DejaVuSans-48" transform="translate(161.734375 0)"/>
      <use xlink:href="#DejaVuSans-55" transform="translate(223.265625 0)"/>
      <use xlink:href="#DejaVuSans-48" transform="translate(262.171875 0)"/>
      <use xlink:href="#DejaVuSans-51" transform="translate(323.703125 0)"/>
      <use xlink:href="#DejaVuSans-46" transform="translate(387.078125 0)"/>
      <use xlink:href="#DejaVuSans-48" transform="translate(442.0625 0)"/>
      <use xlink:href="#DejaVuSans-3" transform="translate(503.59375 0)"/>
      <use xlink:href="#DejaVuSans-50" transform="translate(535.375 0)"/>
      <use xlink:href="#DejaVuSans-52" transform="translate(632.78125 0)"/>
      <use xlink:href="#DejaVuSans-51" transform="translate(693.96875 0)"/>
      <use xlink:href="#DejaVuSans-57" transform="translate(757.34375 0)"/>
      <use xlink:href="#DejaVuSans-4b" transform="translate(796.546875 0)"/>
     </g>
    </g>
   </g>
   <g id="matplotlib.axis_2">
    <g id="ytick_1">
     <g id="line2d_23">
      <path d="M 50.197109 216.770409 
L 440.797109 216.770409 
" clip-path="url(#pfd756cf1e2)" style="fill: none; stroke: #7a8290; stroke-opacity: 0.18; stroke-width: 0.6; stroke-linecap: square"/>
     </g>
     <g id="line2d_24">
      <defs>
       <path id="m32512ea216" d="M 0 0 
L -3.5 0 
" style="stroke: #7a8290; stroke-width: 0.8"/>
      </defs>
      <g>
       <use xlink:href="#m32512ea216" x="50.197109" y="216.770409" style="fill: #7a8290; stroke: #7a8290; stroke-width: 0.8"/>
      </g>
     </g>
     <g id="text_13">
      <!-- 20 -->
      <g style="fill: #7a8290" transform="translate(29.199609 220.94912) scale(0.11 -0.11)">
       <use xlink:href="#DejaVuSans-15"/>
       <use xlink:href="#DejaVuSans-13" transform="translate(63.625 0)"/>
      </g>
     </g>
    </g>
    <g id="ytick_2">
     <g id="line2d_25">
      <path d="M 50.197109 193.687204 
L 440.797109 193.687204 
" clip-path="url(#pfd756cf1e2)" style="fill: none; stroke: #7a8290; stroke-opacity: 0.18; stroke-width: 0.6; stroke-linecap: square"/>
     </g>
     <g id="line2d_26">
      <g>
       <use xlink:href="#m32512ea216" x="50.197109" y="193.687204" style="fill: #7a8290; stroke: #7a8290; stroke-width: 0.8"/>
      </g>
     </g>
     <g id="text_14">
      <!-- 30 -->
      <g style="fill: #7a8290" transform="translate(29.199609 197.865915) scale(0.11 -0.11)">
       <use xlink:href="#DejaVuSans-16"/>
       <use xlink:href="#DejaVuSans-13" transform="translate(63.625 0)"/>
      </g>
     </g>
    </g>
    <g id="ytick_3">
     <g id="line2d_27">
      <path d="M 50.197109 170.603999 
L 440.797109 170.603999 
" clip-path="url(#pfd756cf1e2)" style="fill: none; stroke: #7a8290; stroke-opacity: 0.18; stroke-width: 0.6; stroke-linecap: square"/>
     </g>
     <g id="line2d_28">
      <g>
       <use xlink:href="#m32512ea216" x="50.197109" y="170.603999" style="fill: #7a8290; stroke: #7a8290; stroke-width: 0.8"/>
      </g>
     </g>
     <g id="text_15">
      <!-- 40 -->
      <g style="fill: #7a8290" transform="translate(29.199609 174.78271) scale(0.11 -0.11)">
       <use xlink:href="#DejaVuSans-17"/>
       <use xlink:href="#DejaVuSans-13" transform="translate(63.625 0)"/>
      </g>
     </g>
    </g>
    <g id="ytick_4">
     <g id="line2d_29">
      <path d="M 50.197109 147.520794 
L 440.797109 147.520794 
" clip-path="url(#pfd756cf1e2)" style="fill: none; stroke: #7a8290; stroke-opacity: 0.18; stroke-width: 0.6; stroke-linecap: square"/>
     </g>
     <g id="line2d_30">
      <g>
       <use xlink:href="#m32512ea216" x="50.197109" y="147.520794" style="fill: #7a8290; stroke: #7a8290; stroke-width: 0.8"/>
      </g>
     </g>
     <g id="text_16">
      <!-- 50 -->
      <g style="fill: #7a8290" transform="translate(29.199609 151.699505) scale(0.11 -0.11)">
       <defs>
        <path id="DejaVuSans-18" d="M 691 4666 
L 3169 4666 
L 3169 4134 
L 1269 4134 
L 1269 2991 
Q 1406 3038 1543 3061 
Q 1681 3084 1819 3084 
Q 2600 3084 3056 2656 
Q 3513 2228 3513 1497 
Q 3513 744 3044 326 
Q 2575 -91 1722 -91 
Q 1428 -91 1123 -41 
Q 819 9 494 109 
L 494 744 
Q 775 591 1075 516 
Q 1375 441 1709 441 
Q 2250 441 2565 725 
Q 2881 1009 2881 1497 
Q 2881 1984 2565 2268 
Q 2250 2553 1709 2553 
Q 1456 2553 1204 2497 
Q 953 2441 691 2322 
L 691 4666 
z
" transform="scale(0.015625)"/>
       </defs>
       <use xlink:href="#DejaVuSans-18"/>
       <use xlink:href="#DejaVuSans-13" transform="translate(63.625 0)"/>
      </g>
     </g>
    </g>
    <g id="ytick_5">
     <g id="line2d_31">
      <path d="M 50.197109 124.437589 
L 440.797109 124.437589 
" clip-path="url(#pfd756cf1e2)" style="fill: none; stroke: #7a8290; stroke-opacity: 0.18; stroke-width: 0.6; stroke-linecap: square"/>
     </g>
     <g id="line2d_32">
      <g>
       <use xlink:href="#m32512ea216" x="50.197109" y="124.437589" style="fill: #7a8290; stroke: #7a8290; stroke-width: 0.8"/>
      </g>
     </g>
     <g id="text_17">
      <!-- 60 -->
      <g style="fill: #7a8290" transform="translate(29.199609 128.6163) scale(0.11 -0.11)">
       <defs>
        <path id="DejaVuSans-19" d="M 2113 2584 
Q 1688 2584 1439 2293 
Q 1191 2003 1191 1497 
Q 1191 994 1439 701 
Q 1688 409 2113 409 
Q 2538 409 2786 701 
Q 3034 994 3034 1497 
Q 3034 2003 2786 2293 
Q 2538 2584 2113 2584 
z
M 3366 4563 
L 3366 3988 
Q 3128 4100 2886 4159 
Q 2644 4219 2406 4219 
Q 1781 4219 1451 3797 
Q 1122 3375 1075 2522 
Q 1259 2794 1537 2939 
Q 1816 3084 2150 3084 
Q 2853 3084 3261 2657 
Q 3669 2231 3669 1497 
Q 3669 778 3244 343 
Q 2819 -91 2113 -91 
Q 1303 -91 875 529 
Q 447 1150 447 2328 
Q 447 3434 972 4092 
Q 1497 4750 2381 4750 
Q 2619 4750 2861 4703 
Q 3103 4656 3366 4563 
z
" transform="scale(0.015625)"/>
       </defs>
       <use xlink:href="#DejaVuSans-19"/>
       <use xlink:href="#DejaVuSans-13" transform="translate(63.625 0)"/>
      </g>
     </g>
    </g>
    <g id="ytick_6">
     <g id="line2d_33">
      <path d="M 50.197109 101.354384 
L 440.797109 101.354384 
" clip-path="url(#pfd756cf1e2)" style="fill: none; stroke: #7a8290; stroke-opacity: 0.18; stroke-width: 0.6; stroke-linecap: square"/>
     </g>
     <g id="line2d_34">
      <g>
       <use xlink:href="#m32512ea216" x="50.197109" y="101.354384" style="fill: #7a8290; stroke: #7a8290; stroke-width: 0.8"/>
      </g>
     </g>
     <g id="text_18">
      <!-- 70 -->
      <g style="fill: #7a8290" transform="translate(29.199609 105.533095) scale(0.11 -0.11)">
       <use xlink:href="#DejaVuSans-1a"/>
       <use xlink:href="#DejaVuSans-13" transform="translate(63.625 0)"/>
      </g>
     </g>
    </g>
    <g id="ytick_7">
     <g id="line2d_35">
      <path d="M 50.197109 78.271179 
L 440.797109 78.271179 
" clip-path="url(#pfd756cf1e2)" style="fill: none; stroke: #7a8290; stroke-opacity: 0.18; stroke-width: 0.6; stroke-linecap: square"/>
     </g>
     <g id="line2d_36">
      <g>
       <use xlink:href="#m32512ea216" x="50.197109" y="78.271179" style="fill: #7a8290; stroke: #7a8290; stroke-width: 0.8"/>
      </g>
     </g>
     <g id="text_19">
      <!-- 80 -->
      <g style="fill: #7a8290" transform="translate(29.199609 82.44989) scale(0.11 -0.11)">
       <defs>
        <path id="DejaVuSans-1b" d="M 2034 2216 
Q 1584 2216 1326 1975 
Q 1069 1734 1069 1313 
Q 1069 891 1326 650 
Q 1584 409 2034 409 
Q 2484 409 2743 651 
Q 3003 894 3003 1313 
Q 3003 1734 2745 1975 
Q 2488 2216 2034 2216 
z
M 1403 2484 
Q 997 2584 770 2862 
Q 544 3141 544 3541 
Q 544 4100 942 4425 
Q 1341 4750 2034 4750 
Q 2731 4750 3128 4425 
Q 3525 4100 3525 3541 
Q 3525 3141 3298 2862 
Q 3072 2584 2669 2484 
Q 3125 2378 3379 2068 
Q 3634 1759 3634 1313 
Q 3634 634 3220 271 
Q 2806 -91 2034 -91 
Q 1263 -91 848 271 
Q 434 634 434 1313 
Q 434 1759 690 2068 
Q 947 2378 1403 2484 
z
M 1172 3481 
Q 1172 3119 1398 2916 
Q 1625 2713 2034 2713 
Q 2441 2713 2670 2916 
Q 2900 3119 2900 3481 
Q 2900 3844 2670 4047 
Q 2441 4250 2034 4250 
Q 1625 4250 1398 4047 
Q 1172 3844 1172 3481 
z
" transform="scale(0.015625)"/>
       </defs>
       <use xlink:href="#DejaVuSans-1b"/>
       <use xlink:href="#DejaVuSans-13" transform="translate(63.625 0)"/>
      </g>
     </g>
    </g>
    <g id="ytick_8">
     <g id="line2d_37">
      <path d="M 50.197109 55.187974 
L 440.797109 55.187974 
" clip-path="url(#pfd756cf1e2)" style="fill: none; stroke: #7a8290; stroke-opacity: 0.18; stroke-width: 0.6; stroke-linecap: square"/>
     </g>
     <g id="line2d_38">
      <g>
       <use xlink:href="#m32512ea216" x="50.197109" y="55.187974" style="fill: #7a8290; stroke: #7a8290; stroke-width: 0.8"/>
      </g>
     </g>
     <g id="text_20">
      <!-- 90 -->
      <g style="fill: #7a8290" transform="translate(29.199609 59.366685) scale(0.11 -0.11)">
       <defs>
        <path id="DejaVuSans-1c" d="M 703 97 
L 703 672 
Q 941 559 1184 500 
Q 1428 441 1663 441 
Q 2288 441 2617 861 
Q 2947 1281 2994 2138 
Q 2813 1869 2534 1725 
Q 2256 1581 1919 1581 
Q 1219 1581 811 2004 
Q 403 2428 403 3163 
Q 403 3881 828 4315 
Q 1253 4750 1959 4750 
Q 2769 4750 3195 4129 
Q 3622 3509 3622 2328 
Q 3622 1225 3098 567 
Q 2575 -91 1691 -91 
Q 1453 -91 1209 -44 
Q 966 3 703 97 
z
M 1959 2075 
Q 2384 2075 2632 2365 
Q 2881 2656 2881 3163 
Q 2881 3666 2632 3958 
Q 2384 4250 1959 4250 
Q 1534 4250 1286 3958 
Q 1038 3666 1038 3163 
Q 1038 2656 1286 2365 
Q 1534 2075 1959 2075 
z
" transform="scale(0.015625)"/>
       </defs>
       <use xlink:href="#DejaVuSans-1c"/>
       <use xlink:href="#DejaVuSans-13" transform="translate(63.625 0)"/>
      </g>
     </g>
    </g>
    <g id="ytick_9">
     <g id="line2d_39">
      <path d="M 50.197109 32.104769 
L 440.797109 32.104769 
" clip-path="url(#pfd756cf1e2)" style="fill: none; stroke: #7a8290; stroke-opacity: 0.18; stroke-width: 0.6; stroke-linecap: square"/>
     </g>
     <g id="line2d_40">
      <g>
       <use xlink:href="#m32512ea216" x="50.197109" y="32.104769" style="fill: #7a8290; stroke: #7a8290; stroke-width: 0.8"/>
      </g>
     </g>
     <g id="text_21">
      <!-- 100 -->
      <g style="fill: #7a8290" transform="translate(22.200859 36.28348) scale(0.11 -0.11)">
       <use xlink:href="#DejaVuSans-14"/>
       <use xlink:href="#DejaVuSans-13" transform="translate(63.625 0)"/>
       <use xlink:href="#DejaVuSans-13" transform="translate(127.25 0)"/>
      </g>
     </g>
    </g>
    <g id="text_22">
     <!-- Median price (R$ thousands) -->
     <g style="fill: #7a8290" transform="translate(15.558281 204.255922) rotate(-90) scale(0.11 -0.11)">
      <defs>
       <path id="DejaVuSans-30" d="M 628 4666 
L 1569 4666 
L 2759 1491 
L 3956 4666 
L 4897 4666 
L 4897 0 
L 4281 0 
L 4281 4097 
L 3078 897 
L 2444 897 
L 1241 4097 
L 1241 0 
L 628 0 
L 628 4666 
z
" transform="scale(0.015625)"/>
       <path id="DejaVuSans-47" d="M 2906 2969 
L 2906 4863 
L 3481 4863 
L 3481 0 
L 2906 0 
L 2906 525 
Q 2725 213 2448 61 
Q 2172 -91 1784 -91 
Q 1150 -91 751 415 
Q 353 922 353 1747 
Q 353 2572 751 3078 
Q 1150 3584 1784 3584 
Q 2172 3584 2448 3432 
Q 2725 3281 2906 2969 
z
M 947 1747 
Q 947 1113 1208 752 
Q 1469 391 1925 391 
Q 2381 391 2643 752 
Q 2906 1113 2906 1747 
Q 2906 2381 2643 2742 
Q 2381 3103 1925 3103 
Q 1469 3103 1208 2742 
Q 947 2381 947 1747 
z
" transform="scale(0.015625)"/>
       <path id="DejaVuSans-4c" d="M 603 3500 
L 1178 3500 
L 1178 0 
L 603 0 
L 603 3500 
z
M 603 4863 
L 1178 4863 
L 1178 4134 
L 603 4134 
L 603 4863 
z
" transform="scale(0.015625)"/>
       <path id="DejaVuSans-44" d="M 2194 1759 
Q 1497 1759 1228 1600 
Q 959 1441 959 1056 
Q 959 750 1161 570 
Q 1363 391 1709 391 
Q 2188 391 2477 730 
Q 2766 1069 2766 1631 
L 2766 1759 
L 2194 1759 
z
M 3341 1997 
L 3341 0 
L 2766 0 
L 2766 531 
Q 2569 213 2275 61 
Q 1981 -91 1556 -91 
Q 1019 -91 701 211 
Q 384 513 384 1019 
Q 384 1609 779 1909 
Q 1175 2209 1959 2209 
L 2766 2209 
L 2766 2266 
Q 2766 2663 2505 2880 
Q 2244 3097 1772 3097 
Q 1472 3097 1187 3025 
Q 903 2953 641 2809 
L 641 3341 
Q 956 3463 1253 3523 
Q 1550 3584 1831 3584 
Q 2591 3584 2966 3190 
Q 3341 2797 3341 1997 
z
" transform="scale(0.015625)"/>
       <path id="DejaVuSans-53" d="M 1159 525 
L 1159 -1331 
L 581 -1331 
L 581 3500 
L 1159 3500 
L 1159 2969 
Q 1341 3281 1617 3432 
Q 1894 3584 2278 3584 
Q 2916 3584 3314 3078 
Q 3713 2572 3713 1747 
Q 3713 922 3314 415 
Q 2916 -91 2278 -91 
Q 1894 -91 1617 61 
Q 1341 213 1159 525 
z
M 3116 1747 
Q 3116 2381 2855 2742 
Q 2594 3103 2138 3103 
Q 1681 3103 1420 2742 
Q 1159 2381 1159 1747 
Q 1159 1113 1420 752 
Q 1681 391 2138 391 
Q 2594 391 2855 752 
Q 3116 1113 3116 1747 
z
" transform="scale(0.015625)"/>
       <path id="DejaVuSans-b" d="M 1984 4856 
Q 1566 4138 1362 3434 
Q 1159 2731 1159 2009 
Q 1159 1288 1364 580 
Q 1569 -128 1984 -844 
L 1484 -844 
Q 1016 -109 783 600 
Q 550 1309 550 2009 
Q 550 2706 781 3412 
Q 1013 4119 1484 4856 
L 1984 4856 
z
" transform="scale(0.015625)"/>
       <path id="DejaVuSans-7" d="M 2163 -941 
L 1850 -941 
L 1847 0 
Q 1519 6 1191 76 
Q 863 147 531 288 
L 531 850 
Q 850 650 1176 548 
Q 1503 447 1850 444 
L 1850 1869 
Q 1159 1981 845 2250 
Q 531 2519 531 2988 
Q 531 3497 872 3790 
Q 1213 4084 1850 4128 
L 1850 4863 
L 2163 4863 
L 2163 4138 
Q 2453 4125 2725 4076 
Q 2997 4028 3256 3944 
L 3256 3397 
Q 2997 3528 2723 3600 
Q 2450 3672 2163 3684 
L 2163 2350 
Q 2872 2241 3206 1959 
Q 3541 1678 3541 1191 
Q 3541 663 3186 358 
Q 2831 53 2163 6 
L 2163 -941 
z
M 1850 2406 
L 1850 3688 
Q 1488 3647 1297 3481 
Q 1106 3316 1106 3041 
Q 1106 2772 1282 2622 
Q 1459 2472 1850 2406 
z
M 2163 1806 
L 2163 453 
Q 2559 506 2761 678 
Q 2963 850 2963 1131 
Q 2963 1406 2770 1568 
Q 2578 1731 2163 1806 
z
" transform="scale(0.015625)"/>
       <path id="DejaVuSans-58" d="M 544 1381 
L 544 3500 
L 1119 3500 
L 1119 1403 
Q 1119 906 1312 657 
Q 1506 409 1894 409 
Q 2359 409 2629 706 
Q 2900 1003 2900 1516 
L 2900 3500 
L 3475 3500 
L 3475 0 
L 2900 0 
L 2900 538 
Q 2691 219 2414 64 
Q 2138 -91 1772 -91 
Q 1169 -91 856 284 
Q 544 659 544 1381 
z
M 1991 3584 
L 1991 3584 
z
" transform="scale(0.015625)"/>
       <path id="DejaVuSans-56" d="M 2834 3397 
L 2834 2853 
Q 2591 2978 2328 3040 
Q 2066 3103 1784 3103 
Q 1356 3103 1142 2972 
Q 928 2841 928 2578 
Q 928 2378 1081 2264 
Q 1234 2150 1697 2047 
L 1894 2003 
Q 2506 1872 2764 1633 
Q 3022 1394 3022 966 
Q 3022 478 2636 193 
Q 2250 -91 1575 -91 
Q 1294 -91 989 -36 
Q 684 19 347 128 
L 347 722 
Q 666 556 975 473 
Q 1284 391 1588 391 
Q 1994 391 2212 530 
Q 2431 669 2431 922 
Q 2431 1156 2273 1281 
Q 2116 1406 1581 1522 
L 1381 1569 
Q 847 1681 609 1914 
Q 372 2147 372 2553 
Q 372 3047 722 3315 
Q 1072 3584 1716 3584 
Q 2034 3584 2315 3537 
Q 2597 3491 2834 3397 
z
" transform="scale(0.015625)"/>
       <path id="DejaVuSans-c" d="M 513 4856 
L 1013 4856 
Q 1481 4119 1714 3412 
Q 1947 2706 1947 2009 
Q 1947 1309 1714 600 
Q 1481 -109 1013 -844 
L 513 -844 
Q 928 -128 1133 580 
Q 1338 1288 1338 2009 
Q 1338 2731 1133 3434 
Q 928 4138 513 4856 
z
" transform="scale(0.015625)"/>
      </defs>
      <use xlink:href="#DejaVuSans-30"/>
      <use xlink:href="#DejaVuSans-48" transform="translate(86.28125 0)"/>
      <use xlink:href="#DejaVuSans-47" transform="translate(147.8125 0)"/>
      <use xlink:href="#DejaVuSans-4c" transform="translate(211.296875 0)"/>
      <use xlink:href="#DejaVuSans-44" transform="translate(239.078125 0)"/>
      <use xlink:href="#DejaVuSans-51" transform="translate(300.359375 0)"/>
      <use xlink:href="#DejaVuSans-3" transform="translate(363.734375 0)"/>
      <use xlink:href="#DejaVuSans-53" transform="translate(395.515625 0)"/>
      <use xlink:href="#DejaVuSans-55" transform="translate(459 0)"/>
      <use xlink:href="#DejaVuSans-4c" transform="translate(500.109375 0)"/>
      <use xlink:href="#DejaVuSans-46" transform="translate(527.890625 0)"/>
      <use xlink:href="#DejaVuSans-48" transform="translate(582.875 0)"/>
      <use xlink:href="#DejaVuSans-3" transform="translate(644.40625 0)"/>
      <use xlink:href="#DejaVuSans-b" transform="translate(676.1875 0)"/>
      <use xlink:href="#DejaVuSans-35" transform="translate(715.203125 0)"/>
      <use xlink:href="#DejaVuSans-7" transform="translate(784.6875 0)"/>
      <use xlink:href="#DejaVuSans-3" transform="translate(848.3125 0)"/>
      <use xlink:href="#DejaVuSans-57" transform="translate(880.09375 0)"/>
      <use xlink:href="#DejaVuSans-4b" transform="translate(919.296875 0)"/>
      <use xlink:href="#DejaVuSans-52" transform="translate(982.671875 0)"/>
      <use xlink:href="#DejaVuSans-58" transform="translate(1043.859375 0)"/>
      <use xlink:href="#DejaVuSans-56" transform="translate(1107.234375 0)"/>
      <use xlink:href="#DejaVuSans-44" transform="translate(1159.328125 0)"/>
      <use xlink:href="#DejaVuSans-51" transform="translate(1220.609375 0)"/>
      <use xlink:href="#DejaVuSans-47" transform="translate(1283.984375 0)"/>
      <use xlink:href="#DejaVuSans-56" transform="translate(1347.46875 0)"/>
      <use xlink:href="#DejaVuSans-c" transform="translate(1399.5625 0)"/>
     </g>
    </g>
   </g>
   <g id="line2d_41">
    <path d="M 80.41804 166.288594 
L 92.482284 165.701127 
L 104.948669 164.943997 
L 117.012913 162.554886 
L 129.479298 161.890089 
L 141.945683 161.398417 
L 153.205644 158.5084 
L 165.67203 155.911539 
L 177.736273 153.744026 
L 190.202659 151.294898 
L 202.266902 147.876276 
L 214.733288 145.61643 
L 227.199673 143.309264 
L 239.263917 140.5866 
L 251.730302 138.756101 
L 263.794546 134.670374 
L 276.260931 132.2224 
L 288.727316 127.269899 
L 299.987277 123.878976 
L 312.453662 125.367842 
L 324.517906 122.363563 
L 336.984292 122.554 
L 349.048535 124.324482 
L 361.514921 124.287548 
L 373.981306 123.883592 
L 386.04555 124.125966 
L 398.511935 121.099758 
L 410.576179 123.948225 
L 423.042564 121.20017 
" clip-path="url(#pfd756cf1e2)" style="fill: none; stroke: #0072b2; stroke-width: 1.6; stroke-linecap: square"/>
    <defs>
     <path id="mf7f76cb0ef" d="M 0 2 
C 0.530406 2 1.03916 1.789267 1.414214 1.414214 
C 1.789267 1.03916 2 0.530406 2 0 
C 2 -0.530406 1.789267 -1.03916 1.414214 -1.414214 
C 1.03916 -1.789267 0.530406 -2 0 -2 
C -0.530406 -2 -1.03916 -1.789267 -1.414214 -1.414214 
C -1.789267 -1.03916 -2 -0.530406 -2 0 
C -2 0.530406 -1.789267 1.03916 -1.414214 1.414214 
C -1.03916 1.789267 -0.530406 2 0 2 
z
" style="stroke: #0072b2"/>
    </defs>
    <g clip-path="url(#pfd756cf1e2)">
     <use xlink:href="#mf7f76cb0ef" x="80.41804" y="166.288594" style="fill: #0072b2; stroke: #0072b2"/>
     <use xlink:href="#mf7f76cb0ef" x="92.482284" y="165.701127" style="fill: #0072b2; stroke: #0072b2"/>
     <use xlink:href="#mf7f76cb0ef" x="104.948669" y="164.943997" style="fill: #0072b2; stroke: #0072b2"/>
     <use xlink:href="#mf7f76cb0ef" x="117.012913" y="162.554886" style="fill: #0072b2; stroke: #0072b2"/>
     <use xlink:href="#mf7f76cb0ef" x="129.479298" y="161.890089" style="fill: #0072b2; stroke: #0072b2"/>
     <use xlink:href="#mf7f76cb0ef" x="141.945683" y="161.398417" style="fill: #0072b2; stroke: #0072b2"/>
     <use xlink:href="#mf7f76cb0ef" x="153.205644" y="158.5084" style="fill: #0072b2; stroke: #0072b2"/>
     <use xlink:href="#mf7f76cb0ef" x="165.67203" y="155.911539" style="fill: #0072b2; stroke: #0072b2"/>
     <use xlink:href="#mf7f76cb0ef" x="177.736273" y="153.744026" style="fill: #0072b2; stroke: #0072b2"/>
     <use xlink:href="#mf7f76cb0ef" x="190.202659" y="151.294898" style="fill: #0072b2; stroke: #0072b2"/>
     <use xlink:href="#mf7f76cb0ef" x="202.266902" y="147.876276" style="fill: #0072b2; stroke: #0072b2"/>
     <use xlink:href="#mf7f76cb0ef" x="214.733288" y="145.61643" style="fill: #0072b2; stroke: #0072b2"/>
     <use xlink:href="#mf7f76cb0ef" x="227.199673" y="143.309264" style="fill: #0072b2; stroke: #0072b2"/>
     <use xlink:href="#mf7f76cb0ef" x="239.263917" y="140.5866" style="fill: #0072b2; stroke: #0072b2"/>
     <use xlink:href="#mf7f76cb0ef" x="251.730302" y="138.756101" style="fill: #0072b2; stroke: #0072b2"/>
     <use xlink:href="#mf7f76cb0ef" x="263.794546" y="134.670374" style="fill: #0072b2; stroke: #0072b2"/>
     <use xlink:href="#mf7f76cb0ef" x="276.260931" y="132.2224" style="fill: #0072b2; stroke: #0072b2"/>
     <use xlink:href="#mf7f76cb0ef" x="288.727316" y="127.269899" style="fill: #0072b2; stroke: #0072b2"/>
     <use xlink:href="#mf7f76cb0ef" x="299.987277" y="123.878976" style="fill: #0072b2; stroke: #0072b2"/>
     <use xlink:href="#mf7f76cb0ef" x="312.453662" y="125.367842" style="fill: #0072b2; stroke: #0072b2"/>
     <use xlink:href="#mf7f76cb0ef" x="324.517906" y="122.363563" style="fill: #0072b2; stroke: #0072b2"/>
     <use xlink:href="#mf7f76cb0ef" x="336.984292" y="122.554" style="fill: #0072b2; stroke: #0072b2"/>
     <use xlink:href="#mf7f76cb0ef" x="349.048535" y="124.324482" style="fill: #0072b2; stroke: #0072b2"/>
     <use xlink:href="#mf7f76cb0ef" x="361.514921" y="124.287548" style="fill: #0072b2; stroke: #0072b2"/>
     <use xlink:href="#mf7f76cb0ef" x="373.981306" y="123.883592" style="fill: #0072b2; stroke: #0072b2"/>
     <use xlink:href="#mf7f76cb0ef" x="386.04555" y="124.125966" style="fill: #0072b2; stroke: #0072b2"/>
     <use xlink:href="#mf7f76cb0ef" x="398.511935" y="121.099758" style="fill: #0072b2; stroke: #0072b2"/>
     <use xlink:href="#mf7f76cb0ef" x="410.576179" y="123.948225" style="fill: #0072b2; stroke: #0072b2"/>
     <use xlink:href="#mf7f76cb0ef" x="423.042564" y="121.20017" style="fill: #0072b2; stroke: #0072b2"/>
    </g>
   </g>
   <g id="line2d_42">
    <path d="M 80.41804 218.603216 
L 92.482284 218.437017 
L 104.948669 218.409317 
L 117.012913 217.732979 
L 129.479298 217.312865 
L 141.945683 217.115503 
L 153.205644 216.724243 
L 165.67203 215.618557 
L 177.736273 215.123423 
L 190.202659 213.418728 
L 202.266902 212.105294 
L 214.733288 210.600269 
L 227.199673 208.979828 
L 239.263917 207.689477 
L 251.730302 206.920806 
L 263.794546 206.246776 
L 276.260931 204.850242 
L 288.727316 203.731861 
L 299.987277 203.197485 
L 312.453662 202.305319 
L 324.517906 201.316204 
L 336.984292 200.744894 
L 349.048535 201.039205 
L 361.514921 201.241183 
L 373.981306 200.77144 
L 386.04555 200.852231 
L 398.511935 200.653716 
L 410.576179 200.719503 
L 423.042564 200.373255 
" clip-path="url(#pfd756cf1e2)" style="fill: none; stroke-dasharray: 5.92,2.56; stroke-dashoffset: 0; stroke: #e69f00; stroke-width: 1.6"/>
    <defs>
     <path id="m79cda92b43" d="M -2 2 
L 2 2 
L 2 -2 
L -2 -2 
z
" style="stroke: #e69f00; stroke-linejoin: miter"/>
    </defs>
    <g clip-path="url(#pfd756cf1e2)">
     <use xlink:href="#m79cda92b43" x="80.41804" y="218.603216" style="fill: #e69f00; stroke: #e69f00; stroke-linejoin: miter"/>
     <use xlink:href="#m79cda92b43" x="92.482284" y="218.437017" style="fill: #e69f00; stroke: #e69f00; stroke-linejoin: miter"/>
     <use xlink:href="#m79cda92b43" x="104.948669" y="218.409317" style="fill: #e69f00; stroke: #e69f00; stroke-linejoin: miter"/>
     <use xlink:href="#m79cda92b43" x="117.012913" y="217.732979" style="fill: #e69f00; stroke: #e69f00; stroke-linejoin: miter"/>
     <use xlink:href="#m79cda92b43" x="129.479298" y="217.312865" style="fill: #e69f00; stroke: #e69f00; stroke-linejoin: miter"/>
     <use xlink:href="#m79cda92b43" x="141.945683" y="217.115503" style="fill: #e69f00; stroke: #e69f00; stroke-linejoin: miter"/>
     <use xlink:href="#m79cda92b43" x="153.205644" y="216.724243" style="fill: #e69f00; stroke: #e69f00; stroke-linejoin: miter"/>
     <use xlink:href="#m79cda92b43" x="165.67203" y="215.618557" style="fill: #e69f00; stroke: #e69f00; stroke-linejoin: miter"/>
     <use xlink:href="#m79cda92b43" x="177.736273" y="215.123423" style="fill: #e69f00; stroke: #e69f00; stroke-linejoin: miter"/>
     <use xlink:href="#m79cda92b43" x="190.202659" y="213.418728" style="fill: #e69f00; stroke: #e69f00; stroke-linejoin: miter"/>
     <use xlink:href="#m79cda92b43" x="202.266902" y="212.105294" style="fill: #e69f00; stroke: #e69f00; stroke-linejoin: miter"/>
     <use xlink:href="#m79cda92b43" x="214.733288" y="210.600269" style="fill: #e69f00; stroke: #e69f00; stroke-linejoin: miter"/>
     <use xlink:href="#m79cda92b43" x="227.199673" y="208.979828" style="fill: #e69f00; stroke: #e69f00; stroke-linejoin: miter"/>
     <use xlink:href="#m79cda92b43" x="239.263917" y="207.689477" style="fill: #e69f00; stroke: #e69f00; stroke-linejoin: miter"/>
     <use xlink:href="#m79cda92b43" x="251.730302" y="206.920806" style="fill: #e69f00; stroke: #e69f00; stroke-linejoin: miter"/>
     <use xlink:href="#m79cda92b43" x="263.794546" y="206.246776" style="fill: #e69f00; stroke: #e69f00; stroke-linejoin: miter"/>
     <use xlink:href="#m79cda92b43" x="276.260931" y="204.850242" style="fill: #e69f00; stroke: #e69f00; stroke-linejoin: miter"/>
     <use xlink:href="#m79cda92b43" x="288.727316" y="203.731861" style="fill: #e69f00; stroke: #e69f00; stroke-linejoin: miter"/>
     <use xlink:href="#m79cda92b43" x="299.987277" y="203.197485" style="fill: #e69f00; stroke: #e69f00; stroke-linejoin: miter"/>
     <use xlink:href="#m79cda92b43" x="312.453662" y="202.305319" style="fill: #e69f00; stroke: #e69f00; stroke-linejoin: miter"/>
     <use xlink:href="#m79cda92b43" x="324.517906" y="201.316204" style="fill: #e69f00; stroke: #e69f00; stroke-linejoin: miter"/>
     <use xlink:href="#m79cda92b43" x="336.984292" y="200.744894" style="fill: #e69f00; stroke: #e69f00; stroke-linejoin: miter"/>
     <use xlink:href="#m79cda92b43" x="349.048535" y="201.039205" style="fill: #e69f00; stroke: #e69f00; stroke-linejoin: miter"/>
     <use xlink:href="#m79cda92b43" x="361.514921" y="201.241183" style="fill: #e69f00; stroke: #e69f00; stroke-linejoin: miter"/>
     <use xlink:href="#m79cda92b43" x="373.981306" y="200.77144" style="fill: #e69f00; stroke: #e69f00; stroke-linejoin: miter"/>
     <use xlink:href="#m79cda92b43" x="386.04555" y="200.852231" style="fill: #e69f00; stroke: #e69f00; stroke-linejoin: miter"/>
     <use xlink:href="#m79cda92b43" x="398.511935" y="200.653716" style="fill: #e69f00; stroke: #e69f00; stroke-linejoin: miter"/>
     <use xlink:href="#m79cda92b43" x="410.576179" y="200.719503" style="fill: #e69f00; stroke: #e69f00; stroke-linejoin: miter"/>
     <use xlink:href="#m79cda92b43" x="423.042564" y="200.373255" style="fill: #e69f00; stroke: #e69f00; stroke-linejoin: miter"/>
    </g>
   </g>
   <g id="line2d_43">
    <path d="M 67.951655 93.398758 
L 80.41804 90.490274 
L 92.482284 88.527047 
L 104.948669 86.87429 
L 117.012913 84.748327 
L 129.479298 83.14289 
L 141.945683 82.257649 
L 153.205644 83.80884 
L 165.67203 80.133994 
L 177.736273 79.337623 
L 190.202659 73.190566 
L 202.266902 65.094132 
L 214.733288 60.970317 
L 227.199673 57.462824 
L 239.263917 52.450306 
L 251.730302 51.290375 
L 263.794546 46.649497 
L 276.260931 41.421151 
L 288.727316 40.084633 
L 299.987277 37.877879 
L 312.453662 37.277715 
L 324.517906 36.370545 
L 336.984292 32.949614 
L 349.048535 31.810458 
L 361.514921 32.39908 
L 373.981306 31.665034 
L 386.04555 31.885479 
L 398.511935 32.344834 
L 410.576179 32.760332 
L 423.042564 32.508725 
" clip-path="url(#pfd756cf1e2)" style="fill: none; stroke-dasharray: 10.24,2.56,1.6,2.56; stroke-dashoffset: 0; stroke: #009e73; stroke-width: 1.6"/>
    <defs>
     <path id="m84c04c6f71" d="M 0 -2 
L -2 2 
L 2 2 
z
" style="stroke: #009e73; stroke-linejoin: miter"/>
    </defs>
    <g clip-path="url(#pfd756cf1e2)">
     <use xlink:href="#m84c04c6f71" x="67.951655" y="93.398758" style="fill: #009e73; stroke: #009e73; stroke-linejoin: miter"/>
     <use xlink:href="#m84c04c6f71" x="80.41804" y="90.490274" style="fill: #009e73; stroke: #009e73; stroke-linejoin: miter"/>
     <use xlink:href="#m84c04c6f71" x="92.482284" y="88.527047" style="fill: #009e73; stroke: #009e73; stroke-linejoin: miter"/>
     <use xlink:href="#m84c04c6f71" x="104.948669" y="86.87429" style="fill: #009e73; stroke: #009e73; stroke-linejoin: miter"/>
     <use xlink:href="#m84c04c6f71" x="117.012913" y="84.748327" style="fill: #009e73; stroke: #009e73; stroke-linejoin: miter"/>
     <use xlink:href="#m84c04c6f71" x="129.479298" y="83.14289" style="fill: #009e73; stroke: #009e73; stroke-linejoin: miter"/>
     <use xlink:href="#m84c04c6f71" x="141.945683" y="82.257649" style="fill: #009e73; stroke: #009e73; stroke-linejoin: miter"/>
     <use xlink:href="#m84c04c6f71" x="153.205644" y="83.80884" style="fill: #009e73; stroke: #009e73; stroke-linejoin: miter"/>
     <use xlink:href="#m84c04c6f71" x="165.67203" y="80.133994" style="fill: #009e73; stroke: #009e73; stroke-linejoin: miter"/>
     <use xlink:href="#m84c04c6f71" x="177.736273" y="79.337623" style="fill: #009e73; stroke: #009e73; stroke-linejoin: miter"/>
     <use xlink:href="#m84c04c6f71" x="190.202659" y="73.190566" style="fill: #009e73; stroke: #009e73; stroke-linejoin: miter"/>
     <use xlink:href="#m84c04c6f71" x="202.266902" y="65.094132" style="fill: #009e73; stroke: #009e73; stroke-linejoin: miter"/>
     <use xlink:href="#m84c04c6f71" x="214.733288" y="60.970317" style="fill: #009e73; stroke: #009e73; stroke-linejoin: miter"/>
     <use xlink:href="#m84c04c6f71" x="227.199673" y="57.462824" style="fill: #009e73; stroke: #009e73; stroke-linejoin: miter"/>
     <use xlink:href="#m84c04c6f71" x="239.263917" y="52.450306" style="fill: #009e73; stroke: #009e73; stroke-linejoin: miter"/>
     <use xlink:href="#m84c04c6f71" x="251.730302" y="51.290375" style="fill: #009e73; stroke: #009e73; stroke-linejoin: miter"/>
     <use xlink:href="#m84c04c6f71" x="263.794546" y="46.649497" style="fill: #009e73; stroke: #009e73; stroke-linejoin: miter"/>
     <use xlink:href="#m84c04c6f71" x="276.260931" y="41.421151" style="fill: #009e73; stroke: #009e73; stroke-linejoin: miter"/>
     <use xlink:href="#m84c04c6f71" x="288.727316" y="40.084633" style="fill: #009e73; stroke: #009e73; stroke-linejoin: miter"/>
     <use xlink:href="#m84c04c6f71" x="299.987277" y="37.877879" style="fill: #009e73; stroke: #009e73; stroke-linejoin: miter"/>
     <use xlink:href="#m84c04c6f71" x="312.453662" y="37.277715" style="fill: #009e73; stroke: #009e73; stroke-linejoin: miter"/>
     <use xlink:href="#m84c04c6f71" x="324.517906" y="36.370545" style="fill: #009e73; stroke: #009e73; stroke-linejoin: miter"/>
     <use xlink:href="#m84c04c6f71" x="336.984292" y="32.949614" style="fill: #009e73; stroke: #009e73; stroke-linejoin: miter"/>
     <use xlink:href="#m84c04c6f71" x="349.048535" y="31.810458" style="fill: #009e73; stroke: #009e73; stroke-linejoin: miter"/>
     <use xlink:href="#m84c04c6f71" x="361.514921" y="32.39908" style="fill: #009e73; stroke: #009e73; stroke-linejoin: miter"/>
     <use xlink:href="#m84c04c6f71" x="373.981306" y="31.665034" style="fill: #009e73; stroke: #009e73; stroke-linejoin: miter"/>
     <use xlink:href="#m84c04c6f71" x="386.04555" y="31.885479" style="fill: #009e73; stroke: #009e73; stroke-linejoin: miter"/>
     <use xlink:href="#m84c04c6f71" x="398.511935" y="32.344834" style="fill: #009e73; stroke: #009e73; stroke-linejoin: miter"/>
     <use xlink:href="#m84c04c6f71" x="410.576179" y="32.760332" style="fill: #009e73; stroke: #009e73; stroke-linejoin: miter"/>
     <use xlink:href="#m84c04c6f71" x="423.042564" y="32.508725" style="fill: #009e73; stroke: #009e73; stroke-linejoin: miter"/>
    </g>
   </g>
   <g id="line2d_44">
    <path d="M 67.951655 211.295073 
L 80.41804 211.353935 
L 92.482284 211.053854 
L 104.948669 210.937284 
L 117.012913 209.917006 
L 129.479298 209.277601 
L 141.945683 208.885187 
L 153.205644 208.451222 
L 165.67203 206.953122 
L 177.736273 206.346034 
L 190.202659 204.543236 
L 202.266902 203.120156 
L 214.733288 201.519336 
L 227.199673 200.168968 
L 239.263917 198.928246 
L 251.730302 197.620583 
L 263.794546 196.930395 
L 276.260931 195.552327 
L 288.727316 194.272364 
L 299.987277 193.626034 
L 312.453662 193.66643 
L 324.517906 192.347224 
L 336.984292 193.414823 
L 349.048535 194.761728 
L 361.514921 194.817127 
L 373.981306 194.394705 
L 386.04555 193.95497 
L 398.511935 193.340956 
L 410.576179 193.912266 
L 423.042564 193.709133 
" clip-path="url(#pfd756cf1e2)" style="fill: none; stroke-dasharray: 1.6,2.64; stroke-dashoffset: 0; stroke: #d55e00; stroke-width: 1.6"/>
    <defs>
     <path id="m556fc1873d" d="M -0 2.828427 
L 2.828427 0 
L 0 -2.828427 
L -2.828427 -0 
z
" style="stroke: #d55e00; stroke-linejoin: miter"/>
    </defs>
    <g clip-path="url(#pfd756cf1e2)">
     <use xlink:href="#m556fc1873d" x="67.951655" y="211.295073" style="fill: #d55e00; stroke: #d55e00; stroke-linejoin: miter"/>
     <use xlink:href="#m556fc1873d" x="80.41804" y="211.353935" style="fill: #d55e00; stroke: #d55e00; stroke-linejoin: miter"/>
     <use xlink:href="#m556fc1873d" x="92.482284" y="211.053854" style="fill: #d55e00; stroke: #d55e00; stroke-linejoin: miter"/>
     <use xlink:href="#m556fc1873d" x="104.948669" y="210.937284" style="fill: #d55e00; stroke: #d55e00; stroke-linejoin: miter"/>
     <use xlink:href="#m556fc1873d" x="117.012913" y="209.917006" style="fill: #d55e00; stroke: #d55e00; stroke-linejoin: miter"/>
     <use xlink:href="#m556fc1873d" x="129.479298" y="209.277601" style="fill: #d55e00; stroke: #d55e00; stroke-linejoin: miter"/>
     <use xlink:href="#m556fc1873d" x="141.945683" y="208.885187" style="fill: #d55e00; stroke: #d55e00; stroke-linejoin: miter"/>
     <use xlink:href="#m556fc1873d" x="153.205644" y="208.451222" style="fill: #d55e00; stroke: #d55e00; stroke-linejoin: miter"/>
     <use xlink:href="#m556fc1873d" x="165.67203" y="206.953122" style="fill: #d55e00; stroke: #d55e00; stroke-linejoin: miter"/>
     <use xlink:href="#m556fc1873d" x="177.736273" y="206.346034" style="fill: #d55e00; stroke: #d55e00; stroke-linejoin: miter"/>
     <use xlink:href="#m556fc1873d" x="190.202659" y="204.543236" style="fill: #d55e00; stroke: #d55e00; stroke-linejoin: miter"/>
     <use xlink:href="#m556fc1873d" x="202.266902" y="203.120156" style="fill: #d55e00; stroke: #d55e00; stroke-linejoin: miter"/>
     <use xlink:href="#m556fc1873d" x="214.733288" y="201.519336" style="fill: #d55e00; stroke: #d55e00; stroke-linejoin: miter"/>
     <use xlink:href="#m556fc1873d" x="227.199673" y="200.168968" style="fill: #d55e00; stroke: #d55e00; stroke-linejoin: miter"/>
     <use xlink:href="#m556fc1873d" x="239.263917" y="198.928246" style="fill: #d55e00; stroke: #d55e00; stroke-linejoin: miter"/>
     <use xlink:href="#m556fc1873d" x="251.730302" y="197.620583" style="fill: #d55e00; stroke: #d55e00; stroke-linejoin: miter"/>
     <use xlink:href="#m556fc1873d" x="263.794546" y="196.930395" style="fill: #d55e00; stroke: #d55e00; stroke-linejoin: miter"/>
     <use xlink:href="#m556fc1873d" x="276.260931" y="195.552327" style="fill: #d55e00; stroke: #d55e00; stroke-linejoin: miter"/>
     <use xlink:href="#m556fc1873d" x="288.727316" y="194.272364" style="fill: #d55e00; stroke: #d55e00; stroke-linejoin: miter"/>
     <use xlink:href="#m556fc1873d" x="299.987277" y="193.626034" style="fill: #d55e00; stroke: #d55e00; stroke-linejoin: miter"/>
     <use xlink:href="#m556fc1873d" x="312.453662" y="193.66643" style="fill: #d55e00; stroke: #d55e00; stroke-linejoin: miter"/>
     <use xlink:href="#m556fc1873d" x="324.517906" y="192.347224" style="fill: #d55e00; stroke: #d55e00; stroke-linejoin: miter"/>
     <use xlink:href="#m556fc1873d" x="336.984292" y="193.414823" style="fill: #d55e00; stroke: #d55e00; stroke-linejoin: miter"/>
     <use xlink:href="#m556fc1873d" x="349.048535" y="194.761728" style="fill: #d55e00; stroke: #d55e00; stroke-linejoin: miter"/>
     <use xlink:href="#m556fc1873d" x="361.514921" y="194.817127" style="fill: #d55e00; stroke: #d55e00; stroke-linejoin: miter"/>
     <use xlink:href="#m556fc1873d" x="373.981306" y="194.394705" style="fill: #d55e00; stroke: #d55e00; stroke-linejoin: miter"/>
     <use xlink:href="#m556fc1873d" x="386.04555" y="193.95497" style="fill: #d55e00; stroke: #d55e00; stroke-linejoin: miter"/>
     <use xlink:href="#m556fc1873d" x="398.511935" y="193.340956" style="fill: #d55e00; stroke: #d55e00; stroke-linejoin: miter"/>
     <use xlink:href="#m556fc1873d" x="410.576179" y="193.912266" style="fill: #d55e00; stroke: #d55e00; stroke-linejoin: miter"/>
     <use xlink:href="#m556fc1873d" x="423.042564" y="193.709133" style="fill: #d55e00; stroke: #d55e00; stroke-linejoin: miter"/>
    </g>
   </g>
   <g id="patch_3">
    <path d="M 50.197109 227.950125 
L 50.197109 22.318125 
" style="fill: none; stroke: #7a8290; stroke-width: 0.8; stroke-linejoin: miter; stroke-linecap: square"/>
   </g>
   <g id="patch_4">
    <path d="M 50.197109 227.950125 
L 440.797109 227.950125 
" style="fill: none; stroke: #7a8290; stroke-width: 0.8; stroke-linejoin: miter; stroke-linecap: square"/>
   </g>
   <g id="text_23">
    <!-- Median used-car price by brand, monthly FIPE table -->
    <g style="fill: #7a8290" transform="translate(90.006172 16.318125) scale(0.12 -0.12)">
     <defs>
      <path id="DejaVuSans-45" d="M 3116 1747 
Q 3116 2381 2855 2742 
Q 2594 3103 2138 3103 
Q 1681 3103 1420 2742 
Q 1159 2381 1159 1747 
Q 1159 1113 1420 752 
Q 1681 391 2138 391 
Q 2594 391 2855 752 
Q 3116 1113 3116 1747 
z
M 1159 2969 
Q 1341 3281 1617 3432 
Q 1894 3584 2278 3584 
Q 2916 3584 3314 3078 
Q 3713 2572 3713 1747 
Q 3713 922 3314 415 
Q 2916 -91 2278 -91 
Q 1894 -91 1617 61 
Q 1341 213 1159 525 
L 1159 0 
L 581 0 
L 581 4863 
L 1159 4863 
L 1159 2969 
z
" transform="scale(0.015625)"/>
      <path id="DejaVuSans-5c" d="M 2059 -325 
Q 1816 -950 1584 -1140 
Q 1353 -1331 966 -1331 
L 506 -1331 
L 506 -850 
L 844 -850 
Q 1081 -850 1212 -737 
Q 1344 -625 1503 -206 
L 1606 56 
L 191 3500 
L 800 3500 
L 1894 763 
L 2988 3500 
L 3597 3500 
L 2059 -325 
z
" transform="scale(0.015625)"/>
      <path id="DejaVuSans-f" d="M 750 794 
L 1409 794 
L 1409 256 
L 897 -744 
L 494 -744 
L 750 256 
L 750 794 
z
" transform="scale(0.015625)"/>
      <path id="DejaVuSans-4f" d="M 603 4863 
L 1178 4863 
L 1178 0 
L 603 0 
L 603 4863 
z
" transform="scale(0.015625)"/>
      <path id="DejaVuSans-29" d="M 628 4666 
L 3309 4666 
L 3309 4134 
L 1259 4134 
L 1259 2759 
L 3109 2759 
L 3109 2228 
L 1259 2228 
L 1259 0 
L 628 0 
L 628 4666 
z
" transform="scale(0.015625)"/>
      <path id="DejaVuSans-2c" d="M 628 4666 
L 1259 4666 
L 1259 0 
L 628 0 
L 628 4666 
z
" transform="scale(0.015625)"/>
      <path id="DejaVuSans-33" d="M 1259 4147 
L 1259 2394 
L 2053 2394 
Q 2494 2394 2734 2622 
Q 2975 2850 2975 3272 
Q 2975 3691 2734 3919 
Q 2494 4147 2053 4147 
L 1259 4147 
z
M 628 4666 
L 2053 4666 
Q 2838 4666 3239 4311 
Q 3641 3956 3641 3272 
Q 3641 2581 3239 2228 
Q 2838 1875 2053 1875 
L 1259 1875 
L 1259 0 
L 628 0 
L 628 4666 
z
" transform="scale(0.015625)"/>
      <path id="DejaVuSans-28" d="M 628 4666 
L 3578 4666 
L 3578 4134 
L 1259 4134 
L 1259 2753 
L 3481 2753 
L 3481 2222 
L 1259 2222 
L 1259 531 
L 3634 531 
L 3634 0 
L 628 0 
L 628 4666 
z
" transform="scale(0.015625)"/>
     </defs>
     <use xlink:href="#DejaVuSans-30"/>
     <use xlink:href="#DejaVuSans-48" transform="translate(86.28125 0)"/>
     <use xlink:href="#DejaVuSans-47" transform="translate(147.8125 0)"/>
     <use xlink:href="#DejaVuSans-4c" transform="translate(211.296875 0)"/>
     <use xlink:href="#DejaVuSans-44" transform="translate(239.078125 0)"/>
     <use xlink:href="#DejaVuSans-51" transform="translate(300.359375 0)"/>
     <use xlink:href="#DejaVuSans-3" transform="translate(363.734375 0)"/>
     <use xlink:href="#DejaVuSans-58" transform="translate(395.515625 0)"/>
     <use xlink:href="#DejaVuSans-56" transform="translate(458.890625 0)"/>
     <use xlink:href="#DejaVuSans-48" transform="translate(510.984375 0)"/>
     <use xlink:href="#DejaVuSans-47" transform="translate(572.515625 0)"/>
     <use xlink:href="#DejaVuSans-10" transform="translate(636 0)"/>
     <use xlink:href="#DejaVuSans-46" transform="translate(672.078125 0)"/>
     <use xlink:href="#DejaVuSans-44" transform="translate(727.0625 0)"/>
     <use xlink:href="#DejaVuSans-55" transform="translate(788.34375 0)"/>
     <use xlink:href="#DejaVuSans-3" transform="translate(829.453125 0)"/>
     <use xlink:href="#DejaVuSans-53" transform="translate(861.234375 0)"/>
     <use xlink:href="#DejaVuSans-55" transform="translate(924.71875 0)"/>
     <use xlink:href="#DejaVuSans-4c" transform="translate(965.828125 0)"/>
     <use xlink:href="#DejaVuSans-46" transform="translate(993.609375 0)"/>
     <use xlink:href="#DejaVuSans-48" transform="translate(1048.59375 0)"/>
     <use xlink:href="#DejaVuSans-3" transform="translate(1110.125 0)"/>
     <use xlink:href="#DejaVuSans-45" transform="translate(1141.90625 0)"/>
     <use xlink:href="#DejaVuSans-5c" transform="translate(1205.390625 0)"/>
     <use xlink:href="#DejaVuSans-3" transform="translate(1264.578125 0)"/>
     <use xlink:href="#DejaVuSans-45" transform="translate(1296.359375 0)"/>
     <use xlink:href="#DejaVuSans-55" transform="translate(1359.84375 0)"/>
     <use xlink:href="#DejaVuSans-44" transform="translate(1400.953125 0)"/>
     <use xlink:href="#DejaVuSans-51" transform="translate(1462.234375 0)"/>
     <use xlink:href="#DejaVuSans-47" transform="translate(1525.609375 0)"/>
     <use xlink:href="#DejaVuSans-f" transform="translate(1589.09375 0)"/>
     <use xlink:href="#DejaVuSans-3" transform="translate(1620.875 0)"/>
     <use xlink:href="#DejaVuSans-50" transform="translate(1652.65625 0)"/>
     <use xlink:href="#DejaVuSans-52" transform="translate(1750.0625 0)"/>
     <use xlink:href="#DejaVuSans-51" transform="translate(1811.25 0)"/>
     <use xlink:href="#DejaVuSans-57" transform="translate(1874.625 0)"/>
     <use xlink:href="#DejaVuSans-4b" transform="translate(1913.828125 0)"/>
     <use xlink:href="#DejaVuSans-4f" transform="translate(1977.203125 0)"/>
     <use xlink:href="#DejaVuSans-5c" transform="translate(2004.984375 0)"/>
     <use xlink:href="#DejaVuSans-3" transform="translate(2064.171875 0)"/>
     <use xlink:href="#DejaVuSans-29" transform="translate(2095.953125 0)"/>
     <use xlink:href="#DejaVuSans-2c" transform="translate(2153.46875 0)"/>
     <use xlink:href="#DejaVuSans-33" transform="translate(2182.96875 0)"/>
     <use xlink:href="#DejaVuSans-28" transform="translate(2243.265625 0)"/>
     <use xlink:href="#DejaVuSans-3" transform="translate(2306.453125 0)"/>
     <use xlink:href="#DejaVuSans-57" transform="translate(2338.234375 0)"/>
     <use xlink:href="#DejaVuSans-44" transform="translate(2377.4375 0)"/>
     <use xlink:href="#DejaVuSans-45" transform="translate(2438.71875 0)"/>
     <use xlink:href="#DejaVuSans-4f" transform="translate(2502.203125 0)"/>
     <use xlink:href="#DejaVuSans-48" transform="translate(2529.984375 0)"/>
    </g>
   </g>
   <g id="legend_1">
    <g id="line2d_45">
     <path d="M 58.297109 117.572016 
L 67.297109 117.572016 
L 76.297109 117.572016 
" style="fill: none; stroke: #0072b2; stroke-width: 1.6; stroke-linecap: square"/>
     <g>
      <use xlink:href="#mf7f76cb0ef" x="67.297109" y="117.572016" style="fill: #0072b2; stroke: #0072b2"/>
     </g>
    </g>
    <g id="text_24">
     <!-- Toyota -->
     <g style="fill: #7a8290" transform="translate(83.497109 120.722016) scale(0.09 -0.09)">
      <defs>
       <path id="DejaVuSans-37" d="M -19 4666 
L 3928 4666 
L 3928 4134 
L 2272 4134 
L 2272 0 
L 1638 0 
L 1638 4134 
L -19 4134 
L -19 4666 
z
" transform="scale(0.015625)"/>
      </defs>
      <use xlink:href="#DejaVuSans-37"/>
      <use xlink:href="#DejaVuSans-52" transform="translate(44.09375 0)"/>
      <use xlink:href="#DejaVuSans-5c" transform="translate(105.28125 0)"/>
      <use xlink:href="#DejaVuSans-52" transform="translate(164.46875 0)"/>
      <use xlink:href="#DejaVuSans-57" transform="translate(225.65625 0)"/>
      <use xlink:href="#DejaVuSans-44" transform="translate(264.859375 0)"/>
     </g>
    </g>
    <g id="line2d_46">
     <path d="M 58.297109 131.072719 
L 67.297109 131.072719 
L 76.297109 131.072719 
" style="fill: none; stroke-dasharray: 5.92,2.56; stroke-dashoffset: 0; stroke: #e69f00; stroke-width: 1.6"/>
     <g>
      <use xlink:href="#m79cda92b43" x="67.297109" y="131.072719" style="fill: #e69f00; stroke: #e69f00; stroke-linejoin: miter"/>
     </g>
    </g>
    <g id="text_25">
     <!-- VW - VolksWagen -->
     <g style="fill: #7a8290" transform="translate(83.497109 134.222719) scale(0.09 -0.09)">
      <defs>
       <path id="DejaVuSans-39" d="M 1831 0 
L 50 4666 
L 709 4666 
L 2188 738 
L 3669 4666 
L 4325 4666 
L 2547 0 
L 1831 0 
z
" transform="scale(0.015625)"/>
       <path id="DejaVuSans-3a" d="M 213 4666 
L 850 4666 
L 1831 722 
L 2809 4666 
L 3519 4666 
L 4500 722 
L 5478 4666 
L 6119 4666 
L 4947 0 
L 4153 0 
L 3169 4050 
L 2175 0 
L 1381 0 
L 213 4666 
z
" transform="scale(0.015625)"/>
       <path id="DejaVuSans-4e" d="M 581 4863 
L 1159 4863 
L 1159 1991 
L 2875 3500 
L 3609 3500 
L 1753 1863 
L 3688 0 
L 2938 0 
L 1159 1709 
L 1159 0 
L 581 0 
L 581 4863 
z
" transform="scale(0.015625)"/>
       <path id="DejaVuSans-4a" d="M 2906 1791 
Q 2906 2416 2648 2759 
Q 2391 3103 1925 3103 
Q 1463 3103 1205 2759 
Q 947 2416 947 1791 
Q 947 1169 1205 825 
Q 1463 481 1925 481 
Q 2391 481 2648 825 
Q 2906 1169 2906 1791 
z
M 3481 434 
Q 3481 -459 3084 -895 
Q 2688 -1331 1869 -1331 
Q 1566 -1331 1297 -1286 
Q 1028 -1241 775 -1147 
L 775 -588 
Q 1028 -725 1275 -790 
Q 1522 -856 1778 -856 
Q 2344 -856 2625 -561 
Q 2906 -266 2906 331 
L 2906 616 
Q 2728 306 2450 153 
Q 2172 0 1784 0 
Q 1141 0 747 490 
Q 353 981 353 1791 
Q 353 2603 747 3093 
Q 1141 3584 1784 3584 
Q 2172 3584 2450 3431 
Q 2728 3278 2906 2969 
L 2906 3500 
L 3481 3500 
L 3481 434 
z
" transform="scale(0.015625)"/>
      </defs>
      <use xlink:href="#DejaVuSans-39"/>
      <use xlink:href="#DejaVuSans-3a" transform="translate(68.40625 0)"/>
      <use xlink:href="#DejaVuSans-3" transform="translate(167.28125 0)"/>
      <use xlink:href="#DejaVuSans-10" transform="translate(199.0625 0)"/>
      <use xlink:href="#DejaVuSans-3" transform="translate(235.140625 0)"/>
      <use xlink:href="#DejaVuSans-39" transform="translate(266.921875 0)"/>
      <use xlink:href="#DejaVuSans-52" transform="translate(327.5625 0)"/>
      <use xlink:href="#DejaVuSans-4f" transform="translate(388.75 0)"/>
      <use xlink:href="#DejaVuSans-4e" transform="translate(416.53125 0)"/>
      <use xlink:href="#DejaVuSans-56" transform="translate(474.4375 0)"/>
      <use xlink:href="#DejaVuSans-3a" transform="translate(526.53125 0)"/>
      <use xlink:href="#DejaVuSans-44" transform="translate(619.015625 0)"/>
      <use xlink:href="#DejaVuSans-4a" transform="translate(680.296875 0)"/>
      <use xlink:href="#DejaVuSans-48" transform="translate(743.78125 0)"/>
      <use xlink:href="#DejaVuSans-51" transform="translate(805.3125 0)"/>
     </g>
    </g>
    <g id="line2d_47">
     <path d="M 179.678984 117.572016 
L 188.678984 117.572016 
L 197.678984 117.572016 
" style="fill: none; stroke-dasharray: 10.24,2.56,1.6,2.56; stroke-dashoffset: 0; stroke: #009e73; stroke-width: 1.6"/>
     <g>
      <use xlink:href="#m84c04c6f71" x="188.678984" y="117.572016" style="fill: #009e73; stroke: #009e73; stroke-linejoin: miter"/>
     </g>
    </g>
    <g id="text_26">
     <!-- BMW -->
     <g style="fill: #7a8290" transform="translate(204.878984 120.722016) scale(0.09 -0.09)">
      <defs>
       <path id="DejaVuSans-25" d="M 1259 2228 
L 1259 519 
L 2272 519 
Q 2781 519 3026 730 
Q 3272 941 3272 1375 
Q 3272 1813 3026 2020 
Q 2781 2228 2272 2228 
L 1259 2228 
z
M 1259 4147 
L 1259 2741 
L 2194 2741 
Q 2656 2741 2882 2914 
Q 3109 3088 3109 3444 
Q 3109 3797 2882 3972 
Q 2656 4147 2194 4147 
L 1259 4147 
z
M 628 4666 
L 2241 4666 
Q 2963 4666 3353 4366 
Q 3744 4066 3744 3513 
Q 3744 3084 3544 2831 
Q 3344 2578 2956 2516 
Q 3422 2416 3680 2098 
Q 3938 1781 3938 1306 
Q 3938 681 3513 340 
Q 3088 0 2303 0 
L 628 0 
L 628 4666 
z
" transform="scale(0.015625)"/>
      </defs>
      <use xlink:href="#DejaVuSans-25"/>
      <use xlink:href="#DejaVuSans-30" transform="translate(68.609375 0)"/>
      <use xlink:href="#DejaVuSans-3a" transform="translate(154.890625 0)"/>
     </g>
    </g>
    <g id="line2d_48">
     <path d="M 179.678984 131.072719 
L 188.678984 131.072719 
L 197.678984 131.072719 
" style="fill: none; stroke-dasharray: 1.6,2.64; stroke-dashoffset: 0; stroke: #d55e00; stroke-width: 1.6"/>
     <g>
      <use xlink:href="#m556fc1873d" x="188.678984" y="131.072719" style="fill: #d55e00; stroke: #d55e00; stroke-linejoin: miter"/>
     </g>
    </g>
    <g id="text_27">
     <!-- Fiat -->
     <g style="fill: #7a8290" transform="translate(204.878984 134.222719) scale(0.09 -0.09)">
      <use xlink:href="#DejaVuSans-29"/>
      <use xlink:href="#DejaVuSans-4c" transform="translate(50.234375 0)"/>
      <use xlink:href="#DejaVuSans-44" transform="translate(78.015625 0)"/>
      <use xlink:href="#DejaVuSans-57" transform="translate(139.296875 0)"/>
     </g>
    </g>
   </g>
  </g>
 </g>
 <defs>
  <clipPath id="pfd756cf1e2">
   <rect x="50.197109" y="22.318125" width="390.6" height="205.632"/>
  </clipPath>
 </defs>
</svg>
