<?xml version="1.0" encoding="utf-8" standalone="no"?>
<!DOCTYPE svg PUBLIC "-//W3C//DTD SVG 1.1//EN"
  "http://www.w3.org/Graphics/SVG/1.1/DTD/svg11.dtd">
<svg xmlns:xlink="http://www.w3.org/1999/xlink" width="461.99375pt" height="295.366984pt" viewBox="0 0 461.99375 295.366984" xmlns="http://www.w3.org/2000/svg" version="1.1">
 <metadata>
  <rdf:RDF xmlns:dc="http://purl.org/dc/elements/1.1/" xmlns:cc="http://creativecommons.org/ns#" xmlns:rdf="http://www.w3.org/1999/02/22-rdf-syntax-ns#">
   <cc:Work>
    <dc:type rdf:resource="http://purl.org/dc/dcmitype/StillImage"/>
    <dc:date>2026-06-23T12:27:18.094839</dc:date>
    <dc:format>image/svg+xml</dc:format>
    <dc:creator>
     <cc:Agent>
      <dc:title>Matplotlib v3.11.0, https://matplotlib.org/</dc:title>
     </cc:Agent>
    </dc:creator>
   </cc:Work>
  </rdf:RDF>
 </metadata>
 <defs>
  <style type="text/css">*{stroke-linejoin: round; stroke-linecap: butt}</style>
 </defs>
 <g id="figure_1">
  <g id="patch_1">
   <path d="M 0 295.366984 
L 461.99375 295.366984 
L 461.99375 0 
L 0 0 
L 0 295.366984 
z
" style="fill: none"/>
  </g>
  <g id="axes_1">
   <g id="patch_2">
    <path d="M 64.19375 255.166125 
L 454.79375 255.166125 
L 454.79375 22.318125 
L 64.19375 22.318125 
L 64.19375 255.166125 
z
" style="fill: none"/>
   </g>
   <g id="patch_3">
    <path d="M 81.948295 255.166125 
L 87.966785 255.166125 
L 87.966785 252.482561 
L 81.948295 252.482561 
z
" clip-path="url(#pd0b304065b)" style="fill: #e69f00; opacity: 0.75"/>
   </g>
   <g id="patch_4">
    <path d="M 87.966785 255.166125 
L 93.985275 255.166125 
L 93.985275 251.750679 
L 87.966785 251.750679 
z
" clip-path="url(#pd0b304065b)" style="fill: #e69f00; opacity: 0.75"/>
   </g>
   <g id="patch_5">
    <path d="M 93.985275 255.166125 
L 100.003765 255.166125 
L 100.003765 251.174046 
L 93.985275 251.174046 
z
" clip-path="url(#pd0b304065b)" style="fill: #e69f00; opacity: 0.75"/>
   </g>
   <g id="patch_6">
    <path d="M 100.003765 255.166125 
L 106.022255 255.166125 
L 106.022255 250.475432 
L 100.003765 250.475432 
z
" clip-path="url(#pd0b304065b)" style="fill: #e69f00; opacity: 0.75"/>
   </g>
   <g id="patch_7">
    <path d="M 106.022255 255.166125 
L 112.040745 255.166125 
L 112.040745 251.229491 
L 106.022255 251.229491 
z
" clip-path="url(#pd0b304065b)" style="fill: #e69f00; opacity: 0.75"/>
   </g>
   <g id="patch_8">
    <path d="M 112.040745 255.166125 
L 118.059235 255.166125 
L 118.059235 251.25167 
L 112.040745 251.25167 
z
" clip-path="url(#pd0b304065b)" style="fill: #e69f00; opacity: 0.75"/>
   </g>
   <g id="patch_9">
    <path d="M 118.059235 255.166125 
L 124.077725 255.166125 
L 124.077725 251.063155 
L 118.059235 251.063155 
z
" clip-path="url(#pd0b304065b)" style="fill: #e69f00; opacity: 0.75"/>
   </g>
   <g id="patch_10">
    <path d="M 124.077725 255.166125 
L 130.096215 255.166125 
L 130.096215 251.273848 
L 124.077725 251.273848 
z
" clip-path="url(#pd0b304065b)" style="fill: #e69f00; opacity: 0.75"/>
   </g>
   <g id="patch_11">
    <path d="M 130.096215 255.166125 
L 136.114705 255.166125 
L 136.114705 250.930085 
L 130.096215 250.930085 
z
" clip-path="url(#pd0b304065b)" style="fill: #e69f00; opacity: 0.75"/>
   </g>
   <g id="patch_12">
    <path d="M 136.114705 255.166125 
L 142.133195 255.166125 
L 142.133195 251.207313 
L 136.114705 251.207313 
z
" clip-path="url(#pd0b304065b)" style="fill: #e69f00; opacity: 0.75"/>
   </g>
   <g id="patch_13">
    <path d="M 142.133195 255.166125 
L 148.151685 255.166125 
L 148.151685 250.885729 
L 142.133195 250.885729 
z
" clip-path="url(#pd0b304065b)" style="fill: #e69f00; opacity: 0.75"/>
   </g>
   <g id="patch_14">
    <path d="M 148.151685 255.166125 
L 154.170175 255.166125 
L 154.170175 251.151868 
L 148.151685 251.151868 
z
" clip-path="url(#pd0b304065b)" style="fill: #e69f00; opacity: 0.75"/>
   </g>
   <g id="patch_15">
    <path d="M 154.170175 255.166125 
L 160.188665 255.166125 
L 160.188665 251.052066 
L 154.170175 251.052066 
z
" clip-path="url(#pd0b304065b)" style="fill: #e69f00; opacity: 0.75"/>
   </g>
   <g id="patch_16">
    <path d="M 160.188665 255.166125 
L 166.207155 255.166125 
L 166.207155 250.974442 
L 160.188665 250.974442 
z
" clip-path="url(#pd0b304065b)" style="fill: #e69f00; opacity: 0.75"/>
   </g>
   <g id="patch_17">
    <path d="M 166.207155 255.166125 
L 172.225645 255.166125 
L 172.225645 251.085333 
L 166.207155 251.085333 
z
" clip-path="url(#pd0b304065b)" style="fill: #e69f00; opacity: 0.75"/>
   </g>
   <g id="patch_18">
    <path d="M 172.225645 255.166125 
L 178.244135 255.166125 
L 178.244135 251.296026 
L 172.225645 251.296026 
z
" clip-path="url(#pd0b304065b)" style="fill: #e69f00; opacity: 0.75"/>
   </g>
   <g id="patch_19">
    <path d="M 178.244135 255.166125 
L 184.262625 255.166125 
L 184.262625 250.830283 
L 178.244135 250.830283 
z
" clip-path="url(#pd0b304065b)" style="fill: #e69f00; opacity: 0.75"/>
   </g>
   <g id="patch_20">
    <path d="M 184.262625 255.166125 
L 190.281115 255.166125 
L 190.281115 251.174046 
L 184.262625 251.174046 
z
" clip-path="url(#pd0b304065b)" style="fill: #e69f00; opacity: 0.75"/>
   </g>
   <g id="patch_21">
    <path d="M 190.281115 255.166125 
L 196.299605 255.166125 
L 196.299605 250.918996 
L 190.281115 250.918996 
z
" clip-path="url(#pd0b304065b)" style="fill: #e69f00; opacity: 0.75"/>
   </g>
   <g id="patch_22">
    <path d="M 196.299605 255.166125 
L 202.318095 255.166125 
L 202.318095 251.384739 
L 196.299605 251.384739 
z
" clip-path="url(#pd0b304065b)" style="fill: #e69f00; opacity: 0.75"/>
   </g>
   <g id="patch_23">
    <path d="M 202.318095 255.166125 
L 208.336585 255.166125 
L 208.336585 251.029887 
L 202.318095 251.029887 
z
" clip-path="url(#pd0b304065b)" style="fill: #e69f00; opacity: 0.75"/>
   </g>
   <g id="patch_24">
    <path d="M 208.336585 255.166125 
L 214.355075 255.166125 
L 214.355075 250.952264 
L 208.336585 250.952264 
z
" clip-path="url(#pd0b304065b)" style="fill: #e69f00; opacity: 0.75"/>
   </g>
   <g id="patch_25">
    <path d="M 214.355075 255.166125 
L 220.373565 255.166125 
L 220.373565 251.1186 
L 214.355075 251.1186 
z
" clip-path="url(#pd0b304065b)" style="fill: #e69f00; opacity: 0.75"/>
   </g>
   <g id="patch_26">
    <path d="M 220.373565 255.166125 
L 226.392055 255.166125 
L 226.392055 250.774838 
L 220.373565 250.774838 
z
" clip-path="url(#pd0b304065b)" style="fill: #e69f00; opacity: 0.75"/>
   </g>
   <g id="patch_27">
    <path d="M 226.392055 255.166125 
L 232.410545 255.166125 
L 232.410545 251.284937 
L 226.392055 251.284937 
z
" clip-path="url(#pd0b304065b)" style="fill: #e69f00; opacity: 0.75"/>
   </g>
   <g id="patch_28">
    <path d="M 232.410545 255.166125 
L 238.429035 255.166125 
L 238.429035 251.484541 
L 232.410545 251.484541 
z
" clip-path="url(#pd0b304065b)" style="fill: #e69f00; opacity: 0.75"/>
   </g>
   <g id="patch_29">
    <path d="M 238.429035 255.166125 
L 244.447525 255.166125 
L 244.447525 251.384739 
L 238.429035 251.384739 
z
" clip-path="url(#pd0b304065b)" style="fill: #e69f00; opacity: 0.75"/>
   </g>
   <g id="patch_30">
    <path d="M 244.447525 255.166125 
L 250.466015 255.166125 
L 250.466015 251.362561 
L 244.447525 251.362561 
z
" clip-path="url(#pd0b304065b)" style="fill: #e69f00; opacity: 0.75"/>
   </g>
   <g id="patch_31">
    <path d="M 250.466015 255.166125 
L 256.484505 255.166125 
L 256.484505 251.451274 
L 250.466015 251.451274 
z
" clip-path="url(#pd0b304065b)" style="fill: #e69f00; opacity: 0.75"/>
   </g>
   <g id="patch_32">
    <path d="M 256.484505 255.166125 
L 262.502995 255.166125 
L 262.502995 251.451274 
L 256.484505 251.451274 
z
" clip-path="url(#pd0b304065b)" style="fill: #e69f00; opacity: 0.75"/>
   </g>
   <g id="patch_33">
    <path d="M 262.502995 255.166125 
L 268.521485 255.166125 
L 268.521485 251.462363 
L 262.502995 251.462363 
z
" clip-path="url(#pd0b304065b)" style="fill: #e69f00; opacity: 0.75"/>
   </g>
   <g id="patch_34">
    <path d="M 268.521485 255.166125 
L 274.539975 255.166125 
L 274.539975 251.262759 
L 268.521485 251.262759 
z
" clip-path="url(#pd0b304065b)" style="fill: #e69f00; opacity: 0.75"/>
   </g>
   <g id="patch_35">
    <path d="M 274.539975 255.166125 
L 280.558465 255.166125 
L 280.558465 250.99662 
L 274.539975 250.99662 
z
" clip-path="url(#pd0b304065b)" style="fill: #e69f00; opacity: 0.75"/>
   </g>
   <g id="patch_36">
    <path d="M 280.558465 255.166125 
L 286.576955 255.166125 
L 286.576955 250.564145 
L 280.558465 250.564145 
z
" clip-path="url(#pd0b304065b)" style="fill: #e69f00; opacity: 0.75"/>
   </g>
   <g id="patch_37">
    <path d="M 286.576955 255.166125 
L 292.595445 255.166125 
L 292.595445 251.096422 
L 286.576955 251.096422 
z
" clip-path="url(#pd0b304065b)" style="fill: #e69f00; opacity: 0.75"/>
   </g>
   <g id="patch_38">
    <path d="M 292.595445 255.166125 
L 298.613935 255.166125 
L 298.613935 251.185135 
L 292.595445 251.185135 
z
" clip-path="url(#pd0b304065b)" style="fill: #e69f00; opacity: 0.75"/>
   </g>
   <g id="patch_39">
    <path d="M 298.613935 255.166125 
L 304.632425 255.166125 
L 304.632425 250.941175 
L 298.613935 250.941175 
z
" clip-path="url(#pd0b304065b)" style="fill: #e69f00; opacity: 0.75"/>
   </g>
   <g id="patch_40">
    <path d="M 304.632425 255.166125 
L 310.650915 255.166125 
L 310.650915 251.273848 
L 304.632425 251.273848 
z
" clip-path="url(#pd0b304065b)" style="fill: #e69f00; opacity: 0.75"/>
   </g>
   <g id="patch_41">
    <path d="M 310.650915 255.166125 
L 316.669405 255.166125 
L 316.669405 251.1186 
L 310.650915 251.1186 
z
" clip-path="url(#pd0b304065b)" style="fill: #e69f00; opacity: 0.75"/>
   </g>
   <g id="patch_42">
    <path d="M 316.669405 255.166125 
L 322.687895 255.166125 
L 322.687895 251.074244 
L 316.669405 251.074244 
z
" clip-path="url(#pd0b304065b)" style="fill: #e69f00; opacity: 0.75"/>
   </g>
   <g id="patch_43">
    <path d="M 322.687895 255.166125 
L 328.706385 255.166125 
L 328.706385 251.174046 
L 322.687895 251.174046 
z
" clip-path="url(#pd0b304065b)" style="fill: #e69f00; opacity: 0.75"/>
   </g>
   <g id="patch_44">
    <path d="M 328.706385 255.166125 
L 334.724875 255.166125 
L 334.724875 251.218402 
L 328.706385 251.218402 
z
" clip-path="url(#pd0b304065b)" style="fill: #e69f00; opacity: 0.75"/>
   </g>
   <g id="patch_45">
    <path d="M 334.724875 255.166125 
L 340.743365 255.166125 
L 340.743365 251.440184 
L 334.724875 251.440184 
z
" clip-path="url(#pd0b304065b)" style="fill: #e69f00; opacity: 0.75"/>
   </g>
   <g id="patch_46">
    <path d="M 340.743365 255.166125 
L 346.761855 255.166125 
L 346.761855 251.229491 
L 340.743365 251.229491 
z
" clip-path="url(#pd0b304065b)" style="fill: #e69f00; opacity: 0.75"/>
   </g>
   <g id="patch_47">
    <path d="M 346.761855 255.166125 
L 352.780345 255.166125 
L 352.780345 251.174046 
L 346.761855 251.174046 
z
" clip-path="url(#pd0b304065b)" style="fill: #e69f00; opacity: 0.75"/>
   </g>
   <g id="patch_48">
    <path d="M 352.780345 255.166125 
L 358.798835 255.166125 
L 358.798835 251.284937 
L 352.780345 251.284937 
z
" clip-path="url(#pd0b304065b)" style="fill: #e69f00; opacity: 0.75"/>
   </g>
   <g id="patch_49">
    <path d="M 358.798835 255.166125 
L 364.817325 255.166125 
L 364.817325 251.140778 
L 358.798835 251.140778 
z
" clip-path="url(#pd0b304065b)" style="fill: #e69f00; opacity: 0.75"/>
   </g>
   <g id="patch_50">
    <path d="M 364.817325 255.166125 
L 370.835815 255.166125 
L 370.835815 251.750679 
L 364.817325 251.750679 
z
" clip-path="url(#pd0b304065b)" style="fill: #e69f00; opacity: 0.75"/>
   </g>
   <g id="patch_51">
    <path d="M 370.835815 255.166125 
L 376.854305 255.166125 
L 376.854305 251.296026 
L 370.835815 251.296026 
z
" clip-path="url(#pd0b304065b)" style="fill: #e69f00; opacity: 0.75"/>
   </g>
   <g id="patch_52">
    <path d="M 376.854305 255.166125 
L 382.872795 255.166125 
L 382.872795 250.675036 
L 376.854305 250.675036 
z
" clip-path="url(#pd0b304065b)" style="fill: #e69f00; opacity: 0.75"/>
   </g>
   <g id="patch_53">
    <path d="M 382.872795 255.166125 
L 388.891285 255.166125 
L 388.891285 250.797016 
L 382.872795 250.797016 
z
" clip-path="url(#pd0b304065b)" style="fill: #e69f00; opacity: 0.75"/>
   </g>
   <g id="patch_54">
    <path d="M 388.891285 255.166125 
L 394.909775 255.166125 
L 394.909775 251.063155 
L 388.891285 251.063155 
z
" clip-path="url(#pd0b304065b)" style="fill: #e69f00; opacity: 0.75"/>
   </g>
   <g id="patch_55">
    <path d="M 394.909775 255.166125 
L 400.928265 255.166125 
L 400.928265 251.074244 
L 394.909775 251.074244 
z
" clip-path="url(#pd0b304065b)" style="fill: #e69f00; opacity: 0.75"/>
   </g>
   <g id="patch_56">
    <path d="M 400.928265 255.166125 
L 406.946755 255.166125 
L 406.946755 251.451274 
L 400.928265 251.451274 
z
" clip-path="url(#pd0b304065b)" style="fill: #e69f00; opacity: 0.75"/>
   </g>
   <g id="patch_57">
    <path d="M 406.946755 255.166125 
L 412.965245 255.166125 
L 412.965245 251.318204 
L 406.946755 251.318204 
z
" clip-path="url(#pd0b304065b)" style="fill: #e69f00; opacity: 0.75"/>
   </g>
   <g id="patch_58">
    <path d="M 412.965245 255.166125 
L 418.983735 255.166125 
L 418.983735 252.571274 
L 412.965245 252.571274 
z
" clip-path="url(#pd0b304065b)" style="fill: #e69f00; opacity: 0.75"/>
   </g>
   <g id="patch_59">
    <path d="M 418.983735 255.166125 
L 425.002225 255.166125 
L 425.002225 255.166125 
L 418.983735 255.166125 
z
" clip-path="url(#pd0b304065b)" style="fill: #e69f00; opacity: 0.75"/>
   </g>
   <g id="patch_60">
    <path d="M 425.002225 255.166125 
L 431.020715 255.166125 
L 431.020715 255.166125 
L 425.002225 255.166125 
z
" clip-path="url(#pd0b304065b)" style="fill: #e69f00; opacity: 0.75"/>
   </g>
   <g id="patch_61">
    <path d="M 431.020715 255.166125 
L 437.039205 255.166125 
L 437.039205 255.166125 
L 431.020715 255.166125 
z
" clip-path="url(#pd0b304065b)" style="fill: #e69f00; opacity: 0.75"/>
   </g>
   <g id="patch_62">
    <path d="M 81.948295 255.166125 
L 87.966785 255.166125 
L 87.966785 33.406125 
L 81.948295 33.406125 
z
" clip-path="url(#pd0b304065b)" style="fill: #0072b2; opacity: 0.85"/>
   </g>
   <g id="patch_63">
    <path d="M 87.966785 255.166125 
L 93.985275 255.166125 
L 93.985275 255.143947 
L 87.966785 255.143947 
z
" clip-path="url(#pd0b304065b)" style="fill: #0072b2; opacity: 0.85"/>
   </g>
   <g id="patch_64">
    <path d="M 93.985275 255.166125 
L 100.003765 255.166125 
L 100.003765 255.166125 
L 93.985275 255.166125 
z
" clip-path="url(#pd0b304065b)" style="fill: #0072b2; opacity: 0.85"/>
   </g>
   <g id="patch_65">
    <path d="M 100.003765 255.166125 
L 106.022255 255.166125 
L 106.022255 255.166125 
L 100.003765 255.166125 
z
" clip-path="url(#pd0b304065b)" style="fill: #0072b2; opacity: 0.85"/>
   </g>
   <g id="patch_66">
    <path d="M 106.022255 255.166125 
L 112.040745 255.166125 
L 112.040745 255.166125 
L 106.022255 255.166125 
z
" clip-path="url(#pd0b304065b)" style="fill: #0072b2; opacity: 0.85"/>
   </g>
   <g id="patch_67">
    <path d="M 112.040745 255.166125 
L 118.059235 255.166125 
L 118.059235 255.166125 
L 112.040745 255.166125 
z
" clip-path="url(#pd0b304065b)" style="fill: #0072b2; opacity: 0.85"/>
   </g>
   <g id="patch_68">
    <path d="M 118.059235 255.166125 
L 124.077725 255.166125 
L 124.077725 255.166125 
L 118.059235 255.166125 
z
" clip-path="url(#pd0b304065b)" style="fill: #0072b2; opacity: 0.85"/>
   </g>
   <g id="patch_69">
    <path d="M 124.077725 255.166125 
L 130.096215 255.166125 
L 130.096215 255.166125 
L 124.077725 255.166125 
z
" clip-path="url(#pd0b304065b)" style="fill: #0072b2; opacity: 0.85"/>
   </g>
   <g id="patch_70">
    <path d="M 130.096215 255.166125 
L 136.114705 255.166125 
L 136.114705 255.166125 
L 130.096215 255.166125 
z
" clip-path="url(#pd0b304065b)" style="fill: #0072b2; opacity: 0.85"/>
   </g>
   <g id="patch_71">
    <path d="M 136.114705 255.166125 
L 142.133195 255.166125 
L 142.133195 255.166125 
L 136.114705 255.166125 
z
" clip-path="url(#pd0b304065b)" style="fill: #0072b2; opacity: 0.85"/>
   </g>
   <g id="patch_72">
    <path d="M 142.133195 255.166125 
L 148.151685 255.166125 
L 148.151685 255.166125 
L 142.133195 255.166125 
z
" clip-path="url(#pd0b304065b)" style="fill: #0072b2; opacity: 0.85"/>
   </g>
   <g id="patch_73">
    <path d="M 148.151685 255.166125 
L 154.170175 255.166125 
L 154.170175 255.166125 
L 148.151685 255.166125 
z
" clip-path="url(#pd0b304065b)" style="fill: #0072b2; opacity: 0.85"/>
   </g>
   <g id="patch_74">
    <path d="M 154.170175 255.166125 
L 160.188665 255.166125 
L 160.188665 255.166125 
L 154.170175 255.166125 
z
" clip-path="url(#pd0b304065b)" style="fill: #0072b2; opacity: 0.85"/>
   </g>
   <g id="patch_75">
    <path d="M 160.188665 255.166125 
L 166.207155 255.166125 
L 166.207155 255.166125 
L 160.188665 255.166125 
z
" clip-path="url(#pd0b304065b)" style="fill: #0072b2; opacity: 0.85"/>
   </g>
   <g id="patch_76">
    <path d="M 166.207155 255.166125 
L 172.225645 255.166125 
L 172.225645 255.166125 
L 166.207155 255.166125 
z
" clip-path="url(#pd0b304065b)" style="fill: #0072b2; opacity: 0.85"/>
   </g>
   <g id="patch_77">
    <path d="M 172.225645 255.166125 
L 178.244135 255.166125 
L 178.244135 255.166125 
L 172.225645 255.166125 
z
" clip-path="url(#pd0b304065b)" style="fill: #0072b2; opacity: 0.85"/>
   </g>
   <g id="patch_78">
    <path d="M 178.244135 255.166125 
L 184.262625 255.166125 
L 184.262625 255.166125 
L 178.244135 255.166125 
z
" clip-path="url(#pd0b304065b)" style="fill: #0072b2; opacity: 0.85"/>
   </g>
   <g id="patch_79">
    <path d="M 184.262625 255.166125 
L 190.281115 255.166125 
L 190.281115 255.166125 
L 184.262625 255.166125 
z
" clip-path="url(#pd0b304065b)" style="fill: #0072b2; opacity: 0.85"/>
   </g>
   <g id="patch_80">
    <path d="M 190.281115 255.166125 
L 196.299605 255.166125 
L 196.299605 255.166125 
L 190.281115 255.166125 
z
" clip-path="url(#pd0b304065b)" style="fill: #0072b2; opacity: 0.85"/>
   </g>
   <g id="patch_81">
    <path d="M 196.299605 255.166125 
L 202.318095 255.166125 
L 202.318095 255.166125 
L 196.299605 255.166125 
z
" clip-path="url(#pd0b304065b)" style="fill: #0072b2; opacity: 0.85"/>
   </g>
   <g id="patch_82">
    <path d="M 202.318095 255.166125 
L 208.336585 255.166125 
L 208.336585 255.166125 
L 202.318095 255.166125 
z
" clip-path="url(#pd0b304065b)" style="fill: #0072b2; opacity: 0.85"/>
   </g>
   <g id="patch_83">
    <path d="M 208.336585 255.166125 
L 214.355075 255.166125 
L 214.355075 255.166125 
L 208.336585 255.166125 
z
" clip-path="url(#pd0b304065b)" style="fill: #0072b2; opacity: 0.85"/>
   </g>
   <g id="patch_84">
    <path d="M 214.355075 255.166125 
L 220.373565 255.166125 
L 220.373565 255.166125 
L 214.355075 255.166125 
z
" clip-path="url(#pd0b304065b)" style="fill: #0072b2; opacity: 0.85"/>
   </g>
   <g id="patch_85">
    <path d="M 220.373565 255.166125 
L 226.392055 255.166125 
L 226.392055 255.166125 
L 220.373565 255.166125 
z
" clip-path="url(#pd0b304065b)" style="fill: #0072b2; opacity: 0.85"/>
   </g>
   <g id="patch_86">
    <path d="M 226.392055 255.166125 
L 232.410545 255.166125 
L 232.410545 255.166125 
L 226.392055 255.166125 
z
" clip-path="url(#pd0b304065b)" style="fill: #0072b2; opacity: 0.85"/>
   </g>
   <g id="patch_87">
    <path d="M 232.410545 255.166125 
L 238.429035 255.166125 
L 238.429035 255.166125 
L 232.410545 255.166125 
z
" clip-path="url(#pd0b304065b)" style="fill: #0072b2; opacity: 0.85"/>
   </g>
   <g id="patch_88">
    <path d="M 238.429035 255.166125 
L 244.447525 255.166125 
L 244.447525 255.166125 
L 238.429035 255.166125 
z
" clip-path="url(#pd0b304065b)" style="fill: #0072b2; opacity: 0.85"/>
   </g>
   <g id="patch_89">
    <path d="M 244.447525 255.166125 
L 250.466015 255.166125 
L 250.466015 255.166125 
L 244.447525 255.166125 
z
" clip-path="url(#pd0b304065b)" style="fill: #0072b2; opacity: 0.85"/>
   </g>
   <g id="patch_90">
    <path d="M 250.466015 255.166125 
L 256.484505 255.166125 
L 256.484505 255.166125 
L 250.466015 255.166125 
z
" clip-path="url(#pd0b304065b)" style="fill: #0072b2; opacity: 0.85"/>
   </g>
   <g id="patch_91">
    <path d="M 256.484505 255.166125 
L 262.502995 255.166125 
L 262.502995 255.166125 
L 256.484505 255.166125 
z
" clip-path="url(#pd0b304065b)" style="fill: #0072b2; opacity: 0.85"/>
   </g>
   <g id="patch_92">
    <path d="M 262.502995 255.166125 
L 268.521485 255.166125 
L 268.521485 255.166125 
L 262.502995 255.166125 
z
" clip-path="url(#pd0b304065b)" style="fill: #0072b2; opacity: 0.85"/>
   </g>
   <g id="patch_93">
    <path d="M 268.521485 255.166125 
L 274.539975 255.166125 
L 274.539975 255.166125 
L 268.521485 255.166125 
z
" clip-path="url(#pd0b304065b)" style="fill: #0072b2; opacity: 0.85"/>
   </g>
   <g id="patch_94">
    <path d="M 274.539975 255.166125 
L 280.558465 255.166125 
L 280.558465 255.166125 
L 274.539975 255.166125 
z
" clip-path="url(#pd0b304065b)" style="fill: #0072b2; opacity: 0.85"/>
   </g>
   <g id="patch_95">
    <path d="M 280.558465 255.166125 
L 286.576955 255.166125 
L 286.576955 255.166125 
L 280.558465 255.166125 
z
" clip-path="url(#pd0b304065b)" style="fill: #0072b2; opacity: 0.85"/>
   </g>
   <g id="patch_96">
    <path d="M 286.576955 255.166125 
L 292.595445 255.166125 
L 292.595445 255.166125 
L 286.576955 255.166125 
z
" clip-path="url(#pd0b304065b)" style="fill: #0072b2; opacity: 0.85"/>
   </g>
   <g id="patch_97">
    <path d="M 292.595445 255.166125 
L 298.613935 255.166125 
L 298.613935 255.166125 
L 292.595445 255.166125 
z
" clip-path="url(#pd0b304065b)" style="fill: #0072b2; opacity: 0.85"/>
   </g>
   <g id="patch_98">
    <path d="M 298.613935 255.166125 
L 304.632425 255.166125 
L 304.632425 255.166125 
L 298.613935 255.166125 
z
" clip-path="url(#pd0b304065b)" style="fill: #0072b2; opacity: 0.85"/>
   </g>
   <g id="patch_99">
    <path d="M 304.632425 255.166125 
L 310.650915 255.166125 
L 310.650915 255.166125 
L 304.632425 255.166125 
z
" clip-path="url(#pd0b304065b)" style="fill: #0072b2; opacity: 0.85"/>
   </g>
   <g id="patch_100">
    <path d="M 310.650915 255.166125 
L 316.669405 255.166125 
L 316.669405 255.166125 
L 310.650915 255.166125 
z
" clip-path="url(#pd0b304065b)" style="fill: #0072b2; opacity: 0.85"/>
   </g>
   <g id="patch_101">
    <path d="M 316.669405 255.166125 
L 322.687895 255.166125 
L 322.687895 255.166125 
L 316.669405 255.166125 
z
" clip-path="url(#pd0b304065b)" style="fill: #0072b2; opacity: 0.85"/>
   </g>
   <g id="patch_102">
    <path d="M 322.687895 255.166125 
L 328.706385 255.166125 
L 328.706385 255.166125 
L 322.687895 255.166125 
z
" clip-path="url(#pd0b304065b)" style="fill: #0072b2; opacity: 0.85"/>
   </g>
   <g id="patch_103">
    <path d="M 328.706385 255.166125 
L 334.724875 255.166125 
L 334.724875 255.166125 
L 328.706385 255.166125 
z
" clip-path="url(#pd0b304065b)" style="fill: #0072b2; opacity: 0.85"/>
   </g>
   <g id="patch_104">
    <path d="M 334.724875 255.166125 
L 340.743365 255.166125 
L 340.743365 255.166125 
L 334.724875 255.166125 
z
" clip-path="url(#pd0b304065b)" style="fill: #0072b2; opacity: 0.85"/>
   </g>
   <g id="patch_105">
    <path d="M 340.743365 255.166125 
L 346.761855 255.166125 
L 346.761855 255.166125 
L 340.743365 255.166125 
z
" clip-path="url(#pd0b304065b)" style="fill: #0072b2; opacity: 0.85"/>
   </g>
   <g id="patch_106">
    <path d="M 346.761855 255.166125 
L 352.780345 255.166125 
L 352.780345 255.166125 
L 346.761855 255.166125 
z
" clip-path="url(#pd0b304065b)" style="fill: #0072b2; opacity: 0.85"/>
   </g>
   <g id="patch_107">
    <path d="M 352.780345 255.166125 
L 358.798835 255.166125 
L 358.798835 255.166125 
L 352.780345 255.166125 
z
" clip-path="url(#pd0b304065b)" style="fill: #0072b2; opacity: 0.85"/>
   </g>
   <g id="patch_108">
    <path d="M 358.798835 255.166125 
L 364.817325 255.166125 
L 364.817325 255.166125 
L 358.798835 255.166125 
z
" clip-path="url(#pd0b304065b)" style="fill: #0072b2; opacity: 0.85"/>
   </g>
   <g id="patch_109">
    <path d="M 364.817325 255.166125 
L 370.835815 255.166125 
L 370.835815 255.166125 
L 364.817325 255.166125 
z
" clip-path="url(#pd0b304065b)" style="fill: #0072b2; opacity: 0.85"/>
   </g>
   <g id="patch_110">
    <path d="M 370.835815 255.166125 
L 376.854305 255.166125 
L 376.854305 255.166125 
L 370.835815 255.166125 
z
" clip-path="url(#pd0b304065b)" style="fill: #0072b2; opacity: 0.85"/>
   </g>
   <g id="patch_111">
    <path d="M 376.854305 255.166125 
L 382.872795 255.166125 
L 382.872795 255.166125 
L 376.854305 255.166125 
z
" clip-path="url(#pd0b304065b)" style="fill: #0072b2; opacity: 0.85"/>
   </g>
   <g id="patch_112">
    <path d="M 382.872795 255.166125 
L 388.891285 255.166125 
L 388.891285 255.166125 
L 382.872795 255.166125 
z
" clip-path="url(#pd0b304065b)" style="fill: #0072b2; opacity: 0.85"/>
   </g>
   <g id="patch_113">
    <path d="M 388.891285 255.166125 
L 394.909775 255.166125 
L 394.909775 255.166125 
L 388.891285 255.166125 
z
" clip-path="url(#pd0b304065b)" style="fill: #0072b2; opacity: 0.85"/>
   </g>
   <g id="patch_114">
    <path d="M 394.909775 255.166125 
L 400.928265 255.166125 
L 400.928265 255.166125 
L 394.909775 255.166125 
z
" clip-path="url(#pd0b304065b)" style="fill: #0072b2; opacity: 0.85"/>
   </g>
   <g id="patch_115">
    <path d="M 400.928265 255.166125 
L 406.946755 255.166125 
L 406.946755 255.166125 
L 400.928265 255.166125 
z
" clip-path="url(#pd0b304065b)" style="fill: #0072b2; opacity: 0.85"/>
   </g>
   <g id="patch_116">
    <path d="M 406.946755 255.166125 
L 412.965245 255.166125 
L 412.965245 255.166125 
L 406.946755 255.166125 
z
" clip-path="url(#pd0b304065b)" style="fill: #0072b2; opacity: 0.85"/>
   </g>
   <g id="patch_117">
    <path d="M 412.965245 255.166125 
L 418.983735 255.166125 
L 418.983735 255.166125 
L 412.965245 255.166125 
z
" clip-path="url(#pd0b304065b)" style="fill: #0072b2; opacity: 0.85"/>
   </g>
   <g id="patch_118">
    <path d="M 418.983735 255.166125 
L 425.002225 255.166125 
L 425.002225 255.166125 
L 418.983735 255.166125 
z
" clip-path="url(#pd0b304065b)" style="fill: #0072b2; opacity: 0.85"/>
   </g>
   <g id="patch_119">
    <path d="M 425.002225 255.166125 
L 431.020715 255.166125 
L 431.020715 255.166125 
L 425.002225 255.166125 
z
" clip-path="url(#pd0b304065b)" style="fill: #0072b2; opacity: 0.85"/>
   </g>
   <g id="patch_120">
    <path d="M 431.020715 255.166125 
L 437.039205 255.166125 
L 437.039205 255.166125 
L 431.020715 255.166125 
z
" clip-path="url(#pd0b304065b)" style="fill: #0072b2; opacity: 0.85"/>
   </g>
   <g id="matplotlib.axis_1">
    <g id="xtick_1">
     <g id="line2d_1">
      <path d="M 81.948295 255.166125 
L 81.948295 22.318125 
" clip-path="url(#pd0b304065b)" style="fill: none; stroke: #7a8290; stroke-opacity: 0.18; stroke-width: 0.6; stroke-linecap: square"/>
     </g>
     <g id="line2d_2">
      <defs>
       <path id="maf12d75cde" d="M 0 0 
L 0 3.5 
" style="stroke: #7a8290; stroke-width: 0.8"/>
      </defs>
      <g>
       <use xlink:href="#maf12d75cde" x="81.948295" y="255.166125" style="fill: #7a8290; stroke: #7a8290; stroke-width: 0.8"/>
      </g>
     </g>
     <g id="text_1">
      <!-- 0 -->
      <g style="fill: #7a8290" transform="translate(78.44892 270.523547) scale(0.11 -0.11)">
       <defs>
        <path id="DejaVuSans-13" d="M 2034 4250 
Q 1547 4250 1301 3770 
Q 1056 3291 1056 2328 
Q 1056 1369 1301 889 
Q 1547 409 2034 409 
Q 2525 409 2770 889 
Q 3016 1369 3016 2328 
Q 3016 3291 2770 3770 
Q 2525 4250 2034 4250 
z
M 2034 4750 
Q 2819 4750 3233 4129 
Q 3647 3509 3647 2328 
Q 3647 1150 3233 529 
Q 2819 -91 2034 -91 
Q 1250 -91 836 529 
Q 422 1150 422 2328 
Q 422 3509 836 4129 
Q 1250 4750 2034 4750 
z
" transform="scale(0.015625)"/>
       </defs>
       <use xlink:href="#DejaVuSans-13"/>
      </g>
     </g>
    </g>
    <g id="xtick_2">
     <g id="line2d_3">
      <path d="M 137.43125 255.166125 
L 137.43125 22.318125 
" clip-path="url(#pd0b304065b)" style="fill: none; stroke: #7a8290; stroke-opacity: 0.18; stroke-width: 0.6; stroke-linecap: square"/>
     </g>
     <g id="line2d_4">
      <g>
       <use xlink:href="#maf12d75cde" x="137.43125" y="255.166125" style="fill: #7a8290; stroke: #7a8290; stroke-width: 0.8"/>
      </g>
     </g>
     <g id="text_2">
      <!-- 500 -->
      <g style="fill: #7a8290" transform="translate(126.933125 270.523547) scale(0.11 -0.11)">
       <defs>
        <path id="DejaVuSans-18" d="M 691 4666 
L 3169 4666 
L 3169 4134 
L 1269 4134 
L 1269 2991 
Q 1406 3038 1543 3061 
Q 1681 3084 1819 3084 
Q 2600 3084 3056 2656 
Q 3513 2228 3513 1497 
Q 3513 744 3044 326 
Q 2575 -91 1722 -91 
Q 1428 -91 1123 -41 
Q 819 9 494 109 
L 494 744 
Q 775 591 1075 516 
Q 1375 441 1709 441 
Q 2250 441 2565 725 
Q 2881 1009 2881 1497 
Q 2881 1984 2565 2268 
Q 2250 2553 1709 2553 
Q 1456 2553 1204 2497 
Q 953 2441 691 2322 
L 691 4666 
z
" transform="scale(0.015625)"/>
       </defs>
       <use xlink:href="#DejaVuSans-18"/>
       <use xlink:href="#DejaVuSans-13" transform="translate(63.625 0)"/>
       <use xlink:href="#DejaVuSans-13" transform="translate(127.25 0)"/>
      </g>
     </g>
    </g>
    <g id="xtick_3">
     <g id="line2d_5">
      <path d="M 192.914205 255.166125 
L 192.914205 22.318125 
" clip-path="url(#pd0b304065b)" style="fill: none; stroke: #7a8290; stroke-opacity: 0.18; stroke-width: 0.6; stroke-linecap: square"/>
     </g>
     <g id="line2d_6">
      <g>
       <use xlink:href="#maf12d75cde" x="192.914205" y="255.166125" style="fill: #7a8290; stroke: #7a8290; stroke-width: 0.8"/>
      </g>
     </g>
     <g id="text_3">
      <!-- 1000 -->
      <g style="fill: #7a8290" transform="translate(178.916705 270.523547) scale(0.11 -0.11)">
       <defs>
        <path id="DejaVuSans-14" d="M 794 531 
L 1825 531 
L 1825 4091 
L 703 3866 
L 703 4441 
L 1819 4666 
L 2450 4666 
L 2450 531 
L 3481 531 
L 3481 0 
L 794 0 
L 794 531 
z
" transform="scale(0.015625)"/>
       </defs>
       <use xlink:href="#DejaVuSans-14"/>
       <use xlink:href="#DejaVuSans-13" transform="translate(63.625 0)"/>
       <use xlink:href="#DejaVuSans-13" transform="translate(127.25 0)"/>
       <use xlink:href="#DejaVuSans-13" transform="translate(190.875 0)"/>
      </g>
     </g>
    </g>
    <g id="xtick_4">
     <g id="line2d_7">
      <path d="M 248.397159 255.166125 
L 248.397159 22.318125 
" clip-path="url(#pd0b304065b)" style="fill: none; stroke: #7a8290; stroke-opacity: 0.18; stroke-width: 0.6; stroke-linecap: square"/>
     </g>
     <g id="line2d_8">
      <g>
       <use xlink:href="#maf12d75cde" x="248.397159" y="255.166125" style="fill: #7a8290; stroke: #7a8290; stroke-width: 0.8"/>
      </g>
     </g>
     <g id="text_4">
      <!-- 1500 -->
      <g style="fill: #7a8290" transform="translate(234.399659 270.523547) scale(0.11 -0.11)">
       <use xlink:href="#DejaVuSans-14"/>
       <use xlink:href="#DejaVuSans-18" transform="translate(63.625 0)"/>
       <use xlink:href="#DejaVuSans-13" transform="translate(127.25 0)"/>
       <use xlink:href="#DejaVuSans-13" transform="translate(190.875 0)"/>
      </g>
     </g>
    </g>
    <g id="xtick_5">
     <g id="line2d_9">
      <path d="M 303.880114 255.166125 
L 303.880114 22.318125 
" clip-path="url(#pd0b304065b)" style="fill: none; stroke: #7a8290; stroke-opacity: 0.18; stroke-width: 0.6; stroke-linecap: square"/>
     </g>
     <g id="line2d_10">
      <g>
       <use xlink:href="#maf12d75cde" x="303.880114" y="255.166125" style="fill: #7a8290; stroke: #7a8290; stroke-width: 0.8"/>
      </g>
     </g>
     <g id="text_5">
      <!-- 2000 -->
      <g style="fill: #7a8290" transform="translate(289.882614 270.523547) scale(0.11 -0.11)">
       <defs>
        <path id="DejaVuSans-15" d="M 1228 531 
L 3431 531 
L 3431 0 
L 469 0 
L 469 531 
Q 828 903 1448 1529 
Q 2069 2156 2228 2338 
Q 2531 2678 2651 2914 
Q 2772 3150 2772 3378 
Q 2772 3750 2511 3984 
Q 2250 4219 1831 4219 
Q 1534 4219 1204 4116 
Q 875 4013 500 3803 
L 500 4441 
Q 881 4594 1212 4672 
Q 1544 4750 1819 4750 
Q 2544 4750 2975 4387 
Q 3406 4025 3406 3419 
Q 3406 3131 3298 2873 
Q 3191 2616 2906 2266 
Q 2828 2175 2409 1742 
Q 1991 1309 1228 531 
z
" transform="scale(0.015625)"/>
       </defs>
       <use xlink:href="#DejaVuSans-15"/>
       <use xlink:href="#DejaVuSans-13" transform="translate(63.625 0)"/>
       <use xlink:href="#DejaVuSans-13" transform="translate(127.25 0)"/>
       <use xlink:href="#DejaVuSans-13" transform="translate(190.875 0)"/>
      </g>
     </g>
    </g>
    <g id="xtick_6">
     <g id="line2d_11">
      <path d="M 359.363068 255.166125 
L 359.363068 22.318125 
" clip-path="url(#pd0b304065b)" style="fill: none; stroke: #7a8290; stroke-opacity: 0.18; stroke-width: 0.6; stroke-linecap: square"/>
     </g>
     <g id="line2d_12">
      <g>
       <use xlink:href="#maf12d75cde" x="359.363068" y="255.166125" style="fill: #7a8290; stroke: #7a8290; stroke-width: 0.8"/>
      </g>
     </g>
     <g id="text_6">
      <!-- 2500 -->
      <g style="fill: #7a8290" transform="translate(345.365568 270.523547) scale(0.11 -0.11)">
       <use xlink:href="#DejaVuSans-15"/>
       <use xlink:href="#DejaVuSans-18" transform="translate(63.625 0)"/>
       <use xlink:href="#DejaVuSans-13" transform="translate(127.25 0)"/>
       <use xlink:href="#DejaVuSans-13" transform="translate(190.875 0)"/>
      </g>
     </g>
    </g>
    <g id="xtick_7">
     <g id="line2d_13">
      <path d="M 414.846023 255.166125 
L 414.846023 22.318125 
" clip-path="url(#pd0b304065b)" style="fill: none; stroke: #7a8290; stroke-opacity: 0.18; stroke-width: 0.6; stroke-linecap: square"/>
     </g>
     <g id="line2d_14">
      <g>
       <use xlink:href="#maf12d75cde" x="414.846023" y="255.166125" style="fill: #7a8290; stroke: #7a8290; stroke-width: 0.8"/>
      </g>
     </g>
     <g id="text_7">
      <!-- 3000 -->
      <g style="fill: #7a8290" transform="translate(400.848523 270.523547) scale(0.11 -0.11)">
       <defs>
        <path id="DejaVuSans-16" d="M 2597 2516 
Q 3050 2419 3304 2112 
Q 3559 1806 3559 1356 
Q 3559 666 3084 287 
Q 2609 -91 1734 -91 
Q 1441 -91 1130 -33 
Q 819 25 488 141 
L 488 750 
Q 750 597 1062 519 
Q 1375 441 1716 441 
Q 2309 441 2620 675 
Q 2931 909 2931 1356 
Q 2931 1769 2642 2001 
Q 2353 2234 1838 2234 
L 1294 2234 
L 1294 2753 
L 1863 2753 
Q 2328 2753 2575 2939 
Q 2822 3125 2822 3475 
Q 2822 3834 2567 4026 
Q 2313 4219 1838 4219 
Q 1578 4219 1281 4162 
Q 984 4106 628 3988 
L 628 4550 
Q 988 4650 1302 4700 
Q 1616 4750 1894 4750 
Q 2613 4750 3031 4423 
Q 3450 4097 3450 3541 
Q 3450 3153 3228 2886 
Q 3006 2619 2597 2516 
z
" transform="scale(0.015625)"/>
       </defs>
       <use xlink:href="#DejaVuSans-16"/>
       <use xlink:href="#DejaVuSans-13" transform="translate(63.625 0)"/>
       <use xlink:href="#DejaVuSans-13" transform="translate(127.25 0)"/>
       <use xlink:href="#DejaVuSans-13" transform="translate(190.875 0)"/>
      </g>
     </g>
    </g>
    <g id="text_8">
     <!-- Delivery latency (ms, synthetic) -->
     <g style="fill: #7a8290" transform="translate(171.612344 285.524406) scale(0.11 -0.11)">
      <defs>
       <path id="DejaVuSans-27" d="M 1259 4147 
L 1259 519 
L 2022 519 
Q 2988 519 3436 956 
Q 3884 1394 3884 2338 
Q 3884 3275 3436 3711 
Q 2988 4147 2022 4147 
L 1259 4147 
z
M 628 4666 
L 1925 4666 
Q 3281 4666 3915 4102 
Q 4550 3538 4550 2338 
Q 4550 1131 3912 565 
Q 3275 0 1925 0 
L 628 0 
L 628 4666 
z
" transform="scale(0.015625)"/>
       <path id="DejaVuSans-48" d="M 3597 1894 
L 3597 1613 
L 953 1613 
Q 991 1019 1311 708 
Q 1631 397 2203 397 
Q 2534 397 2845 478 
Q 3156 559 3463 722 
L 3463 178 
Q 3153 47 2828 -22 
Q 2503 -91 2169 -91 
Q 1331 -91 842 396 
Q 353 884 353 1716 
Q 353 2575 817 3079 
Q 1281 3584 2069 3584 
Q 2775 3584 3186 3129 
Q 3597 2675 3597 1894 
z
M 3022 2063 
Q 3016 2534 2758 2815 
Q 2500 3097 2075 3097 
Q 1594 3097 1305 2825 
Q 1016 2553 972 2059 
L 3022 2063 
z
" transform="scale(0.015625)"/>
       <path id="DejaVuSans-4f" d="M 603 4863 
L 1178 4863 
L 1178 0 
L 603 0 
L 603 4863 
z
" transform="scale(0.015625)"/>
       <path id="DejaVuSans-4c" d="M 603 3500 
L 1178 3500 
L 1178 0 
L 603 0 
L 603 3500 
z
M 603 4863 
L 1178 4863 
L 1178 4134 
L 603 4134 
L 603 4863 
z
" transform="scale(0.015625)"/>
       <path id="DejaVuSans-59" d="M 191 3500 
L 800 3500 
L 1894 563 
L 2988 3500 
L 3597 3500 
L 2284 0 
L 1503 0 
L 191 3500 
z
" transform="scale(0.015625)"/>
       <path id="DejaVuSans-55" d="M 2631 2963 
Q 2534 3019 2420 3045 
Q 2306 3072 2169 3072 
Q 1681 3072 1420 2755 
Q 1159 2438 1159 1844 
L 1159 0 
L 581 0 
L 581 3500 
L 1159 3500 
L 1159 2956 
Q 1341 3275 1631 3429 
Q 1922 3584 2338 3584 
Q 2397 3584 2469 3576 
Q 2541 3569 2628 3553 
L 2631 2963 
z
" transform="scale(0.015625)"/>
       <path id="DejaVuSans-5c" d="M 2059 -325 
Q 1816 -950 1584 -1140 
Q 1353 -1331 966 -1331 
L 506 -1331 
L 506 -850 
L 844 -850 
Q 1081 -850 1212 -737 
Q 1344 -625 1503 -206 
L 1606 56 
L 191 3500 
L 800 3500 
L 1894 763 
L 2988 3500 
L 3597 3500 
L 2059 -325 
z
" transform="scale(0.015625)"/>
       <path id="DejaVuSans-3" transform="scale(0.015625)"/>
       <path id="DejaVuSans-44" d="M 2194 1759 
Q 1497 1759 1228 1600 
Q 959 1441 959 1056 
Q 959 750 1161 570 
Q 1363 391 1709 391 
Q 2188 391 2477 730 
Q 2766 1069 2766 1631 
L 2766 1759 
L 2194 1759 
z
M 3341 1997 
L 3341 0 
L 2766 0 
L 2766 531 
Q 2569 213 2275 61 
Q 1981 -91 1556 -91 
Q 1019 -91 701 211 
Q 384 513 384 1019 
Q 384 1609 779 1909 
Q 1175 2209 1959 2209 
L 2766 2209 
L 2766 2266 
Q 2766 2663 2505 2880 
Q 2244 3097 1772 3097 
Q 1472 3097 1187 3025 
Q 903 2953 641 2809 
L 641 3341 
Q 956 3463 1253 3523 
Q 1550 3584 1831 3584 
Q 2591 3584 2966 3190 
Q 3341 2797 3341 1997 
z
" transform="scale(0.015625)"/>
       <path id="DejaVuSans-57" d="M 1172 4494 
L 1172 3500 
L 2356 3500 
L 2356 3053 
L 1172 3053 
L 1172 1153 
Q 1172 725 1289 603 
Q 1406 481 1766 481 
L 2356 481 
L 2356 0 
L 1766 0 
Q 1100 0 847 248 
Q 594 497 594 1153 
L 594 3053 
L 172 3053 
L 172 3500 
L 594 3500 
L 594 4494 
L 1172 4494 
z
" transform="scale(0.015625)"/>
       <path id="DejaVuSans-51" d="M 3513 2113 
L 3513 0 
L 2938 0 
L 2938 2094 
Q 2938 2591 2744 2837 
Q 2550 3084 2163 3084 
Q 1697 3084 1428 2787 
Q 1159 2491 1159 1978 
L 1159 0 
L 581 0 
L 581 3500 
L 1159 3500 
L 1159 2956 
Q 1366 3272 1645 3428 
Q 1925 3584 2291 3584 
Q 2894 3584 3203 3211 
Q 3513 2838 3513 2113 
z
" transform="scale(0.015625)"/>
       <path id="DejaVuSans-46" d="M 3122 3366 
L 3122 2828 
Q 2878 2963 2633 3030 
Q 2388 3097 2138 3097 
Q 1578 3097 1268 2742 
Q 959 2388 959 1747 
Q 959 1106 1268 751 
Q 1578 397 2138 397 
Q 2388 397 2633 464 
Q 2878 531 3122 666 
L 3122 134 
Q 2881 22 2623 -34 
Q 2366 -91 2075 -91 
Q 1284 -91 818 406 
Q 353 903 353 1747 
Q 353 2603 823 3093 
Q 1294 3584 2113 3584 
Q 2378 3584 2631 3529 
Q 2884 3475 3122 3366 
z
" transform="scale(0.015625)"/>
       <path id="DejaVuSans-b" d="M 1984 4856 
Q 1566 4138 1362 3434 
Q 1159 2731 1159 2009 
Q 1159 1288 1364 580 
Q 1569 -128 1984 -844 
L 1484 -844 
Q 1016 -109 783 600 
Q 550 1309 550 2009 
Q 550 2706 781 3412 
Q 1013 4119 1484 4856 
L 1984 4856 
z
" transform="scale(0.015625)"/>
       <path id="DejaVuSans-50" d="M 3328 2828 
Q 3544 3216 3844 3400 
Q 4144 3584 4550 3584 
Q 5097 3584 5394 3201 
Q 5691 2819 5691 2113 
L 5691 0 
L 5113 0 
L 5113 2094 
Q 5113 2597 4934 2840 
Q 4756 3084 4391 3084 
Q 3944 3084 3684 2787 
Q 3425 2491 3425 1978 
L 3425 0 
L 2847 0 
L 2847 2094 
Q 2847 2600 2669 2842 
Q 2491 3084 2119 3084 
Q 1678 3084 1418 2786 
Q 1159 2488 1159 1978 
L 1159 0 
L 581 0 
L 581 3500 
L 1159 3500 
L 1159 2956 
Q 1356 3278 1631 3431 
Q 1906 3584 2284 3584 
Q 2666 3584 2933 3390 
Q 3200 3197 3328 2828 
z
" transform="scale(0.015625)"/>
       <path id="DejaVuSans-56" d="M 2834 3397 
L 2834 2853 
Q 2591 2978 2328 3040 
Q 2066 3103 1784 3103 
Q 1356 3103 1142 2972 
Q 928 2841 928 2578 
Q 928 2378 1081 2264 
Q 1234 2150 1697 2047 
L 1894 2003 
Q 2506 1872 2764 1633 
Q 3022 1394 3022 966 
Q 3022 478 2636 193 
Q 2250 -91 1575 -91 
Q 1294 -91 989 -36 
Q 684 19 347 128 
L 347 722 
Q 666 556 975 473 
Q 1284 391 1588 391 
Q 1994 391 2212 530 
Q 2431 669 2431 922 
Q 2431 1156 2273 1281 
Q 2116 1406 1581 1522 
L 1381 1569 
Q 847 1681 609 1914 
Q 372 2147 372 2553 
Q 372 3047 722 3315 
Q 1072 3584 1716 3584 
Q 2034 3584 2315 3537 
Q 2597 3491 2834 3397 
z
" transform="scale(0.015625)"/>
       <path id="DejaVuSans-f" d="M 750 794 
L 1409 794 
L 1409 256 
L 897 -744 
L 494 -744 
L 750 256 
L 750 794 
z
" transform="scale(0.015625)"/>
       <path id="DejaVuSans-4b" d="M 3513 2113 
L 3513 0 
L 2938 0 
L 2938 2094 
Q 2938 2591 2744 2837 
Q 2550 3084 2163 3084 
Q 1697 3084 1428 2787 
Q 1159 2491 1159 1978 
L 1159 0 
L 581 0 
L 581 4863 
L 1159 4863 
L 1159 2956 
Q 1366 3272 1645 3428 
Q 1925 3584 2291 3584 
Q 2894 3584 3203 3211 
Q 3513 2838 3513 2113 
z
" transform="scale(0.015625)"/>
       <path id="DejaVuSans-c" d="M 513 4856 
L 1013 4856 
Q 1481 4119 1714 3412 
Q 1947 2706 1947 2009 
Q 1947 1309 1714 600 
Q 1481 -109 1013 -844 
L 513 -844 
Q 928 -128 1133 580 
Q 1338 1288 1338 2009 
Q 1338 2731 1133 3434 
Q 928 4138 513 4856 
z
" transform="scale(0.015625)"/>
      </defs>
      <use xlink:href="#DejaVuSans-27"/>
      <use xlink:href="#DejaVuSans-48" transform="translate(77 0)"/>
      <use xlink:href="#DejaVuSans-4f" transform="translate(138.53125 0)"/>
      <use xlink:href="#DejaVuSans-4c" transform="translate(166.3125 0)"/>
      <use xlink:href="#DejaVuSans-59" transform="translate(194.09375 0)"/>
      <use xlink:href="#DejaVuSans-48" transform="translate(253.28125 0)"/>
      <use xlink:href="#DejaVuSans-55" transform="translate(314.8125 0)"/>
      <use xlink:href="#DejaVuSans-5c" transform="translate(355.921875 0)"/>
      <use xlink:href="#DejaVuSans-3" transform="translate(415.109375 0)"/>
      <use xlink:href="#DejaVuSans-4f" transform="translate(446.890625 0)"/>
      <use xlink:href="#DejaVuSans-44" transform="translate(474.671875 0)"/>
      <use xlink:href="#DejaVuSans-57" transform="translate(535.953125 0)"/>
      <use xlink:href="#DejaVuSans-48" transform="translate(575.15625 0)"/>
      <use xlink:href="#DejaVuSans-51" transform="translate(636.6875 0)"/>
      <use xlink:href="#DejaVuSans-46" transform="translate(700.0625 0)"/>
      <use xlink:href="#DejaVuSans-5c" transform="translate(755.046875 0)"/>
      <use xlink:href="#DejaVuSans-3" transform="translate(814.234375 0)"/>
      <use xlink:href="#DejaVuSans-b" transform="translate(846.015625 0)"/>
      <use xlink:href="#DejaVuSans-50" transform="translate(885.03125 0)"/>
      <use xlink:href="#DejaVuSans-56" transform="translate(982.4375 0)"/>
      <use xlink:href="#DejaVuSans-f" transform="translate(1034.53125 0)"/>
      <use xlink:href="#DejaVuSans-3" transform="translate(1066.3125 0)"/>
      <use xlink:href="#DejaVuSans-56" transform="translate(1098.09375 0)"/>
      <use xlink:href="#DejaVuSans-5c" transform="translate(1150.1875 0)"/>
      <use xlink:href="#DejaVuSans-51" transform="translate(1209.375 0)"/>
      <use xlink:href="#DejaVuSans-57" transform="translate(1272.75 0)"/>
      <use xlink:href="#DejaVuSans-4b" transform="translate(1311.953125 0)"/>
      <use xlink:href="#DejaVuSans-48" transform="translate(1375.328125 0)"/>
      <use xlink:href="#DejaVuSans-57" transform="translate(1436.859375 0)"/>
      <use xlink:href="#DejaVuSans-4c" transform="translate(1476.0625 0)"/>
      <use xlink:href="#DejaVuSans-46" transform="translate(1503.84375 0)"/>
      <use xlink:href="#DejaVuSans-c" transform="translate(1558.828125 0)"/>
     </g>
    </g>
   </g>
   <g id="matplotlib.axis_2">
    <g id="ytick_1">
     <g id="line2d_15">
      <path d="M 64.19375 255.166125 
L 454.79375 255.166125 
" clip-path="url(#pd0b304065b)" style="fill: none; stroke: #7a8290; stroke-opacity: 0.18; stroke-width: 0.6; stroke-linecap: square"/>
     </g>
     <g id="line2d_16">
      <defs>
       <path id="mf221b1b88b" d="M 0 0 
L -3.5 0 
" style="stroke: #7a8290; stroke-width: 0.8"/>
      </defs>
      <g>
       <use xlink:href="#mf221b1b88b" x="64.19375" y="255.166125" style="fill: #7a8290; stroke: #7a8290; stroke-width: 0.8"/>
      </g>
     </g>
     <g id="text_9">
      <!-- 0 -->
      <g style="fill: #7a8290" transform="translate(50.195 259.344836) scale(0.11 -0.11)">
       <use xlink:href="#DejaVuSans-13"/>
      </g>
     </g>
    </g>
    <g id="ytick_2">
     <g id="line2d_17">
      <path d="M 64.19375 227.443353 
L 454.79375 227.443353 
" clip-path="url(#pd0b304065b)" style="fill: none; stroke: #7a8290; stroke-opacity: 0.18; stroke-width: 0.6; stroke-linecap: square"/>
     </g>
     <g id="line2d_18">
      <g>
       <use xlink:href="#mf221b1b88b" x="64.19375" y="227.443353" style="fill: #7a8290; stroke: #7a8290; stroke-width: 0.8"/>
      </g>
     </g>
     <g id="text_10">
      <!-- 2500 -->
      <g style="fill: #7a8290" transform="translate(29.19875 231.622064) scale(0.11 -0.11)">
       <use xlink:href="#DejaVuSans-15"/>
       <use xlink:href="#DejaVuSans-18" transform="translate(63.625 0)"/>
       <use xlink:href="#DejaVuSans-13" transform="translate(127.25 0)"/>
       <use xlink:href="#DejaVuSans-13" transform="translate(190.875 0)"/>
      </g>
     </g>
    </g>
    <g id="ytick_3">
     <g id="line2d_19">
      <path d="M 64.19375 199.72058 
L 454.79375 199.72058 
" clip-path="url(#pd0b304065b)" style="fill: none; stroke: #7a8290; stroke-opacity: 0.18; stroke-width: 0.6; stroke-linecap: square"/>
     </g>
     <g id="line2d_20">
      <g>
       <use xlink:href="#mf221b1b88b" x="64.19375" y="199.72058" style="fill: #7a8290; stroke: #7a8290; stroke-width: 0.8"/>
      </g>
     </g>
     <g id="text_11">
      <!-- 5000 -->
      <g style="fill: #7a8290" transform="translate(29.19875 203.899291) scale(0.11 -0.11)">
       <use xlink:href="#DejaVuSans-18"/>
       <use xlink:href="#DejaVuSans-13" transform="translate(63.625 0)"/>
       <use xlink:href="#DejaVuSans-13" transform="translate(127.25 0)"/>
       <use xlink:href="#DejaVuSans-13" transform="translate(190.875 0)"/>
      </g>
     </g>
    </g>
    <g id="ytick_4">
     <g id="line2d_21">
      <path d="M 64.19375 171.997808 
L 454.79375 171.997808 
" clip-path="url(#pd0b304065b)" style="fill: none; stroke: #7a8290; stroke-opacity: 0.18; stroke-width: 0.6; stroke-linecap: square"/>
     </g>
     <g id="line2d_22">
      <g>
       <use xlink:href="#mf221b1b88b" x="64.19375" y="171.997808" style="fill: #7a8290; stroke: #7a8290; stroke-width: 0.8"/>
      </g>
     </g>
     <g id="text_12">
      <!-- 7500 -->
      <g style="fill: #7a8290" transform="translate(29.19875 176.176519) scale(0.11 -0.11)">
       <defs>
        <path id="DejaVuSans-1a" d="M 525 4666 
L 3525 4666 
L 3525 4397 
L 1831 0 
L 1172 0 
L 2766 4134 
L 525 4134 
L 525 4666 
z
" transform="scale(0.015625)"/>
       </defs>
       <use xlink:href="#DejaVuSans-1a"/>
       <use xlink:href="#DejaVuSans-18" transform="translate(63.625 0)"/>
       <use xlink:href="#DejaVuSans-13" transform="translate(127.25 0)"/>
       <use xlink:href="#DejaVuSans-13" transform="translate(190.875 0)"/>
      </g>
     </g>
    </g>
    <g id="ytick_5">
     <g id="line2d_23">
      <path d="M 64.19375 144.275036 
L 454.79375 144.275036 
" clip-path="url(#pd0b304065b)" style="fill: none; stroke: #7a8290; stroke-opacity: 0.18; stroke-width: 0.6; stroke-linecap: square"/>
     </g>
     <g id="line2d_24">
      <g>
       <use xlink:href="#mf221b1b88b" x="64.19375" y="144.275036" style="fill: #7a8290; stroke: #7a8290; stroke-width: 0.8"/>
      </g>
     </g>
     <g id="text_13">
      <!-- 10000 -->
      <g style="fill: #7a8290" transform="translate(22.2 148.453747) scale(0.11 -0.11)">
       <use xlink:href="#DejaVuSans-14"/>
       <use xlink:href="#DejaVuSans-13" transform="translate(63.625 0)"/>
       <use xlink:href="#DejaVuSans-13" transform="translate(127.25 0)"/>
       <use xlink:href="#DejaVuSans-13" transform="translate(190.875 0)"/>
       <use xlink:href="#DejaVuSans-13" transform="translate(254.5 0)"/>
      </g>
     </g>
    </g>
    <g id="ytick_6">
     <g id="line2d_25">
      <path d="M 64.19375 116.552264 
L 454.79375 116.552264 
" clip-path="url(#pd0b304065b)" style="fill: none; stroke: #7a8290; stroke-opacity: 0.18; stroke-width: 0.6; stroke-linecap: square"/>
     </g>
     <g id="line2d_26">
      <g>
       <use xlink:href="#mf221b1b88b" x="64.19375" y="116.552264" style="fill: #7a8290; stroke: #7a8290; stroke-width: 0.8"/>
      </g>
     </g>
     <g id="text_14">
      <!-- 12500 -->
      <g style="fill: #7a8290" transform="translate(22.2 120.730975) scale(0.11 -0.11)">
       <use xlink:href="#DejaVuSans-14"/>
       <use xlink:href="#DejaVuSans-15" transform="translate(63.625 0)"/>
       <use xlink:href="#DejaVuSans-18" transform="translate(127.25 0)"/>
       <use xlink:href="#DejaVuSans-13" transform="translate(190.875 0)"/>
       <use xlink:href="#DejaVuSans-13" transform="translate(254.5 0)"/>
      </g>
     </g>
    </g>
    <g id="ytick_7">
     <g id="line2d_27">
      <path d="M 64.19375 88.829491 
L 454.79375 88.829491 
" clip-path="url(#pd0b304065b)" style="fill: none; stroke: #7a8290; stroke-opacity: 0.18; stroke-width: 0.6; stroke-linecap: square"/>
     </g>
     <g id="line2d_28">
      <g>
       <use xlink:href="#mf221b1b88b" x="64.19375" y="88.829491" style="fill: #7a8290; stroke: #7a8290; stroke-width: 0.8"/>
      </g>
     </g>
     <g id="text_15">
      <!-- 15000 -->
      <g style="fill: #7a8290" transform="translate(22.2 93.008202) scale(0.11 -0.11)">
       <use xlink:href="#DejaVuSans-14"/>
       <use xlink:href="#DejaVuSans-18" transform="translate(63.625 0)"/>
       <use xlink:href="#DejaVuSans-13" transform="translate(127.25 0)"/>
       <use xlink:href="#DejaVuSans-13" transform="translate(190.875 0)"/>
       <use xlink:href="#DejaVuSans-13" transform="translate(254.5 0)"/>
      </g>
     </g>
    </g>
    <g id="ytick_8">
     <g id="line2d_29">
      <path d="M 64.19375 61.106719 
L 454.79375 61.106719 
" clip-path="url(#pd0b304065b)" style="fill: none; stroke: #7a8290; stroke-opacity: 0.18; stroke-width: 0.6; stroke-linecap: square"/>
     </g>
     <g id="line2d_30">
      <g>
       <use xlink:href="#mf221b1b88b" x="64.19375" y="61.106719" style="fill: #7a8290; stroke: #7a8290; stroke-width: 0.8"/>
      </g>
     </g>
     <g id="text_16">
      <!-- 17500 -->
      <g style="fill: #7a8290" transform="translate(22.2 65.28543) scale(0.11 -0.11)">
       <use xlink:href="#DejaVuSans-14"/>
       <use xlink:href="#DejaVuSans-1a" transform="translate(63.625 0)"/>
       <use xlink:href="#DejaVuSans-18" transform="translate(127.25 0)"/>
       <use xlink:href="#DejaVuSans-13" transform="translate(190.875 0)"/>
       <use xlink:href="#DejaVuSans-13" transform="translate(254.5 0)"/>
      </g>
     </g>
    </g>
    <g id="ytick_9">
     <g id="line2d_31">
      <path d="M 64.19375 33.383947 
L 454.79375 33.383947 
" clip-path="url(#pd0b304065b)" style="fill: none; stroke: #7a8290; stroke-opacity: 0.18; stroke-width: 0.6; stroke-linecap: square"/>
     </g>
     <g id="line2d_32">
      <g>
       <use xlink:href="#mf221b1b88b" x="64.19375" y="33.383947" style="fill: #7a8290; stroke: #7a8290; stroke-width: 0.8"/>
      </g>
     </g>
     <g id="text_17">
      <!-- 20000 -->
      <g style="fill: #7a8290" transform="translate(22.2 37.562658) scale(0.11 -0.11)">
       <use xlink:href="#DejaVuSans-15"/>
       <use xlink:href="#DejaVuSans-13" transform="translate(63.625 0)"/>
       <use xlink:href="#DejaVuSans-13" transform="translate(127.25 0)"/>
       <use xlink:href="#DejaVuSans-13" transform="translate(190.875 0)"/>
       <use xlink:href="#DejaVuSans-13" transform="translate(254.5 0)"/>
      </g>
     </g>
    </g>
    <g id="text_18">
     <!-- Events -->
     <g style="fill: #7a8290" transform="translate(15.557422 157.363922) rotate(-90) scale(0.11 -0.11)">
      <defs>
       <path id="DejaVuSans-28" d="M 628 4666 
L 3578 4666 
L 3578 4134 
L 1259 4134 
L 1259 2753 
L 3481 2753 
L 3481 2222 
L 1259 2222 
L 1259 531 
L 3634 531 
L 3634 0 
L 628 0 
L 628 4666 
z
" transform="scale(0.015625)"/>
      </defs>
      <use xlink:href="#DejaVuSans-28"/>
      <use xlink:href="#DejaVuSans-59" transform="translate(63.1875 0)"/>
      <use xlink:href="#DejaVuSans-48" transform="translate(122.375 0)"/>
      <use xlink:href="#DejaVuSans-51" transform="translate(183.90625 0)"/>
      <use xlink:href="#DejaVuSans-57" transform="translate(247.28125 0)"/>
      <use xlink:href="#DejaVuSans-56" transform="translate(286.484375 0)"/>
     </g>
    </g>
   </g>
   <g id="line2d_33">
    <path d="M 249.203639 255.166125 
L 249.203639 22.318125 
" clip-path="url(#pd0b304065b)" style="fill: none; stroke-dasharray: 3.7,1.6; stroke-dashoffset: 0; stroke: #e69f00"/>
   </g>
   <g id="line2d_34">
    <path d="M 84.021259 255.166125 
L 84.021259 22.318125 
" clip-path="url(#pd0b304065b)" style="fill: none; stroke: #0072b2; stroke-linecap: square"/>
   </g>
   <g id="patch_121">
    <path d="M 64.19375 255.166125 
L 64.19375 22.318125 
" style="fill: none; stroke: #7a8290; stroke-width: 0.8; stroke-linejoin: miter; stroke-linecap: square"/>
   </g>
   <g id="patch_122">
    <path d="M 64.19375 255.166125 
L 454.79375 255.166125 
" style="fill: none; stroke: #7a8290; stroke-width: 0.8; stroke-linejoin: miter; stroke-linecap: square"/>
   </g>
   <g id="text_19">
    <!-- How long until the client sees an event: poll vs. push -->
    <g style="fill: #7a8290" transform="translate(100.605312 16.318125) scale(0.12 -0.12)">
     <defs>
      <path id="DejaVuSans-2b" d="M 628 4666 
L 1259 4666 
L 1259 2753 
L 3553 2753 
L 3553 4666 
L 4184 4666 
L 4184 0 
L 3553 0 
L 3553 2222 
L 1259 2222 
L 1259 0 
L 628 0 
L 628 4666 
z
" transform="scale(0.015625)"/>
      <path id="DejaVuSans-52" d="M 1959 3097 
Q 1497 3097 1228 2736 
Q 959 2375 959 1747 
Q 959 1119 1226 758 
Q 1494 397 1959 397 
Q 2419 397 2687 759 
Q 2956 1122 2956 1747 
Q 2956 2369 2687 2733 
Q 2419 3097 1959 3097 
z
M 1959 3584 
Q 2709 3584 3137 3096 
Q 3566 2609 3566 1747 
Q 3566 888 3137 398 
Q 2709 -91 1959 -91 
Q 1206 -91 779 398 
Q 353 888 353 1747 
Q 353 2609 779 3096 
Q 1206 3584 1959 3584 
z
" transform="scale(0.015625)"/>
      <path id="DejaVuSans-5a" d="M 269 3500 
L 844 3500 
L 1563 769 
L 2278 3500 
L 2956 3500 
L 3675 769 
L 4391 3500 
L 4966 3500 
L 4050 0 
L 3372 0 
L 2619 2869 
L 1863 0 
L 1184 0 
L 269 3500 
z
" transform="scale(0.015625)"/>
      <path id="DejaVuSans-4a" d="M 2906 1791 
Q 2906 2416 2648 2759 
Q 2391 3103 1925 3103 
Q 1463 3103 1205 2759 
Q 947 2416 947 1791 
Q 947 1169 1205 825 
Q 1463 481 1925 481 
Q 2391 481 2648 825 
Q 2906 1169 2906 1791 
z
M 3481 434 
Q 3481 -459 3084 -895 
Q 2688 -1331 1869 -1331 
Q 1566 -1331 1297 -1286 
Q 1028 -1241 775 -1147 
L 775 -588 
Q 1028 -725 1275 -790 
Q 1522 -856 1778 -856 
Q 2344 -856 2625 -561 
Q 2906 -266 2906 331 
L 2906 616 
Q 2728 306 2450 153 
Q 2172 0 1784 0 
Q 1141 0 747 490 
Q 353 981 353 1791 
Q 353 2603 747 3093 
Q 1141 3584 1784 3584 
Q 2172 3584 2450 3431 
Q 2728 3278 2906 2969 
L 2906 3500 
L 3481 3500 
L 3481 434 
z
" transform="scale(0.015625)"/>
      <path id="DejaVuSans-58" d="M 544 1381 
L 544 3500 
L 1119 3500 
L 1119 1403 
Q 1119 906 1312 657 
Q 1506 409 1894 409 
Q 2359 409 2629 706 
Q 2900 1003 2900 1516 
L 2900 3500 
L 3475 3500 
L 3475 0 
L 2900 0 
L 2900 538 
Q 2691 219 2414 64 
Q 2138 -91 1772 -91 
Q 1169 -91 856 284 
Q 544 659 544 1381 
z
M 1991 3584 
L 1991 3584 
z
" transform="scale(0.015625)"/>
      <path id="DejaVuSans-1d" d="M 750 794 
L 1409 794 
L 1409 0 
L 750 0 
L 750 794 
z
M 750 3309 
L 1409 3309 
L 1409 2516 
L 750 2516 
L 750 3309 
z
" transform="scale(0.015625)"/>
      <path id="DejaVuSans-53" d="M 1159 525 
L 1159 -1331 
L 581 -1331 
L 581 3500 
L 1159 3500 
L 1159 2969 
Q 1341 3281 1617 3432 
Q 1894 3584 2278 3584 
Q 2916 3584 3314 3078 
Q 3713 2572 3713 1747 
Q 3713 922 3314 415 
Q 2916 -91 2278 -91 
Q 1894 -91 1617 61 
Q 1341 213 1159 525 
z
M 3116 1747 
Q 3116 2381 2855 2742 
Q 2594 3103 2138 3103 
Q 1681 3103 1420 2742 
Q 1159 2381 1159 1747 
Q 1159 1113 1420 752 
Q 1681 391 2138 391 
Q 2594 391 2855 752 
Q 3116 1113 3116 1747 
z
" transform="scale(0.015625)"/>
      <path id="DejaVuSans-11" d="M 684 794 
L 1344 794 
L 1344 0 
L 684 0 
L 684 794 
z
" transform="scale(0.015625)"/>
     </defs>
     <use xlink:href="#DejaVuSans-2b"/>
     <use xlink:href="#DejaVuSans-52" transform="translate(75.203125 0)"/>
     <use xlink:href="#DejaVuSans-5a" transform="translate(136.390625 0)"/>
     <use xlink:href="#DejaVuSans-3" transform="translate(218.171875 0)"/>
     <use xlink:href="#DejaVuSans-4f" transform="translate(249.953125 0)"/>
     <use xlink:href="#DejaVuSans-52" transform="translate(277.734375 0)"/>
     <use xlink:href="#DejaVuSans-51" transform="translate(338.921875 0)"/>
     <use xlink:href="#DejaVuSans-4a" transform="translate(402.296875 0)"/>
     <use xlink:href="#DejaVuSans-3" transform="translate(465.78125 0)"/>
     <use xlink:href="#DejaVuSans-58" transform="translate(497.5625 0)"/>
     <use xlink:href="#DejaVuSans-51" transform="translate(560.9375 0)"/>
     <use xlink:href="#DejaVuSans-57" transform="translate(624.3125 0)"/>
     <use xlink:href="#DejaVuSans-4c" transform="translate(663.515625 0)"/>
     <use xlink:href="#DejaVuSans-4f" transform="translate(691.296875 0)"/>
     <use xlink:href="#DejaVuSans-3" transform="translate(719.078125 0)"/>
     <use xlink:href="#DejaVuSans-57" transform="translate(750.859375 0)"/>
     <use xlink:href="#DejaVuSans-4b" transform="translate(790.0625 0)"/>
     <use xlink:href="#DejaVuSans-48" transform="translate(853.4375 0)"/>
     <use xlink:href="#DejaVuSans-3" transform="translate(914.96875 0)"/>
     <use xlink:href="#DejaVuSans-46" transform="translate(946.75 0)"/>
     <use xlink:href="#DejaVuSans-4f" transform="translate(1001.734375 0)"/>
     <use xlink:href="#DejaVuSans-4c" transform="translate(1029.515625 0)"/>
     <use xlink:href="#DejaVuSans-48" transform="translate(1057.296875 0)"/>
     <use xlink:href="#DejaVuSans-51" transform="translate(1118.828125 0)"/>
     <use xlink:href="#DejaVuSans-57" transform="translate(1182.203125 0)"/>
     <use xlink:href="#DejaVuSans-3" transform="translate(1221.40625 0)"/>
     <use xlink:href="#DejaVuSans-56" transform="translate(1253.1875 0)"/>
     <use xlink:href="#DejaVuSans-48" transform="translate(1305.28125 0)"/>
     <use xlink:href="#DejaVuSans-48" transform="translate(1366.8125 0)"/>
     <use xlink:href="#DejaVuSans-56" transform="translate(1428.34375 0)"/>
     <use xlink:href="#DejaVuSans-3" transform="translate(1480.4375 0)"/>
     <use xlink:href="#DejaVuSans-44" transform="translate(1512.21875 0)"/>
     <use xlink:href="#DejaVuSans-51" transform="translate(1573.5 0)"/>
     <use xlink:href="#DejaVuSans-3" transform="translate(1636.875 0)"/>
     <use xlink:href="#DejaVuSans-48" transform="translate(1668.65625 0)"/>
     <use xlink:href="#DejaVuSans-59" transform="translate(1730.1875 0)"/>
     <use xlink:href="#DejaVuSans-48" transform="translate(1789.375 0)"/>
     <use xlink:href="#DejaVuSans-51" transform="translate(1850.90625 0)"/>
     <use xlink:href="#DejaVuSans-57" transform="translate(1914.28125 0)"/>
     <use xlink:href="#DejaVuSans-1d" transform="translate(1953.484375 0)"/>
     <use xlink:href="#DejaVuSans-3" transform="translate(1987.171875 0)"/>
     <use xlink:href="#DejaVuSans-53" transform="translate(2018.953125 0)"/>
     <use xlink:href="#DejaVuSans-52" transform="translate(2082.4375 0)"/>
     <use xlink:href="#DejaVuSans-4f" transform="translate(2143.625 0)"/>
     <use xlink:href="#DejaVuSans-4f" transform="translate(2171.40625 0)"/>
     <use xlink:href="#DejaVuSans-3" transform="translate(2199.1875 0)"/>
     <use xlink:href="#DejaVuSans-59" transform="translate(2230.96875 0)"/>
     <use xlink:href="#DejaVuSans-56" transform="translate(2290.15625 0)"/>
     <use xlink:href="#DejaVuSans-11" transform="translate(2342.25 0)"/>
     <use xlink:href="#DejaVuSans-3" transform="translate(2374.03125 0)"/>
     <use xlink:href="#DejaVuSans-53" transform="translate(2405.8125 0)"/>
     <use xlink:href="#DejaVuSans-58" transform="translate(2469.296875 0)"/>
     <use xlink:href="#DejaVuSans-56" transform="translate(2532.671875 0)"/>
     <use xlink:href="#DejaVuSans-4b" transform="translate(2584.765625 0)"/>
    </g>
   </g>
   <g id="legend_1">
    <g id="patch_123">
     <path d="M 275.37 40.576406 
L 297.37 40.576406 
L 297.37 32.876406 
L 275.37 32.876406 
z
" style="fill: #e69f00; opacity: 0.75"/>
    </g>
    <g id="text_20">
     <!-- HTTP polling (3s interval) -->
     <g style="fill: #7a8290" transform="translate(306.17 40.576406) scale(0.11 -0.11)">
      <defs>
       <path id="DejaVuSans-37" d="M -19 4666 
L 3928 4666 
L 3928 4134 
L 2272 4134 
L 2272 0 
L 1638 0 
L 1638 4134 
L -19 4134 
L -19 4666 
z
" transform="scale(0.015625)"/>
       <path id="DejaVuSans-33" d="M 1259 4147 
L 1259 2394 
L 2053 2394 
Q 2494 2394 2734 2622 
Q 2975 2850 2975 3272 
Q 2975 3691 2734 3919 
Q 2494 4147 2053 4147 
L 1259 4147 
z
M 628 4666 
L 2053 4666 
Q 2838 4666 3239 4311 
Q 3641 3956 3641 3272 
Q 3641 2581 3239 2228 
Q 2838 1875 2053 1875 
L 1259 1875 
L 1259 0 
L 628 0 
L 628 4666 
z
" transform="scale(0.015625)"/>
      </defs>
      <use xlink:href="#DejaVuSans-2b"/>
      <use xlink:href="#DejaVuSans-37" transform="translate(75.203125 0)"/>
      <use xlink:href="#DejaVuSans-37" transform="translate(134.53125 0)"/>
      <use xlink:href="#DejaVuSans-33" transform="translate(195.609375 0)"/>
      <use xlink:href="#DejaVuSans-3" transform="translate(255.90625 0)"/>
      <use xlink:href="#DejaVuSans-53" transform="translate(287.6875 0)"/>
      <use xlink:href="#DejaVuSans-52" transform="translate(351.171875 0)"/>
      <use xlink:href="#DejaVuSans-4f" transform="translate(412.359375 0)"/>
      <use xlink:href="#DejaVuSans-4f" transform="translate(440.140625 0)"/>
      <use xlink:href="#DejaVuSans-4c" transform="translate(467.921875 0)"/>
      <use xlink:href="#DejaVuSans-51" transform="translate(495.703125 0)"/>
      <use xlink:href="#DejaVuSans-4a" transform="translate(559.078125 0)"/>
      <use xlink:href="#DejaVuSans-3" transform="translate(622.5625 0)"/>
      <use xlink:href="#DejaVuSans-b" transform="translate(654.34375 0)"/>
      <use xlink:href="#DejaVuSans-16" transform="translate(693.359375 0)"/>
      <use xlink:href="#DejaVuSans-56" transform="translate(756.984375 0)"/>
      <use xlink:href="#DejaVuSans-3" transform="translate(809.078125 0)"/>
      <use xlink:href="#DejaVuSans-4c" transform="translate(840.859375 0)"/>
      <use xlink:href="#DejaVuSans-51" transform="translate(868.640625 0)"/>
      <use xlink:href="#DejaVuSans-57" transform="translate(932.015625 0)"/>
      <use xlink:href="#DejaVuSans-48" transform="translate(971.21875 0)"/>
      <use xlink:href="#DejaVuSans-55" transform="translate(1032.75 0)"/>
      <use xlink:href="#DejaVuSans-59" transform="translate(1073.859375 0)"/>
      <use xlink:href="#DejaVuSans-44" transform="translate(1133.046875 0)"/>
      <use xlink:href="#DejaVuSans-4f" transform="translate(1194.328125 0)"/>
      <use xlink:href="#DejaVuSans-c" transform="translate(1222.109375 0)"/>
     </g>
    </g>
    <g id="patch_124">
     <path d="M 275.37 57.077266 
L 297.37 57.077266 
L 297.37 49.377266 
L 275.37 49.377266 
z
" style="fill: #0072b2; opacity: 0.85"/>
    </g>
    <g id="text_21">
     <!-- WebSocket push -->
     <g style="fill: #7a8290" transform="translate(306.17 57.077266) scale(0.11 -0.11)">
      <defs>
       <path id="DejaVuSans-3a" d="M 213 4666 
L 850 4666 
L 1831 722 
L 2809 4666 
L 3519 4666 
L 4500 722 
L 5478 4666 
L 6119 4666 
L 4947 0 
L 4153 0 
L 3169 4050 
L 2175 0 
L 1381 0 
L 213 4666 
z
" transform="scale(0.015625)"/>
       <path id="DejaVuSans-45" d="M 3116 1747 
Q 3116 2381 2855 2742 
Q 2594 3103 2138 3103 
Q 1681 3103 1420 2742 
Q 1159 2381 1159 1747 
Q 1159 1113 1420 752 
Q 1681 391 2138 391 
Q 2594 391 2855 752 
Q 3116 1113 3116 1747 
z
M 1159 2969 
Q 1341 3281 1617 3432 
Q 1894 3584 2278 3584 
Q 2916 3584 3314 3078 
Q 3713 2572 3713 1747 
Q 3713 922 3314 415 
Q 2916 -91 2278 -91 
Q 1894 -91 1617 61 
Q 1341 213 1159 525 
L 1159 0 
L 581 0 
L 581 4863 
L 1159 4863 
L 1159 2969 
z
" transform="scale(0.015625)"/>
       <path id="DejaVuSans-36" d="M 3425 4513 
L 3425 3897 
Q 3066 4069 2747 4153 
Q 2428 4238 2131 4238 
Q 1616 4238 1336 4038 
Q 1056 3838 1056 3469 
Q 1056 3159 1242 3001 
Q 1428 2844 1947 2747 
L 2328 2669 
Q 3034 2534 3370 2195 
Q 3706 1856 3706 1288 
Q 3706 609 3251 259 
Q 2797 -91 1919 -91 
Q 1588 -91 1214 -16 
Q 841 59 441 206 
L 441 856 
Q 825 641 1194 531 
Q 1563 422 1919 422 
Q 2459 422 2753 634 
Q 3047 847 3047 1241 
Q 3047 1584 2836 1778 
Q 2625 1972 2144 2069 
L 1759 2144 
Q 1053 2284 737 2584 
Q 422 2884 422 3419 
Q 422 4038 858 4394 
Q 1294 4750 2059 4750 
Q 2388 4750 2728 4690 
Q 3069 4631 3425 4513 
z
" transform="scale(0.015625)"/>
       <path id="DejaVuSans-4e" d="M 581 4863 
L 1159 4863 
L 1159 1991 
L 2875 3500 
L 3609 3500 
L 1753 1863 
L 3688 0 
L 2938 0 
L 1159 1709 
L 1159 0 
L 581 0 
L 581 4863 
z
" transform="scale(0.015625)"/>
      </defs>
      <use xlink:href="#DejaVuSans-3a"/>
      <use xlink:href="#DejaVuSans-48" transform="translate(93.015625 0)"/>
      <use xlink:href="#DejaVuSans-45" transform="translate(154.546875 0)"/>
      <use xlink:href="#DejaVuSans-36" transform="translate(218.03125 0)"/>
      <use xlink:href="#DejaVuSans-52" transform="translate(281.515625 0)"/>
      <use xlink:href="#DejaVuSans-46" transform="translate(342.703125 0)"/>
      <use xlink:href="#DejaVuSans-4e" transform="translate(397.6875 0)"/>
      <use xlink:href="#DejaVuSans-48" transform="translate(452.03125 0)"/>
      <use xlink:href="#DejaVuSans-57" transform="translate(513.5625 0)"/>
      <use xlink:href="#DejaVuSans-3" transform="translate(552.765625 0)"/>
      <use xlink:href="#DejaVuSans-53" transform="translate(584.546875 0)"/>
      <use xlink:href="#DejaVuSans-58" transform="translate(648.03125 0)"/>
      <use xlink:href="#DejaVuSans-56" transform="translate(711.40625 0)"/>
      <use xlink:href="#DejaVuSans-4b" transform="translate(763.5 0)"/>
     </g>
    </g>
   </g>
  </g>
 </g>
 <defs>
  <clipPath id="pd0b304065b">
   <rect x="64.19375" y="22.318125" width="390.6" height="232.848"/>
  </clipPath>
 </defs>
</svg>
