<?xml version="1.0" encoding="utf-8" standalone="no"?>
<!DOCTYPE svg PUBLIC "-//W3C//DTD SVG 1.1//EN"
  "http://www.w3.org/Graphics/SVG/1.1/DTD/svg11.dtd">
<svg xmlns:xlink="http://www.w3.org/1999/xlink" width="444.494297pt" height="297.349563pt" viewBox="0 0 444.494297 297.349563" xmlns="http://www.w3.org/2000/svg" version="1.1">
 <metadata>
  <rdf:RDF xmlns:dc="http://purl.org/dc/elements/1.1/" xmlns:cc="http://creativecommons.org/ns#" xmlns:rdf="http://www.w3.org/1999/02/22-rdf-syntax-ns#">
   <cc:Work>
    <dc:type rdf:resource="http://purl.org/dc/dcmitype/StillImage"/>
    <dc:date>2026-07-13T10:50:55.499472</dc:date>
    <dc:format>image/svg+xml</dc:format>
    <dc:creator>
     <cc:Agent>
      <dc:title>Matplotlib v3.11.0, https://matplotlib.org/</dc:title>
     </cc:Agent>
    </dc:creator>
   </cc:Work>
  </rdf:RDF>
 </metadata>
 <defs>
  <style type="text/css">*{stroke-linejoin: round; stroke-linecap: butt}</style>
 </defs>
 <g id="figure_1">
  <g id="patch_1">
   <path d="M 0 297.349563 
L 444.494297 297.349563 
L 444.494297 0 
L 0 0 
L 0 297.349563 
z
" style="fill: none"/>
  </g>
  <g id="axes_1">
   <g id="patch_2">
    <path d="M 46.694297 255.166125 
L 437.294297 255.166125 
L 437.294297 22.318125 
L 46.694297 22.318125 
L 46.694297 255.166125 
z
" style="fill: none"/>
   </g>
   <g id="matplotlib.axis_1">
    <g id="xtick_1">
     <g id="line2d_1">
      <path d="M 95.070364 255.166125 
L 95.070364 22.318125 
" clip-path="url(#p26dc4b63b1)" style="fill: none; stroke: #7a8290; stroke-opacity: 0.18; stroke-width: 0.6; stroke-linecap: square"/>
     </g>
     <g id="line2d_2">
      <defs>
       <path id="m98b0257124" d="M 0 0 
L 0 3.5 
" style="stroke: #7a8290; stroke-width: 0.8"/>
      </defs>
      <g>
       <use xlink:href="#m98b0257124" x="95.070364" y="255.166125" style="fill: #7a8290; stroke: #7a8290; stroke-width: 0.8"/>
      </g>
     </g>
     <g id="text_1">
      <!-- $\mathdefault{10^{0}}$ -->
      <g style="fill: #7a8290" transform="translate(85.390364 272.506125) scale(0.11 -0.11)">
       <defs>
        <path id="DejaVuSans-14" d="M 794 531 
L 1825 531 
L 1825 4091 
L 703 3866 
L 703 4441 
L 1819 4666 
L 2450 4666 
L 2450 531 
L 3481 531 
L 3481 0 
L 794 0 
L 794 531 
z
" transform="scale(0.015625)"/>
        <path id="DejaVuSans-13" d="M 2034 4250 
Q 1547 4250 1301 3770 
Q 1056 3291 1056 2328 
Q 1056 1369 1301 889 
Q 1547 409 2034 409 
Q 2525 409 2770 889 
Q 3016 1369 3016 2328 
Q 3016 3291 2770 3770 
Q 2525 4250 2034 4250 
z
M 2034 4750 
Q 2819 4750 3233 4129 
Q 3647 3509 3647 2328 
Q 3647 1150 3233 529 
Q 2819 -91 2034 -91 
Q 1250 -91 836 529 
Q 422 1150 422 2328 
Q 422 3509 836 4129 
Q 1250 4750 2034 4750 
z
" transform="scale(0.015625)"/>
       </defs>
       <use xlink:href="#DejaVuSans-14" transform="translate(0 0.746875)"/>
       <use xlink:href="#DejaVuSans-13" transform="translate(63.623047 0.746875)"/>
       <use xlink:href="#DejaVuSans-13" transform="translate(128.203125 42.046875) scale(0.7)"/>
      </g>
     </g>
    </g>
    <g id="xtick_2">
     <g id="line2d_3">
      <path d="M 187.589074 255.166125 
L 187.589074 22.318125 
" clip-path="url(#p26dc4b63b1)" style="fill: none; stroke: #7a8290; stroke-opacity: 0.18; stroke-width: 0.6; stroke-linecap: square"/>
     </g>
     <g id="line2d_4">
      <g>
       <use xlink:href="#m98b0257124" x="187.589074" y="255.166125" style="fill: #7a8290; stroke: #7a8290; stroke-width: 0.8"/>
      </g>
     </g>
     <g id="text_2">
      <!-- $\mathdefault{10^{1}}$ -->
      <g style="fill: #7a8290" transform="translate(177.909074 272.396125) scale(0.11 -0.11)">
       <use xlink:href="#DejaVuSans-14" transform="translate(0 0.665625)"/>
       <use xlink:href="#DejaVuSans-13" transform="translate(63.623047 0.665625)"/>
       <use xlink:href="#DejaVuSans-14" transform="translate(128.203125 41.965625) scale(0.7)"/>
      </g>
     </g>
    </g>
    <g id="xtick_3">
     <g id="line2d_5">
      <path d="M 280.107784 255.166125 
L 280.107784 22.318125 
" clip-path="url(#p26dc4b63b1)" style="fill: none; stroke: #7a8290; stroke-opacity: 0.18; stroke-width: 0.6; stroke-linecap: square"/>
     </g>
     <g id="line2d_6">
      <g>
       <use xlink:href="#m98b0257124" x="280.107784" y="255.166125" style="fill: #7a8290; stroke: #7a8290; stroke-width: 0.8"/>
      </g>
     </g>
     <g id="text_3">
      <!-- $\mathdefault{10^{2}}$ -->
      <g style="fill: #7a8290" transform="translate(270.427784 272.506125) scale(0.11 -0.11)">
       <defs>
        <path id="DejaVuSans-15" d="M 1228 531 
L 3431 531 
L 3431 0 
L 469 0 
L 469 531 
Q 828 903 1448 1529 
Q 2069 2156 2228 2338 
Q 2531 2678 2651 2914 
Q 2772 3150 2772 3378 
Q 2772 3750 2511 3984 
Q 2250 4219 1831 4219 
Q 1534 4219 1204 4116 
Q 875 4013 500 3803 
L 500 4441 
Q 881 4594 1212 4672 
Q 1544 4750 1819 4750 
Q 2544 4750 2975 4387 
Q 3406 4025 3406 3419 
Q 3406 3131 3298 2873 
Q 3191 2616 2906 2266 
Q 2828 2175 2409 1742 
Q 1991 1309 1228 531 
z
" transform="scale(0.015625)"/>
       </defs>
       <use xlink:href="#DejaVuSans-14" transform="translate(0 0.746875)"/>
       <use xlink:href="#DejaVuSans-13" transform="translate(63.623047 0.746875)"/>
       <use xlink:href="#DejaVuSans-15" transform="translate(128.203125 42.046875) scale(0.7)"/>
      </g>
     </g>
    </g>
    <g id="xtick_4">
     <g id="line2d_7">
      <path d="M 372.626494 255.166125 
L 372.626494 22.318125 
" clip-path="url(#p26dc4b63b1)" style="fill: none; stroke: #7a8290; stroke-opacity: 0.18; stroke-width: 0.6; stroke-linecap: square"/>
     </g>
     <g id="line2d_8">
      <g>
       <use xlink:href="#m98b0257124" x="372.626494" y="255.166125" style="fill: #7a8290; stroke: #7a8290; stroke-width: 0.8"/>
      </g>
     </g>
     <g id="text_4">
      <!-- $\mathdefault{10^{3}}$ -->
      <g style="fill: #7a8290" transform="translate(362.946494 272.506125) scale(0.11 -0.11)">
       <defs>
        <path id="DejaVuSans-16" d="M 2597 2516 
Q 3050 2419 3304 2112 
Q 3559 1806 3559 1356 
Q 3559 666 3084 287 
Q 2609 -91 1734 -91 
Q 1441 -91 1130 -33 
Q 819 25 488 141 
L 488 750 
Q 750 597 1062 519 
Q 1375 441 1716 441 
Q 2309 441 2620 675 
Q 2931 909 2931 1356 
Q 2931 1769 2642 2001 
Q 2353 2234 1838 2234 
L 1294 2234 
L 1294 2753 
L 1863 2753 
Q 2328 2753 2575 2939 
Q 2822 3125 2822 3475 
Q 2822 3834 2567 4026 
Q 2313 4219 1838 4219 
Q 1578 4219 1281 4162 
Q 984 4106 628 3988 
L 628 4550 
Q 988 4650 1302 4700 
Q 1616 4750 1894 4750 
Q 2613 4750 3031 4423 
Q 3450 4097 3450 3541 
Q 3450 3153 3228 2886 
Q 3006 2619 2597 2516 
z
" transform="scale(0.015625)"/>
       </defs>
       <use xlink:href="#DejaVuSans-14" transform="translate(0 0.746875)"/>
       <use xlink:href="#DejaVuSans-13" transform="translate(63.623047 0.746875)"/>
       <use xlink:href="#DejaVuSans-16" transform="translate(128.203125 42.046875) scale(0.7)"/>
      </g>
     </g>
    </g>
    <g id="xtick_5">
     <g id="line2d_9">
      <defs>
       <path id="m3148a81cde" d="M 0 0 
L 0 2 
" style="stroke: #7a8290; stroke-width: 0.6"/>
      </defs>
      <g>
       <use xlink:href="#m3148a81cde" x="46.694297" y="255.166125" style="fill: #7a8290; stroke: #7a8290; stroke-width: 0.6"/>
      </g>
     </g>
    </g>
    <g id="xtick_6">
     <g id="line2d_10">
      <g>
       <use xlink:href="#m3148a81cde" x="58.253468" y="255.166125" style="fill: #7a8290; stroke: #7a8290; stroke-width: 0.6"/>
      </g>
     </g>
    </g>
    <g id="xtick_7">
     <g id="line2d_11">
      <g>
       <use xlink:href="#m3148a81cde" x="67.219457" y="255.166125" style="fill: #7a8290; stroke: #7a8290; stroke-width: 0.6"/>
      </g>
     </g>
    </g>
    <g id="xtick_8">
     <g id="line2d_12">
      <g>
       <use xlink:href="#m3148a81cde" x="74.545204" y="255.166125" style="fill: #7a8290; stroke: #7a8290; stroke-width: 0.6"/>
      </g>
     </g>
    </g>
    <g id="xtick_9">
     <g id="line2d_13">
      <g>
       <use xlink:href="#m3148a81cde" x="80.739034" y="255.166125" style="fill: #7a8290; stroke: #7a8290; stroke-width: 0.6"/>
      </g>
     </g>
    </g>
    <g id="xtick_10">
     <g id="line2d_14">
      <g>
       <use xlink:href="#m3148a81cde" x="86.104374" y="255.166125" style="fill: #7a8290; stroke: #7a8290; stroke-width: 0.6"/>
      </g>
     </g>
    </g>
    <g id="xtick_11">
     <g id="line2d_15">
      <g>
       <use xlink:href="#m3148a81cde" x="90.83694" y="255.166125" style="fill: #7a8290; stroke: #7a8290; stroke-width: 0.6"/>
      </g>
     </g>
    </g>
    <g id="xtick_12">
     <g id="line2d_16">
      <g>
       <use xlink:href="#m3148a81cde" x="122.921271" y="255.166125" style="fill: #7a8290; stroke: #7a8290; stroke-width: 0.6"/>
      </g>
     </g>
    </g>
    <g id="xtick_13">
     <g id="line2d_17">
      <g>
       <use xlink:href="#m3148a81cde" x="139.213007" y="255.166125" style="fill: #7a8290; stroke: #7a8290; stroke-width: 0.6"/>
      </g>
     </g>
    </g>
    <g id="xtick_14">
     <g id="line2d_18">
      <g>
       <use xlink:href="#m3148a81cde" x="150.772178" y="255.166125" style="fill: #7a8290; stroke: #7a8290; stroke-width: 0.6"/>
      </g>
     </g>
    </g>
    <g id="xtick_15">
     <g id="line2d_19">
      <g>
       <use xlink:href="#m3148a81cde" x="159.738167" y="255.166125" style="fill: #7a8290; stroke: #7a8290; stroke-width: 0.6"/>
      </g>
     </g>
    </g>
    <g id="xtick_16">
     <g id="line2d_20">
      <g>
       <use xlink:href="#m3148a81cde" x="167.063914" y="255.166125" style="fill: #7a8290; stroke: #7a8290; stroke-width: 0.6"/>
      </g>
     </g>
    </g>
    <g id="xtick_17">
     <g id="line2d_21">
      <g>
       <use xlink:href="#m3148a81cde" x="173.257744" y="255.166125" style="fill: #7a8290; stroke: #7a8290; stroke-width: 0.6"/>
      </g>
     </g>
    </g>
    <g id="xtick_18">
     <g id="line2d_22">
      <g>
       <use xlink:href="#m3148a81cde" x="178.623084" y="255.166125" style="fill: #7a8290; stroke: #7a8290; stroke-width: 0.6"/>
      </g>
     </g>
    </g>
    <g id="xtick_19">
     <g id="line2d_23">
      <g>
       <use xlink:href="#m3148a81cde" x="183.35565" y="255.166125" style="fill: #7a8290; stroke: #7a8290; stroke-width: 0.6"/>
      </g>
     </g>
    </g>
    <g id="xtick_20">
     <g id="line2d_24">
      <g>
       <use xlink:href="#m3148a81cde" x="215.439981" y="255.166125" style="fill: #7a8290; stroke: #7a8290; stroke-width: 0.6"/>
      </g>
     </g>
    </g>
    <g id="xtick_21">
     <g id="line2d_25">
      <g>
       <use xlink:href="#m3148a81cde" x="231.731717" y="255.166125" style="fill: #7a8290; stroke: #7a8290; stroke-width: 0.6"/>
      </g>
     </g>
    </g>
    <g id="xtick_22">
     <g id="line2d_26">
      <g>
       <use xlink:href="#m3148a81cde" x="243.290888" y="255.166125" style="fill: #7a8290; stroke: #7a8290; stroke-width: 0.6"/>
      </g>
     </g>
    </g>
    <g id="xtick_23">
     <g id="line2d_27">
      <g>
       <use xlink:href="#m3148a81cde" x="252.256877" y="255.166125" style="fill: #7a8290; stroke: #7a8290; stroke-width: 0.6"/>
      </g>
     </g>
    </g>
    <g id="xtick_24">
     <g id="line2d_28">
      <g>
       <use xlink:href="#m3148a81cde" x="259.582624" y="255.166125" style="fill: #7a8290; stroke: #7a8290; stroke-width: 0.6"/>
      </g>
     </g>
    </g>
    <g id="xtick_25">
     <g id="line2d_29">
      <g>
       <use xlink:href="#m3148a81cde" x="265.776454" y="255.166125" style="fill: #7a8290; stroke: #7a8290; stroke-width: 0.6"/>
      </g>
     </g>
    </g>
    <g id="xtick_26">
     <g id="line2d_30">
      <g>
       <use xlink:href="#m3148a81cde" x="271.141794" y="255.166125" style="fill: #7a8290; stroke: #7a8290; stroke-width: 0.6"/>
      </g>
     </g>
    </g>
    <g id="xtick_27">
     <g id="line2d_31">
      <g>
       <use xlink:href="#m3148a81cde" x="275.87436" y="255.166125" style="fill: #7a8290; stroke: #7a8290; stroke-width: 0.6"/>
      </g>
     </g>
    </g>
    <g id="xtick_28">
     <g id="line2d_32">
      <g>
       <use xlink:href="#m3148a81cde" x="307.958691" y="255.166125" style="fill: #7a8290; stroke: #7a8290; stroke-width: 0.6"/>
      </g>
     </g>
    </g>
    <g id="xtick_29">
     <g id="line2d_33">
      <g>
       <use xlink:href="#m3148a81cde" x="324.250427" y="255.166125" style="fill: #7a8290; stroke: #7a8290; stroke-width: 0.6"/>
      </g>
     </g>
    </g>
    <g id="xtick_30">
     <g id="line2d_34">
      <g>
       <use xlink:href="#m3148a81cde" x="335.809598" y="255.166125" style="fill: #7a8290; stroke: #7a8290; stroke-width: 0.6"/>
      </g>
     </g>
    </g>
    <g id="xtick_31">
     <g id="line2d_35">
      <g>
       <use xlink:href="#m3148a81cde" x="344.775587" y="255.166125" style="fill: #7a8290; stroke: #7a8290; stroke-width: 0.6"/>
      </g>
     </g>
    </g>
    <g id="xtick_32">
     <g id="line2d_36">
      <g>
       <use xlink:href="#m3148a81cde" x="352.101334" y="255.166125" style="fill: #7a8290; stroke: #7a8290; stroke-width: 0.6"/>
      </g>
     </g>
    </g>
    <g id="xtick_33">
     <g id="line2d_37">
      <g>
       <use xlink:href="#m3148a81cde" x="358.295164" y="255.166125" style="fill: #7a8290; stroke: #7a8290; stroke-width: 0.6"/>
      </g>
     </g>
    </g>
    <g id="xtick_34">
     <g id="line2d_38">
      <g>
       <use xlink:href="#m3148a81cde" x="363.660504" y="255.166125" style="fill: #7a8290; stroke: #7a8290; stroke-width: 0.6"/>
      </g>
     </g>
    </g>
    <g id="xtick_35">
     <g id="line2d_39">
      <g>
       <use xlink:href="#m3148a81cde" x="368.39307" y="255.166125" style="fill: #7a8290; stroke: #7a8290; stroke-width: 0.6"/>
      </g>
     </g>
    </g>
    <g id="xtick_36">
     <g id="line2d_40">
      <g>
       <use xlink:href="#m3148a81cde" x="400.477401" y="255.166125" style="fill: #7a8290; stroke: #7a8290; stroke-width: 0.6"/>
      </g>
     </g>
    </g>
    <g id="xtick_37">
     <g id="line2d_41">
      <g>
       <use xlink:href="#m3148a81cde" x="416.769137" y="255.166125" style="fill: #7a8290; stroke: #7a8290; stroke-width: 0.6"/>
      </g>
     </g>
    </g>
    <g id="xtick_38">
     <g id="line2d_42">
      <g>
       <use xlink:href="#m3148a81cde" x="428.328307" y="255.166125" style="fill: #7a8290; stroke: #7a8290; stroke-width: 0.6"/>
      </g>
     </g>
    </g>
    <g id="xtick_39">
     <g id="line2d_43">
      <g>
       <use xlink:href="#m3148a81cde" x="437.294297" y="255.166125" style="fill: #7a8290; stroke: #7a8290; stroke-width: 0.6"/>
      </g>
     </g>
    </g>
    <g id="text_5">
     <!-- Delivery latency (ms, log scale), measured on loopback -->
     <g style="fill: #7a8290" transform="translate(89.005781 287.506984) scale(0.11 -0.11)">
      <defs>
       <path id="DejaVuSans-27" d="M 1259 4147 
L 1259 519 
L 2022 519 
Q 2988 519 3436 956 
Q 3884 1394 3884 2338 
Q 3884 3275 3436 3711 
Q 2988 4147 2022 4147 
L 1259 4147 
z
M 628 4666 
L 1925 4666 
Q 3281 4666 3915 4102 
Q 4550 3538 4550 2338 
Q 4550 1131 3912 565 
Q 3275 0 1925 0 
L 628 0 
L 628 4666 
z
" transform="scale(0.015625)"/>
       <path id="DejaVuSans-48" d="M 3597 1894 
L 3597 1613 
L 953 1613 
Q 991 1019 1311 708 
Q 1631 397 2203 397 
Q 2534 397 2845 478 
Q 3156 559 3463 722 
L 3463 178 
Q 3153 47 2828 -22 
Q 2503 -91 2169 -91 
Q 1331 -91 842 396 
Q 353 884 353 1716 
Q 353 2575 817 3079 
Q 1281 3584 2069 3584 
Q 2775 3584 3186 3129 
Q 3597 2675 3597 1894 
z
M 3022 2063 
Q 3016 2534 2758 2815 
Q 2500 3097 2075 3097 
Q 1594 3097 1305 2825 
Q 1016 2553 972 2059 
L 3022 2063 
z
" transform="scale(0.015625)"/>
       <path id="DejaVuSans-4f" d="M 603 4863 
L 1178 4863 
L 1178 0 
L 603 0 
L 603 4863 
z
" transform="scale(0.015625)"/>
       <path id="DejaVuSans-4c" d="M 603 3500 
L 1178 3500 
L 1178 0 
L 603 0 
L 603 3500 
z
M 603 4863 
L 1178 4863 
L 1178 4134 
L 603 4134 
L 603 4863 
z
" transform="scale(0.015625)"/>
       <path id="DejaVuSans-59" d="M 191 3500 
L 800 3500 
L 1894 563 
L 2988 3500 
L 3597 3500 
L 2284 0 
L 1503 0 
L 191 3500 
z
" transform="scale(0.015625)"/>
       <path id="DejaVuSans-55" d="M 2631 2963 
Q 2534 3019 2420 3045 
Q 2306 3072 2169 3072 
Q 1681 3072 1420 2755 
Q 1159 2438 1159 1844 
L 1159 0 
L 581 0 
L 581 3500 
L 1159 3500 
L 1159 2956 
Q 1341 3275 1631 3429 
Q 1922 3584 2338 3584 
Q 2397 3584 2469 3576 
Q 2541 3569 2628 3553 
L 2631 2963 
z
" transform="scale(0.015625)"/>
       <path id="DejaVuSans-5c" d="M 2059 -325 
Q 1816 -950 1584 -1140 
Q 1353 -1331 966 -1331 
L 506 -1331 
L 506 -850 
L 844 -850 
Q 1081 -850 1212 -737 
Q 1344 -625 1503 -206 
L 1606 56 
L 191 3500 
L 800 3500 
L 1894 763 
L 2988 3500 
L 3597 3500 
L 2059 -325 
z
" transform="scale(0.015625)"/>
       <path id="DejaVuSans-3" transform="scale(0.015625)"/>
       <path id="DejaVuSans-44" d="M 2194 1759 
Q 1497 1759 1228 1600 
Q 959 1441 959 1056 
Q 959 750 1161 570 
Q 1363 391 1709 391 
Q 2188 391 2477 730 
Q 2766 1069 2766 1631 
L 2766 1759 
L 2194 1759 
z
M 3341 1997 
L 3341 0 
L 2766 0 
L 2766 531 
Q 2569 213 2275 61 
Q 1981 -91 1556 -91 
Q 1019 -91 701 211 
Q 384 513 384 1019 
Q 384 1609 779 1909 
Q 1175 2209 1959 2209 
L 2766 2209 
L 2766 2266 
Q 2766 2663 2505 2880 
Q 2244 3097 1772 3097 
Q 1472 3097 1187 3025 
Q 903 2953 641 2809 
L 641 3341 
Q 956 3463 1253 3523 
Q 1550 3584 1831 3584 
Q 2591 3584 2966 3190 
Q 3341 2797 3341 1997 
z
" transform="scale(0.015625)"/>
       <path id="DejaVuSans-57" d="M 1172 4494 
L 1172 3500 
L 2356 3500 
L 2356 3053 
L 1172 3053 
L 1172 1153 
Q 1172 725 1289 603 
Q 1406 481 1766 481 
L 2356 481 
L 2356 0 
L 1766 0 
Q 1100 0 847 248 
Q 594 497 594 1153 
L 594 3053 
L 172 3053 
L 172 3500 
L 594 3500 
L 594 4494 
L 1172 4494 
z
" transform="scale(0.015625)"/>
       <path id="DejaVuSans-51" d="M 3513 2113 
L 3513 0 
L 2938 0 
L 2938 2094 
Q 2938 2591 2744 2837 
Q 2550 3084 2163 3084 
Q 1697 3084 1428 2787 
Q 1159 2491 1159 1978 
L 1159 0 
L 581 0 
L 581 3500 
L 1159 3500 
L 1159 2956 
Q 1366 3272 1645 3428 
Q 1925 3584 2291 3584 
Q 2894 3584 3203 3211 
Q 3513 2838 3513 2113 
z
" transform="scale(0.015625)"/>
       <path id="DejaVuSans-46" d="M 3122 3366 
L 3122 2828 
Q 2878 2963 2633 3030 
Q 2388 3097 2138 3097 
Q 1578 3097 1268 2742 
Q 959 2388 959 1747 
Q 959 1106 1268 751 
Q 1578 397 2138 397 
Q 2388 397 2633 464 
Q 2878 531 3122 666 
L 3122 134 
Q 2881 22 2623 -34 
Q 2366 -91 2075 -91 
Q 1284 -91 818 406 
Q 353 903 353 1747 
Q 353 2603 823 3093 
Q 1294 3584 2113 3584 
Q 2378 3584 2631 3529 
Q 2884 3475 3122 3366 
z
" transform="scale(0.015625)"/>
       <path id="DejaVuSans-b" d="M 1984 4856 
Q 1566 4138 1362 3434 
Q 1159 2731 1159 2009 
Q 1159 1288 1364 580 
Q 1569 -128 1984 -844 
L 1484 -844 
Q 1016 -109 783 600 
Q 550 1309 550 2009 
Q 550 2706 781 3412 
Q 1013 4119 1484 4856 
L 1984 4856 
z
" transform="scale(0.015625)"/>
       <path id="DejaVuSans-50" d="M 3328 2828 
Q 3544 3216 3844 3400 
Q 4144 3584 4550 3584 
Q 5097 3584 5394 3201 
Q 5691 2819 5691 2113 
L 5691 0 
L 5113 0 
L 5113 2094 
Q 5113 2597 4934 2840 
Q 4756 3084 4391 3084 
Q 3944 3084 3684 2787 
Q 3425 2491 3425 1978 
L 3425 0 
L 2847 0 
L 2847 2094 
Q 2847 2600 2669 2842 
Q 2491 3084 2119 3084 
Q 1678 3084 1418 2786 
Q 1159 2488 1159 1978 
L 1159 0 
L 581 0 
L 581 3500 
L 1159 3500 
L 1159 2956 
Q 1356 3278 1631 3431 
Q 1906 3584 2284 3584 
Q 2666 3584 2933 3390 
Q 3200 3197 3328 2828 
z
" transform="scale(0.015625)"/>
       <path id="DejaVuSans-56" d="M 2834 3397 
L 2834 2853 
Q 2591 2978 2328 3040 
Q 2066 3103 1784 3103 
Q 1356 3103 1142 2972 
Q 928 2841 928 2578 
Q 928 2378 1081 2264 
Q 1234 2150 1697 2047 
L 1894 2003 
Q 2506 1872 2764 1633 
Q 3022 1394 3022 966 
Q 3022 478 2636 193 
Q 2250 -91 1575 -91 
Q 1294 -91 989 -36 
Q 684 19 347 128 
L 347 722 
Q 666 556 975 473 
Q 1284 391 1588 391 
Q 1994 391 2212 530 
Q 2431 669 2431 922 
Q 2431 1156 2273 1281 
Q 2116 1406 1581 1522 
L 1381 1569 
Q 847 1681 609 1914 
Q 372 2147 372 2553 
Q 372 3047 722 3315 
Q 1072 3584 1716 3584 
Q 2034 3584 2315 3537 
Q 2597 3491 2834 3397 
z
" transform="scale(0.015625)"/>
       <path id="DejaVuSans-f" d="M 750 794 
L 1409 794 
L 1409 256 
L 897 -744 
L 494 -744 
L 750 256 
L 750 794 
z
" transform="scale(0.015625)"/>
       <path id="DejaVuSans-52" d="M 1959 3097 
Q 1497 3097 1228 2736 
Q 959 2375 959 1747 
Q 959 1119 1226 758 
Q 1494 397 1959 397 
Q 2419 397 2687 759 
Q 2956 1122 2956 1747 
Q 2956 2369 2687 2733 
Q 2419 3097 1959 3097 
z
M 1959 3584 
Q 2709 3584 3137 3096 
Q 3566 2609 3566 1747 
Q 3566 888 3137 398 
Q 2709 -91 1959 -91 
Q 1206 -91 779 398 
Q 353 888 353 1747 
Q 353 2609 779 3096 
Q 1206 3584 1959 3584 
z
" transform="scale(0.015625)"/>
       <path id="DejaVuSans-4a" d="M 2906 1791 
Q 2906 2416 2648 2759 
Q 2391 3103 1925 3103 
Q 1463 3103 1205 2759 
Q 947 2416 947 1791 
Q 947 1169 1205 825 
Q 1463 481 1925 481 
Q 2391 481 2648 825 
Q 2906 1169 2906 1791 
z
M 3481 434 
Q 3481 -459 3084 -895 
Q 2688 -1331 1869 -1331 
Q 1566 -1331 1297 -1286 
Q 1028 -1241 775 -1147 
L 775 -588 
Q 1028 -725 1275 -790 
Q 1522 -856 1778 -856 
Q 2344 -856 2625 -561 
Q 2906 -266 2906 331 
L 2906 616 
Q 2728 306 2450 153 
Q 2172 0 1784 0 
Q 1141 0 747 490 
Q 353 981 353 1791 
Q 353 2603 747 3093 
Q 1141 3584 1784 3584 
Q 2172 3584 2450 3431 
Q 2728 3278 2906 2969 
L 2906 3500 
L 3481 3500 
L 3481 434 
z
" transform="scale(0.015625)"/>
       <path id="DejaVuSans-c" d="M 513 4856 
L 1013 4856 
Q 1481 4119 1714 3412 
Q 1947 2706 1947 2009 
Q 1947 1309 1714 600 
Q 1481 -109 1013 -844 
L 513 -844 
Q 928 -128 1133 580 
Q 1338 1288 1338 2009 
Q 1338 2731 1133 3434 
Q 928 4138 513 4856 
z
" transform="scale(0.015625)"/>
       <path id="DejaVuSans-58" d="M 544 1381 
L 544 3500 
L 1119 3500 
L 1119 1403 
Q 1119 906 1312 657 
Q 1506 409 1894 409 
Q 2359 409 2629 706 
Q 2900 1003 2900 1516 
L 2900 3500 
L 3475 3500 
L 3475 0 
L 2900 0 
L 2900 538 
Q 2691 219 2414 64 
Q 2138 -91 1772 -91 
Q 1169 -91 856 284 
Q 544 659 544 1381 
z
M 1991 3584 
L 1991 3584 
z
" transform="scale(0.015625)"/>
       <path id="DejaVuSans-47" d="M 2906 2969 
L 2906 4863 
L 3481 4863 
L 3481 0 
L 2906 0 
L 2906 525 
Q 2725 213 2448 61 
Q 2172 -91 1784 -91 
Q 1150 -91 751 415 
Q 353 922 353 1747 
Q 353 2572 751 3078 
Q 1150 3584 1784 3584 
Q 2172 3584 2448 3432 
Q 2725 3281 2906 2969 
z
M 947 1747 
Q 947 1113 1208 752 
Q 1469 391 1925 391 
Q 2381 391 2643 752 
Q 2906 1113 2906 1747 
Q 2906 2381 2643 2742 
Q 2381 3103 1925 3103 
Q 1469 3103 1208 2742 
Q 947 2381 947 1747 
z
" transform="scale(0.015625)"/>
       <path id="DejaVuSans-53" d="M 1159 525 
L 1159 -1331 
L 581 -1331 
L 581 3500 
L 1159 3500 
L 1159 2969 
Q 1341 3281 1617 3432 
Q 1894 3584 2278 3584 
Q 2916 3584 3314 3078 
Q 3713 2572 3713 1747 
Q 3713 922 3314 415 
Q 2916 -91 2278 -91 
Q 1894 -91 1617 61 
Q 1341 213 1159 525 
z
M 3116 1747 
Q 3116 2381 2855 2742 
Q 2594 3103 2138 3103 
Q 1681 3103 1420 2742 
Q 1159 2381 1159 1747 
Q 1159 1113 1420 752 
Q 1681 391 2138 391 
Q 2594 391 2855 752 
Q 3116 1113 3116 1747 
z
" transform="scale(0.015625)"/>
       <path id="DejaVuSans-45" d="M 3116 1747 
Q 3116 2381 2855 2742 
Q 2594 3103 2138 3103 
Q 1681 3103 1420 2742 
Q 1159 2381 1159 1747 
Q 1159 1113 1420 752 
Q 1681 391 2138 391 
Q 2594 391 2855 752 
Q 3116 1113 3116 1747 
z
M 1159 2969 
Q 1341 3281 1617 3432 
Q 1894 3584 2278 3584 
Q 2916 3584 3314 3078 
Q 3713 2572 3713 1747 
Q 3713 922 3314 415 
Q 2916 -91 2278 -91 
Q 1894 -91 1617 61 
Q 1341 213 1159 525 
L 1159 0 
L 581 0 
L 581 4863 
L 1159 4863 
L 1159 2969 
z
" transform="scale(0.015625)"/>
       <path id="DejaVuSans-4e" d="M 581 4863 
L 1159 4863 
L 1159 1991 
L 2875 3500 
L 3609 3500 
L 1753 1863 
L 3688 0 
L 2938 0 
L 1159 1709 
L 1159 0 
L 581 0 
L 581 4863 
z
" transform="scale(0.015625)"/>
      </defs>
      <use xlink:href="#DejaVuSans-27"/>
      <use xlink:href="#DejaVuSans-48" transform="translate(77 0)"/>
      <use xlink:href="#DejaVuSans-4f" transform="translate(138.53125 0)"/>
      <use xlink:href="#DejaVuSans-4c" transform="translate(166.3125 0)"/>
      <use xlink:href="#DejaVuSans-59" transform="translate(194.09375 0)"/>
      <use xlink:href="#DejaVuSans-48" transform="translate(253.28125 0)"/>
      <use xlink:href="#DejaVuSans-55" transform="translate(314.8125 0)"/>
      <use xlink:href="#DejaVuSans-5c" transform="translate(355.921875 0)"/>
      <use xlink:href="#DejaVuSans-3" transform="translate(415.109375 0)"/>
      <use xlink:href="#DejaVuSans-4f" transform="translate(446.890625 0)"/>
      <use xlink:href="#DejaVuSans-44" transform="translate(474.671875 0)"/>
      <use xlink:href="#DejaVuSans-57" transform="translate(535.953125 0)"/>
      <use xlink:href="#DejaVuSans-48" transform="translate(575.15625 0)"/>
      <use xlink:href="#DejaVuSans-51" transform="translate(636.6875 0)"/>
      <use xlink:href="#DejaVuSans-46" transform="translate(700.0625 0)"/>
      <use xlink:href="#DejaVuSans-5c" transform="translate(755.046875 0)"/>
      <use xlink:href="#DejaVuSans-3" transform="translate(814.234375 0)"/>
      <use xlink:href="#DejaVuSans-b" transform="translate(846.015625 0)"/>
      <use xlink:href="#DejaVuSans-50" transform="translate(885.03125 0)"/>
      <use xlink:href="#DejaVuSans-56" transform="translate(982.4375 0)"/>
      <use xlink:href="#DejaVuSans-f" transform="translate(1034.53125 0)"/>
      <use xlink:href="#DejaVuSans-3" transform="translate(1066.3125 0)"/>
      <use xlink:href="#DejaVuSans-4f" transform="translate(1098.09375 0)"/>
      <use xlink:href="#DejaVuSans-52" transform="translate(1125.875 0)"/>
      <use xlink:href="#DejaVuSans-4a" transform="translate(1187.0625 0)"/>
      <use xlink:href="#DejaVuSans-3" transform="translate(1250.546875 0)"/>
      <use xlink:href="#DejaVuSans-56" transform="translate(1282.328125 0)"/>
      <use xlink:href="#DejaVuSans-46" transform="translate(1334.421875 0)"/>
      <use xlink:href="#DejaVuSans-44" transform="translate(1389.40625 0)"/>
      <use xlink:href="#DejaVuSans-4f" transform="translate(1450.6875 0)"/>
      <use xlink:href="#DejaVuSans-48" transform="translate(1478.46875 0)"/>
      <use xlink:href="#DejaVuSans-c" transform="translate(1540 0)"/>
      <use xlink:href="#DejaVuSans-f" transform="translate(1579.015625 0)"/>
      <use xlink:href="#DejaVuSans-3" transform="translate(1610.796875 0)"/>
      <use xlink:href="#DejaVuSans-50" transform="translate(1642.578125 0)"/>
      <use xlink:href="#DejaVuSans-48" transform="translate(1739.984375 0)"/>
      <use xlink:href="#DejaVuSans-44" transform="translate(1801.515625 0)"/>
      <use xlink:href="#DejaVuSans-56" transform="translate(1862.796875 0)"/>
      <use xlink:href="#DejaVuSans-58" transform="translate(1914.890625 0)"/>
      <use xlink:href="#DejaVuSans-55" transform="translate(1978.265625 0)"/>
      <use xlink:href="#DejaVuSans-48" transform="translate(2017.171875 0)"/>
      <use xlink:href="#DejaVuSans-47" transform="translate(2078.703125 0)"/>
      <use xlink:href="#DejaVuSans-3" transform="translate(2142.1875 0)"/>
      <use xlink:href="#DejaVuSans-52" transform="translate(2173.96875 0)"/>
      <use xlink:href="#DejaVuSans-51" transform="translate(2235.15625 0)"/>
      <use xlink:href="#DejaVuSans-3" transform="translate(2298.53125 0)"/>
      <use xlink:href="#DejaVuSans-4f" transform="translate(2330.3125 0)"/>
      <use xlink:href="#DejaVuSans-52" transform="translate(2358.09375 0)"/>
      <use xlink:href="#DejaVuSans-52" transform="translate(2419.28125 0)"/>
      <use xlink:href="#DejaVuSans-53" transform="translate(2480.46875 0)"/>
      <use xlink:href="#DejaVuSans-45" transform="translate(2543.953125 0)"/>
      <use xlink:href="#DejaVuSans-44" transform="translate(2607.4375 0)"/>
      <use xlink:href="#DejaVuSans-46" transform="translate(2668.71875 0)"/>
      <use xlink:href="#DejaVuSans-4e" transform="translate(2723.703125 0)"/>
     </g>
    </g>
   </g>
   <g id="matplotlib.axis_2">
    <g id="ytick_1">
     <g id="line2d_44">
      <path d="M 46.694297 255.166125 
L 437.294297 255.166125 
" clip-path="url(#p26dc4b63b1)" style="fill: none; stroke: #7a8290; stroke-opacity: 0.18; stroke-width: 0.6; stroke-linecap: square"/>
     </g>
     <g id="line2d_45">
      <defs>
       <path id="md38fecd779" d="M 0 0 
L -3.5 0 
" style="stroke: #7a8290; stroke-width: 0.8"/>
      </defs>
      <g>
       <use xlink:href="#md38fecd779" x="46.694297" y="255.166125" style="fill: #7a8290; stroke: #7a8290; stroke-width: 0.8"/>
      </g>
     </g>
     <g id="text_6">
      <!-- 0.0 -->
      <g style="fill: #7a8290" transform="translate(22.200859 259.344836) scale(0.11 -0.11)">
       <defs>
        <path id="DejaVuSans-11" d="M 684 794 
L 1344 794 
L 1344 0 
L 684 0 
L 684 794 
z
" transform="scale(0.015625)"/>
       </defs>
       <use xlink:href="#DejaVuSans-13"/>
       <use xlink:href="#DejaVuSans-11" transform="translate(63.625 0)"/>
       <use xlink:href="#DejaVuSans-13" transform="translate(95.40625 0)"/>
      </g>
     </g>
    </g>
    <g id="ytick_2">
     <g id="line2d_46">
      <path d="M 46.694297 209.509654 
L 437.294297 209.509654 
" clip-path="url(#p26dc4b63b1)" style="fill: none; stroke: #7a8290; stroke-opacity: 0.18; stroke-width: 0.6; stroke-linecap: square"/>
     </g>
     <g id="line2d_47">
      <g>
       <use xlink:href="#md38fecd779" x="46.694297" y="209.509654" style="fill: #7a8290; stroke: #7a8290; stroke-width: 0.8"/>
      </g>
     </g>
     <g id="text_7">
      <!-- 0.2 -->
      <g style="fill: #7a8290" transform="translate(22.200859 213.688365) scale(0.11 -0.11)">
       <use xlink:href="#DejaVuSans-13"/>
       <use xlink:href="#DejaVuSans-11" transform="translate(63.625 0)"/>
       <use xlink:href="#DejaVuSans-15" transform="translate(95.40625 0)"/>
      </g>
     </g>
    </g>
    <g id="ytick_3">
     <g id="line2d_48">
      <path d="M 46.694297 163.853184 
L 437.294297 163.853184 
" clip-path="url(#p26dc4b63b1)" style="fill: none; stroke: #7a8290; stroke-opacity: 0.18; stroke-width: 0.6; stroke-linecap: square"/>
     </g>
     <g id="line2d_49">
      <g>
       <use xlink:href="#md38fecd779" x="46.694297" y="163.853184" style="fill: #7a8290; stroke: #7a8290; stroke-width: 0.8"/>
      </g>
     </g>
     <g id="text_8">
      <!-- 0.4 -->
      <g style="fill: #7a8290" transform="translate(22.200859 168.031895) scale(0.11 -0.11)">
       <defs>
        <path id="DejaVuSans-17" d="M 2419 4116 
L 825 1625 
L 2419 1625 
L 2419 4116 
z
M 2253 4666 
L 3047 4666 
L 3047 1625 
L 3713 1625 
L 3713 1100 
L 3047 1100 
L 3047 0 
L 2419 0 
L 2419 1100 
L 313 1100 
L 313 1709 
L 2253 4666 
z
" transform="scale(0.015625)"/>
       </defs>
       <use xlink:href="#DejaVuSans-13"/>
       <use xlink:href="#DejaVuSans-11" transform="translate(63.625 0)"/>
       <use xlink:href="#DejaVuSans-17" transform="translate(95.40625 0)"/>
      </g>
     </g>
    </g>
    <g id="ytick_4">
     <g id="line2d_50">
      <path d="M 46.694297 118.196713 
L 437.294297 118.196713 
" clip-path="url(#p26dc4b63b1)" style="fill: none; stroke: #7a8290; stroke-opacity: 0.18; stroke-width: 0.6; stroke-linecap: square"/>
     </g>
     <g id="line2d_51">
      <g>
       <use xlink:href="#md38fecd779" x="46.694297" y="118.196713" style="fill: #7a8290; stroke: #7a8290; stroke-width: 0.8"/>
      </g>
     </g>
     <g id="text_9">
      <!-- 0.6 -->
      <g style="fill: #7a8290" transform="translate(22.200859 122.375424) scale(0.11 -0.11)">
       <defs>
        <path id="DejaVuSans-19" d="M 2113 2584 
Q 1688 2584 1439 2293 
Q 1191 2003 1191 1497 
Q 1191 994 1439 701 
Q 1688 409 2113 409 
Q 2538 409 2786 701 
Q 3034 994 3034 1497 
Q 3034 2003 2786 2293 
Q 2538 2584 2113 2584 
z
M 3366 4563 
L 3366 3988 
Q 3128 4100 2886 4159 
Q 2644 4219 2406 4219 
Q 1781 4219 1451 3797 
Q 1122 3375 1075 2522 
Q 1259 2794 1537 2939 
Q 1816 3084 2150 3084 
Q 2853 3084 3261 2657 
Q 3669 2231 3669 1497 
Q 3669 778 3244 343 
Q 2819 -91 2113 -91 
Q 1303 -91 875 529 
Q 447 1150 447 2328 
Q 447 3434 972 4092 
Q 1497 4750 2381 4750 
Q 2619 4750 2861 4703 
Q 3103 4656 3366 4563 
z
" transform="scale(0.015625)"/>
       </defs>
       <use xlink:href="#DejaVuSans-13"/>
       <use xlink:href="#DejaVuSans-11" transform="translate(63.625 0)"/>
       <use xlink:href="#DejaVuSans-19" transform="translate(95.40625 0)"/>
      </g>
     </g>
    </g>
    <g id="ytick_5">
     <g id="line2d_52">
      <path d="M 46.694297 72.540243 
L 437.294297 72.540243 
" clip-path="url(#p26dc4b63b1)" style="fill: none; stroke: #7a8290; stroke-opacity: 0.18; stroke-width: 0.6; stroke-linecap: square"/>
     </g>
     <g id="line2d_53">
      <g>
       <use xlink:href="#md38fecd779" x="46.694297" y="72.540243" style="fill: #7a8290; stroke: #7a8290; stroke-width: 0.8"/>
      </g>
     </g>
     <g id="text_10">
      <!-- 0.8 -->
      <g style="fill: #7a8290" transform="translate(22.200859 76.718954) scale(0.11 -0.11)">
       <defs>
        <path id="DejaVuSans-1b" d="M 2034 2216 
Q 1584 2216 1326 1975 
Q 1069 1734 1069 1313 
Q 1069 891 1326 650 
Q 1584 409 2034 409 
Q 2484 409 2743 651 
Q 3003 894 3003 1313 
Q 3003 1734 2745 1975 
Q 2488 2216 2034 2216 
z
M 1403 2484 
Q 997 2584 770 2862 
Q 544 3141 544 3541 
Q 544 4100 942 4425 
Q 1341 4750 2034 4750 
Q 2731 4750 3128 4425 
Q 3525 4100 3525 3541 
Q 3525 3141 3298 2862 
Q 3072 2584 2669 2484 
Q 3125 2378 3379 2068 
Q 3634 1759 3634 1313 
Q 3634 634 3220 271 
Q 2806 -91 2034 -91 
Q 1263 -91 848 271 
Q 434 634 434 1313 
Q 434 1759 690 2068 
Q 947 2378 1403 2484 
z
M 1172 3481 
Q 1172 3119 1398 2916 
Q 1625 2713 2034 2713 
Q 2441 2713 2670 2916 
Q 2900 3119 2900 3481 
Q 2900 3844 2670 4047 
Q 2441 4250 2034 4250 
Q 1625 4250 1398 4047 
Q 1172 3844 1172 3481 
z
" transform="scale(0.015625)"/>
       </defs>
       <use xlink:href="#DejaVuSans-13"/>
       <use xlink:href="#DejaVuSans-11" transform="translate(63.625 0)"/>
       <use xlink:href="#DejaVuSans-1b" transform="translate(95.40625 0)"/>
      </g>
     </g>
    </g>
    <g id="ytick_6">
     <g id="line2d_54">
      <path d="M 46.694297 26.883772 
L 437.294297 26.883772 
" clip-path="url(#p26dc4b63b1)" style="fill: none; stroke: #7a8290; stroke-opacity: 0.18; stroke-width: 0.6; stroke-linecap: square"/>
     </g>
     <g id="line2d_55">
      <g>
       <use xlink:href="#md38fecd779" x="46.694297" y="26.883772" style="fill: #7a8290; stroke: #7a8290; stroke-width: 0.8"/>
      </g>
     </g>
     <g id="text_11">
      <!-- 1.0 -->
      <g style="fill: #7a8290" transform="translate(22.200859 31.062483) scale(0.11 -0.11)">
       <use xlink:href="#DejaVuSans-14"/>
       <use xlink:href="#DejaVuSans-11" transform="translate(63.625 0)"/>
       <use xlink:href="#DejaVuSans-13" transform="translate(95.40625 0)"/>
      </g>
     </g>
    </g>
    <g id="text_12">
     <!-- Fraction of events delivered ≤ x -->
     <g style="fill: #7a8290" transform="translate(15.558281 226.718922) rotate(-90) scale(0.11 -0.11)">
      <defs>
       <path id="DejaVuSans-29" d="M 628 4666 
L 3309 4666 
L 3309 4134 
L 1259 4134 
L 1259 2759 
L 3109 2759 
L 3109 2228 
L 1259 2228 
L 1259 0 
L 628 0 
L 628 4666 
z
" transform="scale(0.015625)"/>
       <path id="DejaVuSans-49" d="M 2375 4863 
L 2375 4384 
L 1825 4384 
Q 1516 4384 1395 4259 
Q 1275 4134 1275 3809 
L 1275 3500 
L 2222 3500 
L 2222 3053 
L 1275 3053 
L 1275 0 
L 697 0 
L 697 3053 
L 147 3053 
L 147 3500 
L 697 3500 
L 697 3744 
Q 697 4328 969 4595 
Q 1241 4863 1831 4863 
L 2375 4863 
z
" transform="scale(0.015625)"/>
       <path id="DejaVuSans-cee" d="M 4684 3175 
L 1684 2309 
L 4684 1453 
L 4684 897 
L 678 2047 
L 678 2578 
L 4684 3725 
L 4684 3175 
z
M 678 531 
L 4684 531 
L 4684 0 
L 678 0 
L 678 531 
z
" transform="scale(0.015625)"/>
       <path id="DejaVuSans-5b" d="M 3513 3500 
L 2247 1797 
L 3578 0 
L 2900 0 
L 1881 1375 
L 863 0 
L 184 0 
L 1544 1831 
L 300 3500 
L 978 3500 
L 1906 2253 
L 2834 3500 
L 3513 3500 
z
" transform="scale(0.015625)"/>
      </defs>
      <use xlink:href="#DejaVuSans-29"/>
      <use xlink:href="#DejaVuSans-55" transform="translate(50.234375 0)"/>
      <use xlink:href="#DejaVuSans-44" transform="translate(91.34375 0)"/>
      <use xlink:href="#DejaVuSans-46" transform="translate(152.625 0)"/>
      <use xlink:href="#DejaVuSans-57" transform="translate(207.609375 0)"/>
      <use xlink:href="#DejaVuSans-4c" transform="translate(246.8125 0)"/>
      <use xlink:href="#DejaVuSans-52" transform="translate(274.59375 0)"/>
      <use xlink:href="#DejaVuSans-51" transform="translate(335.78125 0)"/>
      <use xlink:href="#DejaVuSans-3" transform="translate(399.15625 0)"/>
      <use xlink:href="#DejaVuSans-52" transform="translate(430.9375 0)"/>
      <use xlink:href="#DejaVuSans-49" transform="translate(492.125 0)"/>
      <use xlink:href="#DejaVuSans-3" transform="translate(527.328125 0)"/>
      <use xlink:href="#DejaVuSans-48" transform="translate(559.109375 0)"/>
      <use xlink:href="#DejaVuSans-59" transform="translate(620.640625 0)"/>
      <use xlink:href="#DejaVuSans-48" transform="translate(679.828125 0)"/>
      <use xlink:href="#DejaVuSans-51" transform="translate(741.359375 0)"/>
      <use xlink:href="#DejaVuSans-57" transform="translate(804.734375 0)"/>
      <use xlink:href="#DejaVuSans-56" transform="translate(843.9375 0)"/>
      <use xlink:href="#DejaVuSans-3" transform="translate(896.03125 0)"/>
      <use xlink:href="#DejaVuSans-47" transform="translate(927.8125 0)"/>
      <use xlink:href="#DejaVuSans-48" transform="translate(991.296875 0)"/>
      <use xlink:href="#DejaVuSans-4f" transform="translate(1052.828125 0)"/>
      <use xlink:href="#DejaVuSans-4c" transform="translate(1080.609375 0)"/>
      <use xlink:href="#DejaVuSans-59" transform="translate(1108.390625 0)"/>
      <use xlink:href="#DejaVuSans-48" transform="translate(1167.578125 0)"/>
      <use xlink:href="#DejaVuSans-55" transform="translate(1229.109375 0)"/>
      <use xlink:href="#DejaVuSans-48" transform="translate(1268.015625 0)"/>
      <use xlink:href="#DejaVuSans-47" transform="translate(1329.546875 0)"/>
      <use xlink:href="#DejaVuSans-3" transform="translate(1393.03125 0)"/>
      <use xlink:href="#DejaVuSans-cee" transform="translate(1424.8125 0)"/>
      <use xlink:href="#DejaVuSans-3" transform="translate(1508.609375 0)"/>
      <use xlink:href="#DejaVuSans-5b" transform="translate(1540.390625 0)"/>
     </g>
    </g>
   </g>
   <g id="line2d_56">
    <path d="M 51.247885 254.405184 
L 53.571096 253.644243 
L 53.683804 252.883301 
L 58.851697 251.361419 
L 59.63573 250.600478 
L 60.118093 247.556713 
L 60.404755 246.795772 
L 60.404755 246.034831 
L 60.783818 245.27389 
L 61.438693 239.947301 
L 61.716119 239.18636 
L 61.80817 234.620713 
L 61.991643 232.33789 
L 61.991643 230.816007 
L 62.174281 230.055066 
L 62.174281 229.294125 
L 62.356093 228.533184 
L 62.356093 227.772243 
L 62.537086 227.011301 
L 62.627277 224.728478 
L 62.807056 222.445654 
L 62.896644 216.358125 
L 63.164217 213.31436 
L 63.253013 210.270596 
L 63.606249 206.46589 
L 63.694075 204.944007 
L 63.869153 202.661184 
L 63.956407 200.37836 
L 64.043472 198.856478 
L 64.130349 195.051772 
L 64.561936 190.486125 
L 64.561936 189.725184 
L 64.81868 188.203301 
L 64.81868 187.44236 
L 64.988936 186.681419 
L 65.073794 182.115772 
L 65.327299 179.072007 
L 65.411446 176.789184 
L 65.662836 173.745419 
L 65.662836 172.984478 
L 65.995595 172.223537 
L 66.078356 171.462596 
L 66.489622 169.940713 
L 66.571373 168.418831 
L 66.652957 166.896949 
L 66.734376 163.092243 
L 66.896721 162.331301 
L 66.896721 161.57036 
L 67.139016 160.048478 
L 67.219457 157.765654 
L 67.459819 154.72189 
L 67.459819 153.960949 
L 67.857254 151.678125 
L 67.936271 147.873419 
L 68.172396 146.351537 
L 68.640522 141.024949 
L 68.718015 135.69836 
L 69.484839 127.328007 
L 69.560723 123.523301 
L 70.237303 115.91389 
L 70.31178 114.392007 
L 70.460321 112.870125 
L 70.902678 112.109184 
L 71.485012 105.260713 
L 71.557214 103.738831 
L 71.987722 101.456007 
L 71.987722 100.695066 
L 72.130206 99.934125 
L 72.413667 99.173184 
L 72.554651 97.651301 
L 73.183027 96.89036 
L 73.321342 96.129419 
L 73.390321 93.846596 
L 73.733452 93.085654 
L 73.801727 92.324713 
L 74.343798 90.802831 
L 74.411045 89.280949 
L 74.545204 88.520007 
L 74.545204 87.759066 
L 75.602643 86.998125 
L 76.056663 85.476243 
L 76.056663 84.715301 
L 76.185446 83.95436 
L 76.759917 83.193419 
L 77.012625 82.432478 
L 77.637526 78.627772 
L 78.069246 77.866831 
L 78.069246 77.10589 
L 78.798713 76.344949 
L 79.158539 75.584007 
L 79.515172 73.301184 
L 79.985812 72.540243 
L 80.16089 71.779301 
L 80.21908 70.257419 
L 80.508774 69.496478 
L 80.508774 68.735537 
L 81.647104 65.691772 
L 81.647104 64.16989 
L 82.149016 63.408949 
L 82.259706 60.365184 
L 82.425171 59.604243 
L 82.535104 57.321419 
L 82.644737 56.560478 
L 83.457584 55.038596 
L 83.564731 53.516713 
L 83.618198 52.755772 
L 83.884471 51.994831 
L 83.990487 50.472949 
L 84.30687 47.429184 
L 84.724875 46.668243 
L 84.880512 44.385419 
L 85.700548 42.863537 
L 85.801886 41.341654 
L 86.054118 40.580713 
L 86.104374 39.058831 
L 86.35472 38.29789 
L 86.454423 36.776007 
L 87.824898 35.254125 
L 88.775957 33.732243 
L 89.520921 31.449419 
L 90.297598 30.688478 
L 90.523204 29.927537 
L 93.136066 29.166596 
L 98.348278 28.405654 
L 100.964598 27.644713 
L 118.976995 26.883772 
L 118.976995 26.883772 
" clip-path="url(#p26dc4b63b1)" style="fill: none; stroke: #0072b2; stroke-width: 1.8; stroke-linecap: square"/>
   </g>
   <g id="line2d_57">
    <path d="M 68.640522 141.024949 
" clip-path="url(#p26dc4b63b1)" style="fill: none; stroke: #0072b2; stroke-width: 1.5; stroke-linecap: square"/>
    <defs>
     <path id="mfe1a330b8d" d="M 0 2.5 
C 0.663008 2.5 1.29895 2.236584 1.767767 1.767767 
C 2.236584 1.29895 2.5 0.663008 2.5 0 
C 2.5 -0.663008 2.236584 -1.29895 1.767767 -1.767767 
C 1.29895 -2.236584 0.663008 -2.5 0 -2.5 
C -0.663008 -2.5 -1.29895 -2.236584 -1.767767 -1.767767 
C -2.236584 -1.29895 -2.5 -0.663008 -2.5 0 
C -2.5 0.663008 -2.236584 1.29895 -1.767767 1.767767 
C -1.29895 2.236584 -0.663008 2.5 0 2.5 
z
" style="stroke: #0072b2"/>
    </defs>
    <g clip-path="url(#p26dc4b63b1)">
     <use xlink:href="#mfe1a330b8d" x="68.640522" y="141.024949" style="fill: #0072b2; stroke: #0072b2"/>
    </g>
   </g>
   <g id="line2d_58">
    <path d="M 179.022892 254.405184 
L 188.143735 253.644243 
L 219.431798 252.883301 
L 232.946698 252.12236 
L 244.416106 251.361419 
L 249.046089 250.600478 
L 259.896144 249.839537 
L 274.15731 249.078596 
L 277.132633 248.317654 
L 280.991996 247.556713 
L 290.699098 246.795772 
L 294.084245 246.034831 
L 295.679231 245.27389 
L 295.813455 244.512949 
L 296.35637 243.752007 
L 299.035119 242.991066 
L 299.869789 242.230125 
L 303.781703 241.469184 
L 304.07266 240.708243 
L 307.053143 239.947301 
L 309.281317 239.18636 
L 310.20204 238.425419 
L 311.403275 237.664478 
L 313.039048 236.142596 
L 315.793664 235.381654 
L 321.766245 234.620713 
L 323.319323 233.098831 
L 324.816051 232.33789 
L 325.594625 231.576949 
L 325.990578 230.816007 
L 326.250484 230.055066 
L 328.430979 228.533184 
L 329.070282 227.772243 
L 330.063733 227.011301 
L 331.396187 226.25036 
L 331.714224 225.489419 
L 332.594783 224.728478 
L 335.471873 223.967537 
L 337.621829 223.206596 
L 340.198089 222.445654 
L 340.776755 221.684713 
L 341.592209 220.923772 
L 341.739728 220.162831 
L 342.767945 218.640949 
L 344.481356 217.880007 
L 345.543758 217.119066 
L 346.40778 216.358125 
L 348.649067 215.597184 
L 348.654613 214.836243 
L 349.641223 214.075301 
L 349.932777 213.31436 
L 350.692715 212.553419 
L 352.009349 211.792478 
L 352.131525 211.031537 
L 352.72344 210.270596 
L 352.813609 208.748713 
L 354.067161 207.987772 
L 354.617659 207.226831 
L 354.679947 206.46589 
L 355.798483 205.704949 
L 356.041397 204.944007 
L 356.118307 204.183066 
L 357.266875 202.661184 
L 358.246402 201.900243 
L 359.849481 201.139301 
L 360.677889 200.37836 
L 361.466654 198.095537 
L 361.880434 196.573654 
L 363.232218 195.812713 
L 363.694292 195.051772 
L 363.733316 194.290831 
L 364.807304 193.52989 
L 365.685387 192.008007 
L 365.757436 191.247066 
L 367.732733 190.486125 
L 367.739767 189.725184 
L 368.160468 188.964243 
L 369.195399 188.203301 
L 369.985239 187.44236 
L 370.231731 185.920478 
L 370.718201 185.159537 
L 372.783093 184.398596 
L 374.110456 183.637654 
L 374.809532 182.876713 
L 374.950774 181.354831 
L 375.253952 180.59389 
L 375.857126 179.832949 
L 376.140683 179.072007 
L 376.227253 177.550125 
L 376.806575 175.267301 
L 377.671392 172.984478 
L 377.687407 172.223537 
L 377.904085 171.462596 
L 378.588574 170.701654 
L 378.807453 169.179772 
L 379.837932 167.65789 
L 380.066191 166.896949 
L 380.174059 165.375066 
L 380.8937 163.853184 
L 381.220334 163.092243 
L 382.500602 161.57036 
L 382.6905 160.809419 
L 382.775173 159.287537 
L 383.225278 158.526596 
L 383.714205 157.004713 
L 383.808738 156.243772 
L 384.665276 155.482831 
L 384.871137 154.72189 
L 384.93209 153.960949 
L 385.414979 153.200007 
L 385.597207 152.439066 
L 385.76459 150.156243 
L 386.474719 149.395301 
L 386.995876 148.63436 
L 387.281084 147.112478 
L 387.673236 146.351537 
L 387.730528 144.829654 
L 388.655261 144.068713 
L 388.797749 143.307772 
L 388.836876 141.78589 
L 389.137258 141.024949 
L 389.650592 140.264007 
L 389.90652 138.742125 
L 390.4628 137.220243 
L 391.196599 136.459301 
L 391.379932 135.69836 
L 392.223514 134.937419 
L 392.334014 133.415537 
L 392.544415 132.654596 
L 392.604017 131.893654 
L 393.054267 131.132713 
L 393.294082 130.371772 
L 393.426805 128.84989 
L 393.689826 128.088949 
L 393.73559 127.328007 
L 394.023058 126.567066 
L 394.100292 125.806125 
L 394.476341 124.284243 
L 394.681508 122.001419 
L 395.000664 121.240478 
L 395.369194 118.957654 
L 395.671545 118.196713 
L 395.824432 117.435772 
L 396.159308 116.674831 
L 396.314988 115.152949 
L 396.492215 113.631066 
L 396.91599 111.348243 
L 397.228185 110.587301 
L 397.664503 109.82636 
L 397.717194 109.065419 
L 398.234475 108.304478 
L 398.418532 107.543537 
L 398.454697 106.782596 
L 399.461214 106.021654 
L 399.661138 105.260713 
L 399.746113 103.738831 
L 400.204718 102.97789 
L 400.294102 102.216949 
L 400.836132 101.456007 
L 401.052248 99.934125 
L 401.31186 98.412243 
L 402.290554 96.89036 
L 402.337173 96.129419 
L 402.729261 94.607537 
L 403.145355 93.846596 
L 403.339236 92.324713 
L 403.37344 91.563772 
L 403.749685 90.802831 
L 403.994075 90.04189 
L 404.108658 88.520007 
L 404.58135 87.759066 
L 404.584016 86.998125 
L 404.807998 86.237184 
L 405.000214 83.95436 
L 405.208305 83.193419 
L 405.36809 81.671537 
L 405.667373 80.149654 
L 406.480646 78.627772 
L 406.548102 77.866831 
L 406.861916 77.10589 
L 407.418257 76.344949 
L 407.649196 74.062125 
L 408.106848 73.301184 
L 408.444833 70.257419 
L 408.597774 69.496478 
L 408.784361 67.213654 
L 409.31006 64.930831 
L 410.427801 58.843301 
L 410.990136 56.560478 
L 411.002846 55.799537 
L 411.304256 55.038596 
L 411.837462 51.994831 
L 411.953906 50.472949 
L 412.108656 49.712007 
L 412.724651 48.951066 
L 413.303411 46.668243 
L 413.561105 44.385419 
L 413.738521 43.624478 
L 413.742593 42.863537 
L 413.90788 42.102596 
L 414.216965 41.341654 
L 414.415337 39.819772 
L 414.625099 38.29789 
L 415.078148 37.536949 
L 415.630157 33.732243 
L 415.752256 32.21036 
L 416.33624 31.449419 
L 416.47577 30.688478 
L 416.501463 29.166596 
L 416.786183 27.644713 
L 416.81315 26.883772 
L 416.81315 26.883772 
" clip-path="url(#p26dc4b63b1)" style="fill: none; stroke-dasharray: 6.66,2.88; stroke-dashoffset: 0; stroke: #e69f00; stroke-width: 1.8"/>
   </g>
   <g id="line2d_59">
    <path d="M 389.394745 141.024949 
" clip-path="url(#p26dc4b63b1)" style="fill: none; stroke: #e69f00; stroke-width: 1.5; stroke-linecap: square"/>
    <defs>
     <path id="m181152cc68" d="M 0 2.5 
C 0.663008 2.5 1.29895 2.236584 1.767767 1.767767 
C 2.236584 1.29895 2.5 0.663008 2.5 0 
C 2.5 -0.663008 2.236584 -1.29895 1.767767 -1.767767 
C 1.29895 -2.236584 0.663008 -2.5 0 -2.5 
C -0.663008 -2.5 -1.29895 -2.236584 -1.767767 -1.767767 
C -2.236584 -1.29895 -2.5 -0.663008 -2.5 0 
C -2.5 0.663008 -2.236584 1.29895 -1.767767 1.767767 
C -1.29895 2.236584 -0.663008 2.5 0 2.5 
z
" style="stroke: #e69f00"/>
    </defs>
    <g clip-path="url(#p26dc4b63b1)">
     <use xlink:href="#m181152cc68" x="389.394745" y="141.024949" style="fill: #e69f00; stroke: #e69f00"/>
    </g>
   </g>
   <g id="line2d_60">
    <path d="M 416.769137 255.166125 
L 416.769137 22.318125 
" clip-path="url(#p26dc4b63b1)" style="fill: none; stroke-dasharray: 0.9,1.8; stroke-dashoffset: 0; stroke: #7a8290; stroke-width: 0.9"/>
   </g>
   <g id="patch_3">
    <path d="M 46.694297 255.166125 
L 46.694297 22.318125 
" style="fill: none; stroke: #7a8290; stroke-width: 0.8; stroke-linejoin: miter; stroke-linecap: square"/>
   </g>
   <g id="patch_4">
    <path d="M 46.694297 255.166125 
L 437.294297 255.166125 
" style="fill: none; stroke: #7a8290; stroke-width: 0.8; stroke-linejoin: miter; stroke-linecap: square"/>
   </g>
   <g id="text_13">
    <!-- median 0.5 ms -->
    <g style="fill: #0072b2" transform="translate(76.640522 155.024949) scale(0.09 -0.09)">
     <defs>
      <path id="DejaVuSans-18" d="M 691 4666 
L 3169 4666 
L 3169 4134 
L 1269 4134 
L 1269 2991 
Q 1406 3038 1543 3061 
Q 1681 3084 1819 3084 
Q 2600 3084 3056 2656 
Q 3513 2228 3513 1497 
Q 3513 744 3044 326 
Q 2575 -91 1722 -91 
Q 1428 -91 1123 -41 
Q 819 9 494 109 
L 494 744 
Q 775 591 1075 516 
Q 1375 441 1709 441 
Q 2250 441 2565 725 
Q 2881 1009 2881 1497 
Q 2881 1984 2565 2268 
Q 2250 2553 1709 2553 
Q 1456 2553 1204 2497 
Q 953 2441 691 2322 
L 691 4666 
z
" transform="scale(0.015625)"/>
     </defs>
     <use xlink:href="#DejaVuSans-50"/>
     <use xlink:href="#DejaVuSans-48" transform="translate(97.40625 0)"/>
     <use xlink:href="#DejaVuSans-47" transform="translate(158.9375 0)"/>
     <use xlink:href="#DejaVuSans-4c" transform="translate(222.421875 0)"/>
     <use xlink:href="#DejaVuSans-44" transform="translate(250.203125 0)"/>
     <use xlink:href="#DejaVuSans-51" transform="translate(311.484375 0)"/>
     <use xlink:href="#DejaVuSans-3" transform="translate(374.859375 0)"/>
     <use xlink:href="#DejaVuSans-13" transform="translate(406.640625 0)"/>
     <use xlink:href="#DejaVuSans-11" transform="translate(470.265625 0)"/>
     <use xlink:href="#DejaVuSans-18" transform="translate(502.046875 0)"/>
     <use xlink:href="#DejaVuSans-3" transform="translate(565.671875 0)"/>
     <use xlink:href="#DejaVuSans-50" transform="translate(597.453125 0)"/>
     <use xlink:href="#DejaVuSans-56" transform="translate(694.859375 0)"/>
    </g>
   </g>
   <g id="text_14">
    <!-- median 1.5 s -->
    <g style="fill: #e69f00" transform="translate(320.935526 155.024949) scale(0.09 -0.09)">
     <use xlink:href="#DejaVuSans-50"/>
     <use xlink:href="#DejaVuSans-48" transform="translate(97.40625 0)"/>
     <use xlink:href="#DejaVuSans-47" transform="translate(158.9375 0)"/>
     <use xlink:href="#DejaVuSans-4c" transform="translate(222.421875 0)"/>
     <use xlink:href="#DejaVuSans-44" transform="translate(250.203125 0)"/>
     <use xlink:href="#DejaVuSans-51" transform="translate(311.484375 0)"/>
     <use xlink:href="#DejaVuSans-3" transform="translate(374.859375 0)"/>
     <use xlink:href="#DejaVuSans-14" transform="translate(406.640625 0)"/>
     <use xlink:href="#DejaVuSans-11" transform="translate(470.265625 0)"/>
     <use xlink:href="#DejaVuSans-18" transform="translate(502.046875 0)"/>
     <use xlink:href="#DejaVuSans-3" transform="translate(565.671875 0)"/>
     <use xlink:href="#DejaVuSans-56" transform="translate(597.453125 0)"/>
    </g>
   </g>
   <g id="text_15">
    <!-- poll interval (3 s) -->
    <g style="fill: #7a8290" transform="translate(420.257427 241.469184) rotate(-90) scale(0.09 -0.09)">
     <use xlink:href="#DejaVuSans-53"/>
     <use xlink:href="#DejaVuSans-52" transform="translate(63.484375 0)"/>
     <use xlink:href="#DejaVuSans-4f" transform="translate(124.671875 0)"/>
     <use xlink:href="#DejaVuSans-4f" transform="translate(152.453125 0)"/>
     <use xlink:href="#DejaVuSans-3" transform="translate(180.234375 0)"/>
     <use xlink:href="#DejaVuSans-4c" transform="translate(212.015625 0)"/>
     <use xlink:href="#DejaVuSans-51" transform="translate(239.796875 0)"/>
     <use xlink:href="#DejaVuSans-57" transform="translate(303.171875 0)"/>
     <use xlink:href="#DejaVuSans-48" transform="translate(342.375 0)"/>
     <use xlink:href="#DejaVuSans-55" transform="translate(403.90625 0)"/>
     <use xlink:href="#DejaVuSans-59" transform="translate(445.015625 0)"/>
     <use xlink:href="#DejaVuSans-44" transform="translate(504.203125 0)"/>
     <use xlink:href="#DejaVuSans-4f" transform="translate(565.484375 0)"/>
     <use xlink:href="#DejaVuSans-3" transform="translate(593.265625 0)"/>
     <use xlink:href="#DejaVuSans-b" transform="translate(625.046875 0)"/>
     <use xlink:href="#DejaVuSans-16" transform="translate(664.0625 0)"/>
     <use xlink:href="#DejaVuSans-3" transform="translate(727.6875 0)"/>
     <use xlink:href="#DejaVuSans-56" transform="translate(759.46875 0)"/>
     <use xlink:href="#DejaVuSans-c" transform="translate(811.5625 0)"/>
    </g>
   </g>
   <g id="text_16">
    <!-- How long until the client sees an event: poll vs. push -->
    <g style="fill: #7a8290" transform="translate(83.105859 16.318125) scale(0.12 -0.12)">
     <defs>
      <path id="DejaVuSans-2b" d="M 628 4666 
L 1259 4666 
L 1259 2753 
L 3553 2753 
L 3553 4666 
L 4184 4666 
L 4184 0 
L 3553 0 
L 3553 2222 
L 1259 2222 
L 1259 0 
L 628 0 
L 628 4666 
z
" transform="scale(0.015625)"/>
      <path id="DejaVuSans-5a" d="M 269 3500 
L 844 3500 
L 1563 769 
L 2278 3500 
L 2956 3500 
L 3675 769 
L 4391 3500 
L 4966 3500 
L 4050 0 
L 3372 0 
L 2619 2869 
L 1863 0 
L 1184 0 
L 269 3500 
z
" transform="scale(0.015625)"/>
      <path id="DejaVuSans-4b" d="M 3513 2113 
L 3513 0 
L 2938 0 
L 2938 2094 
Q 2938 2591 2744 2837 
Q 2550 3084 2163 3084 
Q 1697 3084 1428 2787 
Q 1159 2491 1159 1978 
L 1159 0 
L 581 0 
L 581 4863 
L 1159 4863 
L 1159 2956 
Q 1366 3272 1645 3428 
Q 1925 3584 2291 3584 
Q 2894 3584 3203 3211 
Q 3513 2838 3513 2113 
z
" transform="scale(0.015625)"/>
      <path id="DejaVuSans-1d" d="M 750 794 
L 1409 794 
L 1409 0 
L 750 0 
L 750 794 
z
M 750 3309 
L 1409 3309 
L 1409 2516 
L 750 2516 
L 750 3309 
z
" transform="scale(0.015625)"/>
     </defs>
     <use xlink:href="#DejaVuSans-2b"/>
     <use xlink:href="#DejaVuSans-52" transform="translate(75.203125 0)"/>
     <use xlink:href="#DejaVuSans-5a" transform="translate(136.390625 0)"/>
     <use xlink:href="#DejaVuSans-3" transform="translate(218.171875 0)"/>
     <use xlink:href="#DejaVuSans-4f" transform="translate(249.953125 0)"/>
     <use xlink:href="#DejaVuSans-52" transform="translate(277.734375 0)"/>
     <use xlink:href="#DejaVuSans-51" transform="translate(338.921875 0)"/>
     <use xlink:href="#DejaVuSans-4a" transform="translate(402.296875 0)"/>
     <use xlink:href="#DejaVuSans-3" transform="translate(465.78125 0)"/>
     <use xlink:href="#DejaVuSans-58" transform="translate(497.5625 0)"/>
     <use xlink:href="#DejaVuSans-51" transform="translate(560.9375 0)"/>
     <use xlink:href="#DejaVuSans-57" transform="translate(624.3125 0)"/>
     <use xlink:href="#DejaVuSans-4c" transform="translate(663.515625 0)"/>
     <use xlink:href="#DejaVuSans-4f" transform="translate(691.296875 0)"/>
     <use xlink:href="#DejaVuSans-3" transform="translate(719.078125 0)"/>
     <use xlink:href="#DejaVuSans-57" transform="translate(750.859375 0)"/>
     <use xlink:href="#DejaVuSans-4b" transform="translate(790.0625 0)"/>
     <use xlink:href="#DejaVuSans-48" transform="translate(853.4375 0)"/>
     <use xlink:href="#DejaVuSans-3" transform="translate(914.96875 0)"/>
     <use xlink:href="#DejaVuSans-46" transform="translate(946.75 0)"/>
     <use xlink:href="#DejaVuSans-4f" transform="translate(1001.734375 0)"/>
     <use xlink:href="#DejaVuSans-4c" transform="translate(1029.515625 0)"/>
     <use xlink:href="#DejaVuSans-48" transform="translate(1057.296875 0)"/>
     <use xlink:href="#DejaVuSans-51" transform="translate(1118.828125 0)"/>
     <use xlink:href="#DejaVuSans-57" transform="translate(1182.203125 0)"/>
     <use xlink:href="#DejaVuSans-3" transform="translate(1221.40625 0)"/>
     <use xlink:href="#DejaVuSans-56" transform="translate(1253.1875 0)"/>
     <use xlink:href="#DejaVuSans-48" transform="translate(1305.28125 0)"/>
     <use xlink:href="#DejaVuSans-48" transform="translate(1366.8125 0)"/>
     <use xlink:href="#DejaVuSans-56" transform="translate(1428.34375 0)"/>
     <use xlink:href="#DejaVuSans-3" transform="translate(1480.4375 0)"/>
     <use xlink:href="#DejaVuSans-44" transform="translate(1512.21875 0)"/>
     <use xlink:href="#DejaVuSans-51" transform="translate(1573.5 0)"/>
     <use xlink:href="#DejaVuSans-3" transform="translate(1636.875 0)"/>
     <use xlink:href="#DejaVuSans-48" transform="translate(1668.65625 0)"/>
     <use xlink:href="#DejaVuSans-59" transform="translate(1730.1875 0)"/>
     <use xlink:href="#DejaVuSans-48" transform="translate(1789.375 0)"/>
     <use xlink:href="#DejaVuSans-51" transform="translate(1850.90625 0)"/>
     <use xlink:href="#DejaVuSans-57" transform="translate(1914.28125 0)"/>
     <use xlink:href="#DejaVuSans-1d" transform="translate(1953.484375 0)"/>
     <use xlink:href="#DejaVuSans-3" transform="translate(1987.171875 0)"/>
     <use xlink:href="#DejaVuSans-53" transform="translate(2018.953125 0)"/>
     <use xlink:href="#DejaVuSans-52" transform="translate(2082.4375 0)"/>
     <use xlink:href="#DejaVuSans-4f" transform="translate(2143.625 0)"/>
     <use xlink:href="#DejaVuSans-4f" transform="translate(2171.40625 0)"/>
     <use xlink:href="#DejaVuSans-3" transform="translate(2199.1875 0)"/>
     <use xlink:href="#DejaVuSans-59" transform="translate(2230.96875 0)"/>
     <use xlink:href="#DejaVuSans-56" transform="translate(2290.15625 0)"/>
     <use xlink:href="#DejaVuSans-11" transform="translate(2342.25 0)"/>
     <use xlink:href="#DejaVuSans-3" transform="translate(2374.03125 0)"/>
     <use xlink:href="#DejaVuSans-53" transform="translate(2405.8125 0)"/>
     <use xlink:href="#DejaVuSans-58" transform="translate(2469.296875 0)"/>
     <use xlink:href="#DejaVuSans-56" transform="translate(2532.671875 0)"/>
     <use xlink:href="#DejaVuSans-4b" transform="translate(2584.765625 0)"/>
    </g>
   </g>
   <g id="legend_1">
    <g id="line2d_61">
     <path d="M 56.594297 36.726406 
L 67.594297 36.726406 
L 78.594297 36.726406 
" style="fill: none; stroke: #0072b2; stroke-width: 1.8; stroke-linecap: square"/>
    </g>
    <g id="text_17">
     <!-- WebSocket push (n=300) -->
     <g style="fill: #7a8290" transform="translate(87.394297 40.576406) scale(0.11 -0.11)">
      <defs>
       <path id="DejaVuSans-3a" d="M 213 4666 
L 850 4666 
L 1831 722 
L 2809 4666 
L 3519 4666 
L 4500 722 
L 5478 4666 
L 6119 4666 
L 4947 0 
L 4153 0 
L 3169 4050 
L 2175 0 
L 1381 0 
L 213 4666 
z
" transform="scale(0.015625)"/>
       <path id="DejaVuSans-36" d="M 3425 4513 
L 3425 3897 
Q 3066 4069 2747 4153 
Q 2428 4238 2131 4238 
Q 1616 4238 1336 4038 
Q 1056 3838 1056 3469 
Q 1056 3159 1242 3001 
Q 1428 2844 1947 2747 
L 2328 2669 
Q 3034 2534 3370 2195 
Q 3706 1856 3706 1288 
Q 3706 609 3251 259 
Q 2797 -91 1919 -91 
Q 1588 -91 1214 -16 
Q 841 59 441 206 
L 441 856 
Q 825 641 1194 531 
Q 1563 422 1919 422 
Q 2459 422 2753 634 
Q 3047 847 3047 1241 
Q 3047 1584 2836 1778 
Q 2625 1972 2144 2069 
L 1759 2144 
Q 1053 2284 737 2584 
Q 422 2884 422 3419 
Q 422 4038 858 4394 
Q 1294 4750 2059 4750 
Q 2388 4750 2728 4690 
Q 3069 4631 3425 4513 
z
" transform="scale(0.015625)"/>
       <path id="DejaVuSans-20" d="M 678 2906 
L 4684 2906 
L 4684 2381 
L 678 2381 
L 678 2906 
z
M 678 1631 
L 4684 1631 
L 4684 1100 
L 678 1100 
L 678 1631 
z
" transform="scale(0.015625)"/>
      </defs>
      <use xlink:href="#DejaVuSans-3a"/>
      <use xlink:href="#DejaVuSans-48" transform="translate(93.015625 0)"/>
      <use xlink:href="#DejaVuSans-45" transform="translate(154.546875 0)"/>
      <use xlink:href="#DejaVuSans-36" transform="translate(218.03125 0)"/>
      <use xlink:href="#DejaVuSans-52" transform="translate(281.515625 0)"/>
      <use xlink:href="#DejaVuSans-46" transform="translate(342.703125 0)"/>
      <use xlink:href="#DejaVuSans-4e" transform="translate(397.6875 0)"/>
      <use xlink:href="#DejaVuSans-48" transform="translate(452.03125 0)"/>
      <use xlink:href="#DejaVuSans-57" transform="translate(513.5625 0)"/>
      <use xlink:href="#DejaVuSans-3" transform="translate(552.765625 0)"/>
      <use xlink:href="#DejaVuSans-53" transform="translate(584.546875 0)"/>
      <use xlink:href="#DejaVuSans-58" transform="translate(648.03125 0)"/>
      <use xlink:href="#DejaVuSans-56" transform="translate(711.40625 0)"/>
      <use xlink:href="#DejaVuSans-4b" transform="translate(763.5 0)"/>
      <use xlink:href="#DejaVuSans-3" transform="translate(826.875 0)"/>
      <use xlink:href="#DejaVuSans-b" transform="translate(858.65625 0)"/>
      <use xlink:href="#DejaVuSans-51" transform="translate(897.671875 0)"/>
      <use xlink:href="#DejaVuSans-20" transform="translate(961.046875 0)"/>
      <use xlink:href="#DejaVuSans-16" transform="translate(1044.84375 0)"/>
      <use xlink:href="#DejaVuSans-13" transform="translate(1108.46875 0)"/>
      <use xlink:href="#DejaVuSans-13" transform="translate(1172.09375 0)"/>
      <use xlink:href="#DejaVuSans-c" transform="translate(1235.71875 0)"/>
     </g>
    </g>
    <g id="line2d_62">
     <path d="M 56.594297 53.227266 
L 67.594297 53.227266 
L 78.594297 53.227266 
" style="fill: none; stroke-dasharray: 6.66,2.88; stroke-dashoffset: 0; stroke: #e69f00; stroke-width: 1.8"/>
    </g>
    <g id="text_18">
     <!-- HTTP polling, 3 s interval -->
     <g style="fill: #7a8290" transform="translate(87.394297 57.077266) scale(0.11 -0.11)">
      <defs>
       <path id="DejaVuSans-37" d="M -19 4666 
L 3928 4666 
L 3928 4134 
L 2272 4134 
L 2272 0 
L 1638 0 
L 1638 4134 
L -19 4134 
L -19 4666 
z
" transform="scale(0.015625)"/>
       <path id="DejaVuSans-33" d="M 1259 4147 
L 1259 2394 
L 2053 2394 
Q 2494 2394 2734 2622 
Q 2975 2850 2975 3272 
Q 2975 3691 2734 3919 
Q 2494 4147 2053 4147 
L 1259 4147 
z
M 628 4666 
L 2053 4666 
Q 2838 4666 3239 4311 
Q 3641 3956 3641 3272 
Q 3641 2581 3239 2228 
Q 2838 1875 2053 1875 
L 1259 1875 
L 1259 0 
L 628 0 
L 628 4666 
z
" transform="scale(0.015625)"/>
      </defs>
      <use xlink:href="#DejaVuSans-2b"/>
      <use xlink:href="#DejaVuSans-37" transform="translate(75.203125 0)"/>
      <use xlink:href="#DejaVuSans-37" transform="translate(134.53125 0)"/>
      <use xlink:href="#DejaVuSans-33" transform="translate(195.609375 0)"/>
      <use xlink:href="#DejaVuSans-3" transform="translate(255.90625 0)"/>
      <use xlink:href="#DejaVuSans-53" transform="translate(287.6875 0)"/>
      <use xlink:href="#DejaVuSans-52" transform="translate(351.171875 0)"/>
      <use xlink:href="#DejaVuSans-4f" transform="translate(412.359375 0)"/>
      <use xlink:href="#DejaVuSans-4f" transform="translate(440.140625 0)"/>
      <use xlink:href="#DejaVuSans-4c" transform="translate(467.921875 0)"/>
      <use xlink:href="#DejaVuSans-51" transform="translate(495.703125 0)"/>
      <use xlink:href="#DejaVuSans-4a" transform="translate(559.078125 0)"/>
      <use xlink:href="#DejaVuSans-f" transform="translate(622.5625 0)"/>
      <use xlink:href="#DejaVuSans-3" transform="translate(654.34375 0)"/>
      <use xlink:href="#DejaVuSans-16" transform="translate(686.125 0)"/>
      <use xlink:href="#DejaVuSans-3" transform="translate(749.75 0)"/>
      <use xlink:href="#DejaVuSans-56" transform="translate(781.53125 0)"/>
      <use xlink:href="#DejaVuSans-3" transform="translate(833.625 0)"/>
      <use xlink:href="#DejaVuSans-4c" transform="translate(865.40625 0)"/>
      <use xlink:href="#DejaVuSans-51" transform="translate(893.1875 0)"/>
      <use xlink:href="#DejaVuSans-57" transform="translate(956.5625 0)"/>
      <use xlink:href="#DejaVuSans-48" transform="translate(995.765625 0)"/>
      <use xlink:href="#DejaVuSans-55" transform="translate(1057.296875 0)"/>
      <use xlink:href="#DejaVuSans-59" transform="translate(1098.40625 0)"/>
      <use xlink:href="#DejaVuSans-44" transform="translate(1157.59375 0)"/>
      <use xlink:href="#DejaVuSans-4f" transform="translate(1218.875 0)"/>
     </g>
    </g>
   </g>
  </g>
 </g>
 <defs>
  <clipPath id="p26dc4b63b1">
   <rect x="46.694297" y="22.318125" width="390.6" height="232.848"/>
  </clipPath>
 </defs>
</svg>
