<?xml version="1.0" encoding="UTF-8" standalone="no"?>
<!DOCTYPE svg PUBLIC "-//W3C//DTD SVG 1.1//EN"
 "http://www.w3.org/Graphics/SVG/1.1/DTD/svg11.dtd">
<!-- Generated by graphviz version 2.43.0 (0)
 -->
<!-- Title: replaygate Pages: 1 -->
<svg width="485pt" height="893pt"
 viewBox="0.00 0.00 485.40 893.40" xmlns="http://www.w3.org/2000/svg" xmlns:xlink="http://www.w3.org/1999/xlink">
<g id="graph0" class="graph" transform="scale(1 1) rotate(0) translate(25.2 868.2)">
<title>replaygate</title>
<polygon fill="#0e121b" stroke="transparent" points="-25.2,25.2 -25.2,-868.2 460.2,-868.2 460.2,25.2 -25.2,25.2"/>
<text text-anchor="start" x="109" y="-828" font-family="Helvetica,Arial,sans-serif" font-weight="bold" font-size="15.00" fill="#e6e8eb">ReplayGate — the full product</text>
<text text-anchor="start" x="85" y="-816.2" font-family="Helvetica,Arial,sans-serif" font-size="11.00" fill="#9aa3b2">solid = shipped in v0 (record half)  ·  dashed = roadmap</text>
<text text-anchor="start" x="215" y="-802" font-family="Helvetica,Arial,sans-serif" font-size="15.00" fill="#e6e8eb"> </text>
<g id="clust1" class="cluster">
<title>cluster_record</title>
<path fill="#0e121b" stroke="#243042" d="M20,-413C20,-413 415,-413 415,-413 421,-413 427,-419 427,-425 427,-425 427,-774 427,-774 427,-780 421,-786 415,-786 415,-786 20,-786 20,-786 14,-786 8,-780 8,-774 8,-774 8,-425 8,-425 8,-419 14,-413 20,-413"/>
<text text-anchor="start" x="16" y="-774.2" font-family="Helvetica,Arial,sans-serif" font-weight="bold" font-size="11.00" fill="#34d399">RECORD · shipped</text>
</g>
<g id="clust2" class="cluster">
<title>cluster_replay</title>
<path fill="#0e121b" stroke="#2a3142" stroke-dasharray="5,2" d="M48,-8C48,-8 291,-8 291,-8 297,-8 303,-14 303,-20 303,-20 303,-375 303,-375 303,-381 297,-387 291,-387 291,-387 48,-387 48,-387 42,-387 36,-381 36,-375 36,-375 36,-20 36,-20 36,-14 42,-8 48,-8"/>
<text text-anchor="start" x="44" y="-375.2" font-family="Helvetica,Arial,sans-serif" font-weight="bold" font-size="11.00" fill="#8794aa">REPLAY → DIFF → ASSERT → GATE · roadmap</text>
</g>
<!-- agent -->
<g id="node1" class="node">
<title>agent</title>
<path fill="#1b2230" stroke="#34d399" stroke-width="1.5" d="M263.5,-750C263.5,-750 168.5,-750 168.5,-750 162.5,-750 156.5,-744 156.5,-738 156.5,-738 156.5,-720 156.5,-720 156.5,-714 162.5,-708 168.5,-708 168.5,-708 263.5,-708 263.5,-708 269.5,-708 275.5,-714 275.5,-720 275.5,-720 275.5,-738 275.5,-738 275.5,-744 269.5,-750 263.5,-750"/>
<text text-anchor="middle" x="216" y="-732.2" font-family="Helvetica,Arial,sans-serif" font-size="11.00" fill="#e7f6ef">AI agent</text>
<text text-anchor="middle" x="216" y="-720.2" font-family="Helvetica,Arial,sans-serif" font-size="11.00" fill="#e7f6ef">(booking assistant)</text>
</g>
<!-- chan -->
<g id="node2" class="node">
<title>chan</title>
<path fill="#1b2230" stroke="#34d399" stroke-width="1.5" d="M311.5,-654C311.5,-654 120.5,-654 120.5,-654 114.5,-654 108.5,-648 108.5,-642 108.5,-642 108.5,-624 108.5,-624 108.5,-618 114.5,-612 120.5,-612 120.5,-612 311.5,-612 311.5,-612 317.5,-612 323.5,-618 323.5,-624 323.5,-624 323.5,-642 323.5,-642 323.5,-648 317.5,-654 311.5,-654"/>
<text text-anchor="middle" x="216" y="-636.2" font-family="Helvetica,Arial,sans-serif" font-size="11.00" fill="#e7f6ef">Channel adapter</text>
<text text-anchor="middle" x="216" y="-624.2" font-family="Helvetica,Arial,sans-serif" font-size="11.00" fill="#e7f6ef">direct (shipped) · WhatsApp (roadmap)</text>
</g>
<!-- agent&#45;&gt;chan -->
<g id="edge1" class="edge">
<title>agent&#45;&gt;chan</title>
<path fill="none" stroke="#8b93a7" stroke-width="1.3" d="M216,-707.6C216,-694.33 216,-676.84 216,-662.24"/>
<polygon fill="#8b93a7" stroke="#8b93a7" stroke-width="1.3" points="218.8,-662.03 216,-654.03 213.2,-662.03 218.8,-662.03"/>
<text text-anchor="middle" x="231.5" y="-678.8" font-family="Helvetica,Arial,sans-serif" font-size="9.00" fill="#9aa3b2">runs on</text>
</g>
<!-- rec -->
<g id="node3" class="node">
<title>rec</title>
<path fill="#1b2230" stroke="#34d399" stroke-width="1.5" d="M201.5,-567C201.5,-567 56.5,-567 56.5,-567 50.5,-567 44.5,-561 44.5,-555 44.5,-555 44.5,-537 44.5,-537 44.5,-531 50.5,-525 56.5,-525 56.5,-525 201.5,-525 201.5,-525 207.5,-525 213.5,-531 213.5,-537 213.5,-537 213.5,-555 213.5,-555 213.5,-561 207.5,-567 201.5,-567"/>
<text text-anchor="middle" x="129" y="-549.2" font-family="Helvetica,Arial,sans-serif" font-size="11.00" fill="#e7f6ef">RecordingLLMClient</text>
<text text-anchor="middle" x="129" y="-537.2" font-family="Helvetica,Arial,sans-serif" font-size="11.00" fill="#e7f6ef">wraps the LLMClient protocol</text>
</g>
<!-- chan&#45;&gt;rec -->
<g id="edge2" class="edge">
<title>chan&#45;&gt;rec</title>
<path fill="none" stroke="#8b93a7" stroke-width="1.3" d="M195.38,-611.86C183.55,-600.3 168.56,-585.65 155.82,-573.2"/>
<polygon fill="#8b93a7" stroke="#8b93a7" stroke-width="1.3" points="157.45,-570.88 149.77,-567.29 153.54,-574.89 157.45,-570.88"/>
</g>
<!-- tools -->
<g id="node4" class="node">
<title>tools</title>
<path fill="#1b2230" stroke="#34d399" stroke-width="1.5" d="M360,-567C360,-567 250,-567 250,-567 244,-567 238,-561 238,-555 238,-555 238,-537 238,-537 238,-531 244,-525 250,-525 250,-525 360,-525 360,-525 366,-525 372,-531 372,-537 372,-537 372,-555 372,-555 372,-561 366,-567 360,-567"/>
<text text-anchor="middle" x="305" y="-549.2" font-family="Helvetica,Arial,sans-serif" font-size="11.00" fill="#e7f6ef">ToolRecorder</text>
<text text-anchor="middle" x="305" y="-537.2" font-family="Helvetica,Arial,sans-serif" font-size="11.00" fill="#e7f6ef">wraps the tool registry</text>
</g>
<!-- chan&#45;&gt;tools -->
<g id="edge3" class="edge">
<title>chan&#45;&gt;tools</title>
<path fill="none" stroke="#8b93a7" stroke-width="1.3" d="M237.09,-611.86C249.31,-600.19 264.81,-585.39 277.92,-572.87"/>
<polygon fill="#8b93a7" stroke="#8b93a7" stroke-width="1.3" points="279.9,-574.84 283.75,-567.29 276.03,-570.79 279.9,-574.84"/>
</g>
<!-- fix -->
<g id="node5" class="node">
<title>fix</title>
<polygon fill="#16203a" stroke="#3a4a63" stroke-width="1.5" points="233.5,-471 230.5,-475 209.5,-475 206.5,-471 24.5,-471 24.5,-429 233.5,-429 233.5,-471"/>
<text text-anchor="middle" x="129" y="-453.2" font-family="Helvetica,Arial,sans-serif" font-size="11.00" fill="#e7f6ef">Fixture directory</text>
<text text-anchor="middle" x="129" y="-441.2" font-family="Helvetica,Arial,sans-serif" font-size="11.00" fill="#e7f6ef">conversation · llm · tool · spans · meta</text>
</g>
<!-- rec&#45;&gt;fix -->
<g id="edge4" class="edge">
<title>rec&#45;&gt;fix</title>
<path fill="none" stroke="#8b93a7" stroke-width="1.3" d="M129,-524.6C129,-511.33 129,-493.84 129,-479.24"/>
<polygon fill="#8b93a7" stroke="#8b93a7" stroke-width="1.3" points="131.8,-479.03 129,-471.03 126.2,-479.03 131.8,-479.03"/>
<text text-anchor="middle" x="142.5" y="-495.8" font-family="Helvetica,Arial,sans-serif" font-size="9.00" fill="#9aa3b2">record</text>
</g>
<!-- store -->
<g id="node6" class="node">
<title>store</title>
<path fill="#1b2230" stroke="#34d399" stroke-width="1.5" d="M398.5,-471C398.5,-471 269.5,-471 269.5,-471 263.5,-471 257.5,-465 257.5,-459 257.5,-459 257.5,-441 257.5,-441 257.5,-435 263.5,-429 269.5,-429 269.5,-429 398.5,-429 398.5,-429 404.5,-429 410.5,-435 410.5,-441 410.5,-441 410.5,-459 410.5,-459 410.5,-465 404.5,-471 398.5,-471"/>
<text text-anchor="middle" x="334" y="-453.2" font-family="Helvetica,Arial,sans-serif" font-size="11.00" fill="#e7f6ef">DuckDB span store</text>
<text text-anchor="middle" x="334" y="-441.2" font-family="Helvetica,Arial,sans-serif" font-size="11.00" fill="#e7f6ef">OTel gen_ai.* conventions</text>
</g>
<!-- rec&#45;&gt;store -->
<g id="edge6" class="edge">
<title>rec&#45;&gt;store</title>
<path fill="none" stroke="#5b6472" stroke-width="1.3" stroke-dasharray="5,2" d="M147.9,-524.81C158.97,-514.02 173.74,-501.3 189,-493 200.27,-486.87 224.11,-479.29 249.27,-472.26"/>
<polygon fill="#5b6472" stroke="#5b6472" stroke-width="1.3" points="250.14,-474.93 257.11,-470.1 248.66,-469.53 250.14,-474.93"/>
<text text-anchor="middle" x="228.5" y="-495.8" font-family="Helvetica,Arial,sans-serif" font-size="9.00" fill="#9aa3b2">spans (wiring: next)</text>
</g>
<!-- tools&#45;&gt;fix -->
<g id="edge5" class="edge">
<title>tools&#45;&gt;fix</title>
<path fill="none" stroke="#8b93a7" stroke-width="1.3" d="M297.37,-524.91C292.28,-514.02 284.56,-501.16 274,-493 264.22,-485.44 253.11,-479.25 241.51,-474.16"/>
<polygon fill="#8b93a7" stroke="#8b93a7" stroke-width="1.3" points="242.29,-471.46 233.83,-470.98 240.15,-476.63 242.29,-471.46"/>
<text text-anchor="middle" x="296.5" y="-495.8" font-family="Helvetica,Arial,sans-serif" font-size="9.00" fill="#9aa3b2">record</text>
</g>
<!-- replay -->
<g id="node7" class="node">
<title>replay</title>
<path fill="#141a24" stroke="#64748b" stroke-width="1.5" stroke-dasharray="5,2" d="M236,-351C236,-351 68,-351 68,-351 62,-351 56,-345 56,-339 56,-339 56,-309 56,-309 56,-303 62,-297 68,-297 68,-297 236,-297 236,-297 242,-297 248,-303 248,-309 248,-309 248,-339 248,-339 248,-345 242,-351 236,-351"/>
<text text-anchor="middle" x="152" y="-333.2" font-family="Helvetica,Arial,sans-serif" font-size="11.00" fill="#aab2c0">Replayer</text>
<text text-anchor="middle" x="152" y="-321.2" font-family="Helvetica,Arial,sans-serif" font-size="11.00" fill="#aab2c0">LLM in replay mode, tools mocked</text>
<text text-anchor="middle" x="152" y="-309.2" font-family="Helvetica,Arial,sans-serif" font-size="11.00" fill="#aab2c0">run vs new model / prompt</text>
</g>
<!-- fix&#45;&gt;replay -->
<g id="edge7" class="edge">
<title>fix&#45;&gt;replay</title>
<path fill="none" stroke="#5b6472" stroke-width="1.3" stroke-dasharray="5,2" d="M132.75,-428.8C136.24,-409.98 141.52,-381.53 145.66,-359.17"/>
<polygon fill="#5b6472" stroke="#5b6472" stroke-width="1.3" points="148.43,-359.61 147.13,-351.24 142.92,-358.59 148.43,-359.61"/>
<text text-anchor="middle" x="159" y="-397.8" font-family="Helvetica,Arial,sans-serif" font-size="9.00" fill="#9aa3b2">feed back</text>
</g>
<!-- diff -->
<g id="node8" class="node">
<title>diff</title>
<path fill="#141a24" stroke="#64748b" stroke-width="1.5" stroke-dasharray="5,2" d="M250.5,-252C250.5,-252 131.5,-252 131.5,-252 125.5,-252 119.5,-246 119.5,-240 119.5,-240 119.5,-222 119.5,-222 119.5,-216 125.5,-210 131.5,-210 131.5,-210 250.5,-210 250.5,-210 256.5,-210 262.5,-216 262.5,-222 262.5,-222 262.5,-240 262.5,-240 262.5,-246 256.5,-252 250.5,-252"/>
<text text-anchor="middle" x="191" y="-234.2" font-family="Helvetica,Arial,sans-serif" font-size="11.00" fill="#aab2c0">ConversationDiff</text>
<text text-anchor="middle" x="191" y="-222.2" font-family="Helvetica,Arial,sans-serif" font-size="11.00" fill="#aab2c0">baseline vs current path</text>
</g>
<!-- store&#45;&gt;diff -->
<g id="edge11" class="edge">
<title>store&#45;&gt;diff</title>
<path fill="none" stroke="#5b6472" stroke-width="1.3" stroke-dasharray="5,2" d="M326.87,-428.78C315.57,-398.38 291.56,-339.91 260,-297 249.36,-282.53 235.25,-268.58 222.56,-257.35"/>
<polygon fill="#5b6472" stroke="#5b6472" stroke-width="1.3" points="224.35,-255.19 216.47,-252.05 220.68,-259.41 224.35,-255.19"/>
<text text-anchor="middle" x="321.5" y="-321.8" font-family="Helvetica,Arial,sans-serif" font-size="9.00" fill="#9aa3b2">timing</text>
</g>
<!-- replay&#45;&gt;diff -->
<g id="edge8" class="edge">
<title>replay&#45;&gt;diff</title>
<path fill="none" stroke="#5b6472" stroke-width="1.3" stroke-dasharray="5,2" d="M163.28,-296.68C168.26,-285.05 174.12,-271.38 179.17,-259.61"/>
<polygon fill="#5b6472" stroke="#5b6472" stroke-width="1.3" points="181.77,-260.65 182.35,-252.19 176.62,-258.44 181.77,-260.65"/>
</g>
<!-- inv -->
<g id="node9" class="node">
<title>inv</title>
<path fill="#141a24" stroke="#64748b" stroke-width="1.5" stroke-dasharray="5,2" d="M262.5,-165C262.5,-165 119.5,-165 119.5,-165 113.5,-165 107.5,-159 107.5,-153 107.5,-153 107.5,-123 107.5,-123 107.5,-117 113.5,-111 119.5,-111 119.5,-111 262.5,-111 262.5,-111 268.5,-111 274.5,-117 274.5,-123 274.5,-123 274.5,-153 274.5,-153 274.5,-159 268.5,-165 262.5,-165"/>
<text text-anchor="middle" x="191" y="-147.2" font-family="Helvetica,Arial,sans-serif" font-size="11.00" fill="#aab2c0">Cross&#45;turn invariants</text>
<text text-anchor="middle" x="191" y="-135.2" font-family="Helvetica,Arial,sans-serif" font-size="11.00" fill="#aab2c0">user_confirmed_before(...)</text>
<text text-anchor="middle" x="191" y="-123.2" font-family="Helvetica,Arial,sans-serif" font-size="11.00" fill="#aab2c0">&quot;never books before confirm&quot;</text>
</g>
<!-- diff&#45;&gt;inv -->
<g id="edge9" class="edge">
<title>diff&#45;&gt;inv</title>
<path fill="none" stroke="#5b6472" stroke-width="1.3" stroke-dasharray="5,2" d="M191,-209.8C191,-199.08 191,-185.61 191,-173.31"/>
<polygon fill="#5b6472" stroke="#5b6472" stroke-width="1.3" points="193.8,-173.02 191,-165.02 188.2,-173.02 193.8,-173.02"/>
</g>
<!-- gate -->
<g id="node10" class="node">
<title>gate</title>
<path fill="#141a24" stroke="#64748b" stroke-width="1.5" stroke-dasharray="5,2" d="M242,-66C242,-66 140,-66 140,-66 134,-66 128,-60 128,-54 128,-54 128,-36 128,-36 128,-30 134,-24 140,-24 140,-24 242,-24 242,-24 248,-24 254,-30 254,-36 254,-36 254,-54 254,-54 254,-60 248,-66 242,-66"/>
<text text-anchor="middle" x="191" y="-48.2" font-family="Helvetica,Arial,sans-serif" font-size="11.00" fill="#aab2c0">replaygate regress</text>
<text text-anchor="middle" x="191" y="-36.2" font-family="Helvetica,Arial,sans-serif" font-size="11.00" fill="#aab2c0">CI gate — pass / fail</text>
</g>
<!-- inv&#45;&gt;gate -->
<g id="edge10" class="edge">
<title>inv&#45;&gt;gate</title>
<path fill="none" stroke="#5b6472" stroke-width="1.3" stroke-dasharray="5,2" d="M191,-110.68C191,-99.27 191,-85.9 191,-74.29"/>
<polygon fill="#5b6472" stroke="#5b6472" stroke-width="1.3" points="193.8,-74.19 191,-66.19 188.2,-74.19 193.8,-74.19"/>
</g>
</g>
</svg>
