<?xml version="1.0" encoding="UTF-8" standalone="no"?>
<!DOCTYPE svg PUBLIC "-//W3C//DTD SVG 1.1//EN"
 "http://www.w3.org/Graphics/SVG/1.1/DTD/svg11.dtd">
<!-- Generated by graphviz version 2.43.0 (0)
 -->
<!-- Title: replaygate Pages: 1 -->
<svg width="638pt" height="776pt"
 viewBox="0.00 0.00 638.40 776.40" xmlns="http://www.w3.org/2000/svg" xmlns:xlink="http://www.w3.org/1999/xlink">
<g id="graph0" class="graph" transform="scale(1 1) rotate(0) translate(25.2 751.2)">
<title>replaygate</title>
<polygon fill="#0e121b" stroke="transparent" points="-25.2,25.2 -25.2,-751.2 613.2,-751.2 613.2,25.2 -25.2,25.2"/>
<text text-anchor="start" x="159.5" y="-711" font-family="Helvetica,Arial,sans-serif" font-weight="bold" font-size="15.00" fill="#e6e8eb">ReplayGate — what the harness does</text>
<text text-anchor="start" x="38.5" y="-700" font-family="Helvetica,Arial,sans-serif" font-size="10.00" fill="#9aa3b2">green = ReplayGate, shipped in v0  ·  dashed grey = ReplayGate, roadmap  ·  amber = the agent under test (external)</text>
<text text-anchor="start" x="291.5" y="-686" font-family="Helvetica,Arial,sans-serif" font-size="15.00" fill="#e6e8eb"> </text>
<g id="clust1" class="cluster">
<title>cluster_rg</title>
<path fill="#0e121b" stroke="#3a4660" stroke-width="1.5" d="M20,-8C20,-8 525,-8 525,-8 531,-8 537,-14 537,-20 537,-20 537,-576 537,-576 537,-582 531,-588 525,-588 525,-588 20,-588 20,-588 14,-588 8,-582 8,-576 8,-576 8,-20 8,-20 8,-14 14,-8 20,-8"/>
<text text-anchor="start" x="16" y="-575.4" font-family="Helvetica,Arial,sans-serif" font-weight="bold" font-size="12.00" fill="#c9cace">ReplayGate · the harness</text>
</g>
<!-- agent -->
<g id="node1" class="node">
<title>agent</title>
<path fill="#231c10" stroke="#d8a657" stroke-width="1.7" stroke-dasharray="5,2" d="M406.5,-678C406.5,-678 167.5,-678 167.5,-678 161.5,-678 155.5,-672 155.5,-666 155.5,-666 155.5,-636 155.5,-636 155.5,-630 161.5,-624 167.5,-624 167.5,-624 406.5,-624 406.5,-624 412.5,-624 418.5,-630 418.5,-636 418.5,-636 418.5,-666 418.5,-666 418.5,-672 412.5,-678 406.5,-678"/>
<text text-anchor="middle" x="287" y="-660.2" font-family="Helvetica,Arial,sans-serif" font-size="11.00" fill="#f4e8cf">Agent under test</text>
<text text-anchor="middle" x="287" y="-648.2" font-family="Helvetica,Arial,sans-serif" font-size="11.00" fill="#f4e8cf">your LLM agent — not part of ReplayGate</text>
<text text-anchor="middle" x="287" y="-636.2" font-family="Helvetica,Arial,sans-serif" font-size="11.00" fill="#f4e8cf">(ships a BookingAgent example to demo against)</text>
</g>
<!-- rec -->
<g id="node4" class="node">
<title>rec</title>
<path fill="#1b2230" stroke="#34d399" stroke-width="1.5" d="M179.5,-549C179.5,-549 38.5,-549 38.5,-549 32.5,-549 26.5,-543 26.5,-537 26.5,-537 26.5,-519 26.5,-519 26.5,-513 32.5,-507 38.5,-507 38.5,-507 179.5,-507 179.5,-507 185.5,-507 191.5,-513 191.5,-519 191.5,-519 191.5,-537 191.5,-537 191.5,-543 185.5,-549 179.5,-549"/>
<text text-anchor="middle" x="109" y="-531.2" font-family="Helvetica,Arial,sans-serif" font-size="11.00" fill="#e7f6ef">RecordingLLMClient</text>
<text text-anchor="middle" x="109" y="-519.2" font-family="Helvetica,Arial,sans-serif" font-size="11.00" fill="#e7f6ef">wraps the agent&#39;s LLM client</text>
</g>
<!-- agent&#45;&gt;rec -->
<g id="edge3" class="edge">
<title>agent&#45;&gt;rec</title>
<path fill="none" stroke="#d8a657" stroke-width="1.3" d="M248.38,-623.74C217.8,-602.96 175.4,-574.14 145.41,-553.75"/>
<polygon fill="#d8a657" stroke="#d8a657" stroke-width="1.3" points="146.64,-551.2 138.45,-549.02 143.5,-555.84 146.64,-551.2"/>
<text text-anchor="middle" x="239" y="-598.8" font-family="Helvetica,Arial,sans-serif" font-size="9.00" fill="#caa86a">LLM calls</text>
</g>
<!-- tools -->
<g id="node5" class="node">
<title>tools</title>
<path fill="#1b2230" stroke="#34d399" stroke-width="1.5" d="M344.5,-549C344.5,-549 229.5,-549 229.5,-549 223.5,-549 217.5,-543 217.5,-537 217.5,-537 217.5,-519 217.5,-519 217.5,-513 223.5,-507 229.5,-507 229.5,-507 344.5,-507 344.5,-507 350.5,-507 356.5,-513 356.5,-519 356.5,-519 356.5,-537 356.5,-537 356.5,-543 350.5,-549 344.5,-549"/>
<text text-anchor="middle" x="287" y="-531.2" font-family="Helvetica,Arial,sans-serif" font-size="11.00" fill="#e7f6ef">ToolRecorder</text>
<text text-anchor="middle" x="287" y="-519.2" font-family="Helvetica,Arial,sans-serif" font-size="11.00" fill="#e7f6ef">wraps the agent&#39;s tools</text>
</g>
<!-- agent&#45;&gt;tools -->
<g id="edge4" class="edge">
<title>agent&#45;&gt;tools</title>
<path fill="none" stroke="#d8a657" stroke-width="1.3" d="M287,-623.74C287,-604.16 287,-577.44 287,-557.37"/>
<polygon fill="#d8a657" stroke="#d8a657" stroke-width="1.3" points="289.8,-557.21 287,-549.21 284.2,-557.21 289.8,-557.21"/>
<text text-anchor="middle" x="305.5" y="-598.8" font-family="Helvetica,Arial,sans-serif" font-size="9.00" fill="#caa86a">tool calls</text>
</g>
<!-- cli -->
<g id="node2" class="node">
<title>cli</title>
<path fill="#16241c" stroke="#34d399" stroke-width="1.5" d="M507,-546C507,-546 395,-546 395,-546 389,-546 383,-540 383,-534 383,-534 383,-522 383,-522 383,-516 389,-510 395,-510 395,-510 507,-510 507,-510 513,-510 519,-516 519,-522 519,-522 519,-534 519,-534 519,-540 513,-546 507,-546"/>
<text text-anchor="middle" x="451" y="-525.2" font-family="Helvetica,Arial,sans-serif" font-size="11.00" fill="#e7f6ef">CLI: replaygate record</text>
</g>
<!-- adapter -->
<g id="node3" class="node">
<title>adapter</title>
<path fill="#1b2230" stroke="#34d399" stroke-width="1.5" d="M506.5,-461C506.5,-461 315.5,-461 315.5,-461 309.5,-461 303.5,-455 303.5,-449 303.5,-449 303.5,-419 303.5,-419 303.5,-413 309.5,-407 315.5,-407 315.5,-407 506.5,-407 506.5,-407 512.5,-407 518.5,-413 518.5,-419 518.5,-419 518.5,-449 518.5,-449 518.5,-455 512.5,-461 506.5,-461"/>
<text text-anchor="middle" x="411" y="-443.2" font-family="Helvetica,Arial,sans-serif" font-size="11.00" fill="#e7f6ef">Channel adapter</text>
<text text-anchor="middle" x="411" y="-431.2" font-family="Helvetica,Arial,sans-serif" font-size="11.00" fill="#e7f6ef">feeds user turns in (per channel)</text>
<text text-anchor="middle" x="411" y="-419.2" font-family="Helvetica,Arial,sans-serif" font-size="11.00" fill="#e7f6ef">direct (shipped) · WhatsApp (roadmap)</text>
</g>
<!-- cli&#45;&gt;adapter -->
<g id="edge1" class="edge">
<title>cli&#45;&gt;adapter</title>
<path fill="none" stroke="#8b93a7" stroke-width="1.3" d="M443.48,-509.7C438.47,-498.19 431.74,-482.69 425.7,-468.8"/>
<polygon fill="#8b93a7" stroke="#8b93a7" stroke-width="1.3" points="428.18,-467.5 422.43,-461.28 423.05,-469.73 428.18,-467.5"/>
<text text-anchor="middle" x="449" y="-481.8" font-family="Helvetica,Arial,sans-serif" font-size="9.00" fill="#9aa3b2">invokes</text>
</g>
<!-- adapter&#45;&gt;agent -->
<g id="edge2" class="edge">
<title>adapter&#45;&gt;agent</title>
<path fill="none" stroke="#8b93a7" stroke-width="1.3" d="M481.39,-461.01C501.31,-472.01 520.64,-487.03 532,-507 549.79,-538.29 554.11,-559.59 532,-588 517.77,-606.28 473.57,-620.03 426.57,-629.88"/>
<polygon fill="#8b93a7" stroke="#8b93a7" stroke-width="1.3" points="425.97,-627.14 418.69,-631.49 427.09,-632.63 425.97,-627.14"/>
<text text-anchor="middle" x="567.5" y="-525.8" font-family="Helvetica,Arial,sans-serif" font-size="9.00" fill="#9aa3b2">user turns</text>
</g>
<!-- fix -->
<g id="node6" class="node">
<title>fix</title>
<polygon fill="#16203a" stroke="#3a4a63" stroke-width="1.5" points="277.5,-455 274.5,-459 253.5,-459 250.5,-455 68.5,-455 68.5,-413 277.5,-413 277.5,-455"/>
<text text-anchor="middle" x="173" y="-437.2" font-family="Helvetica,Arial,sans-serif" font-size="11.00" fill="#e7f6ef">Fixture directory</text>
<text text-anchor="middle" x="173" y="-425.2" font-family="Helvetica,Arial,sans-serif" font-size="11.00" fill="#e7f6ef">conversation · llm · tool · spans · meta</text>
</g>
<!-- rec&#45;&gt;fix -->
<g id="edge5" class="edge">
<title>rec&#45;&gt;fix</title>
<path fill="none" stroke="#8b93a7" stroke-width="1.3" d="M124.29,-506.62C128.47,-500.95 132.95,-494.77 137,-489 143.13,-480.26 149.64,-470.6 155.43,-461.9"/>
<polygon fill="#8b93a7" stroke="#8b93a7" stroke-width="1.3" points="157.81,-463.37 159.89,-455.15 153.14,-460.28 157.81,-463.37"/>
<text text-anchor="middle" x="157.5" y="-481.8" font-family="Helvetica,Arial,sans-serif" font-size="9.00" fill="#9aa3b2">record</text>
</g>
<!-- store -->
<g id="node7" class="node">
<title>store</title>
<path fill="#1b2230" stroke="#34d399" stroke-width="1.5" d="M167.5,-389C167.5,-389 38.5,-389 38.5,-389 32.5,-389 26.5,-383 26.5,-377 26.5,-377 26.5,-359 26.5,-359 26.5,-353 32.5,-347 38.5,-347 38.5,-347 167.5,-347 167.5,-347 173.5,-347 179.5,-353 179.5,-359 179.5,-359 179.5,-377 179.5,-377 179.5,-383 173.5,-389 167.5,-389"/>
<text text-anchor="middle" x="103" y="-371.2" font-family="Helvetica,Arial,sans-serif" font-size="11.00" fill="#e7f6ef">DuckDB span store</text>
<text text-anchor="middle" x="103" y="-359.2" font-family="Helvetica,Arial,sans-serif" font-size="11.00" fill="#e7f6ef">OTel gen_ai.* conventions</text>
</g>
<!-- rec&#45;&gt;store -->
<g id="edge7" class="edge">
<title>rec&#45;&gt;store</title>
<path fill="none" stroke="#5b6472" stroke-width="1.3" stroke-dasharray="5,2" d="M67.82,-506.93C61.46,-501.98 55.76,-496.03 52,-489 43.5,-473.12 -2.08,-518.97 55,-407 57.28,-402.53 60.35,-398.41 63.85,-394.67"/>
<polygon fill="#5b6472" stroke="#5b6472" stroke-width="1.3" points="65.81,-396.67 69.64,-389.11 61.93,-392.63 65.81,-396.67"/>
<text text-anchor="middle" x="91.5" y="-481.8" font-family="Helvetica,Arial,sans-serif" font-size="9.00" fill="#9aa3b2">spans (wiring: next)</text>
</g>
<!-- tools&#45;&gt;fix -->
<g id="edge6" class="edge">
<title>tools&#45;&gt;fix</title>
<path fill="none" stroke="#8b93a7" stroke-width="1.3" d="M261.98,-506.81C245.05,-493.15 222.56,-475 204.43,-460.36"/>
<polygon fill="#8b93a7" stroke="#8b93a7" stroke-width="1.3" points="205.94,-457.99 197.96,-455.14 202.43,-462.35 205.94,-457.99"/>
<text text-anchor="middle" x="249.5" y="-481.8" font-family="Helvetica,Arial,sans-serif" font-size="9.00" fill="#9aa3b2">record</text>
</g>
<!-- replay -->
<g id="node8" class="node">
<title>replay</title>
<path fill="#141a24" stroke="#64748b" stroke-width="1.5" stroke-dasharray="5,2" d="M308,-329C308,-329 162,-329 162,-329 156,-329 150,-323 150,-317 150,-317 150,-287 150,-287 150,-281 156,-275 162,-275 162,-275 308,-275 308,-275 314,-275 320,-281 320,-287 320,-287 320,-317 320,-317 320,-323 314,-329 308,-329"/>
<text text-anchor="middle" x="235" y="-311.2" font-family="Helvetica,Arial,sans-serif" font-size="11.00" fill="#aab2c0">Replayer</text>
<text text-anchor="middle" x="235" y="-299.2" font-family="Helvetica,Arial,sans-serif" font-size="11.00" fill="#aab2c0">replay vs new model / prompt</text>
<text text-anchor="middle" x="235" y="-287.2" font-family="Helvetica,Arial,sans-serif" font-size="11.00" fill="#aab2c0">tools mocked</text>
</g>
<!-- fix&#45;&gt;replay -->
<g id="edge8" class="edge">
<title>fix&#45;&gt;replay</title>
<path fill="none" stroke="#5b6472" stroke-width="1.3" stroke-dasharray="5,2" d="M182.55,-412.97C192.28,-392.58 207.53,-360.59 219.09,-336.36"/>
<polygon fill="#5b6472" stroke="#5b6472" stroke-width="1.3" points="221.63,-337.54 222.55,-329.11 216.57,-335.13 221.63,-337.54"/>
<text text-anchor="middle" x="233" y="-365.8" font-family="Helvetica,Arial,sans-serif" font-size="9.00" fill="#9aa3b2">feed back</text>
</g>
<!-- diff -->
<g id="node9" class="node">
<title>diff</title>
<path fill="#141a24" stroke="#64748b" stroke-width="1.5" stroke-dasharray="5,2" d="M175.5,-238C175.5,-238 56.5,-238 56.5,-238 50.5,-238 44.5,-232 44.5,-226 44.5,-226 44.5,-208 44.5,-208 44.5,-202 50.5,-196 56.5,-196 56.5,-196 175.5,-196 175.5,-196 181.5,-196 187.5,-202 187.5,-208 187.5,-208 187.5,-226 187.5,-226 187.5,-232 181.5,-238 175.5,-238"/>
<text text-anchor="middle" x="116" y="-220.2" font-family="Helvetica,Arial,sans-serif" font-size="11.00" fill="#aab2c0">ConversationDiff</text>
<text text-anchor="middle" x="116" y="-208.2" font-family="Helvetica,Arial,sans-serif" font-size="11.00" fill="#aab2c0">baseline vs current path</text>
</g>
<!-- store&#45;&gt;diff -->
<g id="edge12" class="edge">
<title>store&#45;&gt;diff</title>
<path fill="none" stroke="#5b6472" stroke-width="1.3" stroke-dasharray="5,2" d="M104.75,-346.91C107.01,-321.02 110.95,-275.88 113.52,-246.47"/>
<polygon fill="#5b6472" stroke="#5b6472" stroke-width="1.3" points="116.33,-246.47 114.23,-238.25 110.75,-245.98 116.33,-246.47"/>
<text text-anchor="middle" x="124.5" y="-299.8" font-family="Helvetica,Arial,sans-serif" font-size="9.00" fill="#9aa3b2">timing</text>
</g>
<!-- replay&#45;&gt;diff -->
<g id="edge9" class="edge">
<title>replay&#45;&gt;diff</title>
<path fill="none" stroke="#5b6472" stroke-width="1.3" stroke-dasharray="5,2" d="M197.67,-274.97C183.03,-264.75 166.29,-253.08 151.8,-242.97"/>
<polygon fill="#5b6472" stroke="#5b6472" stroke-width="1.3" points="153.05,-240.43 144.89,-238.15 149.85,-245.02 153.05,-240.43"/>
</g>
<!-- inv -->
<g id="node10" class="node">
<title>inv</title>
<path fill="#141a24" stroke="#64748b" stroke-width="1.5" stroke-dasharray="5,2" d="M187.5,-159C187.5,-159 44.5,-159 44.5,-159 38.5,-159 32.5,-153 32.5,-147 32.5,-147 32.5,-117 32.5,-117 32.5,-111 38.5,-105 44.5,-105 44.5,-105 187.5,-105 187.5,-105 193.5,-105 199.5,-111 199.5,-117 199.5,-117 199.5,-147 199.5,-147 199.5,-153 193.5,-159 187.5,-159"/>
<text text-anchor="middle" x="116" y="-141.2" font-family="Helvetica,Arial,sans-serif" font-size="11.00" fill="#aab2c0">Cross&#45;turn invariants</text>
<text text-anchor="middle" x="116" y="-129.2" font-family="Helvetica,Arial,sans-serif" font-size="11.00" fill="#aab2c0">user_confirmed_before(...)</text>
<text text-anchor="middle" x="116" y="-117.2" font-family="Helvetica,Arial,sans-serif" font-size="11.00" fill="#aab2c0">&quot;never books before confirm&quot;</text>
</g>
<!-- diff&#45;&gt;inv -->
<g id="edge10" class="edge">
<title>diff&#45;&gt;inv</title>
<path fill="none" stroke="#5b6472" stroke-width="1.3" stroke-dasharray="5,2" d="M116,-195.91C116,-187.29 116,-176.97 116,-167.21"/>
<polygon fill="#5b6472" stroke="#5b6472" stroke-width="1.3" points="118.8,-167.19 116,-159.19 113.2,-167.19 118.8,-167.19"/>
</g>
<!-- gate -->
<g id="node11" class="node">
<title>gate</title>
<path fill="#141a24" stroke="#64748b" stroke-width="1.5" stroke-dasharray="5,2" d="M167,-68C167,-68 65,-68 65,-68 59,-68 53,-62 53,-56 53,-56 53,-38 53,-38 53,-32 59,-26 65,-26 65,-26 167,-26 167,-26 173,-26 179,-32 179,-38 179,-38 179,-56 179,-56 179,-62 173,-68 167,-68"/>
<text text-anchor="middle" x="116" y="-50.2" font-family="Helvetica,Arial,sans-serif" font-size="11.00" fill="#aab2c0">replaygate regress</text>
<text text-anchor="middle" x="116" y="-38.2" font-family="Helvetica,Arial,sans-serif" font-size="11.00" fill="#aab2c0">CI gate — pass / fail</text>
</g>
<!-- inv&#45;&gt;gate -->
<g id="edge11" class="edge">
<title>inv&#45;&gt;gate</title>
<path fill="none" stroke="#5b6472" stroke-width="1.3" stroke-dasharray="5,2" d="M116,-104.74C116,-95.65 116,-85.42 116,-76.19"/>
<polygon fill="#5b6472" stroke="#5b6472" stroke-width="1.3" points="118.8,-76.04 116,-68.04 113.2,-76.04 118.8,-76.04"/>
</g>
</g>
</svg>
